<svg width="19" height="19" viewBox="0 0 19 19" fill="none" xmlns="http://www.w3.org/2000/svg">
<path d="M11.1806 9.50004L18.6533 2.02727C18.8754 1.80378 19 1.50219 19 1.18794C19 0.87369 18.8754 0.572107 18.6533 0.348614C18.5433 0.238155 18.4125 0.150494 18.2683 0.0906514C18.124 0.0308084 17.9693 0 17.813 0C17.6567 0 17.502 0.0308084 17.3578 0.0906514C17.2135 0.150494 17.0826 0.238155 16.9727 0.348614L9.5 7.82138L2.02734 0.348614C1.91739 0.238155 1.78647 0.150494 1.64224 0.0906514C1.49801 0.0308084 1.3433 0 1.18702 0C1.03074 0 0.875967 0.0308084 0.731733 0.0906514C0.5875 0.150494 0.456656 0.238155 0.346707 0.348614C0.124583 0.572107 0 0.87369 0 1.18794C0 1.50219 0.124583 1.80378 0.346707 2.02727L7.81937 9.50004L0.346707 16.9727C0.124583 17.1962 0 17.4978 0 17.8121C0 18.1263 0.124583 18.4279 0.346707 18.6514C0.456656 18.7618 0.5875 18.8495 0.731733 18.9093C0.875967 18.9692 1.03074 19 1.18702 19C1.3433 19 1.49801 18.9692 1.64224 18.9093C1.78647 18.8495 1.91739 18.7618 2.02734 18.6514L9.5 11.1786L16.9727 18.6514C17.0826 18.7618 17.2135 18.8495 17.3578 18.9093C17.502 18.9692 17.6567 19 17.813 19C17.9693 19 18.124 18.9692 18.2683 18.9093C18.4125 18.8495 18.5433 18.7618 18.6533 18.6514C18.8754 18.4279 19 18.1263 19 17.8121C19 17.4978 18.8754 17.1962 18.6533 16.9727L11.1806 9.50004Z" fill="white"/>
</svg>
