<svg width="43" height="45" viewBox="0 0 43 45" fill="none" xmlns="http://www.w3.org/2000/svg">
<path d="M15.5968 31.1684C15.704 31.3346 15.7853 31.4677 15.8725 31.5962C17.6178 34.1734 19.3619 36.7507 21.1107 39.3256C21.8696 40.4439 22.0204 41.6365 21.5066 42.8821C20.6782 44.8867 18.1481 45.6361 16.3368 44.3952C15.8749 44.0782 15.4459 43.6575 15.1277 43.1968C13.1586 40.3461 11.2259 37.4707 9.28032 34.6036C9.16483 34.4339 9.04699 34.2665 8.97039 34.1569C8.21383 34.4127 7.50559 34.7544 6.75964 34.8876C3.3068 35.5063 0.682416 33.0551 0.133263 30.2964C-0.349898 27.8711 0.489152 25.9008 2.51371 24.469C3.66387 23.6559 4.85174 22.8946 6.00425 22.0838C6.25408 21.9082 6.49213 21.656 6.62647 21.385C8.88201 16.8421 11.1199 12.2922 13.3624 7.7422C13.9033 6.64625 14.8166 6.07706 15.9998 5.93565C17.4941 5.75771 18.8422 6.25147 20.1243 6.94322C22.5048 8.22772 24.4256 10.0555 26.1143 12.1354C28.516 15.0921 30.4003 18.3364 31.3867 22.0461C31.8439 23.7643 32.082 25.506 31.6118 27.269C31.1981 28.8198 29.9749 30.0442 28.1177 30.155C24.0556 30.3977 20.0018 30.7807 15.9444 31.1083C15.8454 31.1166 15.7476 31.1401 15.5979 31.1661L15.5968 31.1684ZM14.3311 10.845C14.304 10.8533 14.2769 10.8615 14.2498 10.8698C14.4737 11.9587 14.6116 13.0735 14.9368 14.1305C16.2838 18.5096 18.7514 22.1993 22.0582 25.334C23.3745 26.5819 24.831 27.6578 26.5928 28.2094C27.0418 28.3496 27.5568 28.4521 28.0081 28.3743C29.0027 28.2058 29.5695 27.4929 29.8429 26.5584C30.2047 25.3234 30.068 24.0813 29.804 22.8522C29.3173 20.5872 28.3098 18.5391 27.1054 16.5817C25.4851 13.9479 23.5736 11.5603 21.1001 9.66659C19.9747 8.80515 18.7774 8.07098 17.375 7.74573C15.856 7.39338 14.7601 8.09573 14.4643 9.62063C14.3865 10.0225 14.3735 10.4361 14.3311 10.845V10.845ZM12.7614 12.8413C11.2377 15.9512 9.71988 19.0411 8.2209 22.1404C8.16198 22.2629 8.23386 22.5022 8.32343 22.6342C9.80708 24.839 11.3096 27.0309 12.7862 29.2393C12.9794 29.528 13.1692 29.6058 13.4968 29.5787C16.47 29.3336 19.4432 29.1038 22.4176 28.8681C22.7982 28.8375 23.1777 28.7962 23.5442 28.7609C18.035 24.7353 14.4384 19.463 12.7614 12.8401V12.8413ZM6.88101 23.6252C6.77142 23.6912 6.68068 23.7395 6.59583 23.7973C5.49281 24.5503 4.37094 25.2786 3.29266 26.0646C1.64756 27.2654 1.2681 29.4986 2.36994 31.2544C3.55663 33.1458 5.71672 33.8612 7.53505 32.8359C8.87258 32.0829 10.1088 31.1519 11.4062 30.2893C9.88132 28.0432 8.38235 25.836 6.87984 23.624L6.88101 23.6252ZM10.3492 33.0987C10.7463 33.682 11.1163 34.2277 11.4864 34.7733C13.1998 37.2999 14.9121 39.8264 16.6279 42.3518C17.1429 43.1096 17.8935 43.4219 18.6678 43.218C19.9676 42.8762 20.4625 41.4715 19.6777 40.3084C17.7403 37.4377 15.7924 34.5729 13.8491 31.707C13.5616 31.2827 13.1692 31.1873 12.7485 31.4689C11.9554 31.9969 11.1717 32.5401 10.3492 33.1011V33.0987Z" fill="black"/>
<path d="M40.3276 7.40528C40.1132 7.70461 39.9977 8.00157 39.782 8.14652C37.7952 9.47816 35.7954 10.7886 33.7896 12.0919C33.3524 12.3759 32.8045 12.2487 32.5405 11.8515C32.2671 11.4414 32.3743 10.9241 32.828 10.6248C34.8114 9.31553 36.8017 8.01571 38.7886 6.71118C39.0985 6.50731 39.4438 6.44721 39.7372 6.66522C39.9623 6.83256 40.1026 7.11303 40.3288 7.40528H40.3276Z" fill="black"/>
<path d="M34.6099 16.2246C35.6634 16.412 36.6156 16.5793 37.5678 16.7502C38.9666 17.0012 40.3654 17.2581 41.7654 17.5032C42.3322 17.6022 42.6893 17.9876 42.6268 18.4719C42.5585 19.0022 42.0729 19.3345 41.4873 19.2308C39.8563 18.9409 38.2277 18.6439 36.5979 18.3493C35.9344 18.2291 35.2674 18.1278 34.6087 17.9876C33.8733 17.8308 33.5776 17.0696 34.056 16.5605C34.2127 16.3931 34.4614 16.3118 34.6111 16.2246H34.6099Z" fill="black"/>
<path d="M28.0396 7.32392C28.2152 5.58572 28.392 3.8487 28.5688 2.1105C28.6124 1.68744 28.6548 1.2632 28.7019 0.840136C28.7644 0.279199 29.158 -0.0531217 29.6824 0.00697881C30.1726 0.063544 30.4837 0.479534 30.4295 1.01808C30.2103 3.14988 29.99 5.28168 29.7661 7.4123C29.7083 7.96145 29.3418 8.28435 28.8327 8.25371C28.3566 8.22542 28.0232 7.83418 28.0396 7.32156V7.32392Z" fill="black"/>
<path d="M20.6192 14.4098C22.685 14.4074 24.4716 15.6554 25.1409 17.5716C25.8032 19.4641 25.1833 21.59 23.5865 22.8262C23.378 22.9877 23.1034 23.1102 22.8441 23.1503C22.4741 23.2057 22.1924 22.99 22.0463 22.6506C21.9014 22.3148 21.9485 21.986 22.2054 21.7126C22.3056 21.6065 22.4305 21.5252 22.5436 21.4321C23.7386 20.4505 23.9955 18.7429 23.1399 17.4678C22.2749 16.1798 20.5697 15.7721 19.2098 16.5298C19.1073 16.5864 19.0107 16.6547 18.9058 16.7054C18.4709 16.9175 17.9948 16.7844 17.7544 16.3872C17.5164 15.9948 17.6248 15.5046 18.0125 15.2182C18.6654 14.7362 19.7107 14.4122 20.6181 14.411L20.6192 14.4098Z" fill="black"/>
</svg>
