<svg width="20" height="20" viewBox="0 0 20 20" fill="none" xmlns="http://www.w3.org/2000/svg">
<path fill-rule="evenodd" clip-rule="evenodd" d="M9.99837 1.66527C5.396 1.66527 1.66504 5.39622 1.66504 9.9986C1.66504 14.6009 5.396 18.3319 9.99837 18.3319C14.6007 18.3319 18.3317 14.6009 18.3317 9.9986C18.3317 5.39622 14.6007 1.66527 9.99837 1.66527ZM8.82712 3.43448C9.20737 3.36709 9.59879 3.33193 9.99837 3.33193C11.6228 3.33193 13.1115 3.91293 14.2681 4.87846C13.3092 5.70898 12.2379 6.41277 11.08 6.96397C10.4125 5.7312 9.65887 4.552 8.82712 3.43448ZM7.14271 3.97278C5.39906 4.80057 4.0718 6.36288 3.5607 8.25992C5.56669 8.46193 7.6136 8.23754 9.52495 7.59356C8.8252 6.32204 8.02779 5.11175 7.14271 3.97278ZM3.33226 9.91193C3.33189 9.94076 3.33171 9.96968 3.33171 9.9986C3.33171 11.6047 3.89965 13.0781 4.84567 14.229C6.30797 12.2907 8.36187 10.8223 10.7395 10.093C10.5964 9.75593 10.4467 9.42227 10.2907 9.09227C8.06945 9.87985 5.67524 10.1571 3.33226 9.91193ZM6.06553 15.3822C7.16801 16.1889 8.52754 16.6653 9.99837 16.6653C10.8915 16.6653 11.7435 16.4897 12.5219 16.1711C12.2565 14.6162 11.8605 13.1058 11.3456 11.6515C9.1977 12.2813 7.34931 13.6128 6.06553 15.3822ZM14.0555 15.289C15.2569 14.3663 16.135 13.0437 16.4906 11.5202C15.349 11.2485 14.1595 11.1805 12.994 11.3164C13.4375 12.6022 13.7938 13.9288 14.0555 15.289ZM16.6635 9.85026C16.6329 8.45068 16.171 7.15743 15.4055 6.09808C14.3321 7.03495 13.1309 7.82949 11.8315 8.4521C12.0268 8.86818 12.2126 9.28968 12.3885 9.71635C13.8056 9.49976 15.2628 9.54451 16.6635 9.85026Z" fill="white"/>
</svg>
