<svg width="17" height="15" viewBox="0 0 17 15" fill="none" xmlns="http://www.w3.org/2000/svg">
<path d="M12.4492 15H4.21667C3.09985 14.9998 2.02871 14.5566 1.23822 13.7677C0.447727 12.9787 0.00242737 11.9085 0 10.7917L0 4.20833C0.00242737 3.09152 0.447727 2.02126 1.23822 1.23233C2.02871 0.443399 3.09985 0.000218034 4.21667 0L12.4492 0C13.5674 0.00213984 14.6396 0.445682 15.4325 1.23417C15.8248 1.62358 16.1359 2.08699 16.3477 2.59753C16.5596 3.10807 16.668 3.65558 16.6667 4.20833V10.7917C16.6642 11.9086 16.2188 12.979 15.4282 13.768C14.6375 14.5569 13.5661 15 12.4492 15ZM3.36167 4.37167C3.2787 4.37093 3.19646 4.3871 3.11995 4.41919C3.04344 4.45129 2.97428 4.49863 2.91667 4.55833C2.80799 4.66676 2.74216 4.81081 2.73129 4.96394C2.72041 5.11707 2.76524 5.26897 2.8575 5.39167L2.96667 5.5L6.75833 8.45833C7.22026 8.82568 7.79315 9.02546 8.38333 9.025C8.97525 9.02364 9.54966 8.82415 10.015 8.45833L13.775 5.45L13.8417 5.38333C13.9388 5.26569 13.9912 5.11741 13.9893 4.96483C13.9875 4.81226 13.9316 4.66528 13.8317 4.55C13.7163 4.42652 13.5599 4.34946 13.3917 4.33333H13.3567C13.1966 4.33224 13.0421 4.39179 12.9242 4.5L9.16667 7.5C8.93239 7.69415 8.6376 7.80027 8.33333 7.8C8.02939 7.79841 7.73521 7.69251 7.5 7.5L3.75 4.5C3.63779 4.41644 3.50157 4.37143 3.36167 4.37167Z" fill="#C9C9C9"/>
</svg>
