<svg width="20" height="20" viewBox="0 0 20 20" fill="none" xmlns="http://www.w3.org/2000/svg">
<path d="M15 2.5C16.3807 2.5 17.5 3.61929 17.5 5V15C17.5 16.3807 16.3807 17.5 15 17.5H5C3.61929 17.5 2.5 16.3807 2.5 15V5C2.5 3.61929 3.61929 2.5 5 2.5H15ZM15 4.16667H5C4.53977 4.16667 4.16667 4.53977 4.16667 5V15C4.16667 15.4602 4.53977 15.8333 5 15.8333H15C15.4602 15.8333 15.8333 15.4602 15.8333 15V5C15.8333 4.53977 15.4602 4.16667 15 4.16667ZM6.66667 8.33333C7.09403 8.33333 7.44626 8.65502 7.49439 9.06948L7.5 9.16667V13.3333C7.5 13.7936 7.1269 14.1667 6.66667 14.1667C6.23931 14.1667 5.88708 13.845 5.83894 13.4305L5.83333 13.3333V9.16667C5.83333 8.70642 6.20643 8.33333 6.66667 8.33333ZM9.16667 7.5C9.57608 7.5 9.9165 7.79522 9.98675 8.1844C10.1553 8.08696 10.3292 7.9991 10.5056 7.92364C11.0616 7.68579 11.8943 7.55495 12.6457 7.79124C13.0397 7.91508 13.436 8.14922 13.7298 8.54633C13.9921 8.90085 14.1333 9.33201 14.1614 9.81605L14.1667 10V13.3333C14.1667 13.7935 13.7936 14.1667 13.3333 14.1667C12.906 14.1667 12.5537 13.8449 12.5056 13.4305L12.5 13.3333V10C12.5 9.72558 12.4334 9.59642 12.39 9.53758C12.3452 9.47717 12.2728 9.42108 12.1459 9.38117C11.8557 9.28992 11.4384 9.33733 11.1611 9.456C10.7436 9.63457 10.3623 9.91427 10.1033 10.1736L10 10.2832V13.3333C10 13.7936 9.62692 14.1667 9.16667 14.1667C8.73929 14.1667 8.38708 13.845 8.33894 13.4305L8.33333 13.3333V8.33333C8.33333 7.8731 8.70642 7.5 9.16667 7.5ZM6.66667 5.83333C7.1269 5.83333 7.5 6.20643 7.5 6.66667C7.5 7.1269 7.1269 7.5 6.66667 7.5C6.20643 7.5 5.83333 7.1269 5.83333 6.66667C5.83333 6.20643 6.20643 5.83333 6.66667 5.83333Z" fill="white"/>
</svg>
