<svg width="16" height="15" viewBox="0 0 16 15" fill="none" xmlns="http://www.w3.org/2000/svg">
<path d="M9.40255 15C9.17643 15 8.95957 14.9102 8.79968 14.7503C8.63979 14.5904 8.54996 14.3735 8.54996 14.1474C8.54996 13.9213 8.63979 13.7044 8.79968 13.5445C8.95957 13.3847 9.17643 13.2948 9.40255 13.2948H14.159C14.3852 13.2948 14.602 13.3847 14.7619 13.5445C14.9218 13.7044 15.0116 13.9213 15.0116 14.1474C15.0116 14.3735 14.9218 14.5904 14.7619 14.7503C14.602 14.9102 14.3852 15 14.159 15H9.40255ZM0.712581 14.6468L0.0461723 11.7721C-0.014052 11.5132 -0.0153783 11.244 0.0422913 10.9845C0.0999609 10.725 0.215155 10.4817 0.379377 10.2727L5.57403 3.5611C5.61624 3.51023 5.67619 3.47728 5.74176 3.46893C5.80732 3.46058 5.87362 3.47745 5.92723 3.51612L8.11138 5.25378C8.18603 5.31467 8.27237 5.35962 8.36506 5.38584C8.45776 5.41206 8.55485 5.41899 8.65034 5.40622C8.85504 5.37956 9.04108 5.27355 9.16838 5.11104C9.29568 4.94853 9.35405 4.74252 9.33091 4.53739C9.30406 4.33449 9.20711 4.14737 9.05685 4.00842L6.936 2.30742C6.87145 2.25595 6.82969 2.18119 6.81972 2.09924C6.80975 2.01729 6.83236 1.9347 6.88269 1.86925L7.70404 0.803C7.89036 0.571475 8.1226 0.381039 8.38614 0.243688C8.64968 0.106337 8.9388 0.0250457 9.23531 0.00493458C9.53181 -0.0151766 9.82926 0.026328 10.1089 0.126834C10.3886 0.227341 10.6444 0.384671 10.8603 0.588916L12.089 1.5652C12.5688 1.92441 12.9068 2.44111 13.0436 3.02464C13.1092 3.32044 13.1067 3.62727 13.0363 3.92195C12.9658 4.21663 12.8293 4.49145 12.6371 4.72565L5.3183 14.1903C5.15712 14.3987 4.95105 14.5681 4.7154 14.686C4.47976 14.8038 4.22059 14.867 3.95716 14.8709L1.04162 14.9059C0.965418 14.9068 0.891191 14.8816 0.831314 14.8345C0.771438 14.7873 0.729531 14.7211 0.712581 14.6468Z" fill="#C9C9C9"/>
</svg>
