<svg width="13" height="12" viewBox="0 0 13 12" fill="none" xmlns="http://www.w3.org/2000/svg">
<path d="M10.0531 7.46468C9.97254 7.5429 9.91211 7.63949 9.87702 7.74618C9.84193 7.85287 9.83324 7.96648 9.85168 8.07726L10.4131 11.1844C10.4363 11.3134 10.4218 11.4463 10.3714 11.5672C10.321 11.6882 10.2368 11.7921 10.1289 11.8664C10.0231 11.9437 9.89752 11.9894 9.76677 11.9984C9.63602 12.0073 9.50542 11.9791 9.39003 11.917L6.59299 10.4581C6.49553 10.4065 6.38745 10.3782 6.27722 10.3754H6.10608C6.04634 10.3842 5.98861 10.4034 5.93556 10.4322L3.13789 11.898C2.99944 11.9677 2.84255 11.992 2.6895 11.9675C2.50969 11.9333 2.35032 11.8303 2.24534 11.6804C2.14036 11.5305 2.09805 11.3455 2.12744 11.1648L2.6895 8.05769C2.70788 7.94603 2.69917 7.83159 2.66411 7.724C2.62905 7.61641 2.56867 7.51882 2.48804 7.43942L0.207591 5.22906C0.114228 5.13866 0.0486379 5.02346 0.0185414 4.89703C-0.0115552 4.77061 -0.00490469 4.63821 0.0377098 4.51544C0.0791363 4.39276 0.153358 4.28376 0.252328 4.20027C0.351297 4.11677 0.471236 4.06196 0.59914 4.04179L3.73784 3.58646C3.85546 3.57437 3.96812 3.53278 4.06538 3.46555C4.16264 3.39832 4.24135 3.30762 4.29422 3.20186L5.67664 0.366287C5.70923 0.302985 5.75189 0.245397 5.80294 0.195774L5.85978 0.151567C5.88922 0.119108 5.92352 0.0914124 5.96146 0.0694683L6.03029 0.0442071L6.13765 0H6.40353C6.52035 0.0120075 6.63234 0.0529404 6.72937 0.119098C6.82641 0.185257 6.90542 0.274554 6.95927 0.378918L8.36064 3.20186C8.4105 3.30349 8.48421 3.39156 8.57549 3.45853C8.66676 3.5255 8.77289 3.56939 8.88481 3.58646L12.0235 4.04179C12.1535 4.06045 12.2759 4.1145 12.3773 4.19804C12.4786 4.28157 12.5551 4.39138 12.5982 4.51544C12.6387 4.63949 12.643 4.77252 12.6106 4.89893C12.5781 5.02534 12.5103 5.13986 12.4151 5.22906L10.0531 7.46468Z" fill="url(#paint0_linear_278_14)"/>
<defs>
<linearGradient id="paint0_linear_278_14" x1="6.31606" y1="0" x2="6.31606" y2="12" gradientUnits="userSpaceOnUse">
<stop stop-color="#D99718"/>
<stop offset="1" stop-color="#FAB021"/>
</linearGradient>
</defs>
</svg>
