<svg width="51" height="45" viewBox="0 0 51 45" fill="none" xmlns="http://www.w3.org/2000/svg">
<path d="M50.9887 4.7695V40.3202C50.9297 40.4467 50.8489 40.5673 50.8139 40.6999C50.1171 43.2933 47.9686 44.9896 45.2825 44.992C32.0879 45.0017 18.8934 45.0041 5.69894 44.9908C2.47265 44.9872 0.00952942 42.4927 0.00711815 39.2628C-0.0037326 28.0926 -0.00252696 16.9223 0.0131463 5.75331C0.0131463 5.15049 0.110803 4.52355 0.290443 3.94847C1.05 1.50825 3.20688 0.00241128 5.8834 0.00120564C18.9622 0 32.0409 0 45.1197 0C45.2861 0 45.4512 0.00241128 45.6176 0.013262C48.012 0.155527 50.0254 1.72647 50.7368 4.00151C50.8175 4.25831 50.9056 4.51391 50.9899 4.7695H50.9887ZM1.69139 13.4971C1.69139 13.6888 1.69139 13.8359 1.69139 13.983C1.69139 22.3296 1.69139 30.6763 1.69139 39.0229C1.69139 41.6476 3.35276 43.3077 5.97985 43.3077C18.9887 43.3077 31.9987 43.3077 45.0076 43.3077C47.6359 43.3077 49.2984 41.65 49.2984 39.0253C49.2996 30.6787 49.2984 22.332 49.2984 13.9854V13.4971H1.69139V13.4971ZM1.70827 11.7791H49.284C49.284 9.62581 49.3081 7.50269 49.2659 5.38076C49.2562 4.88645 49.0923 4.35838 48.8668 3.91109C48.0771 2.34497 46.7304 1.68548 45.0124 1.68669C33.9603 1.6891 22.907 1.68789 11.8549 1.68789C9.84633 1.68789 7.83894 1.67825 5.83035 1.6903C3.57581 1.70357 1.8216 3.21785 1.72756 5.38076C1.63594 7.49907 1.70707 9.62582 1.70707 11.7779L1.70827 11.7791Z" fill="black"/>
<path d="M3.54688 6.77326C3.54327 5.31444 4.73805 4.11121 6.19688 4.10519C7.63761 4.09916 8.86134 5.32047 8.86254 6.76603C8.86375 8.21038 7.64726 9.43411 6.20411 9.43772C4.75373 9.44134 3.5505 8.2345 3.54688 6.77326V6.77326ZM7.17103 6.76482C7.16742 6.24158 6.69722 5.78102 6.1812 5.79549C5.65193 5.80996 5.21308 6.27413 5.22995 6.80099C5.24563 7.30616 5.6893 7.7426 6.19205 7.74862C6.70807 7.75465 7.17344 7.28687 7.16983 6.76603L7.17103 6.76482Z" fill="black"/>
<path d="M11.7344 6.79269C11.7356 5.32181 12.9159 4.1427 14.3868 4.1427C15.8516 4.1427 17.0404 5.33267 17.0392 6.79752C17.0392 8.25995 15.842 9.45474 14.382 9.45354C12.9171 9.45113 11.7332 8.26237 11.7344 6.7939V6.79269ZM14.3904 5.82818C13.8539 5.82577 13.4199 6.26221 13.4211 6.80113C13.4235 7.34126 13.8635 7.77408 14.4025 7.76323C14.9185 7.75359 15.3429 7.3292 15.3501 6.81439C15.3585 6.27789 14.9245 5.8318 14.3892 5.82939L14.3904 5.82818Z" fill="black"/>
<path d="M25.2203 6.82879C25.2143 8.29726 24.0303 9.47517 22.5607 9.47155C21.0934 9.46793 19.9095 8.27917 19.9131 6.81312C19.9167 5.35068 21.1127 4.16192 22.5763 4.16554C24.04 4.16915 25.2263 5.36394 25.2203 6.82879ZM23.5312 6.84205C23.5421 6.30313 23.1141 5.86066 22.5763 5.85584C22.0398 5.85102 21.5998 6.28866 21.6022 6.82638C21.6034 7.3448 22.0169 7.76919 22.5366 7.78366C23.0791 7.79933 23.5204 7.38218 23.5312 6.84326V6.84205Z" fill="black"/>
<path d="M12.7019 32.9535C14.9219 32.9535 16.2539 31.6695 16.2539 29.2335V24.4575H15.0899V29.1855C15.0899 31.0455 14.2259 31.8855 12.7139 31.8855C11.2019 31.8855 10.3499 31.0455 10.3499 29.1855V24.4575H9.14988V29.2335C9.14988 31.6695 10.4939 32.9535 12.7019 32.9535ZM25.2569 32.8575L22.0769 28.5135L25.0409 24.4575H23.7329L21.4049 27.6855L19.0529 24.4575H17.6849L20.6489 28.5495L17.4929 32.8575H18.8729L21.3569 29.3895L23.8769 32.8575H25.2569ZM25.2743 34.0575H26.3183L30.2783 22.7535H29.2343L25.2743 34.0575ZM34.5691 32.9535C36.7891 32.9535 38.1211 31.6695 38.1211 29.2335V24.4575H36.9571V29.1855C36.9571 31.0455 36.0931 31.8855 34.5811 31.8855C33.0691 31.8855 32.2171 31.0455 32.2171 29.1855V24.4575H31.0171V29.2335C31.0171 31.6695 32.3611 32.9535 34.5691 32.9535ZM40.5813 32.8575H41.7813V24.4575H40.5813V32.8575Z" fill="black"/>
</svg>
