<svg width="45" height="45" viewBox="0 0 45 45" fill="none" xmlns="http://www.w3.org/2000/svg">
<path d="M26.9942 36.0003H11.8403C8.71557 36.0003 5.59214 36.0003 2.46745 36.0003C0.92013 36.0003 0 35.0739 0 33.519C0 23.176 0 12.8317 0 2.48873C0 0.906359 0.912619 0 2.50626 0C15.8312 0 29.1562 0 42.48 0C44.0936 0 44.99 0.903856 44.99 2.5313C44.99 15.343 44.99 28.156 44.99 40.9677C44.99 43.4352 43.4226 44.9987 40.9514 45C37.6552 45 34.359 45 31.0628 45C28.5353 45 26.9942 43.4477 26.993 40.9064C26.993 39.2852 26.993 37.664 26.993 36.0003H26.9942ZM43.4777 7.52629H1.49975V7.92063C1.49975 16.4347 1.49975 24.9487 1.49975 33.4627C1.49975 34.2789 1.72759 34.4992 2.56885 34.4992C10.5496 34.4992 18.5315 34.4992 26.5123 34.4992H26.9942V33.9484C26.9942 29.4955 26.9942 25.0438 26.9942 20.5909C26.9942 18.0471 28.5341 16.4985 31.0628 16.4985C34.1237 16.4985 37.1858 16.5098 40.2466 16.4922C41.3771 16.486 42.49 16.491 43.4765 17.2621V7.52629H43.4777ZM43.4639 38.9897V22.5275H28.5203V38.991H43.4639V38.9897ZM43.4902 5.98398C43.4902 4.84226 43.4902 3.74937 43.4902 2.65648C43.4902 1.69004 43.3037 1.501 42.3535 1.501C29.1124 1.501 15.8713 1.501 2.63145 1.501C2.49124 1.501 2.34852 1.49099 2.20956 1.50601C1.8002 1.55108 1.51978 1.78393 1.51227 2.19329C1.48973 3.45268 1.50351 4.71207 1.50351 5.98398H43.4902ZM43.4564 20.9865C43.7519 19.0035 42.4424 17.9394 40.8062 17.9782C37.5751 18.0546 34.3403 18.0508 31.1079 17.9782C29.5418 17.9432 28.1923 19.0511 28.5416 20.9852H43.4564V20.9865ZM43.5578 40.527H28.4952C28.4952 40.8012 28.489 41.0491 28.4952 41.2969C28.5303 42.4962 29.478 43.4865 30.6748 43.4927C34.2201 43.5103 37.7654 43.514 41.3095 43.489C42.2684 43.4827 42.9857 42.972 43.31 42.0631C43.4777 41.5949 43.4765 41.0666 43.5566 40.527H43.5578Z" fill="#DA3D5D"/>
<path d="M14.2446 12.0005C17.6485 12.0005 21.0524 12.0005 24.4575 12.0005C25.2599 12.0005 25.494 12.2308 25.494 13.022C25.494 18.3475 25.494 23.6742 25.494 28.9997C25.494 29.7621 25.2524 30.0012 24.4825 30.0012C17.6585 30.0012 10.8345 30.0012 4.01179 30.0012C3.24064 30.0012 2.99902 29.7634 2.99902 29.0022C2.99902 23.6605 2.99902 18.3187 2.99902 12.977C2.99902 12.2459 3.24815 12.0005 3.9855 12.0005C7.40563 12.0005 10.8245 12.0005 14.2446 12.0005V12.0005ZM4.52882 13.5115V26.5736C4.66527 26.362 4.75791 26.2231 4.8468 26.0816C6.72211 23.0809 8.59617 20.0801 10.4727 17.0806C10.9384 16.337 11.5569 16.3395 12.0251 17.0844C13.0779 18.7606 14.1257 20.4394 15.176 22.1182C15.6605 22.8918 16.145 23.6667 16.6545 24.4805C16.7747 24.319 16.8686 24.1988 16.9562 24.0748C17.5559 23.2198 18.1518 22.361 18.7552 21.5072C19.2371 20.825 19.7542 20.8237 20.2336 21.501C20.8633 22.3923 21.4868 23.2887 22.1127 24.1838C22.7148 25.0438 23.3183 25.9038 23.9655 26.829V13.5103H4.52882V13.5115ZM17.3881 28.4877C15.3213 25.184 13.297 21.9492 11.2451 18.6705C9.17579 21.9817 7.15401 25.2166 5.10844 28.4877H17.3881ZM23.3057 28.5015C22.0088 26.6487 20.7707 24.8798 19.495 23.0583C18.8127 24.0348 18.1655 24.9599 17.5233 25.8776C18.0303 26.69 18.511 27.4737 19.008 28.2461C19.0794 28.3575 19.2284 28.489 19.3435 28.4902C20.6342 28.5077 21.9249 28.5015 23.3045 28.5015H23.3057Z" fill="#DA3D5D"/>
<path d="M38.2545 25.5045C38.212 25.6773 38.1732 25.8601 38.1231 26.0378C37.1917 29.3015 36.259 32.5639 35.3264 35.8275C35.3014 35.9176 35.2726 36.0065 35.245 36.0954C35.091 36.5861 34.7192 36.839 34.3124 36.7314C33.8705 36.6137 33.6626 36.2018 33.8054 35.6911C34.1546 34.4467 34.5114 33.2048 34.8657 31.9617C35.4904 29.7759 36.1163 27.5902 36.7373 25.4044C36.8412 25.0388 37.0452 24.7872 37.4396 24.7584C37.7876 24.7321 38.038 24.9011 38.1769 25.2216C38.2132 25.3055 38.2257 25.3994 38.2545 25.5045V25.5045Z" fill="#DA3D5D"/>
<path d="M31.0372 30.7423C31.8196 31.5197 32.5394 32.2345 33.258 32.9494C33.3469 33.037 33.4408 33.1209 33.5197 33.2173C33.8113 33.5678 33.8051 33.9771 33.5096 34.2713C33.2129 34.5655 32.7835 34.5893 32.4581 34.2713C31.4528 33.2886 30.4601 32.2946 29.4761 31.2906C29.1431 30.9501 29.1468 30.5457 29.4823 30.204C30.4551 29.2112 31.439 28.2298 32.4293 27.2558C32.7735 26.9166 33.2092 26.9178 33.5159 27.2183C33.8326 27.5287 33.8264 27.9719 33.4646 28.3387C32.6759 29.1361 31.8722 29.9186 31.0359 30.7448L31.0372 30.7423Z" fill="#DA3D5D"/>
<path d="M40.9427 30.7473C40.1265 29.9374 39.3616 29.1825 38.6005 28.4213C38.1773 27.9969 38.1348 27.5751 38.469 27.2358C38.8033 26.8965 39.2339 26.9329 39.6546 27.351C40.5734 28.2636 41.4898 29.1787 42.4012 30.0976C42.8606 30.5608 42.8669 30.9313 42.4149 31.3883C41.4823 32.3309 40.5434 33.2674 39.6007 34.2C39.2126 34.5843 38.7657 34.6056 38.4477 34.2801C38.1323 33.9571 38.1661 33.5165 38.5529 33.1271C39.3316 32.3435 40.1177 31.5673 40.9427 30.7461V30.7473Z" fill="#DA3D5D"/>
<path d="M28.1243 4.50054C23.8617 4.50054 19.6003 4.50054 15.3376 4.50054C15.1811 4.50054 15.0197 4.51932 14.8707 4.48552C14.4738 4.39538 14.2397 4.1375 14.2535 3.72313C14.2673 3.33129 14.5014 3.09343 14.8807 3.01581C15.0159 2.98827 15.1611 3.0033 15.3013 3.0033C23.8416 3.0033 32.3807 3.0033 40.921 3.0033C41.0462 3.0033 41.1714 2.99578 41.2953 3.00956C41.7034 3.05462 41.9901 3.36884 41.9876 3.75818C41.9851 4.14751 41.6959 4.45673 41.2853 4.49804C41.1463 4.51181 41.0049 4.50305 40.8647 4.50305C36.6183 4.50305 32.3719 4.50305 28.1256 4.50305L28.1243 4.50054Z" fill="#DA3D5D"/>
<path d="M4.13055 2.99823C4.89294 2.99823 5.24346 3.23233 5.24722 3.74435C5.25098 4.25762 4.89419 4.50048 4.14056 4.50174C3.35313 4.50174 2.98758 4.25512 3.00135 3.73183C3.01387 3.22106 3.35563 2.99948 4.13055 2.99948V2.99823Z" fill="#DA3D5D"/>
<path d="M7.09071 4.49674C6.9505 4.49674 6.80904 4.51176 6.67133 4.49424C6.26948 4.44416 5.98906 4.11742 6.00033 3.72934C6.01159 3.34 6.29953 3.0358 6.71265 3.00575C6.97554 2.98697 7.24219 2.98823 7.50508 3.00325C7.94449 3.02829 8.24494 3.33875 8.2462 3.74686C8.24745 4.15372 7.94825 4.46419 7.51009 4.49799C7.37113 4.50926 7.22967 4.49924 7.09071 4.49924C7.09071 4.49924 7.09071 4.49674 7.09071 4.49549V4.49674Z" fill="#DA3D5D"/>
<path d="M10.1167 4.50174C9.35306 4.50174 9.00379 4.26763 9.00003 3.75436C8.99627 3.23984 9.3493 2.99823 10.1067 2.99823C10.8954 2.99823 11.2597 3.24485 11.2471 3.76688C11.2346 4.27389 10.8854 4.50048 10.1167 4.50048V4.50174Z" fill="#DA3D5D"/>
<path d="M36.0092 20.2491C35.745 20.2491 35.4796 20.2641 35.2155 20.2454C34.7823 20.2153 34.4844 19.8898 34.4944 19.483C34.5031 19.0936 34.7911 18.7757 35.2042 18.7581C35.7325 18.7369 36.2633 18.7356 36.7916 18.7581C37.2009 18.7769 37.4876 19.1037 37.4901 19.493C37.4939 19.8811 37.2097 20.2066 36.8028 20.2416C36.54 20.2641 36.2746 20.2454 36.0092 20.2454C36.0092 20.2454 36.0092 20.2454 36.0092 20.2466V20.2491Z" fill="#DA3D5D"/>
<path d="M35.9935 41.2506C36.2427 41.2506 36.4918 41.2394 36.7409 41.2531C37.1841 41.2782 37.4845 41.5824 37.4908 41.9905C37.497 42.3973 37.1966 42.7278 36.7609 42.7441C36.2477 42.7641 35.7331 42.7641 35.2211 42.7441C34.7855 42.7266 34.4875 42.3948 34.4963 41.9867C34.5038 41.5786 34.8042 41.2782 35.2487 41.2531C35.4965 41.2394 35.7469 41.2506 35.996 41.2506H35.9935Z" fill="#DA3D5D"/>
<path d="M19.4936 17.2622C19.4874 18.5053 18.4621 19.5106 17.2102 19.4993C15.9934 19.4881 14.9881 18.4615 14.9981 17.2397C15.0081 15.9916 16.0334 14.9863 17.2803 15.0026C18.5034 15.0188 19.4986 16.0341 19.4924 17.2622H19.4936ZM17.2703 16.5011C16.8622 16.4898 16.5179 16.809 16.4979 17.2159C16.4778 17.6403 16.8221 17.9996 17.2477 17.9996C17.6534 17.9996 17.9901 17.6678 17.9964 17.261C18.0026 16.8541 17.6759 16.5123 17.2703 16.5011Z" fill="#DA3D5D"/>
</svg>
