<svg width="51" height="45" viewBox="0 0 51 45" fill="none" xmlns="http://www.w3.org/2000/svg">
<path d="M50.9887 4.7695V40.3202C50.9297 40.4467 50.8489 40.5673 50.8139 40.6999C50.1171 43.2933 47.9686 44.9896 45.2825 44.992C32.0879 45.0017 18.8934 45.0041 5.69894 44.9908C2.47265 44.9872 0.00952942 42.4927 0.00711815 39.2628C-0.0037326 28.0926 -0.00252696 16.9223 0.0131463 5.75331C0.0131463 5.15049 0.110803 4.52355 0.290443 3.94847C1.05 1.50825 3.20688 0.00241128 5.8834 0.00120564C18.9622 0 32.0409 0 45.1197 0C45.2861 0 45.4512 0.00241128 45.6176 0.013262C48.012 0.155527 50.0254 1.72647 50.7368 4.00151C50.8175 4.25831 50.9055 4.51391 50.9899 4.7695H50.9887ZM1.69139 13.4971C1.69139 13.6888 1.69139 13.8359 1.69139 13.983C1.69139 22.3296 1.69139 30.6763 1.69139 39.0229C1.69139 41.6476 3.35276 43.3077 5.97985 43.3077C18.9887 43.3077 31.9987 43.3077 45.0076 43.3077C47.6359 43.3077 49.2984 41.65 49.2984 39.0253C49.2996 30.6787 49.2984 22.332 49.2984 13.9854V13.4971H1.69139V13.4971ZM1.70827 11.7791H49.284C49.284 9.62581 49.3081 7.50269 49.2659 5.38076C49.2562 4.88645 49.0923 4.35838 48.8668 3.91109C48.0771 2.34497 46.7304 1.68548 45.0124 1.68669C33.9603 1.6891 22.907 1.68789 11.8549 1.68789C9.84633 1.68789 7.83894 1.67825 5.83035 1.6903C3.57581 1.70357 1.8216 3.21785 1.72756 5.38076C1.63594 7.49907 1.70707 9.62582 1.70707 11.7779L1.70827 11.7791Z" fill="black"/>
<path d="M27.8436 19.1288C27.6278 20.1741 27.4469 21.0651 27.26 21.9548C26.3365 26.3433 25.4118 30.7307 24.4871 35.1192C24.4593 35.2482 24.4328 35.3784 24.3979 35.5062C24.258 36.0017 23.8324 36.2935 23.4032 36.1898C22.9209 36.0741 22.6533 35.6521 22.7594 35.124C23.0041 33.9075 23.2621 32.6934 23.5177 31.4794C24.3749 27.4152 25.2334 23.3522 26.093 19.288C26.2449 18.5718 26.7525 18.2161 27.2781 18.5103C27.5301 18.6514 27.6905 18.954 27.8436 19.1276V19.1288Z" fill="black"/>
<path d="M15.9781 27.2474C16.1095 27.3632 16.2228 27.4669 16.3398 27.5669C17.7407 28.7605 19.1429 29.9541 20.5463 31.144C20.8477 31.3996 21.0647 31.7312 20.8983 32.0977C20.785 32.3461 20.5065 32.6029 20.2497 32.6764C20.0339 32.7379 19.6866 32.6101 19.4949 32.4498C17.7251 30.9741 15.9709 29.4791 14.2239 27.9756C13.6826 27.5103 13.7018 26.9858 14.2661 26.4999C15.9889 25.0194 17.7202 23.5473 19.4539 22.0813C19.9314 21.6774 20.451 21.6979 20.7681 22.0969C21.0695 22.4767 20.9899 22.9746 20.5366 23.3629C19.0392 24.6469 17.5346 25.9224 15.9769 27.2486L15.9781 27.2474Z" fill="black"/>
<path d="M35.0118 27.2497C33.5096 25.9693 32.0459 24.7227 30.5847 23.4737C30.4473 23.3555 30.3026 23.2361 30.2001 23.0891C29.9626 22.7503 29.9855 22.391 30.2435 22.0811C30.5039 21.7677 30.8536 21.6917 31.2273 21.8774C31.3877 21.957 31.5335 22.0727 31.671 22.1897C33.3143 23.5846 34.9551 24.9819 36.5936 26.3817C37.3483 27.0267 37.3447 27.486 36.5972 28.1214C34.9178 29.5501 33.2383 30.98 31.5613 32.4111C31.2189 32.7028 30.8584 32.8535 30.4352 32.5871C30.0783 32.3628 29.9554 32.0156 30.0952 31.6431C30.182 31.4116 30.3858 31.2042 30.5799 31.0366C31.9362 29.8672 33.3034 28.711 34.667 27.5511C34.7671 27.4667 34.8635 27.3787 35.0106 27.2497H35.0118Z" fill="black"/>
<path d="M3.54688 6.77345C3.54327 5.31462 4.73805 4.1114 6.19688 4.10537C7.63761 4.09934 8.86134 5.32065 8.86254 6.76621C8.86375 8.21057 7.64726 9.43429 6.20411 9.43791C4.75373 9.44152 3.5505 8.23468 3.54688 6.77345V6.77345ZM7.17103 6.76501C7.16741 6.24176 6.69722 5.78121 6.1812 5.79567C5.65193 5.81014 5.21308 6.27431 5.22995 6.80118C5.24563 7.30634 5.6893 7.74278 6.19205 7.74881C6.70807 7.75484 7.17344 7.28705 7.16983 6.76621L7.17103 6.76501Z" fill="black"/>
<path d="M11.7354 6.79245C11.7366 5.32157 12.9169 4.14246 14.3878 4.14246C15.8526 4.14246 17.0414 5.33242 17.0402 6.79727C17.0402 8.25971 15.843 9.4545 14.3829 9.45329C12.9181 9.45088 11.7341 8.26212 11.7354 6.79365V6.79245ZM14.3914 5.82794C13.8549 5.82553 13.4208 6.26197 13.422 6.80089C13.4245 7.34101 13.8645 7.77384 14.4034 7.76299C14.9194 7.75334 15.3438 7.32896 15.3511 6.81415C15.3595 6.27764 14.9255 5.83155 14.3902 5.82914L14.3914 5.82794Z" fill="black"/>
<path d="M25.2193 6.82903C25.2133 8.2975 24.0294 9.47541 22.5597 9.47179C21.0924 9.46818 19.9085 8.27942 19.9121 6.81336C19.9157 5.35092 21.1117 4.16216 22.5754 4.16578C24.039 4.1694 25.2254 5.36418 25.2193 6.82903ZM23.5302 6.8423C23.5411 6.30338 23.1131 5.86091 22.5754 5.85608C22.0389 5.85126 21.5988 6.28891 21.6012 6.82662C21.6024 7.34505 22.016 7.76943 22.5356 7.7839C23.0781 7.79957 23.5194 7.38242 23.5302 6.8435V6.8423Z" fill="black"/>
</svg>
