<svg width="50" height="45" viewBox="0 0 50 45" fill="none" xmlns="http://www.w3.org/2000/svg">
<path d="M29.0225 38.9959C28.7962 38.9959 28.5521 38.9959 28.3097 38.9959C20.5282 38.9959 12.7466 38.9923 4.9651 38.9906C2.76446 38.9906 1.48863 37.7165 1.48863 35.5176C1.48863 30.8027 1.48863 26.0879 1.49041 21.3747C1.49041 21.1324 1.49041 20.8901 1.49041 20.621C1.23203 20.5515 0.998606 20.4963 0.770523 20.425C0.296539 20.2771 0.0132177 19.9653 0.0132177 19.4539C0.0132177 16.4068 -0.0277659 13.3598 0.0346004 10.3145C0.0684564 8.63954 1.49932 7.40825 3.24379 7.39756C5.53353 7.38508 7.82326 7.39399 10.1148 7.39399C10.3322 7.39399 10.5496 7.39399 10.783 7.39399C10.8293 6.33377 10.7972 5.30918 10.9345 4.30775C11.2641 1.86299 13.3293 0.0454569 15.7901 0.0240741C19.3699 -0.0062181 22.9498 -0.00978189 26.5296 0.0240741C29.2808 0.0490206 31.3995 2.15166 31.5136 4.91003C31.5474 5.70832 31.5189 6.51017 31.5189 7.39221C31.7951 7.39221 32.0321 7.39221 32.2673 7.39221C34.5125 7.39221 36.7577 7.38686 39.0046 7.39221C41.1679 7.39934 42.4384 8.67339 42.4419 10.8348C42.4455 13.4364 42.4419 16.038 42.4419 18.6395C42.4419 19.6659 41.9572 20.3282 40.9879 20.6263C40.9808 20.7279 40.9647 20.8366 40.9647 20.9453C40.963 21.6563 40.9647 22.3655 40.9647 23.1121C44.0456 23.7981 46.4815 25.4125 48.1778 28.0747C49.459 30.0846 50.0239 32.296 49.8689 34.6712C49.5553 39.4931 46.1625 43.5415 41.4744 44.6873C36.8022 45.8295 31.6027 43.8231 29.0225 38.9923V38.9959ZM40.5745 18.7856V18.2333C40.5745 15.7653 40.5763 13.2974 40.5745 10.8295C40.5745 9.70689 40.1308 9.26676 38.9886 9.26498C27.1408 9.25964 15.293 9.25785 3.44515 9.25785C2.33146 9.25785 1.87886 9.72471 1.87886 10.8509C1.8753 13.3188 1.87708 15.7867 1.87886 18.2546C1.87886 18.4257 1.90381 18.5985 1.91628 18.775C7.36175 20.1559 12.7716 21.5262 18.2081 22.9054C18.2331 22.7664 18.2527 22.6827 18.2598 22.5989C18.3721 21.307 19.1365 20.5818 20.423 20.564C21.0004 20.5569 21.5795 20.5497 22.1568 20.5693C23.0406 20.6014 23.7819 21.177 24.0225 22.018C24.1044 22.3049 24.1383 22.606 24.1989 22.9268C29.6693 21.544 35.1005 20.1702 40.5745 18.7856V18.7856ZM28.2723 37.1267C27.3439 33.5041 27.8535 30.204 30.088 27.2728C32.3332 24.3291 35.3999 22.9535 39.0617 22.9107V21.0985C34.0652 22.3637 29.1098 23.6199 24.2185 24.8583C24.1294 25.7226 24.1597 26.5458 23.9352 27.2924C23.6768 28.1531 22.9302 28.5932 22.0232 28.5665C21.0039 28.5362 19.9241 28.8391 19.0047 28.0978C17.9177 27.2211 18.3881 25.9702 18.226 24.8459C13.2776 23.5914 8.34358 22.3405 3.35605 21.0772C3.35605 21.3569 3.35605 21.5565 3.35605 21.7543C3.35605 26.3124 3.35427 30.8705 3.35427 35.4285C3.35427 36.7222 3.76233 37.1213 5.08093 37.1213C12.572 37.1231 20.0649 37.1249 27.556 37.1267C27.7769 37.1267 27.9979 37.1267 28.2723 37.1267ZM29.7032 33.93C29.6764 38.9799 33.7516 43.1014 38.8051 43.1317C43.8514 43.1638 47.9997 39.0725 48.0246 34.0405C48.0495 28.946 43.9761 24.8316 38.8817 24.8085C33.8318 24.7853 29.7299 28.8605 29.7032 33.93V33.93ZM29.6515 7.37617C29.6515 6.50661 29.6853 5.70654 29.6444 4.91003C29.557 3.20476 28.2313 1.90397 26.5243 1.89328C22.9676 1.87012 19.4109 1.87368 15.8543 1.88972C14.3076 1.89685 13.0068 2.97133 12.7948 4.51267C12.6665 5.44282 12.7716 6.40326 12.7716 7.37439H14.0064C14.0064 6.69727 14.0064 6.03619 14.0064 5.37511C14.01 3.93712 14.7441 3.18337 16.1661 3.18159C19.5 3.17625 22.8339 3.17446 26.1679 3.18159C27.6415 3.18516 28.3703 3.92286 28.3846 5.40183C28.3917 6.05935 28.3846 6.71687 28.3846 7.37617H29.6479H29.6515ZM15.8899 7.3637H26.4904V5.07575H15.8899V7.3637V7.3637ZM20.1878 22.4688V26.708C20.7794 26.708 21.3122 26.7293 21.8397 26.6937C21.9858 26.6848 22.2406 26.5119 22.2424 26.4104C22.2691 25.1078 22.2602 23.8052 22.2602 22.467H20.1861L20.1878 22.4688Z" fill="white"/>
<path d="M38.8605 32.9695C40.0775 32.0785 41.2375 31.2214 42.4047 30.375C42.9749 29.9616 43.4524 29.9794 43.7322 30.4356C44.0636 30.9719 43.7999 31.3497 43.3562 31.6722C42.0822 32.597 40.8081 33.5236 39.5447 34.4645C39.0939 34.8012 38.6948 34.8315 38.2208 34.4876C36.6973 33.3775 35.1524 32.2977 33.6181 31.2C33.0444 30.7884 32.9107 30.3465 33.2119 29.9242C33.5112 29.5037 33.971 29.4912 34.5519 29.9028C35.9809 30.9167 37.4047 31.9342 38.8587 32.9712L38.8605 32.9695Z" fill="white"/>
<path d="M39.6447 26.4782C39.6447 26.7205 39.7303 27.0128 39.6251 27.1963C39.4612 27.4832 39.2081 27.82 38.9212 27.9091C38.4846 28.0445 38.1354 27.7291 38.0837 27.2801C38.0231 26.7579 38.0213 26.218 38.0801 25.6959C38.13 25.2539 38.4633 24.9813 38.9194 25.024C39.3632 25.065 39.6376 25.3395 39.6465 25.817C39.6501 26.038 39.6465 26.259 39.6465 26.4799C39.6465 26.4799 39.6447 26.4799 39.6429 26.4799L39.6447 26.4782Z" fill="white"/>
<path d="M31.4444 34.748C31.202 34.748 30.9579 34.7516 30.7155 34.748C30.238 34.7391 29.96 34.4629 29.9243 34.021C29.8851 33.5327 30.1845 33.2173 30.6621 33.1692C31.1201 33.1211 31.5905 33.1282 32.0503 33.1621C32.5243 33.1959 32.845 33.4561 32.8343 33.9675C32.8219 34.5093 32.494 34.748 31.9736 34.7516C31.7972 34.7516 31.6208 34.7516 31.4444 34.7516V34.748Z" fill="white"/>
<path d="M46.2804 34.7498C46.0826 34.7498 45.883 34.7498 45.6852 34.7498C45.1755 34.7427 44.8868 34.4487 44.8744 33.9747C44.8619 33.4882 45.1827 33.1977 45.662 33.1603C46.1004 33.1264 46.5459 33.1264 46.986 33.1603C47.4921 33.1977 47.82 33.4703 47.7862 34.0156C47.7541 34.5217 47.4369 34.748 46.9451 34.7534C46.7241 34.7552 46.5031 34.7534 46.2822 34.7534L46.2804 34.7498Z" fill="white"/>
<path d="M39.6402 41.4745C39.6402 41.7169 39.7239 42.0073 39.6206 42.1909C39.4673 42.4617 39.184 42.8377 38.9506 42.8413C38.6672 42.8449 38.1896 42.5544 38.1326 42.3103C38.0043 41.7685 37.9972 41.1591 38.1148 40.6138C38.1718 40.3536 38.6048 40.0347 38.9007 39.9972C39.3212 39.9438 39.6259 40.2663 39.6438 40.7457C39.6527 40.988 39.6438 41.2322 39.6438 41.4745H39.6384H39.6402Z" fill="white"/>
</svg>
