<svg width="63" height="60" viewBox="0 0 63 60" fill="none" xmlns="http://www.w3.org/2000/svg">
<path d="M62.6589 15.8997C62.3131 16.3975 61.8631 16.5814 61.2549 16.4392C60.8441 16.3436 60.4076 16.357 59.9931 16.27C59.5394 16.1743 59.3163 15.8445 59.3224 15.3847C59.3285 14.9236 59.5689 14.541 60.0213 14.5374C60.7202 14.5312 61.4265 14.6342 62.1193 14.7507C62.3168 14.7838 62.4798 15.0217 62.6589 15.1652V15.8997V15.8997Z" fill="#2C35CD"/>
<path d="M29.7542 54.6546C29.7542 55.9274 29.7603 57.107 29.7529 58.2878C29.7456 59.4061 29.1815 59.9935 28.0633 59.9947C19.2727 60.0008 10.4821 60.0008 1.69153 59.9947C0.586733 59.9947 0.00306548 59.3865 0.00183929 58.2793C-0.000613096 43.7771 -0.000613096 29.2761 0.00183929 14.7739C0.00183929 13.6814 0.612483 13.0855 1.71483 13.0818C3.4082 13.0769 5.10035 13.0769 6.79372 13.0818C7.47671 13.0843 7.86786 13.4092 7.88258 13.9671C7.89852 14.5434 7.48407 14.9125 6.78391 14.915C5.15553 14.9223 3.52837 14.9174 1.8681 14.9174V58.137H27.8879V54.6546H27.227C23.9432 54.6546 20.6595 54.6546 17.3758 54.6546C15.9558 54.6546 15.4384 54.3027 14.9283 52.9662C12.9884 52.9662 11.0327 52.9662 9.07812 52.9662C8.09961 52.9662 7.11989 52.9735 6.14138 52.9637C5.43632 52.9564 5.01697 52.5922 5.0231 52.0232C5.02923 51.4592 5.44123 51.1306 6.16591 51.1293C8.87825 51.1269 11.5918 51.1293 14.3041 51.1293H14.9295V48.5911C14.6978 48.5911 14.4795 48.5911 14.2612 48.5911C11.528 48.5911 8.79486 48.5948 6.06168 48.5887C5.43387 48.5874 5.04026 48.2404 5.0231 47.7119C5.0047 47.1589 5.40935 46.7849 6.06168 46.7555C6.1843 46.7506 6.30692 46.7555 6.42831 46.7555C7.71336 46.7555 8.99841 46.7555 10.2835 46.7555C11.7721 46.7555 13.2619 46.769 14.7505 46.742C14.9945 46.7371 15.2961 46.6169 15.4678 46.4465C15.9583 45.9597 16.537 45.8248 17.1955 45.8261C20.5197 45.8334 23.8452 45.8297 27.1694 45.8297H27.8806V42.8243C26.6936 42.4209 25.4981 42.0457 24.327 41.6055C23.7605 41.3921 23.194 41.1211 22.706 40.768C22.0034 40.2604 21.2591 40.1561 20.4192 40.161C15.5242 40.188 10.6292 40.1745 5.73429 40.1745C4.27512 40.1745 3.78219 39.6853 3.78219 38.2384C3.78219 34.2201 3.78096 30.2019 3.78219 26.1837C3.78219 24.8851 4.3352 24.3419 5.64968 24.3419C11.6458 24.3419 17.6431 24.3628 23.6391 24.3272C25.1498 24.3186 26.0572 24.5222 26.0082 26.6337C26.6421 26.489 27.2601 26.3468 27.8965 26.2021V14.9174C27.6819 14.9174 27.4661 14.9174 27.2503 14.9174C22.1101 14.9174 16.9711 14.9174 11.8309 14.9174C11.6274 14.9174 11.4152 14.9395 11.2215 14.8917C10.7261 14.769 10.4441 14.4417 10.487 13.9181C10.5262 13.4288 10.8218 13.1468 11.311 13.0879C11.452 13.0708 11.5967 13.0818 11.739 13.0818C17.1232 13.0818 22.5086 13.0818 27.8928 13.0818C29.2097 13.0818 29.7554 13.6201 29.7566 14.926C29.7591 18.3728 29.7566 21.8197 29.7566 25.2665C29.7566 25.4884 29.7566 25.7104 29.7566 25.8955C31.0257 26.0316 32.2715 26.066 33.4744 26.3136C37.9427 27.2345 41.3454 29.6955 43.7033 33.6009C44.0516 34.1784 44.0491 34.7584 43.6972 35.3323C41.0082 39.7086 37.1297 42.2358 32.0165 42.8366C31.6523 42.8795 31.2857 42.9089 30.9203 42.9249C30.5561 42.9396 30.1919 42.9286 29.7934 42.9286V45.831H30.5095C35.4253 45.831 40.3399 45.8383 45.2557 45.8248C46.4046 45.8211 47.4665 46.0737 48.4695 46.6366C49.8 47.3833 51.1426 48.1055 52.4853 48.8302C53.0506 49.1343 53.5153 49.5071 53.5239 50.2158C53.5325 50.954 53.0543 51.3353 52.4669 51.6492C51.1046 52.3788 49.7436 53.1133 48.396 53.8699C47.4101 54.4241 46.3605 54.6608 45.2373 54.6595C40.3215 54.6522 35.4069 54.6571 30.4911 54.6571H29.7591L29.7542 54.6546ZM24.1468 26.2217H5.64846V38.2801H19.3695C18.6902 37.3334 18.0122 36.3966 17.3439 35.4525C16.8779 34.7952 16.9196 34.1453 17.3353 33.4599C18.8962 30.88 21.0249 28.9218 23.7201 27.5828C24.0426 27.4221 24.1934 27.2541 24.1517 26.8973C24.1259 26.6791 24.1468 26.4559 24.1468 26.2205V26.2217ZM30.4519 41.1248C30.9338 41.0844 31.4218 41.0598 31.9074 41.001C36.1905 40.4811 39.4999 38.399 41.8739 34.8014C42.0492 34.5365 42.0247 34.3636 41.8665 34.1061C36.7839 25.8121 24.2915 25.7753 19.1341 34.0374C18.933 34.3599 18.9355 34.5806 19.1476 34.897C21.8489 38.9103 25.6489 40.909 30.4531 41.1236L30.4519 41.1248ZM22.6423 49.3158C27.0909 49.3158 31.4733 49.3158 35.8569 49.3158C36.0409 49.3158 36.226 49.3035 36.4075 49.3232C36.9249 49.382 37.283 49.7768 37.2487 50.2698C37.2131 50.7885 36.9188 51.0864 36.4001 51.1428C36.2187 51.1624 36.0335 51.1502 35.8496 51.1502C31.6695 51.1502 27.4882 51.1502 23.3081 51.1502C23.091 51.1502 22.8728 51.1502 22.6606 51.1502V52.7786H44.3753V51.149C43.1148 51.149 41.8935 51.1649 40.6722 51.1428C39.9034 51.1293 39.4374 50.3666 39.8678 49.7916C40.0542 49.5439 40.465 49.3501 40.7825 49.3366C41.9769 49.2839 43.1748 49.3158 44.3741 49.3158V47.707H22.641V49.3158H22.6423ZM20.7711 52.7945V47.7095H16.846V52.7945H20.7711ZM46.2649 52.8399C46.9111 52.5235 47.4616 52.2746 47.9877 51.9828C48.1066 51.9165 48.2022 51.6995 48.2059 51.5499C48.2268 50.6744 48.2231 49.7977 48.2084 48.9222C48.2059 48.7836 48.1422 48.5739 48.0416 48.52C47.4837 48.2184 46.9062 47.9547 46.2649 47.6445V52.8423V52.8399ZM50.0918 49.6309V50.8534C50.4879 50.6315 50.8189 50.4451 51.2089 50.2269C50.7956 50.0061 50.4633 49.8283 50.0918 49.6309Z" fill="#2C35CD"/>
<path d="M45.4864 22.575H47.6789V18.8572C46.2626 18.2612 45.9156 17.0436 46.0174 15.5881C46.0517 15.1013 45.9892 14.6047 46.0505 14.1216C46.2222 12.7728 47.3785 11.8274 48.7383 11.8777C50.092 11.9279 51.1502 12.9395 51.2397 14.3276C51.2863 15.0584 51.279 15.7966 51.2397 16.5286C51.1821 17.5991 50.7137 18.2318 49.5893 18.8682V22.5737H51.6015C51.6346 22.5198 51.6775 22.483 51.6726 22.4536C51.4972 21.312 52.0588 20.6854 52.9944 20.0625C55.6467 18.2968 56.7625 15.1357 56.0059 12.0101C55.8183 11.2327 56.0587 10.7238 56.6607 10.6269C57.2199 10.5362 57.589 10.8293 57.7668 11.5049C58.7624 15.2914 57.34 19.2226 54.1311 21.5486C53.9508 21.6798 53.6369 21.7939 53.6173 21.9459C53.5793 22.2451 53.6014 22.6608 53.7829 22.857C54.1556 23.2592 54.3616 23.6663 54.3567 24.2119C54.3445 25.5166 54.3616 26.8225 54.3494 28.1272C54.3408 29.1326 53.7559 29.7016 52.7431 29.7175C52.3593 29.7237 51.9755 29.7175 51.5254 29.7175C51.5254 30.1725 51.5389 30.5955 51.523 31.0161C51.4887 31.8916 50.9087 32.5292 50.0344 32.5721C49.1184 32.6163 48.1988 32.6163 47.2828 32.5782C46.3668 32.5402 45.7881 31.9136 45.755 30.9989C45.7403 30.5955 45.7525 30.1908 45.7525 29.7175C45.2903 29.7175 44.8684 29.7286 44.4466 29.7151C43.5356 29.6869 42.9433 29.1302 42.9286 28.2277C42.9053 26.8409 42.8845 25.4528 42.9433 24.0685C42.9593 23.6847 43.191 23.2567 43.4461 22.9502C43.8568 22.4548 43.8593 22.0428 43.3173 21.6713C40.0753 19.4555 38.5376 15.5072 39.4376 11.7109C40.334 7.93178 43.565 4.99995 47.4373 4.54626C50.2956 4.21028 52.8411 4.99259 54.9956 6.93733C55.5572 7.44375 55.6442 7.99677 55.2531 8.4198C54.8668 8.83793 54.3273 8.79134 53.751 8.28982C49.2631 4.37582 42.4173 6.56703 41.2046 12.3645C40.551 15.4851 41.6141 18.0981 44.1707 19.9865C45.083 20.6609 45.9107 21.2078 45.4864 22.5701V22.575ZM44.8022 24.4768V27.8586H52.4745V24.44C49.9498 24.44 47.4655 24.44 44.9813 24.4412C44.9248 24.4412 44.8684 24.4633 44.8022 24.4768ZM49.4176 15.4422C49.4176 15.116 49.4397 14.7886 49.4127 14.4649C49.3735 13.9916 49.1025 13.7071 48.6169 13.7206C48.1362 13.7341 47.8714 14.0198 47.8616 14.5017C47.8493 15.1332 47.8469 15.7647 47.8616 16.395C47.8738 16.8744 48.1313 17.1527 48.623 17.1626C49.1184 17.1711 49.3759 16.8928 49.4115 16.4195C49.436 16.0958 49.4164 15.7684 49.4164 15.4422H49.4176ZM49.6727 29.7666H47.6347V30.7267H49.6727V29.7666Z" fill="#2C35CD"/>
<path d="M14.9184 42.425C17.7926 42.425 20.6656 42.4213 23.5398 42.4311C23.7961 42.4311 24.1345 42.4311 24.2865 42.5819C24.5048 42.7978 24.7083 43.1595 24.69 43.4452C24.6728 43.7002 24.3883 43.9982 24.1431 44.1576C23.9469 44.2864 23.633 44.2606 23.3718 44.2606C17.7056 44.2655 12.0393 44.2643 6.37309 44.2643C6.25047 44.2643 6.12786 44.2704 6.00646 44.2606C5.39091 44.2116 5.00834 43.8412 5.02183 43.3103C5.03409 42.7806 5.42279 42.4324 6.05183 42.4274C7.45827 42.4176 8.86472 42.4238 10.2712 42.4238C11.8198 42.4238 13.3697 42.4238 14.9184 42.4238V42.425Z" fill="#2C35CD"/>
<path d="M14.9312 19.3226C16.3965 19.3226 17.8631 19.3202 19.3284 19.3226C20.0445 19.3251 20.4491 19.6623 20.4442 20.2398C20.4405 20.8149 20.0347 21.1546 19.3173 21.1558C16.3659 21.1595 13.4144 21.1595 10.463 21.1558C9.74813 21.1558 9.32754 20.8198 9.30915 20.2594C9.29076 19.6794 9.72851 19.3226 10.474 19.3214C11.9602 19.319 13.4463 19.3214 14.9325 19.3214L14.9312 19.3226Z" fill="#2C35CD"/>
<path d="M53.5771 4.38388C52.8144 4.37407 52.3411 3.80757 52.525 3.24353C52.7126 2.66722 52.9701 2.10439 53.2681 1.57713C53.5244 1.12344 53.9891 1.03761 54.4403 1.26813C54.8634 1.48394 55.0608 1.87755 54.8854 2.34718C54.6856 2.87935 54.471 3.41397 54.1816 3.89954C54.0345 4.146 53.7071 4.28579 53.5771 4.38511V4.38388Z" fill="#2C35CD"/>
<path d="M37.6424 11.5884C36.8343 11.3015 36.1636 11.1225 35.5517 10.8233C35.1606 10.6332 35.0441 10.2077 35.2243 9.76629C35.3997 9.33712 35.7455 9.09679 36.182 9.19611C36.7902 9.33344 37.391 9.53331 37.9637 9.77855C38.3842 9.95757 38.5682 10.3953 38.383 10.7963C38.2359 11.1163 37.8827 11.3407 37.6412 11.5872L37.6424 11.5884Z" fill="#2C35CD"/>
<path d="M44.9491 3.55296C44.6401 3.8448 44.4095 4.23595 44.1116 4.29604C43.8099 4.35612 43.3047 4.18813 43.1331 3.94657C42.7873 3.45977 42.5224 2.87365 42.3925 2.29121C42.3275 2.00183 42.5457 1.48806 42.7946 1.33601C43.0436 1.18396 43.68 1.22197 43.8161 1.41203C44.255 2.02635 44.542 2.74981 44.9491 3.55419V3.55296Z" fill="#2C35CD"/>
<path d="M36.5489 14.525C36.7794 14.5127 36.9645 14.4759 37.1423 14.5004C37.596 14.5617 37.8903 14.8192 37.9418 15.2864C37.9958 15.7745 37.7836 16.157 37.3054 16.2588C36.7107 16.3851 36.0964 16.4709 35.4907 16.4722C34.9953 16.4722 34.6544 16.1546 34.6286 15.6212C34.6029 15.0976 34.8727 14.7677 35.384 14.6733C35.7837 14.5998 36.1908 14.5691 36.5489 14.525V14.525Z" fill="#2C35CD"/>
<path d="M37.269 21.8846C36.9244 21.5634 36.521 21.3586 36.4462 21.0692C36.3702 20.7737 36.5149 20.2795 36.7429 20.0784C37.1733 19.6995 37.7263 19.4531 38.245 19.1809C38.6423 18.9724 39.004 19.1122 39.2799 19.4273C39.5619 19.7498 39.6613 20.2145 39.3486 20.4769C38.7428 20.9846 38.0402 21.3745 37.269 21.8858V21.8846Z" fill="#2C35CD"/>
<path d="M58.8379 10.3499C58.9654 10.2126 59.1616 9.86309 59.4571 9.71104C59.9169 9.47439 60.4417 9.35054 60.9482 9.21566C61.4472 9.08323 61.8286 9.28555 62.0395 9.74906C62.243 10.1978 62.0505 10.7177 61.5748 10.9127C61.034 11.1334 60.4749 11.3198 59.9084 11.4596C59.3615 11.5932 58.8563 11.1457 58.8391 10.3499H58.8379Z" fill="#2C35CD"/>
<path d="M40.916 6.44251C40.7615 6.64238 40.6205 6.98572 40.3716 7.10343C40.1215 7.22237 39.6898 7.22973 39.4716 7.08626C38.9676 6.75397 38.5164 6.32602 38.0995 5.8846C37.788 5.55475 37.8064 5.12558 38.086 4.76508C38.3447 4.43278 38.7555 4.23291 39.1062 4.48428C39.6935 4.90487 40.2098 5.42845 40.7395 5.92629C40.829 6.01089 40.8327 6.18746 40.9148 6.44251H40.916Z" fill="#2C35CD"/>
<path d="M60.9204 20.6341C60.9241 21.4336 60.2349 21.8934 59.6145 21.6028C59.1007 21.3625 58.6066 21.067 58.1431 20.7408C57.7237 20.4453 57.6256 20.0014 57.9015 19.5551C58.1688 19.1234 58.5796 18.9542 59.0566 19.1982C59.5618 19.457 60.0645 19.7341 60.5255 20.0639C60.734 20.2135 60.837 20.509 60.9204 20.6353V20.6341Z" fill="#2C35CD"/>
<path d="M59.487 5.25754C59.3251 5.55918 59.254 5.80442 59.0958 5.96628C58.7267 6.34394 58.3295 6.69831 57.9175 7.02816C57.5067 7.358 56.9843 7.30405 56.6569 6.94233C56.321 6.57079 56.3185 6.06069 56.6998 5.6818C57.0886 5.29555 57.4809 4.88968 57.9408 4.6052C58.186 4.45316 58.6176 4.43844 58.8911 4.54757C59.1375 4.64567 59.2822 4.99881 59.487 5.25754V5.25754Z" fill="#2C35CD"/>
<path d="M47.7269 1.64203C47.7269 1.37717 47.7048 1.11109 47.7306 0.848684C47.7808 0.33123 48.0886 0.0259085 48.6012 0.00138465C49.1223 -0.0231392 49.4779 0.27973 49.5318 0.780017C49.5944 1.36368 49.5931 1.96329 49.5331 2.54696C49.4816 3.04725 49.1358 3.34644 48.6085 3.32927C48.0874 3.3121 47.7833 3.01291 47.7318 2.49669C47.7036 2.21466 47.7269 1.92773 47.7257 1.64326L47.7269 1.64203Z" fill="#2C35CD"/>
<path d="M25.053 34.4443C25.0628 31.4426 27.5079 29 30.4949 29.0098C33.4819 29.0196 35.9281 31.4855 35.9146 34.4725C35.9011 37.4828 33.4733 39.8972 30.4654 39.8935C27.4637 39.8898 25.042 37.4521 25.0518 34.4443H25.053ZM28.2485 31.6768C27.0174 32.6688 26.5735 34.2285 27.0811 35.6619C27.6059 37.1431 29.0173 38.0983 30.6199 38.0566C31.9099 38.0235 33.2219 37.1738 33.5419 36.1573C30.7413 35.9206 28.9964 34.421 28.2472 31.678L28.2485 31.6768ZM34.0398 34.2285C33.9466 32.1672 31.9553 30.5156 30.1 30.9288C30.0608 32.8858 31.943 34.4835 34.0398 34.2285Z" fill="#2C35CD"/>
</svg>
