<svg width="21" height="21" viewBox="0 0 21 21" fill="none" xmlns="http://www.w3.org/2000/svg">
<path d="M1.49008 3.37421C1.80708 2.85021 3.54908 0.945209 4.79308 1.00121C5.16529 1.05717 5.50682 1.23977 5.76008 1.51821C6.71722 2.5256 7.54617 3.64744 8.22808 4.85821C8.47108 6.02721 7.07808 6.70121 7.50008 7.87921C7.99666 9.15342 8.75253 10.3106 9.71979 11.2773C10.6871 12.2441 11.8446 12.9993 13.1191 13.4952C14.2961 13.9212 14.9701 12.5292 16.1381 12.7722C17.3487 13.4544 18.4705 14.2833 19.4781 15.2402C19.7563 15.4936 19.9389 15.8351 19.9951 16.2072C20.0411 17.5162 18.0181 19.2842 17.6241 19.5072C16.6941 20.1722 15.4801 20.1612 14.0001 19.4732C9.87408 17.7582 3.27408 11.2832 1.52408 7.00121C0.85508 5.52621 0.80808 4.30121 1.49008 3.37421Z" stroke="white" stroke-width="1.5" stroke-miterlimit="10" stroke-linecap="round" stroke-linejoin="round"/>
</svg>
