<svg width="133" height="83" viewBox="0 0 133 83" fill="none" xmlns="http://www.w3.org/2000/svg">
<path d="M0.455 73.6956C0.455 72.8029 0.654333 72.0056 1.053 71.3036C1.46033 70.5929 2.01067 70.0426 2.704 69.6526C3.406 69.2539 4.19033 69.0546 5.057 69.0546C6.071 69.0546 6.95933 69.3146 7.722 69.8346C8.48467 70.3546 9.01767 71.0739 9.321 71.9926H7.228C7.02 71.5593 6.72533 71.2343 6.344 71.0176C5.97133 70.8009 5.538 70.6926 5.044 70.6926C4.51533 70.6926 4.043 70.8183 3.627 71.0696C3.21967 71.3123 2.899 71.6589 2.665 72.1096C2.43967 72.5603 2.327 73.0889 2.327 73.6956C2.327 74.2936 2.43967 74.8223 2.665 75.2816C2.899 75.7323 3.21967 76.0833 3.627 76.3346C4.043 76.5773 4.51533 76.6986 5.044 76.6986C5.538 76.6986 5.97133 76.5903 6.344 76.3736C6.72533 76.1483 7.02 75.8189 7.228 75.3856H9.321C9.01767 76.3129 8.48467 77.0366 7.722 77.5566C6.968 78.0679 6.07967 78.3236 5.057 78.3236C4.19033 78.3236 3.406 78.1286 2.704 77.7386C2.01067 77.3399 1.46033 76.7896 1.053 76.0876C0.654333 75.3856 0.455 74.5883 0.455 73.6956ZM12.6955 72.1616C12.9295 71.7803 13.2328 71.4813 13.6055 71.2646C13.9868 71.0479 14.4202 70.9396 14.9055 70.9396V72.8506H14.4245C13.8525 72.8506 13.4192 72.9849 13.1245 73.2536C12.8385 73.5223 12.6955 73.9903 12.6955 74.6576V78.2456H10.8755V71.0436H12.6955V72.1616ZM22.8264 74.4886C22.8264 74.7486 22.809 74.9826 22.7744 75.1906H17.5094C17.5527 75.7106 17.7347 76.1179 18.0554 76.4126C18.376 76.7073 18.7704 76.8546 19.2384 76.8546C19.9144 76.8546 20.3954 76.5643 20.6814 75.9836H22.6444C22.4364 76.6769 22.0377 77.2489 21.4484 77.6996C20.859 78.1416 20.1354 78.3626 19.2774 78.3626C18.584 78.3626 17.96 78.2109 17.4054 77.9076C16.8594 77.5956 16.4304 77.1579 16.1184 76.5946C15.815 76.0313 15.6634 75.3813 15.6634 74.6446C15.6634 73.8993 15.815 73.2449 16.1184 72.6816C16.4217 72.1183 16.8464 71.6849 17.3924 71.3816C17.9384 71.0783 18.5667 70.9266 19.2774 70.9266C19.962 70.9266 20.573 71.0739 21.1104 71.3686C21.6564 71.6633 22.0767 72.0836 22.3714 72.6296C22.6747 73.1669 22.8264 73.7866 22.8264 74.4886ZM20.9414 73.9686C20.9327 73.5006 20.7637 73.1279 20.4344 72.8506C20.105 72.5646 19.702 72.4216 19.2254 72.4216C18.7747 72.4216 18.3934 72.5603 18.0814 72.8376C17.778 73.1063 17.5917 73.4833 17.5224 73.9686H20.9414ZM23.6868 74.6186C23.6868 73.8906 23.8298 73.2449 24.1158 72.6816C24.4105 72.1183 24.8091 71.6849 25.3118 71.3816C25.8145 71.0783 26.3735 70.9266 26.9888 70.9266C27.4568 70.9266 27.9031 71.0306 28.3278 71.2386C28.7525 71.4379 29.0905 71.7066 29.3418 72.0446V68.6256H31.1878V78.2456H29.3418V77.1796C29.1165 77.5349 28.8001 77.8209 28.3928 78.0376C27.9855 78.2543 27.5131 78.3626 26.9758 78.3626C26.3691 78.3626 25.8145 78.2066 25.3118 77.8946C24.8091 77.5826 24.4105 77.1449 24.1158 76.5816C23.8298 76.0096 23.6868 75.3553 23.6868 74.6186ZM29.3548 74.6446C29.3548 74.2026 29.2681 73.8256 29.0948 73.5136C28.9215 73.1929 28.6875 72.9503 28.3928 72.7856C28.0981 72.6123 27.7818 72.5256 27.4438 72.5256C27.1058 72.5256 26.7938 72.6079 26.5078 72.7726C26.2218 72.9373 25.9878 73.1799 25.8058 73.5006C25.6325 73.8126 25.5458 74.1853 25.5458 74.6186C25.5458 75.0519 25.6325 75.4333 25.8058 75.7626C25.9878 76.0833 26.2218 76.3303 26.5078 76.5036C26.8025 76.6769 27.1145 76.7636 27.4438 76.7636C27.7818 76.7636 28.0981 76.6813 28.3928 76.5166C28.6875 76.3433 28.9215 76.1006 29.0948 75.7886C29.2681 75.4679 29.3548 75.0866 29.3548 74.6446ZM33.8884 70.1856C33.5677 70.1856 33.299 70.0859 33.0824 69.8866C32.8744 69.6786 32.7704 69.4229 32.7704 69.1196C32.7704 68.8163 32.8744 68.5649 33.0824 68.3656C33.299 68.1576 33.5677 68.0536 33.8884 68.0536C34.209 68.0536 34.4734 68.1576 34.6814 68.3656C34.898 68.5649 35.0064 68.8163 35.0064 69.1196C35.0064 69.4229 34.898 69.6786 34.6814 69.8866C34.4734 70.0859 34.209 70.1856 33.8884 70.1856ZM34.7854 71.0436V78.2456H32.9654V71.0436H34.7854ZM38.7025 72.5386V76.0226C38.7025 76.2653 38.7589 76.4429 38.8715 76.5556C38.9929 76.6596 39.1922 76.7116 39.4695 76.7116H40.3145V78.2456H39.1705C37.6365 78.2456 36.8695 77.5003 36.8695 76.0096V72.5386H36.0115V71.0436H36.8695V69.2626H38.7025V71.0436H40.3145V72.5386H38.7025ZM46.4986 65.9346L42.9886 80.5986H41.2076L44.7176 65.9346H46.4986ZM51.1178 69.1716C52.0712 69.1716 52.9075 69.3579 53.6268 69.7306C54.3548 70.1033 54.9138 70.6363 55.3038 71.3296C55.7025 72.0143 55.9018 72.8116 55.9018 73.7216C55.9018 74.6316 55.7025 75.4289 55.3038 76.1136C54.9138 76.7896 54.3548 77.3139 53.6268 77.6866C52.9075 78.0593 52.0712 78.2456 51.1178 78.2456H47.9458V69.1716H51.1178ZM51.0528 76.6986C52.0062 76.6986 52.7428 76.4386 53.2628 75.9186C53.7828 75.3986 54.0428 74.6663 54.0428 73.7216C54.0428 72.7769 53.7828 72.0403 53.2628 71.5116C52.7428 70.9743 52.0062 70.7056 51.0528 70.7056H49.7658V76.6986H51.0528ZM63.9592 74.4886C63.9592 74.7486 63.9419 74.9826 63.9072 75.1906H58.6422C58.6855 75.7106 58.8675 76.1179 59.1882 76.4126C59.5089 76.7073 59.9032 76.8546 60.3712 76.8546C61.0472 76.8546 61.5282 76.5643 61.8142 75.9836H63.7772C63.5692 76.6769 63.1705 77.2489 62.5812 77.6996C61.9919 78.1416 61.2682 78.3626 60.4102 78.3626C59.7169 78.3626 59.0929 78.2109 58.5382 77.9076C57.9922 77.5956 57.5632 77.1579 57.2512 76.5946C56.9479 76.0313 56.7962 75.3813 56.7962 74.6446C56.7962 73.8993 56.9479 73.2449 57.2512 72.6816C57.5545 72.1183 57.9792 71.6849 58.5252 71.3816C59.0712 71.0783 59.6995 70.9266 60.4102 70.9266C61.0949 70.9266 61.7059 71.0739 62.2432 71.3686C62.7892 71.6633 63.2095 72.0836 63.5042 72.6296C63.8075 73.1669 63.9592 73.7866 63.9592 74.4886ZM62.0742 73.9686C62.0655 73.5006 61.8965 73.1279 61.5672 72.8506C61.2379 72.5646 60.8349 72.4216 60.3582 72.4216C59.9075 72.4216 59.5262 72.5603 59.2142 72.8376C58.9109 73.1063 58.7245 73.4833 58.6552 73.9686H62.0742ZM67.1076 72.0966C67.3416 71.7499 67.6623 71.4683 68.0696 71.2516C68.4856 71.0349 68.958 70.9266 69.4866 70.9266C70.102 70.9266 70.6566 71.0783 71.1506 71.3816C71.6533 71.6849 72.0476 72.1183 72.3336 72.6816C72.6283 73.2363 72.7756 73.8819 72.7756 74.6186C72.7756 75.3553 72.6283 76.0096 72.3336 76.5816C72.0476 77.1449 71.6533 77.5826 71.1506 77.8946C70.6566 78.2066 70.102 78.3626 69.4866 78.3626C68.9493 78.3626 68.477 78.2586 68.0696 78.0506C67.671 77.8339 67.3503 77.5566 67.1076 77.2186V78.2456H65.2876V68.6256H67.1076V72.0966ZM70.9166 74.6186C70.9166 74.1853 70.8256 73.8126 70.6436 73.5006C70.4703 73.1799 70.2363 72.9373 69.9416 72.7726C69.6556 72.6079 69.3436 72.5256 69.0056 72.5256C68.6763 72.5256 68.3643 72.6123 68.0696 72.7856C67.7836 72.9503 67.5496 73.1929 67.3676 73.5136C67.1943 73.8343 67.1076 74.2113 67.1076 74.6446C67.1076 75.0779 67.1943 75.4549 67.3676 75.7756C67.5496 76.0963 67.7836 76.3433 68.0696 76.5166C68.3643 76.6813 68.6763 76.7636 69.0056 76.7636C69.3436 76.7636 69.6556 76.6769 69.9416 76.5036C70.2363 76.3303 70.4703 76.0833 70.6436 75.7626C70.8256 75.4419 70.9166 75.0606 70.9166 74.6186ZM75.0212 70.1856C74.7005 70.1856 74.4318 70.0859 74.2152 69.8866C74.0072 69.6786 73.9032 69.4229 73.9032 69.1196C73.9032 68.8163 74.0072 68.5649 74.2152 68.3656C74.4318 68.1576 74.7005 68.0536 75.0212 68.0536C75.3418 68.0536 75.6062 68.1576 75.8142 68.3656C76.0308 68.5649 76.1392 68.8163 76.1392 69.1196C76.1392 69.4229 76.0308 69.6786 75.8142 69.8866C75.6062 70.0859 75.3418 70.1856 75.0212 70.1856ZM75.9182 71.0436V78.2456H74.0982V71.0436H75.9182ZM79.8353 72.5386V76.0226C79.8353 76.2653 79.8917 76.4429 80.0043 76.5556C80.1257 76.6596 80.325 76.7116 80.6023 76.7116H81.4473V78.2456H80.3033C78.7693 78.2456 78.0023 77.5003 78.0023 76.0096V72.5386H77.1443V71.0436H78.0023V69.2626H79.8353V71.0436H81.4473V72.5386H79.8353ZM85.412 73.6956C85.412 72.8029 85.6114 72.0056 86.01 71.3036C86.4174 70.5929 86.9677 70.0426 87.661 69.6526C88.363 69.2539 89.1474 69.0546 90.014 69.0546C91.028 69.0546 91.9164 69.3146 92.679 69.8346C93.4417 70.3546 93.9747 71.0739 94.278 71.9926H92.185C91.977 71.5593 91.6824 71.2343 91.301 71.0176C90.9284 70.8009 90.495 70.6926 90.001 70.6926C89.4724 70.6926 89 70.8183 88.584 71.0696C88.1767 71.3123 87.856 71.6589 87.622 72.1096C87.3967 72.5603 87.284 73.0889 87.284 73.6956C87.284 74.2936 87.3967 74.8223 87.622 75.2816C87.856 75.7323 88.1767 76.0833 88.584 76.3346C89 76.5773 89.4724 76.6986 90.001 76.6986C90.495 76.6986 90.9284 76.5903 91.301 76.3736C91.6824 76.1483 91.977 75.8189 92.185 75.3856H94.278C93.9747 76.3129 93.4417 77.0366 92.679 77.5566C91.925 78.0679 91.0367 78.3236 90.014 78.3236C89.1474 78.3236 88.363 78.1286 87.661 77.7386C86.9677 77.3399 86.4174 76.7896 86.01 76.0876C85.6114 75.3856 85.412 74.5883 85.412 73.6956ZM95.3645 74.6186C95.3645 73.8906 95.5075 73.2449 95.7935 72.6816C96.0882 72.1183 96.4825 71.6849 96.9765 71.3816C97.4792 71.0783 98.0382 70.9266 98.6535 70.9266C99.1909 70.9266 99.6589 71.0349 100.058 71.2516C100.465 71.4683 100.79 71.7413 101.033 72.0706V71.0436H102.866V78.2456H101.033V77.1926C100.799 77.5306 100.474 77.8123 100.058 78.0376C99.6502 78.2543 99.1779 78.3626 98.6405 78.3626C98.0339 78.3626 97.4792 78.2066 96.9765 77.8946C96.4825 77.5826 96.0882 77.1449 95.7935 76.5816C95.5075 76.0096 95.3645 75.3553 95.3645 74.6186ZM101.033 74.6446C101.033 74.2026 100.946 73.8256 100.773 73.5136C100.599 73.1929 100.365 72.9503 100.071 72.7856C99.7759 72.6123 99.4595 72.5256 99.1215 72.5256C98.7835 72.5256 98.4715 72.6079 98.1855 72.7726C97.8995 72.9373 97.6655 73.1799 97.4835 73.5006C97.3102 73.8126 97.2235 74.1853 97.2235 74.6186C97.2235 75.0519 97.3102 75.4333 97.4835 75.7626C97.6655 76.0833 97.8995 76.3303 98.1855 76.5036C98.4802 76.6769 98.7922 76.7636 99.1215 76.7636C99.4595 76.7636 99.7759 76.6813 100.071 76.5166C100.365 76.3433 100.599 76.1006 100.773 75.7886C100.946 75.4679 101.033 75.0866 101.033 74.6446ZM106.463 72.1616C106.697 71.7803 107 71.4813 107.373 71.2646C107.754 71.0479 108.188 70.9396 108.673 70.9396V72.8506H108.192C107.62 72.8506 107.187 72.9849 106.892 73.2536C106.606 73.5223 106.463 73.9903 106.463 74.6576V78.2456H104.643V71.0436H106.463V72.1616ZM109.431 74.6186C109.431 73.8906 109.574 73.2449 109.86 72.6816C110.155 72.1183 110.553 71.6849 111.056 71.3816C111.559 71.0783 112.118 70.9266 112.733 70.9266C113.201 70.9266 113.647 71.0306 114.072 71.2386C114.497 71.4379 114.835 71.7066 115.086 72.0446V68.6256H116.932V78.2456H115.086V77.1796C114.861 77.5349 114.544 77.8209 114.137 78.0376C113.73 78.2543 113.257 78.3626 112.72 78.3626C112.113 78.3626 111.559 78.2066 111.056 77.8946C110.553 77.5826 110.155 77.1449 109.86 76.5816C109.574 76.0096 109.431 75.3553 109.431 74.6186ZM115.099 74.6446C115.099 74.2026 115.012 73.8256 114.839 73.5136C114.666 73.1929 114.432 72.9503 114.137 72.7856C113.842 72.6123 113.526 72.5256 113.188 72.5256C112.85 72.5256 112.538 72.6079 112.252 72.7726C111.966 72.9373 111.732 73.1799 111.55 73.5006C111.377 73.8126 111.29 74.1853 111.29 74.6186C111.29 75.0519 111.377 75.4333 111.55 75.7626C111.732 76.0833 111.966 76.3303 112.252 76.5036C112.547 76.6769 112.859 76.7636 113.188 76.7636C113.526 76.7636 113.842 76.6813 114.137 76.5166C114.432 76.3433 114.666 76.1006 114.839 75.7886C115.012 75.4679 115.099 75.0866 115.099 74.6446ZM121.466 78.3626C120.876 78.3626 120.348 78.2586 119.88 78.0506C119.412 77.8339 119.039 77.5436 118.762 77.1796C118.493 76.8156 118.346 76.4126 118.32 75.9706H120.153C120.187 76.2479 120.322 76.4776 120.556 76.6596C120.798 76.8416 121.097 76.9326 121.453 76.9326C121.799 76.9326 122.068 76.8633 122.259 76.7246C122.458 76.5859 122.558 76.4083 122.558 76.1916C122.558 75.9576 122.436 75.7843 122.194 75.6716C121.96 75.5503 121.583 75.4203 121.062 75.2816C120.525 75.1516 120.083 75.0173 119.737 74.8786C119.399 74.7399 119.104 74.5276 118.853 74.2416C118.61 73.9556 118.489 73.5699 118.489 73.0846C118.489 72.6859 118.601 72.3219 118.827 71.9926C119.061 71.6633 119.39 71.4033 119.815 71.2126C120.248 71.0219 120.755 70.9266 121.336 70.9266C122.194 70.9266 122.878 71.1433 123.39 71.5766C123.901 72.0013 124.183 72.5776 124.235 73.3056H122.493C122.467 73.0196 122.345 72.7943 122.129 72.6296C121.921 72.4563 121.639 72.3696 121.284 72.3696C120.954 72.3696 120.699 72.4303 120.517 72.5516C120.343 72.6729 120.257 72.8419 120.257 73.0586C120.257 73.3013 120.378 73.4876 120.621 73.6176C120.863 73.7389 121.24 73.8646 121.752 73.9946C122.272 74.1246 122.701 74.2589 123.039 74.3976C123.377 74.5363 123.667 74.7529 123.91 75.0476C124.161 75.3336 124.291 75.7149 124.3 76.1916C124.3 76.6076 124.183 76.9803 123.949 77.3096C123.723 77.6389 123.394 77.8989 122.961 78.0896C122.536 78.2716 122.038 78.3626 121.466 78.3626Z" fill="black"/>
<path d="M99.1564 15.8919C99.0286 16.5132 98.8473 17.1298 98.781 17.7576C98.658 18.9179 98.624 20.0862 98.514 21.2481C98.3603 22.8679 98.1628 24.4845 97.9994 26.1043C97.8975 27.1173 97.8295 28.1319 97.734 29.1465C97.6126 30.4297 97.4686 31.7097 97.3537 32.9929C97.2534 34.1127 97.1935 35.2374 97.0867 36.3571C96.9314 37.977 96.7404 39.5919 96.5802 41.2101C96.4767 42.2652 96.4103 43.3235 96.3132 44.3801C96.1935 45.6634 96.0705 46.9466 95.9265 48.2282C95.8148 49.2266 95.8181 50.2704 95.5058 51.2041C94.9977 52.7171 93.8277 53.586 92.2322 53.887C90.6318 54.188 89.0832 53.8126 87.5151 53.6297C86.2141 53.4776 84.9082 53.3773 83.6056 53.2317C82.2463 53.0779 80.8902 52.8886 79.531 52.7284C78.6701 52.6265 77.806 52.5569 76.9435 52.4598C75.479 52.2947 74.0162 52.1119 72.5517 51.9517C71.6051 51.8481 70.6536 51.7915 69.7085 51.6814C68.3719 51.5277 67.0385 51.3351 65.7019 51.1766C64.82 51.0714 63.9332 51.0099 63.0513 50.9079C61.6483 50.7477 60.2486 50.5633 58.8472 50.4014C57.9653 50.2995 57.0802 50.2315 56.1983 50.1328C54.7532 49.9694 53.3114 49.7849 51.868 49.6247C50.944 49.5228 50.0135 49.4629 49.0895 49.3561C47.7319 49.1991 46.3774 49.0033 45.0182 48.8496C43.6945 48.7007 42.3692 48.5551 41.0406 48.4612C38.3528 48.2703 36.445 47.0307 36.0971 44.2021C36.0809 44.0646 35.9676 43.8688 35.8527 43.8235C34.3478 43.2345 33.4481 42.1357 33.0759 40.5855C33.0274 40.3816 33.0096 40.1664 33.0096 39.9576C33.0047 27.9814 32.9837 16.0116 33.0257 4.04022C33.0322 2.12752 34.6423 0.294106 36.623 0.13876C37.814 0.0449048 39.0114 0.00606822 40.2057 0.00606822C55.9652 -0.00202274 71.7264 -0.00202274 87.486 0.00606822C88.834 0.00606822 90.1366 0.266597 91.1383 1.2456C91.8681 1.95761 92.3762 2.85732 92.4263 3.8962C92.5089 5.61149 92.5024 7.33001 92.5331 9.04691C92.538 9.27993 92.5331 9.51457 92.5331 9.73141C93.64 9.89484 94.6967 10.0421 95.7501 10.2104C97.0916 10.424 98.5803 11.8367 98.9024 13.1636C98.9574 13.3918 99.0706 13.6054 99.1564 13.8254V15.8935V15.8919ZM35.2249 7.88181C35.2249 9.99193 35.2265 12.1021 35.2281 14.2122C35.2621 14.2462 35.2961 14.2801 35.33 14.3141C35.4805 14.3222 35.631 14.3352 35.7799 14.3352C53.7532 14.3352 71.7264 14.3352 89.6997 14.3352C89.8874 14.3352 90.0751 14.3352 90.2936 14.3352V7.72808H89.5686C71.7248 7.72808 53.881 7.72808 36.0356 7.72808C35.7993 7.72808 35.5647 7.74588 35.3284 7.75559C35.2928 7.79767 35.2588 7.83812 35.2232 7.88019L35.2249 7.88181ZM38.5664 44.0937C38.5308 44.1277 38.4952 44.1617 38.4596 44.194C38.5292 45.1019 39.28 45.9724 40.2315 46.11C41.463 46.288 42.7058 46.3851 43.9437 46.5129C44.8272 46.6035 45.7107 46.678 46.5927 46.7799C47.9714 46.9401 49.3484 47.1262 50.7288 47.2848C51.6301 47.3884 52.5379 47.4515 53.4392 47.555C54.8406 47.7152 56.2403 47.8997 57.6417 48.0615C58.522 48.1619 59.4071 48.2266 60.2874 48.3269C61.6888 48.4887 63.0869 48.6748 64.4866 48.8366C65.3685 48.9386 66.2537 49.0033 67.134 49.1036C68.5564 49.2655 69.9755 49.4499 71.3979 49.6118C72.3009 49.7137 73.2071 49.7784 74.11 49.882C75.4887 50.0406 76.8658 50.2283 78.2445 50.3869C79.1475 50.4904 80.0553 50.5535 80.9598 50.6571C82.3612 50.8173 83.7609 50.9986 85.1607 51.1652C86.062 51.272 86.9649 51.3691 87.8679 51.4613C89.0654 51.5827 90.2612 51.7559 91.4619 51.7931C92.4344 51.8238 93.2937 51.0908 93.4587 50.1344C93.6481 49.0389 93.7435 47.9256 93.852 46.8171C93.9588 45.7184 94.0186 44.6164 94.1222 43.5176C94.2355 42.3186 94.3876 41.1243 94.4992 39.9253C94.6028 38.8055 94.6643 37.6824 94.7679 36.5627C94.8811 35.3442 95.0316 34.1289 95.1449 32.9104C95.2469 31.8133 95.3067 30.7113 95.4135 29.6141C95.5705 27.9959 95.7631 26.3826 95.92 24.7644C96.0268 23.6673 96.0883 22.5653 96.187 21.4665C96.3052 20.1607 96.4475 18.8564 96.5673 17.5505C96.666 16.4744 96.7162 15.3935 96.8472 14.3222C96.9589 13.4047 96.4395 12.3496 95.5802 12.1813C94.598 11.9872 93.585 11.9467 92.5299 11.8318V12.6393C92.5299 21.4455 92.5331 30.2501 92.5218 39.0563C92.5218 39.6243 92.4587 40.2068 92.3195 40.7554C91.8033 42.8056 89.9343 44.0937 87.7142 44.0905C71.5889 44.0662 55.4636 44.0775 39.3367 44.0775C39.0794 44.0775 38.8205 44.0872 38.5632 44.0921L38.5664 44.0937ZM35.2249 16.667C35.2184 16.7091 35.2071 16.7527 35.2071 16.7948C35.2071 24.5006 35.2022 32.2065 35.2071 39.9139C35.2071 40.8735 36.1246 41.8169 37.0987 41.8525C37.958 41.8849 38.8205 41.8736 39.6814 41.8736C55.6529 41.8736 71.6261 41.8736 87.5977 41.8687C87.9957 41.8687 88.4148 41.8509 88.787 41.7295C90.0088 41.3266 90.3227 40.333 90.3227 39.1809C90.3259 31.8408 90.3243 24.5006 90.3243 17.1605V16.5391H89.5719C71.7054 16.5391 53.8389 16.5391 35.9725 16.5391C35.7572 16.5391 35.5436 16.5537 35.3284 16.5602L35.2232 16.6686L35.2249 16.667ZM35.0841 5.48041H90.2839C90.2369 4.8655 90.2887 4.26839 90.1285 3.73277C89.8178 2.68256 89.1204 2.21328 87.677 2.21005C75.7719 2.19225 63.8652 2.20034 51.9602 2.20034C47.117 2.20034 42.2721 2.20034 37.4288 2.20034C36.5582 2.20034 35.822 2.55148 35.4951 3.33954C35.2313 3.97711 35.22 4.71986 35.0857 5.4788L35.0841 5.48041Z" fill="black"/>
<path d="M35.3308 7.75732C35.2952 7.7994 35.2612 7.83985 35.2256 7.88193C35.2612 7.83985 35.2952 7.7994 35.3308 7.75732Z" fill="black"/>
<path d="M35.2275 14.2124C35.2615 14.2464 35.2955 14.2804 35.3295 14.3143C35.2955 14.2804 35.2615 14.2464 35.2275 14.2124Z" fill="black"/>
<path d="M35.3308 16.5586C35.2952 16.5942 35.2612 16.6314 35.2256 16.667C35.2612 16.6314 35.2952 16.5942 35.3308 16.5586Z" fill="black"/>
<path d="M38.5658 44.0918C38.5302 44.1258 38.4946 44.1598 38.459 44.1921C38.4946 44.1581 38.5302 44.1242 38.5658 44.0918Z" fill="black"/>
<path d="M76.9011 37.4687C74.0385 37.4687 71.1759 37.4687 68.3133 37.4687C67.5576 37.4687 67.1644 37.0658 67.1644 36.323C67.1644 33.0737 67.1822 29.8227 67.1515 26.5734C67.1434 25.7756 67.6272 25.3986 68.2777 25.3484C68.4282 25.3371 68.5787 25.3419 68.7292 25.3419C74.2828 25.3419 79.8349 25.3436 85.3885 25.3403C86.5196 25.3403 87.0002 25.5701 87.0067 26.9715C87.0196 29.8777 87.0035 32.7824 87.0132 35.6887C87.018 37.213 86.5148 37.4897 85.2299 37.4784C82.4531 37.4541 79.6763 37.4719 76.9011 37.4687ZM84.7898 35.1433V27.5783H69.4186V35.2485H84.6862L84.7898 35.1433Z" fill="black"/>
<path d="M45.603 27.533C43.2162 27.533 40.8309 27.5232 38.4441 27.541C37.9409 27.5443 37.5719 27.3226 37.4942 26.8824C37.4279 26.5119 37.478 26.0183 37.6868 25.7319C37.8632 25.4892 38.3389 25.3597 38.6836 25.3581C43.3052 25.3338 47.9283 25.3306 52.5499 25.35C53.7781 25.3549 54.0467 26.0911 53.791 26.8938C53.6228 27.4181 53.1567 27.5508 52.634 27.5491C50.2909 27.541 47.9478 27.5459 45.603 27.5459C45.603 27.5427 45.603 27.5378 45.603 27.5346V27.533Z" fill="black"/>
<path d="M42.8304 23.1379C41.4113 23.1379 39.9921 23.146 38.573 23.1347C37.7914 23.1282 37.4014 22.7528 37.3965 22.044C37.3917 21.311 37.7849 20.9404 38.6069 20.9388C41.4032 20.934 44.1978 20.921 46.994 20.9534C47.3743 20.9582 47.8759 21.0958 48.096 21.3612C48.3096 21.6185 48.3226 22.133 48.2611 22.5068C48.1818 22.9923 47.7384 23.1331 47.2821 23.1347C45.7982 23.1396 44.3143 23.1347 42.8304 23.1363V23.1379Z" fill="black"/>
<path d="M56.0135 23.1353C54.5927 23.1353 53.1719 23.1434 51.7528 23.1321C51.0278 23.1272 50.5602 22.7243 50.5828 22.1013C50.6103 21.3747 51.2171 20.9184 51.8046 20.9249C54.6024 20.954 57.4003 20.9103 60.1981 20.9491C61.258 20.9637 61.5606 21.2453 61.559 22.0317C61.559 22.7502 61.1836 23.1289 60.4036 23.1353C58.9408 23.145 57.4763 23.1386 56.0135 23.1386V23.1353Z" fill="black"/>
<path d="M58.7583 27.5235C58.2 27.5235 57.6401 27.5203 57.0819 27.5235C56.4686 27.5284 56.221 27.1255 56.1401 26.6174C56.0527 26.0688 56.2307 25.5121 56.831 25.4781C58.1434 25.4021 59.4655 25.3875 60.7762 25.4781C61.4769 25.5267 61.663 25.9329 61.5513 26.7274C61.4752 27.2695 61.0578 27.4993 60.5626 27.53C59.9622 27.5672 59.3587 27.5381 58.7567 27.5381C58.7567 27.5333 58.7567 27.5284 58.7567 27.5252L58.7583 27.5235Z" fill="black"/>
<path d="M84.6846 35.2487L84.7881 35.1436L84.6846 35.2487Z" fill="black"/>
</svg>
