<svg width="28" height="28" viewBox="0 0 28 28" fill="none" xmlns="http://www.w3.org/2000/svg">
<path d="M16.4767 14.0001L27.4891 2.98755C27.8164 2.6582 28 2.21376 28 1.75065C28 1.28754 27.8164 0.843105 27.4891 0.513748C27.327 0.350965 27.1342 0.221781 26.9217 0.133592C26.7091 0.0454019 26.481 0 26.2507 0C26.0204 0 25.7924 0.0454019 25.5799 0.133592C25.3673 0.221781 25.1744 0.350965 25.0123 0.513748L14 11.5262L2.98766 0.513748C2.82563 0.350965 2.6327 0.221781 2.42015 0.133592C2.20759 0.0454019 1.97961 0 1.7493 0C1.51899 0 1.2909 0.0454019 1.07834 0.133592C0.865789 0.221781 0.672967 0.350965 0.510936 0.513748C0.183595 0.843105 0 1.28754 0 1.75065C0 2.21376 0.183595 2.6582 0.510936 2.98755L11.5233 14.0001L0.510936 25.0124C0.183595 25.3418 0 25.7862 0 26.2493C0 26.7125 0.183595 27.1569 0.510936 27.4863C0.672967 27.649 0.865789 27.7782 1.07834 27.8664C1.2909 27.9546 1.51899 28 1.7493 28C1.97961 28 2.20759 27.9546 2.42015 27.8664C2.6327 27.7782 2.82563 27.649 2.98766 27.4863L14 16.4738L25.0123 27.4863C25.1744 27.649 25.3673 27.7782 25.5799 27.8664C25.7924 27.9546 26.0204 28 26.2507 28C26.481 28 26.7091 27.9546 26.9217 27.8664C27.1342 27.7782 27.327 27.649 27.4891 27.4863C27.8164 27.1569 28 26.7125 28 26.2493C28 25.7862 27.8164 25.3418 27.4891 25.0124L16.4767 14.0001Z" fill="white"/>
</svg>
