<svg width="36" height="35" viewBox="0 0 36 35" fill="none" xmlns="http://www.w3.org/2000/svg">
<path d="M0.000913005 17.9825C0.0483893 17.9113 0.104996 17.8446 0.142429 17.7688C0.530456 16.9745 1.35125 16.6221 2.20217 16.8723C2.29895 16.9006 2.45964 16.8933 2.52172 16.8321C4.25643 15.1056 5.98201 13.3709 7.70942 11.6362C7.02193 10.2256 7.15705 8.99669 8.10384 8.06816C9.03328 7.15607 10.2804 7.0319 11.6965 7.75318C11.7549 7.67283 11.8161 7.56053 11.9038 7.47288C13.5189 5.85139 15.1358 4.2308 16.7564 2.61478C16.8897 2.48148 16.9363 2.3774 16.8696 2.17928C16.6213 1.43792 16.9171 0.659123 17.5717 0.25101C18.2181 -0.152539 19.0663 -0.0621511 19.6187 0.469218C20.1564 0.985979 20.2833 1.82229 19.9236 2.47874C19.5548 3.15163 18.7833 3.5004 18.0382 3.2831C17.7735 3.2055 17.631 3.27671 17.4585 3.45475C16.5555 4.38419 15.6407 5.30176 14.7213 6.23302C20.3993 4.05003 25.7376 4.68456 30.7993 8.21424C31.0431 7.95039 31.3042 7.64909 31.5836 7.36697C31.9068 7.04103 32.1798 7.03738 32.4975 7.35145C33.259 8.10377 34.0158 8.86065 34.7682 9.6221C35.0758 9.93343 35.0777 10.2055 34.7746 10.5114C34.014 11.2801 33.2489 12.0452 32.4793 12.8057C32.1926 13.0888 31.9059 13.087 31.6137 12.8003C30.8413 12.0425 30.0726 11.2819 29.3084 10.5159C29.0126 10.2192 29.0226 9.92795 29.3175 9.62392C29.5156 9.42032 29.7156 9.21855 29.9137 9.01678C25.3469 5.45058 18.062 4.88177 12.5602 8.72918C13.1098 10.0256 12.982 11.2299 11.8864 12.1895C10.9433 13.0157 9.85407 13.0605 8.73107 12.5528C5.33378 17.2621 4.94575 24.4794 9.02049 29.9776C9.22409 29.7548 9.41217 29.5302 9.61943 29.3257C9.92254 29.0262 10.2165 29.0226 10.5133 29.3174C11.2793 30.0816 12.0407 30.8495 12.7976 31.6228C13.0642 31.8949 13.0888 32.1889 12.8423 32.4372C11.9859 33.2982 11.1168 34.1463 10.2521 34.9991H9.8422C9.02506 34.1838 8.20609 33.3694 7.38987 32.5522C7.02193 32.1834 7.01736 31.9259 7.38348 31.5662C7.6592 31.2959 7.95045 31.0412 8.20883 30.8038C4.71659 25.7969 4.05831 20.5051 6.14635 14.839C6.03314 14.8938 5.95462 14.965 5.87884 15.0399C5.04801 15.8671 4.22082 16.6988 3.38269 17.5187C3.23113 17.6666 3.20921 17.7853 3.2713 17.9889C3.5315 18.8489 3.08413 19.7272 2.25421 20.0358C1.42338 20.3444 0.526804 19.9701 0.137864 19.1548C0.101344 19.0781 0.0465633 19.0105 0 18.9384C0 18.6198 0 18.3002 0 17.9816L0.000913005 17.9825ZM10.0522 11.7841C11.0063 11.7932 11.7659 11.0455 11.7723 10.0923C11.7787 9.14094 11.0273 8.36945 10.0841 8.35941C9.15471 8.34937 8.36587 9.12451 8.35217 10.0613C8.33939 10.9971 9.10723 11.7759 10.0522 11.785V11.7841ZM10.0878 30.4605C9.5473 31.0029 9.02141 31.5315 8.53934 32.0154C9.05519 32.5349 9.58656 33.0699 10.0914 33.5784C10.5954 33.0763 11.125 32.5486 11.65 32.0254C11.135 31.5087 10.6073 30.98 10.0887 30.4605H10.0878ZM32.0839 8.51736C31.548 9.05421 31.0194 9.58284 30.5473 10.0549C31.0449 10.5634 31.5672 11.0975 32.041 11.5805C32.5505 11.071 33.0773 10.5442 33.5931 10.0266C33.101 9.53445 32.5797 9.01312 32.0839 8.51736ZM18.4646 1.10193C18.1423 1.09737 17.8776 1.36031 17.8785 1.68443C17.8785 1.99668 18.1222 2.25141 18.4318 2.26419C18.7531 2.27697 19.0279 2.02133 19.038 1.69995C19.048 1.38131 18.7851 1.1065 18.4646 1.10193ZM2.25604 18.4445C2.24691 18.1213 1.98122 17.8775 1.65254 17.8912C1.33664 17.904 1.13213 18.1267 1.14217 18.4454C1.15313 18.7704 1.42064 19.0206 1.74201 19.0051C2.04787 18.9904 2.26425 18.754 2.25604 18.4445ZM6.2057 14.7979C6.19748 14.7906 6.19018 14.7833 6.18287 14.7769C6.17557 14.7906 6.16644 14.8034 6.16279 14.818C6.16187 14.8235 6.17557 14.8317 6.18196 14.839C6.18926 14.8253 6.19748 14.8125 6.2057 14.7979Z" fill="white"/>
<path d="M25.7659 35C25.6326 34.8366 25.4646 34.6914 25.3706 34.5079C24.8365 33.4689 24.3261 32.4162 23.7893 31.379C23.7108 31.2265 23.5501 31.0741 23.3921 31.012C21.5862 30.3035 19.7766 29.6069 17.9616 28.9221C17.6365 28.7998 17.4457 28.6108 17.3161 28.2857C15.4965 23.7107 13.6686 19.1402 11.8317 14.5715C11.6737 14.1798 11.7212 13.894 12.0353 13.601C12.6004 13.0723 13.14 12.5163 13.6805 11.9621C13.9087 11.7275 14.1489 11.6809 14.4511 11.8014C19.0964 13.6603 23.7418 15.5174 28.3899 17.368C28.6602 17.4758 28.7989 17.6647 28.8975 17.9213C29.5814 19.7126 30.2771 21.4994 30.9509 23.2943C31.0559 23.5728 31.2129 23.7371 31.4741 23.8641C32.4948 24.3589 33.5073 24.872 34.5217 25.3806C35.0941 25.6682 35.1562 26.0169 34.7088 26.4652C31.957 29.2197 29.2025 31.9725 26.4489 34.7252C26.3576 34.8165 26.2672 34.9078 26.1759 34.9991H25.7659V35ZM14.0229 13.1938C16.3684 15.5402 18.7084 17.8811 21.0512 20.2248C22.8845 19.0927 24.6685 19.887 25.4583 20.9616C26.3968 22.2389 26.2982 23.9754 25.2008 25.1222C24.1271 26.2452 22.3723 26.4323 21.0813 25.554C20.4267 25.1085 19.9848 24.5004 19.7821 23.7344C19.5265 22.7694 19.6981 21.8673 20.213 21.0885C17.8493 18.7247 15.5101 16.3847 13.161 14.0356C13.0514 14.1533 12.8688 14.2273 12.982 14.5076C14.7487 18.8964 16.5008 23.2916 18.2656 27.6813C18.3122 27.7973 18.4418 27.9151 18.5605 27.9616C20.2614 28.6272 21.9688 29.2773 23.6697 29.9438C23.8742 30.0241 23.9901 29.983 24.1371 29.8351C26.0316 27.9297 27.9316 26.0297 29.837 24.1352C29.9904 23.9827 30.0096 23.8604 29.9329 23.6641C29.2819 21.9942 28.6383 20.3207 28.0046 18.6435C27.9197 18.4189 27.7873 18.3039 27.5719 18.218C23.2497 16.497 18.9284 14.7723 14.6136 13.034C14.3214 12.9162 14.1498 12.9409 14.0229 13.1947V13.1938ZM33.4945 26.1027C32.5797 25.6444 31.6895 25.1989 30.8395 24.7734C28.8053 26.8058 26.7885 28.8217 24.7598 30.8485C25.1953 31.7168 25.6445 32.6097 26.0928 33.5036C28.5734 31.0229 31.0185 28.5779 33.4954 26.1027H33.4945ZM20.7627 22.8798C20.7581 24.0567 21.7076 25.0154 22.879 25.0163C24.0449 25.0163 25.0118 24.0476 25.0072 22.8817C25.0027 21.7231 24.0568 20.7772 22.8982 20.7726C21.7085 20.7681 20.7681 21.6957 20.7627 22.8798Z" fill="white"/>
<path d="M6.20665 14.7979C6.19843 14.8125 6.19113 14.8252 6.18291 14.8389C6.17652 14.8316 6.16283 14.8234 6.16374 14.8179C6.16739 14.8033 6.17652 14.7906 6.18383 14.7769C6.19113 14.7832 6.19843 14.7906 6.20665 14.7979Z" fill="white"/>
</svg>
