<svg width="57" height="60" viewBox="0 0 57 60" fill="none" xmlns="http://www.w3.org/2000/svg">
<path d="M20.7957 41.5577C20.9387 41.7792 21.0471 41.9568 21.1634 42.128C23.4904 45.5644 25.8158 49.0007 28.1476 52.4339C29.1595 53.925 29.3606 55.5151 28.6755 57.1759C27.5709 59.8486 24.1975 60.8479 21.7824 59.1934C21.1665 58.7707 20.5946 58.2098 20.1703 57.5954C17.5448 53.7946 14.9679 49.9607 12.3738 46.1379C12.2198 45.9116 12.0627 45.6885 11.9605 45.5424C10.9518 45.8833 10.0075 46.339 9.01285 46.5165C4.40907 47.3414 0.909888 44.0732 0.177684 40.3949C-0.46653 37.1613 0.652203 34.5341 3.35162 32.6251C4.88516 31.5409 6.46899 30.5259 8.00567 29.4449C8.33878 29.2107 8.65617 28.8745 8.8353 28.5131C11.8427 22.4559 14.8265 16.3893 17.8166 10.3227C18.5378 8.86142 19.7555 8.10251 21.3331 7.91396C23.3254 7.6767 25.1229 8.33505 26.8324 9.25738C30.0064 10.97 32.5675 13.4071 34.8191 16.1803C38.0213 20.1226 40.5338 24.4483 41.8489 29.3946C42.4586 31.6855 42.776 34.0078 42.149 36.3584C41.5975 38.4261 39.9666 40.0587 37.4903 40.2064C32.0742 40.5301 26.669 41.0407 21.2592 41.4775C21.1272 41.4885 20.9968 41.5199 20.7973 41.5545L20.7957 41.5577ZM19.1082 14.4598C19.072 14.4708 19.0359 14.4818 18.9997 14.4928C19.2983 15.9446 19.4821 17.431 19.9158 18.8405C21.7117 24.6792 25.0019 29.5988 29.4109 33.7784C31.166 35.4423 33.108 36.8769 35.4571 37.6122C36.0557 37.7992 36.7423 37.9359 37.3441 37.8322C38.6703 37.6075 39.426 36.6569 39.7906 35.4109C40.273 33.7642 40.0907 32.1081 39.7387 30.4693C39.0898 27.4494 37.7464 24.7185 36.1406 22.1087C33.9801 18.5969 31.4315 15.4136 28.1334 12.8885C26.6329 11.74 25.0365 10.7611 23.1667 10.3274C21.1414 9.8576 19.6801 10.7941 19.2857 12.8273C19.182 13.3631 19.1647 13.9146 19.1082 14.4598ZM17.0152 17.1215C14.9836 21.268 12.9598 25.3879 10.9612 29.5203C10.8826 29.6837 10.9785 30.0026 11.0979 30.1786C13.0761 33.1184 15.0795 36.041 17.0482 38.9855C17.3059 39.3705 17.5589 39.4742 17.9957 39.438C21.96 39.1112 25.9243 38.8048 29.8901 38.4906C30.3976 38.4497 30.9036 38.3947 31.3922 38.3476C24.0466 32.9802 19.2511 25.9504 17.0152 17.1199V17.1215ZM9.17469 31.5001C9.02856 31.588 8.90757 31.6525 8.79444 31.7295C7.32375 32.7335 5.82791 33.7045 4.39022 34.7526C2.19675 36.3537 1.6908 39.3312 3.15992 41.6724C4.74218 44.1942 7.62229 45.148 10.0467 43.781C11.8301 42.7769 13.4784 41.5357 15.2083 40.3855C13.1751 37.3907 11.1765 34.4477 9.17312 31.4985L9.17469 31.5001ZM13.7989 44.1314C14.3284 44.9091 14.8218 45.6366 15.3151 46.3641C17.5998 49.7329 19.8828 53.1017 22.1705 56.4689C22.8572 57.4792 23.8581 57.8956 24.8904 57.6237C26.6235 57.1681 27.2834 55.2951 26.2369 53.7443C23.6538 49.9167 21.0565 46.097 18.4655 42.2757C18.0821 41.7101 17.5589 41.5828 16.998 41.9583C15.9405 42.6622 14.8956 43.3866 13.7989 44.1345V44.1314Z" fill="#2C35CD"/>
<path d="M53.7703 9.87346C53.4844 10.2726 53.3304 10.6685 53.0429 10.8618C50.3937 12.6373 47.7273 14.3845 45.053 16.1223C44.4701 16.501 43.7395 16.3313 43.3875 15.8018C43.023 15.255 43.166 14.5652 43.7709 14.1661C46.4153 12.4205 49.0692 10.6874 51.7183 8.948C52.1315 8.67617 52.5919 8.59603 52.9831 8.88672C53.2833 9.10983 53.4702 9.48379 53.7719 9.87346H53.7703Z" fill="#2C35CD"/>
<path d="M46.1465 21.6328C47.5512 21.8826 48.8208 22.1058 50.0903 22.3336C51.9554 22.6683 53.8205 23.0108 55.6872 23.3376C56.4429 23.4696 56.919 23.9834 56.8357 24.6292C56.7446 25.3363 56.0973 25.7794 55.3163 25.6411C53.1417 25.2546 50.9702 24.8586 48.7972 24.4658C47.9126 24.3055 47.0233 24.1704 46.1449 23.9834C45.1645 23.7744 44.7701 22.7594 45.408 22.0806C45.617 21.8575 45.9485 21.7491 46.1481 21.6328H46.1465Z" fill="#2C35CD"/>
<path d="M37.386 9.76522C37.6202 7.44762 37.8558 5.13159 38.0915 2.81399C38.1497 2.24991 38.2062 1.68426 38.2691 1.12018C38.3524 0.372265 38.8772 -0.0708289 39.5764 0.00930508C40.23 0.0847253 40.6448 0.639378 40.5725 1.35744C40.2803 4.19984 39.9865 7.04224 39.6879 9.88307C39.6109 10.6153 39.1223 11.0458 38.4435 11.0049C37.8087 10.9672 37.364 10.4456 37.386 9.76208V9.76522Z" fill="#2C35CD"/>
<path d="M27.4925 19.2129C30.2469 19.2098 32.6289 20.8737 33.5214 23.4286C34.4044 25.952 33.5779 28.7866 31.4489 30.4348C31.1708 30.6501 30.8047 30.8135 30.459 30.8669C29.9656 30.9407 29.5901 30.6532 29.3953 30.2007C29.202 29.7529 29.2648 29.3145 29.6074 28.95C29.7409 28.8085 29.9075 28.7001 30.0583 28.576C31.6516 27.2671 31.9941 24.9904 30.8534 23.2903C29.7001 21.5729 27.4265 21.0293 25.6133 22.0396C25.4766 22.115 25.3477 22.2061 25.2079 22.2737C24.6281 22.5565 23.9933 22.379 23.6728 21.8495C23.3554 21.3262 23.4999 20.6726 24.0169 20.2908C24.8873 19.6481 26.281 19.216 27.4909 19.2145L27.4925 19.2129Z" fill="#2C35CD"/>
</svg>
