<svg width="30" height="30" viewBox="0 0 30 30" fill="none" xmlns="http://www.w3.org/2000/svg">
<path fill-rule="evenodd" clip-rule="evenodd" d="M5 15C5 9.47718 9.47715 5.00003 15 5.00003C20.5229 5.00003 25 9.47718 25 15C25 20.0995 21.1829 24.3075 16.25 24.9227V17.5H18.75C19.4404 17.5 20 16.9404 20 16.25C20 15.5597 19.4404 15 18.75 15H16.25V12.5C16.25 11.8097 16.8096 11.25 17.5 11.25H18.125C18.8154 11.25 19.375 10.6904 19.375 10C19.375 9.30968 18.8154 8.75003 18.125 8.75003H17.5C15.4289 8.75003 13.75 10.429 13.75 12.5V15H11.25C10.5596 15 10 15.5597 10 16.25C10 16.9404 10.5596 17.5 11.25 17.5H13.75V24.9227C8.81711 24.3075 5 20.0995 5 15ZM15 27.5C21.9035 27.5 27.5 21.9035 27.5 15C27.5 8.09647 21.9035 2.50003 15 2.50003C8.09644 2.50003 2.5 8.09647 2.5 15C2.5 21.9035 8.09644 27.5 15 27.5Z" fill="white"/>
</svg>
