<svg width="60" height="60" viewBox="0 0 60 60" fill="none" xmlns="http://www.w3.org/2000/svg">
<path d="M26.2441 0.00156544H32.8064C33.3293 0.314652 33.5078 0.781152 33.4733 1.37602C33.4436 1.87852 33.467 2.38259 33.467 2.91328H53.1258C53.1258 2.59236 53.1101 2.29962 53.1289 2.01002C53.1712 1.38228 53.4999 1.00501 54.1136 0.990921C55.4207 0.962743 56.731 0.962743 58.0381 0.989355C58.6518 1.00188 59.0228 1.38854 59.0322 2.00063C59.0541 3.28898 59.0541 4.5789 59.0322 5.86725C59.0212 6.49656 58.6236 6.85974 57.9849 6.89261C57.6969 6.90827 57.4072 6.89574 57.091 6.89574V53.1043C57.3415 53.1043 57.5701 53.1027 57.8002 53.1043C58.6878 53.1137 59.0369 53.4627 59.04 54.3566C59.0447 55.5276 59.0494 56.7001 59.0384 57.871C59.0322 58.5958 58.68 58.9997 57.9912 59.0138C56.7232 59.0388 55.452 59.0373 54.184 59.0138C53.5078 59.0013 53.1649 58.6255 53.1289 57.9399C53.1148 57.6565 53.1258 57.3701 53.1258 57.0805H33.467C33.467 57.6863 33.478 58.2671 33.4639 58.8478C33.4436 59.6384 33.0882 59.9937 32.3071 59.9953C30.452 60.0016 28.597 60.0016 26.7419 59.9953C25.9608 59.9922 25.607 59.6368 25.5882 58.8447C25.5741 58.2639 25.5851 57.6832 25.5851 57.0867H5.92478C5.92478 57.3936 5.9373 57.6675 5.92165 57.9399C5.88408 58.6271 5.54125 58.9997 4.86342 59.0122C3.59385 59.0341 2.32428 59.0357 1.05628 59.0122C0.405056 58.9997 0.026221 58.6224 0.015263 57.9853C-0.00508766 56.6969 -0.00508766 55.407 0.015263 54.1187C0.026221 53.5144 0.412884 53.1481 1.01558 53.109C1.32084 53.0886 1.62923 53.1058 1.9564 53.1058V6.89418C1.65897 6.89418 1.38972 6.902 1.12046 6.89418C0.411318 6.86913 0.0215247 6.50595 0.0121321 5.80776C-0.00352223 4.55855 -0.00352223 3.30776 0.0121321 2.05855C0.0215247 1.38228 0.390967 0.995617 1.06724 0.984659C2.3368 0.962743 3.60637 0.962743 4.87437 0.984659C5.52716 0.997182 5.87312 1.36036 5.91695 2.01002C5.9373 2.31215 5.92008 2.61584 5.92008 2.91484H25.5804C25.5804 2.38259 25.6039 1.87696 25.5741 1.37445C25.5381 0.778021 25.7181 0.313087 26.241 0L26.2441 0.00156544ZM40.5585 9.39731C40.9858 11.268 39.8869 13.145 37.9191 13.9245C36.36 14.5429 34.7257 14.6149 33.0788 14.4724C31.2895 14.3175 29.5034 14.1202 27.7078 14.4192C25.0904 14.856 23.9273 16.387 24.375 18.8651C24.4204 19.1202 24.6067 19.402 24.8118 19.5664C30.1499 23.8275 35.499 28.0761 40.8465 32.3262C41.8484 33.123 41.875 33.4424 41.0892 34.4286C39.6458 36.2398 39.1872 38.2138 40.0481 40.4446C40.8669 42.5689 41.6198 44.7182 42.4025 46.8566C42.8753 48.1497 43.3465 49.4427 43.8224 50.7467C52.8111 44.8889 57.2147 33.8823 54.1136 23.1262C50.9342 12.0914 41.2316 6.17877 33.5203 5.30526C33.5078 5.32091 33.4843 5.335 33.4843 5.35066C33.4764 5.79837 33.4764 6.24765 33.4655 6.69537C33.4436 7.52661 33.1054 7.86162 32.2726 7.86318C30.4364 7.86788 28.6017 7.86788 26.7654 7.86318C25.9404 7.86162 25.6023 7.52192 25.5851 6.68441C25.5757 6.22104 25.5835 5.75767 25.5835 5.28804C14.5848 6.64214 3.80362 16.5247 3.97112 30.2959C4.13705 44.0232 15.0607 53.4627 25.5882 54.7041C25.5882 54.1766 25.5757 53.6537 25.5913 53.1324C25.6101 52.4906 26.0328 52.1963 26.6245 52.0789C25.9185 50.1472 25.1828 48.2812 24.555 46.3792C23.7504 43.9433 22.0503 42.6628 19.5863 42.2683C18.4436 42.0852 18.1962 41.7189 18.4201 40.6011C19.6568 34.4693 20.8966 28.3359 22.127 22.2026C22.3634 21.0285 22.5732 19.881 22.3806 18.6381C21.9611 15.9173 23.3496 13.7899 25.9514 12.8632C27.8174 12.1994 29.7444 12.2088 31.6793 12.3763C33.3136 12.5172 34.948 12.7082 36.5713 12.2996C38.0334 11.9317 38.5735 11.3071 38.7175 9.81215C39.3077 9.67909 39.9104 9.54446 40.56 9.39887L40.5585 9.39731ZM23.9555 23.7336C23.9101 23.7383 23.8631 23.743 23.8177 23.7492C22.7047 29.2956 21.5917 34.8403 20.4755 40.4008C20.6336 40.4524 20.7401 40.4947 20.8512 40.5244C23.5234 41.2445 25.3925 42.8413 26.3146 45.49C26.6339 46.4073 26.9799 47.3137 27.3243 48.2561C31.3067 46.7987 35.2469 45.3569 39.2153 43.9042C38.849 42.8945 38.4984 41.9239 38.1446 40.9565C37.7219 39.8028 37.5481 38.6255 37.7062 37.3951C37.8863 35.9894 38.4404 34.7417 39.2513 33.5661C34.7898 30.0423 30.3769 26.484 25.9123 22.9931C25.8825 23.0369 25.8543 23.0792 25.8246 23.123C26.9517 26.1976 28.0788 29.2721 29.1997 32.3262C31.6621 32.2808 33.1508 34.1907 33.0052 36.1318C32.8831 37.7552 31.6918 39.0811 30.1687 39.3707C28.5798 39.6728 27.0049 38.923 26.2801 37.5188C25.5459 36.0958 25.8246 34.4286 27.0347 33.2937C27.3086 33.0369 27.2992 32.8475 27.185 32.5423C26.4758 30.6465 25.7855 28.7445 25.0888 26.8456C24.71 25.8093 24.3327 24.773 23.9555 23.7351V23.7336ZM55.0607 53.0542V40.2254C51.9815 47.2527 46.9173 52.0507 39.9777 55.0423H53.1023C53.1555 53.863 53.8078 53.2008 55.0591 53.0557L55.0607 53.0542ZM19.065 55.0517C12.0519 52.0586 7.07068 47.1963 3.99616 40.2207V53.0761C5.54125 53.1371 5.92165 52.954 5.96079 55.0501H19.065V55.0517ZM4.00086 6.93801V19.7683C7.07225 12.7912 12.0629 7.93832 19.0478 4.95147H5.9467C5.88617 6.14851 5.23808 6.81069 4.00243 6.93801H4.00086ZM39.973 4.94208C47.0096 7.94928 51.9846 12.8162 55.0419 19.7448V7.05229C54.4392 6.87539 53.7613 6.86756 53.4342 6.5263C53.107 6.18347 53.132 5.5072 52.9927 4.94208H39.9714H39.973ZM39.8963 45.7514C35.8903 47.2182 31.9642 48.6537 28.0005 50.1049C28.2542 50.7968 28.4984 51.4637 28.7457 52.1368C29.9558 52.1368 31.1267 52.1321 32.2977 52.1368C33.096 52.14 33.4389 52.4734 33.4608 53.2718C33.4749 53.7524 33.4639 54.2329 33.4639 54.7683C36.565 54.2815 39.4126 53.3187 42.1098 51.8034C41.3678 49.773 40.6414 47.7865 39.8963 45.7514ZM27.5748 5.84847H31.4743V2.01785H27.5748V5.84847ZM27.5763 57.9775H31.4727V54.1531H27.5763V57.9775ZM27.8644 35.8688C27.8628 36.7533 28.5704 37.475 29.4408 37.4796C30.3017 37.4828 31.0391 36.7502 31.0438 35.886C31.0485 35.0078 30.3362 34.2893 29.4564 34.2862C28.5688 34.283 27.8659 34.9812 27.8644 35.8704V35.8688ZM2.02059 2.97276V4.88259H3.93511V2.97276H2.02059ZM57.0253 4.90138V2.99155H55.1155V4.90138H57.0253ZM3.93824 55.1018H2.01902V57.0116H3.93668V55.1018H3.93824ZM55.0998 57.0038H57.03V55.1158H55.0998V57.0038Z" fill="black"/>
</svg>
