<svg width="26" height="31" viewBox="0 0 26 31" fill="none" xmlns="http://www.w3.org/2000/svg">
<path d="M12.8985 30.35C12.4987 30.3358 12.1117 30.2056 11.7847 29.9752C8.54399 27.8912 5.69782 25.25 3.37788 22.1739C1.23131 19.4488 0.0439576 16.0916 6.63865e-07 12.6229C-0.000544876 10.956 0.335144 9.30615 0.986984 7.77197C1.63882 6.2378 2.59342 4.85087 3.79367 3.69416C6.22259 1.31679 9.48911 -0.00987713 12.8879 0.000646337C16.2723 -0.0333687 19.5321 1.27642 21.9522 3.6427C24.3722 6.00899 25.7549 9.23854 25.7969 12.6229C25.7506 16.0922 24.5611 19.4493 22.413 22.1739C20.0831 25.2416 17.2381 27.8813 14.0047 29.9752C13.6814 30.2073 13.2963 30.3378 12.8985 30.35ZM12.8879 8.76706C11.761 8.76706 10.6802 9.21471 9.88342 10.0115C9.08659 10.8084 8.63894 11.8891 8.63894 13.016C8.6369 13.5685 8.74617 14.1158 8.96021 14.6253C9.17425 15.1347 9.48869 15.5958 9.88478 15.9811C10.4821 16.5618 11.2358 16.9558 12.0535 17.1147C12.8713 17.2737 13.7177 17.1908 14.489 16.8761C15.2604 16.5615 15.9233 16.0287 16.3965 15.3431C16.8697 14.6575 17.1328 13.8488 17.1535 13.016C17.1439 11.8886 16.6905 10.8105 15.8914 10.0152C15.0924 9.21984 14.0122 8.77141 12.8848 8.76706H12.8879Z" fill="white"/>
</svg>
