<svg width="18" height="21" viewBox="0 0 18 21" fill="none" xmlns="http://www.w3.org/2000/svg">
<path d="M1 8.95897C1.00662 6.84151 1.85412 4.81341 3.35607 3.32082C4.85802 1.82823 6.89138 0.993421 9.00884 1.00004C11.1263 1.00666 13.1544 1.85416 14.647 3.35611C16.1396 4.85806 16.9744 6.89142 16.9678 9.00888V9.09934C16.7362 11.9879 15.4488 14.69 13.3514 16.6897C12.2295 17.855 10.9766 18.8867 9.61763 19.7643C9.4419 19.9163 9.2173 20 8.98493 20C8.75256 20 8.52795 19.9163 8.35223 19.7643C6.32633 18.4457 4.54825 16.781 3.0993 14.8462C1.80701 13.1587 1.07317 11.1102 1 8.98601L1 8.95897Z" stroke="white" stroke-width="1.5" stroke-miterlimit="10" stroke-linecap="round" stroke-linejoin="round"/>
<path d="M8.98417 11.6724C10.3974 11.6724 11.543 10.5268 11.543 9.11357C11.543 7.70034 10.3974 6.55469 8.98417 6.55469C7.57094 6.55469 6.42529 7.70034 6.42529 9.11357C6.42529 10.5268 7.57094 11.6724 8.98417 11.6724Z" stroke="white" stroke-width="1.5" stroke-miterlimit="10" stroke-linecap="round" stroke-linejoin="round"/>
</svg>
