<svg width="36" height="35" viewBox="0 0 36 35" fill="none" xmlns="http://www.w3.org/2000/svg">
<path d="M0 18.4182C0.212809 18.0505 0.527356 17.9254 0.952974 17.9301C2.56024 17.9478 4.16751 17.9366 5.77384 17.9375C6.44587 17.9375 6.69135 18.1877 6.69322 18.87C6.69322 19.1005 6.69322 19.331 6.69322 19.5933C6.85002 19.5933 6.9751 19.5933 7.10017 19.5933C9.07985 19.5933 11.0595 19.5868 13.0392 19.6008C13.3211 19.6027 13.6207 19.6559 13.8811 19.7623C16.1053 20.6704 18.3034 21.643 20.5454 22.5036C22.8602 23.3922 23.4006 26.4153 21.4237 28.0357C21.3976 28.0572 21.3742 28.0833 21.2594 28.1925C21.882 28.297 22.428 28.4174 22.9796 28.4744C24.124 28.5929 25.2179 28.2858 26.3174 28.0329C28.242 27.5914 30.1657 27.1415 32.095 26.7196C33.6957 26.3696 35.2871 27.3749 35.6875 28.9532C36.0889 30.5381 35.176 32.1733 33.5706 32.6036C30.946 33.3074 28.2989 33.929 25.6752 34.6384C23.5387 35.2161 21.4806 35.1153 19.4394 34.237C18.0225 33.6275 16.5692 33.102 15.1309 32.5439C14.8658 32.4412 14.6596 32.2891 14.6036 31.9941C14.4943 31.4248 15.004 31.0047 15.5687 31.2166C16.4918 31.5638 17.4037 31.94 18.3258 32.2919C19.3227 32.6717 20.3102 33.0871 21.3285 33.397C22.7575 33.8319 24.1781 33.5902 25.5922 33.2168C28.0292 32.5747 30.4746 31.9661 32.9173 31.3454C33.7965 31.1223 34.3164 30.5866 34.3771 29.8287C34.4685 28.6909 33.4362 27.8369 32.2844 28.1001C29.9734 28.6274 27.6633 29.1557 25.3532 29.6822C23.647 30.0704 21.9809 29.9267 20.3513 29.2995C18.1858 28.465 16.0185 27.6334 13.8522 26.7999C13.7869 26.7747 13.7215 26.7523 13.6571 26.7243C13.2492 26.546 13.0738 26.1643 13.2259 25.7872C13.3687 25.4344 13.756 25.2673 14.1574 25.4185C15.3297 25.8609 16.4974 26.3155 17.6678 26.7654C18.0365 26.9072 18.4024 27.0528 18.7729 27.19C19.7511 27.5522 20.7442 27.1126 21.1194 26.1549C21.4862 25.2216 21.084 24.2602 20.1273 23.8607C17.8788 22.9199 15.6256 21.994 13.3724 21.0653C13.2679 21.0223 13.1494 20.9953 13.0374 20.9953C10.9765 20.9915 8.91464 20.9925 6.85376 20.9925C6.80989 20.9925 6.76602 20.9971 6.71002 20.9999V28.8617C7.59486 28.8617 8.46476 28.858 9.33466 28.8636C9.76868 28.8664 10.0543 29.068 10.128 29.404C10.227 29.8567 9.91522 30.245 9.40747 30.2552C8.6393 30.2711 7.8702 30.2608 7.10203 30.2608C6.97696 30.2608 6.85282 30.2608 6.69415 30.2608C6.69415 30.4746 6.69975 30.6585 6.69322 30.8414C6.67642 31.3482 6.40854 31.6226 5.90918 31.6236C4.19738 31.6273 2.48557 31.6208 0.773766 31.6292C0.397617 31.631 0.180141 31.4248 0.000933373 31.1382V18.4182H0ZM5.27822 19.3581H1.42339V30.2048H5.27822V19.3581Z" fill="black"/>
<path d="M26.6376 11.1146C26.5508 11.7175 26.492 12.2962 26.379 12.8647C26.2586 13.4695 25.9375 13.6403 25.3309 13.4816C24.4908 13.2623 23.7628 13.8746 23.9075 14.7109C23.9476 14.9442 24.1007 15.1832 24.264 15.3642C24.656 15.8001 24.67 16.1679 24.2491 16.5683C23.3829 17.3915 22.3758 17.973 21.2305 18.3156C20.6659 18.4836 20.3354 18.2988 20.188 17.735C20.0424 17.1806 19.6177 16.8268 19.0959 16.825C18.5779 16.8231 18.1663 17.1675 18.0095 17.7322C17.8536 18.295 17.5176 18.4854 16.9613 18.3174C15.8067 17.9683 14.7893 17.3813 13.9166 16.5468C13.5162 16.1641 13.5116 15.7889 13.8998 15.4006C14.3423 14.9582 14.4365 14.4514 14.164 13.9819C13.8942 13.5162 13.4098 13.3472 12.8013 13.505C12.2832 13.6403 11.9379 13.4322 11.8128 12.9113C11.5281 11.7241 11.5263 10.5378 11.8128 9.35051C11.9379 8.83156 12.2832 8.62808 12.7994 8.76902C13.3893 8.9305 13.8942 8.75315 14.163 8.2902C14.4365 7.81885 14.3432 7.30456 13.9054 6.87054C13.5125 6.48039 13.5088 6.10611 13.9054 5.72529C14.7847 4.88059 15.8086 4.28323 16.979 3.94068C17.526 3.78108 17.8508 3.96122 18.0011 4.51004C18.1616 5.09247 18.5163 5.40888 19.0343 5.43128C19.5962 5.45555 20.0321 5.1242 20.1824 4.56044C20.3494 3.93508 20.6463 3.76708 21.2632 3.95375C22.3954 4.2963 23.3894 4.87779 24.25 5.68982C24.6747 6.09024 24.6812 6.48319 24.2733 6.88828C23.8552 7.30363 23.7619 7.82351 24.0251 8.28087C24.2957 8.75315 24.7914 8.9333 25.3803 8.77369C25.9095 8.62995 26.2568 8.81009 26.365 9.34398C26.4845 9.93387 26.5526 10.535 26.6404 11.1174L26.6376 11.1146ZM13.043 10.2578V12.0237C14.0818 12.0265 14.8743 12.4213 15.3755 13.2949C15.8767 14.1667 15.7983 15.0497 15.3074 15.9271C15.5892 16.11 15.845 16.292 16.1157 16.4479C16.3434 16.5795 16.5879 16.6812 16.8222 16.7951C18.0459 14.8294 20.4344 15.1225 21.3818 16.8296C21.8858 16.5338 22.3889 16.2388 22.891 15.9439C22.3777 15.0068 22.3235 14.1256 22.8341 13.2567C23.3437 12.3896 24.1557 12.0293 25.1516 12.0106V10.2494C24.1277 10.2391 23.326 9.85827 22.821 8.98836C22.3114 8.10913 22.3879 7.21402 22.8947 6.30212C22.3721 6.00251 21.8746 5.71783 21.3687 5.42848C20.8255 6.33199 20.0984 6.83041 19.0866 6.82854C18.0757 6.82667 17.3542 6.31799 16.8157 5.42381C16.2949 5.72809 15.7918 6.02211 15.2868 6.31612C16.3462 8.05126 15.2588 10.2288 13.0449 10.2568L13.043 10.2578Z" fill="black"/>
<path d="M9.36921 12.9832C9.53348 12.747 9.64735 12.5725 9.77243 12.4063C10.0291 12.0657 10.4333 11.9882 10.7534 12.2122C11.0754 12.4371 11.1529 12.8385 10.9139 13.1988C10.4967 13.8288 10.0702 14.4532 9.63335 15.0702C9.40468 15.3922 9.0528 15.4753 8.70838 15.2811C8.04009 14.905 7.37926 14.5158 6.7259 14.1144C6.37962 13.9016 6.29468 13.4993 6.48695 13.1708C6.6811 12.8404 7.06378 12.7321 7.42686 12.915C7.60047 13.0018 7.76568 13.1045 7.90848 13.1848C7.87768 12.3522 7.80114 11.528 7.82541 10.7067C7.95702 6.35809 10.815 2.35392 14.8714 0.793318C21.5236 -1.76506 28.621 2.09071 29.9995 9.1078C30.75 12.929 29.6365 16.2845 26.9465 19.1042C26.6151 19.4514 26.1942 19.4654 25.8955 19.1696C25.6099 18.8858 25.6295 18.4621 25.9646 18.1176C27.4001 16.642 28.2971 14.8956 28.6686 12.8684C29.4843 8.41337 26.9754 3.85758 22.7388 2.13084C16.8465 -0.270727 10.2979 3.42543 9.31227 9.72196C9.14613 10.786 9.15733 11.8547 9.36921 12.9841V12.9832Z" fill="black"/>
<path d="M24.5982 20.2981C24.5926 20.6742 24.2836 20.9841 23.9121 20.9869C23.5285 20.9906 23.1981 20.6593 23.2065 20.2785C23.2149 19.8865 23.5369 19.585 23.9327 19.599C24.3163 19.612 24.6047 19.9154 24.5991 20.2981H24.5982Z" fill="black"/>
<path d="M12.2898 31.3659C11.9034 31.3631 11.6056 31.071 11.6 30.692C11.5944 30.3 11.9099 29.9817 12.3 29.9864C12.679 29.991 12.9851 30.2925 12.9917 30.6677C12.9982 31.0607 12.6874 31.3696 12.2898 31.3659Z" fill="black"/>
<path d="M16.0689 11.1351C16.0689 9.45596 17.4354 8.08764 19.1033 8.09697C20.7629 8.10724 22.1153 9.4625 22.1219 11.122C22.1284 12.7909 20.7554 14.1602 19.0819 14.1555C17.4205 14.1508 16.0699 12.7965 16.0689 11.1351ZM17.4662 11.1118C17.4597 12.0237 18.184 12.7564 19.0921 12.7573C19.9816 12.7573 20.7087 12.0395 20.7218 11.1454C20.7349 10.2456 19.9928 9.49423 19.0912 9.49516C18.2026 9.49516 17.4718 10.2223 17.4662 11.1118Z" fill="black"/>
</svg>
