<svg width="24" height="21" viewBox="0 0 24 21" fill="none" xmlns="http://www.w3.org/2000/svg">
<path d="M17.9568 7.17578L13.219 10.9895C12.7841 11.3311 12.2472 11.5167 11.6942 11.5167C11.1412 11.5167 10.6043 11.3311 10.1694 10.9895L5.3916 7.17578" stroke="white" stroke-width="1.5" stroke-miterlimit="10" stroke-linecap="round" stroke-linejoin="round"/>
<path d="M6.42857 1H16.8992C17.6479 1.0082 18.387 1.16903 19.0714 1.47265C19.7558 1.77627 20.3711 2.2163 20.8796 2.76584C21.389 3.31639 21.782 3.96412 22.035 4.67022C22.2881 5.37631 22.396 6.12623 22.3522 6.87502V14.125C22.396 14.8737 22.2881 15.6237 22.035 16.3298C21.782 17.0359 21.389 17.6836 20.8796 18.2341C20.3716 18.7831 19.757 19.2229 19.0734 19.5265C18.3899 19.8301 17.6516 19.9912 16.9037 20H6.42857C3.18564 20.0089 1 17.3712 1 14.1294V6.87946C1 3.63765 3.18564 1 6.42857 1Z" stroke="white" stroke-width="1.5" stroke-miterlimit="10" stroke-linecap="round" stroke-linejoin="round"/>
</svg>
