<svg width="21" height="18" viewBox="0 0 21 18" fill="none" xmlns="http://www.w3.org/2000/svg">
<path d="M7.668 18C7.49954 18.0002 7.33269 17.967 7.17714 17.9023C7.02158 17.8377 6.88038 17.7428 6.76173 17.6232L0.370046 11.2031C0.132832 10.9611 0 10.6357 0 10.2968C0 9.95796 0.132832 9.63257 0.370046 9.39057C0.488536 9.27063 0.629646 9.17544 0.785212 9.11045C0.940777 9.04545 1.10772 9.01199 1.27631 9.01199C1.44491 9.01199 1.61185 9.04545 1.76742 9.11045C1.92298 9.17544 2.06409 9.27063 2.18258 9.39057L7.53201 14.7634L18.1481 0.5391C18.2473 0.399514 18.3734 0.281178 18.519 0.19118C18.6647 0.101181 18.8268 0.0413427 18.996 0.0151253C19.1652 -0.011092 19.3379 -0.00318365 19.5039 0.0385149C19.67 0.0802135 19.826 0.154833 19.9627 0.257872C20.0994 0.36091 20.2141 0.490299 20.3 0.638427C20.3858 0.786554 20.441 0.950429 20.4624 1.12028C20.4839 1.29014 20.471 1.46255 20.4246 1.62735C20.3782 1.79214 20.2993 1.94599 20.1924 2.07973L8.68687 17.486C8.57737 17.6331 8.4374 17.7548 8.27653 17.8428C8.11565 17.9309 7.93762 17.9831 7.75469 17.996C7.72879 17.9986 7.69778 18 7.668 18Z" fill="#2C35CD"/>
</svg>
