<svg width="19" height="23" viewBox="0 0 19 23" fill="none" xmlns="http://www.w3.org/2000/svg">
<path d="M0 19.0622C0 15.9327 4.23784 15.1532 9.1977 15.1532C14.1863 15.1532 18.3954 15.958 18.3954 19.0898C18.3954 22.2216 14.1587 23 9.1977 23C4.21025 23 0 22.1952 0 19.0622ZM3.11112 6.08888C3.11067 4.88497 3.46725 3.70797 4.13578 2.70673C4.8043 1.7055 5.75474 0.925007 6.86687 0.463976C7.97901 0.00294483 9.20289 -0.117918 10.3837 0.116674C11.5646 0.351267 12.6493 0.930775 13.5007 1.78191C14.3522 2.63304 14.9321 3.71756 15.1672 4.8983C15.4022 6.07905 15.2818 7.30297 14.8212 8.41528C14.3606 9.52759 13.5804 10.4783 12.5795 11.1472C11.5785 11.8161 10.4016 12.1732 9.1977 12.1732C8.39774 12.1762 7.60509 12.0209 6.86541 11.7163C6.12573 11.4116 5.45365 10.9636 4.88788 10.398C4.32211 9.83248 3.87385 9.16056 3.56891 8.421C3.26397 7.68143 3.10839 6.88884 3.11112 6.08888Z" fill="#C9C9C9"/>
</svg>
