<svg width="61" height="60" viewBox="0 0 61 60" fill="none" xmlns="http://www.w3.org/2000/svg">
<path d="M60.0031 51.4438C59.9561 51.5205 59.8966 51.5925 59.8638 51.6755C59.283 53.1643 58.2294 53.8954 56.6373 53.8954C52.6155 53.8985 48.5922 53.8954 44.5704 53.8954C44.3575 53.8954 44.1462 53.8954 43.8675 53.8954C43.8675 54.4135 43.8707 54.8957 43.8675 55.3779C43.8456 58.1426 41.9905 59.9961 39.2274 59.9977C33.0766 60.0008 26.9257 60.0008 20.7749 59.9977C18.0181 59.9961 16.1629 58.1347 16.1426 55.3701C16.1395 54.9051 16.1426 54.4386 16.1426 53.8969C15.9015 53.8969 15.6949 53.8969 15.4882 53.8969C11.4852 53.8969 7.48227 53.8969 3.4793 53.8969C0.850829 53.8969 -0.583165 51.8571 0.299774 49.382C1.35648 46.4186 3.5153 44.2222 6.69326 42.9244C4.93051 41.3354 4.14776 39.3957 4.62837 37.06C4.93521 35.5665 5.75709 34.3783 7.00479 33.4985C9.4454 31.7765 12.7924 32.2132 14.7837 34.4848C16.5606 36.5121 17.0208 40.2192 14.0135 42.915C15.8436 43.621 17.3825 44.7012 18.6505 46.2479C20.4853 43.7557 22.8351 42.0383 25.8174 41.0473C23.4206 39.2408 22.2527 36.8941 22.5392 33.9447C22.7412 31.8688 23.7337 30.1734 25.3618 28.8693C28.5288 26.3332 33.1799 26.8373 35.8037 30.0012C38.4165 33.1525 38.1503 38.1512 34.3462 40.9331C35.6095 41.6344 36.9856 42.2402 38.1754 43.1044C39.3589 43.9623 40.3561 45.0785 41.4661 46.1102C42.6167 44.731 44.1227 43.6288 46.0138 42.9228C44.3153 41.4074 43.5372 39.5648 43.8941 37.3277C44.1384 35.7951 44.9164 34.5615 46.1485 33.6253C48.5515 31.8 51.9361 32.135 53.9947 34.3705C55.7935 36.3227 56.4604 40.0564 53.4358 42.8336C54.383 43.4238 55.4021 43.9513 56.2976 44.6402C58.1104 46.035 59.3221 47.8682 59.9139 50.0928C59.9217 50.1194 59.9702 50.135 60 50.157V51.4454L60.0031 51.4438ZM30.0004 58.1222C33.1235 58.1222 36.2467 58.1269 39.3699 58.1191C40.724 58.1159 41.8809 57.2127 41.9404 55.9712C42.0015 54.6922 42.0437 53.3788 41.8308 52.1248C40.9933 47.1856 37.1469 43.4175 32.106 42.461C27.3938 41.5655 22.3874 43.7854 19.7933 47.8948C18.3546 50.1742 17.874 52.6586 18.004 55.3231C18.0901 57.1015 19.0372 58.1206 20.8062 58.1222C23.8714 58.1253 26.9351 58.1222 30.0004 58.1222ZM29.9941 29.1417C26.8615 29.1496 24.3614 31.67 24.374 34.8088C24.3865 37.8897 26.9336 40.4196 30.0145 40.4133C33.1235 40.4055 35.6518 37.8475 35.6346 34.7306C35.6174 31.6293 33.1 29.1355 29.9925 29.1433L29.9941 29.1417ZM43.9129 52.0199H44.4076C48.4075 52.0199 52.4073 52.0199 56.4072 52.0199C56.5825 52.0199 56.7594 52.0293 56.9332 52.0121C57.7582 51.9322 58.3202 51.1683 58.0619 50.3855C56.9676 47.0682 54.7086 44.9595 51.2786 44.3333C47.7578 43.6899 44.8334 44.8734 42.6183 47.7132C42.5259 47.8322 42.4915 48.0717 42.5431 48.2157C42.9752 49.4587 43.4323 50.6924 43.9145 52.0215L43.9129 52.0199ZM16.1144 52.0199C16.559 50.7565 16.9363 49.573 17.3997 48.424C17.5484 48.0545 17.5281 47.8369 17.2932 47.5535C15.0702 44.8484 12.2069 43.7181 8.7785 44.3224C5.46278 44.9079 3.22569 46.9054 2.04843 50.0615C1.60696 51.2465 2.16898 52.0183 3.44016 52.0199C6.65882 52.023 9.87905 52.0199 13.0977 52.0199H16.1129H16.1144ZM14.3188 38.2905C14.3141 36.0832 12.5482 34.3235 10.3393 34.3267C8.14917 34.3298 6.35355 36.127 6.35981 38.3109C6.36607 40.49 8.18048 42.295 10.3581 42.2888C12.5482 42.2825 14.3251 40.49 14.3188 38.2905ZM45.6929 38.2733C45.6819 40.4759 47.4478 42.2747 49.6364 42.2888C51.814 42.3029 53.6331 40.5104 53.6534 38.3281C53.6738 36.1505 51.875 34.3345 49.6912 34.3267C47.4791 34.3188 45.7054 36.0691 45.6945 38.2733H45.6929Z" fill="white"/>
<path d="M60.0034 14.8817C59.706 15.2057 59.4398 15.5658 59.1064 15.8444C58.0732 16.707 57.0212 17.5477 55.9629 18.379C55.7124 18.5762 55.6513 18.7422 55.7437 19.0647C56.1429 20.4486 56.503 21.8434 56.874 23.2351C57.0759 23.9928 56.9413 24.4828 56.4341 24.857C55.9441 25.2186 55.3774 25.1998 54.7512 24.7913C53.5598 24.0132 52.3638 23.243 51.1865 22.4446C50.8844 22.2395 50.6699 22.2317 50.3631 22.4383C49.1858 23.2351 47.9898 24.0054 46.7969 24.7803C46.1582 25.1951 45.6009 25.2171 45.1124 24.868C44.613 24.511 44.4549 23.9866 44.6522 23.2524C45.0185 21.8794 45.3833 20.5065 45.7778 19.1414C45.8873 18.7641 45.8122 18.5481 45.5022 18.3085C44.3907 17.4491 43.3027 16.5599 42.2116 15.6769C41.5838 15.1697 41.3928 14.6547 41.6151 14.0519C41.8593 13.3944 42.3885 13.1721 43.0444 13.144C44.4674 13.0829 45.8905 13.0031 47.3151 12.9545C47.6611 12.9436 47.8192 12.8089 47.935 12.4911C48.4281 11.1386 48.9557 9.80006 49.4551 8.44904C49.6805 7.84006 50.075 7.46121 50.7357 7.4252C51.3431 7.39233 51.7971 7.74456 52.0679 8.44747C52.5861 9.79067 53.1043 11.1339 53.5974 12.4849C53.7148 12.8089 53.8761 12.9404 54.222 12.9514C55.5872 12.9984 56.9507 13.0954 58.3158 13.1267C59.1111 13.144 59.695 13.4164 60.0019 14.1756V14.8785L60.0034 14.8817ZM54.6056 22.3898C54.6338 22.4133 54.6619 22.4352 54.6901 22.4587C54.6823 22.4148 54.6745 22.3726 54.6666 22.3287C54.377 21.2376 54.1125 20.1386 53.7915 19.0568C53.5598 18.2741 53.7696 17.7074 54.4099 17.2205C55.3179 16.5286 56.1914 15.7912 57.1949 14.9819C55.8877 14.9114 54.7261 14.8206 53.5661 14.794C52.7693 14.7752 52.3074 14.4026 52.046 13.6762C51.6546 12.5882 51.2304 11.5111 50.7826 10.3276C50.6684 10.5969 50.5885 10.7675 50.5212 10.9444C50.1721 11.8524 49.8042 12.7542 49.4864 13.6731C49.2312 14.4136 48.7632 14.7752 47.971 14.794C46.9362 14.8175 45.9046 14.8942 44.8713 14.9537C44.7351 14.9615 44.6005 14.9991 44.4048 15.0335C45.2455 15.7098 45.9813 16.3892 46.8032 16.9419C47.7879 17.6056 48.0289 18.3884 47.6282 19.4999C47.29 20.436 47.099 21.4254 46.8032 22.5369C47.8833 21.8325 48.843 21.2391 49.7666 20.5942C50.4492 20.1167 51.066 20.1089 51.7564 20.5785C52.6879 21.211 53.6553 21.7902 54.6072 22.3929L54.6056 22.3898Z" fill="white"/>
<path d="M30.3556 0C30.8269 0.327189 30.9772 0.771789 30.9521 1.3432C30.913 2.29658 30.9458 3.25154 30.9396 4.20649C30.9349 4.89687 30.5826 5.2992 30.0018 5.2992C29.421 5.2992 29.0704 4.89844 29.0657 4.20649C29.0594 3.25154 29.0923 2.29658 29.0532 1.3432C29.0297 0.771789 29.1768 0.327189 29.6496 0.0015655H30.3525L30.3556 0Z" fill="white"/>
<path d="M13.9338 25.1104C13.7929 25.0462 13.4782 24.9429 13.2074 24.7707C12.0254 24.0161 10.845 23.2553 9.68658 22.4663C9.36565 22.2471 9.15118 22.2236 8.81616 22.4522C7.65926 23.2443 6.47574 23.9973 5.29849 24.7613C4.62376 25.1996 4.06175 25.2309 3.56862 24.8521C2.98782 24.4059 2.95494 23.8314 3.1428 23.1707C3.53105 21.8041 3.87076 20.4233 4.26526 19.0598C4.35919 18.7341 4.28875 18.5698 4.04296 18.3741C2.90954 17.4802 1.79021 16.569 0.666188 15.6642C0.0666035 15.1805 -0.122821 14.6764 0.0759965 14.0924C0.302993 13.4255 0.814911 13.1766 1.47398 13.1469C2.87667 13.0827 4.28092 13.0075 5.68517 12.9621C6.08594 12.9496 6.30041 12.8213 6.4413 12.4189C6.89843 11.1164 7.41191 9.83428 7.88626 8.53649C8.12108 7.89463 8.50463 7.4516 9.22632 7.42342C9.84313 7.39994 10.2799 7.76783 10.5695 8.51927C11.0642 9.80767 11.5824 11.0898 12.0348 12.3923C12.1835 12.8213 12.3996 12.9512 12.8223 12.9637C14.2265 13.0075 15.6308 13.0702 17.0319 13.1516C18.0964 13.2126 18.7257 14.0251 18.386 14.9159C18.2749 15.2055 18.0291 15.4732 17.7833 15.6783C16.6875 16.5878 15.5807 17.4849 14.4535 18.3521C14.1639 18.5744 14.131 18.7795 14.2171 19.0926C14.6179 20.536 15.0202 21.9794 15.3944 23.4306C15.6245 24.323 15.0077 25.1104 13.9322 25.1073L13.9338 25.1104ZM5.41121 22.3958C6.41156 21.7602 7.41504 21.1293 8.40913 20.4844C8.95862 20.1274 9.49559 20.1071 10.0466 20.4703C10.6807 20.8883 11.3194 21.3 11.9581 21.7148C12.3323 21.9575 12.708 22.1986 13.2121 22.5258C12.8739 21.264 12.6078 20.1697 12.2837 19.0911C12.0426 18.2911 12.2352 17.704 12.9021 17.2015C13.8132 16.5143 14.6852 15.7769 15.6746 14.9801C14.4472 14.9143 13.3592 14.8016 12.2712 14.811C11.2709 14.8204 10.7323 14.3789 10.4302 13.4553C10.0936 12.4267 9.67092 11.428 9.24041 10.2977C8.78172 11.5094 8.35904 12.588 7.9661 13.676C7.70309 14.4008 7.24127 14.775 6.44443 14.7938C5.28284 14.8204 4.12437 14.9112 2.81875 14.9816C3.85041 15.8145 4.76622 16.5612 5.69143 17.2954C6.23779 17.7291 6.43974 18.2457 6.24092 18.9423C5.91999 20.0648 5.64133 21.1998 5.34389 22.3285C5.33606 22.3723 5.32824 22.4162 5.32041 22.46L5.41277 22.3958H5.41121Z" fill="white"/>
<path d="M34.6924 25.1106C34.5515 25.0464 34.2369 24.9431 33.9676 24.7693C32.77 24.0022 31.5802 23.2226 30.4014 22.4289C30.1196 22.2395 29.9177 22.2269 29.6249 22.4258C28.4477 23.2226 27.2516 23.9913 26.0587 24.7662C25.384 25.2045 24.8188 25.2327 24.3288 24.8476C23.7809 24.4186 23.7089 23.8707 23.8936 23.221C24.285 21.8559 24.62 20.4736 25.0208 19.1116C25.1304 18.739 25.038 18.5543 24.7562 18.3335C23.6353 17.4553 22.5363 16.5504 21.4233 15.6612C20.927 15.2652 20.6358 14.8002 20.8315 14.1412C21.0209 13.5009 21.4499 13.1925 22.2499 13.1502C23.6729 13.0766 25.0944 13.0062 26.519 12.9592C26.8837 12.9467 27.0622 12.812 27.1874 12.4692C27.679 11.1166 28.1956 9.77342 28.7107 8.43022C28.969 7.75706 29.4057 7.42674 29.9991 7.42361C30.5924 7.42048 31.0417 7.75079 31.2984 8.41613C31.815 9.75933 32.3301 11.1025 32.8232 12.4551C32.9453 12.7886 33.105 12.9467 33.4792 12.9592C34.8631 13.003 36.2485 13.0641 37.6309 13.1533C37.9878 13.1768 38.387 13.2488 38.6797 13.4367C39.45 13.9314 39.4453 14.9536 38.6891 15.5783C37.562 16.5097 36.4239 17.4303 35.267 18.3242C34.9492 18.5699 34.8991 18.7797 35.0071 19.1554C35.4141 20.5566 35.7867 21.9686 36.1562 23.3807C36.3988 24.3106 35.7945 25.1168 34.6956 25.1121L34.6924 25.1106ZM26.0321 22.5416C27.1577 21.8058 28.1408 21.1781 29.1067 20.5252C29.7141 20.1151 30.2918 20.112 30.8977 20.5221C31.7055 21.0669 32.5258 21.5945 33.3414 22.1252C33.5042 22.2316 33.6764 22.324 33.9676 22.4962C33.6154 21.1921 33.3117 20.0478 32.9954 18.9065C32.8201 18.2709 32.9829 17.7559 33.4964 17.3457C33.9238 17.0044 34.3496 16.6632 34.7754 16.3203C35.2951 15.9023 35.8133 15.4843 36.4395 14.9803C35.112 14.9098 33.9441 14.8253 32.7747 14.7924C32.0045 14.7705 31.5489 14.4089 31.2953 13.7028C30.9665 12.787 30.6065 11.8837 30.2605 10.9742C30.1901 10.791 30.1196 10.6078 30.0022 10.3072C29.5372 11.5283 29.1114 12.5929 28.7263 13.6715C28.4649 14.4042 28.0031 14.7799 27.2094 14.7908C26.3311 14.8018 25.4544 14.8675 24.5778 14.9129C24.2866 14.9286 23.997 14.9583 23.5915 14.9896C24.6232 15.8194 25.528 16.5614 26.447 17.2831C27.0215 17.734 27.1984 18.2756 26.9918 18.9848C26.6661 20.1026 26.3843 21.2328 26.0352 22.5369L26.0321 22.5416Z" fill="white"/>
<path d="M35.4121 10.3338C35.1491 10.1256 34.7624 9.96751 34.6701 9.70608C34.5667 9.41333 34.6012 8.89202 34.8 8.70259C36.0915 7.46272 37.4316 6.27294 38.7811 5.09726C39.1646 4.76224 39.7188 4.88122 40.0319 5.26633C40.3419 5.64674 40.3074 6.1978 39.8973 6.57665C38.8813 7.51438 37.848 8.43176 36.8211 9.35697C36.5894 9.56518 36.3702 9.78905 36.1197 9.97221C35.9397 10.1037 35.719 10.1804 35.4137 10.3323L35.4121 10.3338Z" fill="white"/>
<path d="M25.5794 9.34455C25.3571 9.62634 25.1975 10.0271 24.9407 10.1038C24.6261 10.1977 24.1376 10.1383 23.8856 9.941C23.059 9.29602 22.3044 8.55867 21.5232 7.8542C21.0599 7.43778 20.5918 7.02605 20.1393 6.59867C19.7041 6.18695 19.6556 5.64215 19.9938 5.24921C20.3585 4.8234 20.9064 4.78896 21.387 5.21477C22.6426 6.32314 23.8871 7.44247 25.1192 8.57746C25.3039 8.7481 25.3916 9.02206 25.5794 9.34455Z" fill="white"/>
<path d="M54.666 22.3286C54.6739 22.3724 54.6817 22.4147 54.6895 22.4585C54.6613 22.4351 54.6332 22.4131 54.605 22.3897C54.6253 22.3693 54.6457 22.349 54.666 22.3286Z" fill="white"/>
<path d="M5.40975 22.3976C5.37844 22.4196 5.34713 22.4399 5.31738 22.4618C5.32521 22.418 5.33304 22.3742 5.34087 22.3303C5.36435 22.3522 5.38783 22.3742 5.40975 22.3976Z" fill="white"/>
</svg>
