<svg width="60" height="60" viewBox="0 0 60 60" fill="none" xmlns="http://www.w3.org/2000/svg">
<path d="M47.0034 29.987H44.9825V29.3745C44.9825 22.0649 44.9825 14.7553 44.9825 7.4457C44.9825 6.29919 45.2445 6.03551 46.2825 5.9988C45.1994 4.91571 44.0546 3.7692 42.9631 2.6761C41.9335 3.70746 40.7786 4.86231 39.6555 5.98545C39.6872 5.98711 39.8574 5.99045 40.026 6.01048C40.6017 6.0789 40.9305 6.40266 40.9772 6.98175C41.0006 7.27214 40.9839 7.56419 40.9839 7.85624C40.9839 15.5397 40.9839 23.2247 40.9839 30.9549H39.0263V12.0501C38.8244 12.0334 38.6692 12.01 38.5123 12.01C27.3927 12.0084 16.2748 12.0067 5.15518 12.01C3.26103 12.01 2.00939 13.285 2.00104 15.1975C1.99603 16.4258 1.99603 17.6541 1.99437 18.884C1.99437 18.9024 1.97935 18.9191 1.95598 18.9725H0.110226C0.110226 17.322 -0.053322 15.6481 0.150279 14.0193C0.432315 11.753 2.53007 10.0758 4.82642 10.0191C5.94956 9.9907 7.07437 10.0107 8.19918 10.0107C18.214 10.0107 28.2305 10.0107 38.2453 10.0107H38.9529V8.01144C38.3538 8.01144 37.7563 8.00143 37.1589 8.01478C36.6515 8.02479 36.2593 7.8579 36.0607 7.36726C35.8688 6.89497 36.0541 6.52449 36.3895 6.19072C38.3054 4.2782 40.2145 2.36069 42.1337 0.449846C42.7262 -0.140929 43.2268 -0.150942 43.8076 0.426482C45.7418 2.34901 47.666 4.28321 49.5952 6.21241C49.9306 6.54785 50.0958 6.92668 49.8922 7.39563C49.692 7.85457 49.3215 8.02312 48.8392 8.01645C48.2401 8.0081 47.6393 8.01478 47.0118 8.01478V10.0141C48.2434 10.0141 49.465 10.0141 50.6866 10.0141C53.8508 10.0191 55.9752 12.1335 55.9769 15.2927C55.9802 21.6644 55.9769 28.0377 55.9769 34.4094C55.9769 34.5913 55.9769 34.7732 55.9769 34.9802H53.9776C53.9776 34.7349 53.9776 34.5112 53.9776 34.2876C53.9776 27.9993 53.9776 21.7094 53.9776 15.4212C53.9776 13.1799 52.8011 12.0134 50.5414 12.0134C49.3782 12.0134 48.215 12.0134 47.0018 12.0134V29.9936L47.0034 29.987Z" fill="#2C35CD"/>
<path d="M26.9888 37.9789H28.9881V37.3247C28.9881 30.3489 28.9881 23.3747 28.9881 16.3989C28.9881 15.2975 29.2852 15.0054 30.3983 15.0038C32.209 15.0038 34.0214 14.9987 35.8321 15.0054C36.5797 15.0088 36.9786 15.3759 36.9803 16.0952C36.9869 21.6758 36.9819 27.2548 36.9803 32.8355C36.9803 32.8722 36.9552 32.9089 36.9319 32.9707H34.9893V17.0314H30.9941V39.9699H5.02832V38.0106H8.99519V36.7339C8.99519 34.5895 8.99519 32.445 8.99519 30.3005C8.99519 29.3509 9.33063 29.0055 10.2535 29.0038C12.0859 29.0005 13.9183 29.0005 15.7491 29.0038C16.6402 29.0055 16.989 29.3559 16.989 30.2554C16.9924 32.8138 16.989 35.3722 16.989 37.9639H18.9883V37.308C18.9883 32.6653 18.9883 28.0225 18.9883 23.3781C18.9883 22.31 19.2937 22.0046 20.3568 22.0029C22.1057 22.0029 23.8547 22.0029 25.6037 22.0029C26.6734 22.0029 26.9855 22.31 26.9855 23.3647C26.9855 28.2144 26.9855 33.0641 26.9855 37.9789H26.9888ZM21.0277 24.0173V37.9622H24.9545V24.0173H21.0277ZM14.9597 37.9839V31.0365H11.0312V37.9839H14.9597Z" fill="#2C35CD"/>
<path d="M2.03601 43.9756C2.03601 44.543 1.97092 45.0286 2.04769 45.4909C2.29301 46.9862 3.52796 47.9908 5.09168 47.9925C9.54753 47.9992 14.0034 47.9958 18.4576 47.9958C22.4128 47.9958 26.3696 47.9958 30.3248 47.9958H30.959V49.9818H23.7378C22.9384 52.6453 22.1457 55.2837 21.3413 57.9622H34.6254C34.2633 56.7423 33.9095 55.5508 33.5357 54.2991C34.1598 54.1039 34.7606 53.9136 35.4315 53.7033C35.8704 55.1469 36.301 56.5637 36.7332 57.9856H38.9378V59.9482H17.0173V58.0257H19.2369C20.043 55.3388 20.8357 52.7003 21.6467 49.9951H20.9241C15.7407 49.9951 10.5555 49.9951 5.37205 49.9951C2.08607 49.9951 0 47.904 0 44.6097C0 36.968 0 29.3263 0 21.6846C0 21.4794 0 21.2741 0 21.0371H1.9826V41.9779H29.9526V43.9756H2.03601Z" fill="#2C35CD"/>
<path d="M50.1059 54.3459C43.9812 57.7487 37.4176 55.4874 34.21 50.9765C30.8256 46.2169 31.3145 39.7785 35.4032 35.5847C39.4018 31.4843 45.872 30.8267 50.6165 33.9792C55.256 37.0616 57.8594 43.7537 54.3331 50.1404C55.9002 51.6975 57.4922 53.2528 59.051 54.8399C60.3276 56.14 60.2759 58.0608 58.9759 59.2257C57.7676 60.3088 56.032 60.2587 54.8104 59.0588C53.235 57.5134 51.6913 55.9364 50.1059 54.3459ZM53.9776 44.0358C53.9793 38.5269 49.5201 34.0126 44.068 34.0009C38.4623 33.9909 33.9864 38.4534 33.9881 44.0524C33.9881 49.5146 38.4823 53.9821 43.9878 53.9955C49.455 54.0088 53.9743 49.5029 53.9776 44.0358ZM51.7731 53.2044C53.24 54.6714 54.7069 56.1466 56.1855 57.6136C56.6795 58.1025 57.2569 58.1326 57.6792 57.7304C58.1181 57.3098 58.0964 56.7074 57.5857 56.1917C56.1221 54.7114 54.6485 53.2428 53.1816 51.7726C52.7143 52.2465 52.2654 52.7055 51.7714 53.2061L51.7731 53.2044Z" fill="#2C35CD"/>
<path d="M48.9993 1.99455V0.0686924C52.0232 -0.225026 55.0556 2.78559 54.9454 5.97978H52.9979C52.9294 4.91839 52.5773 3.96547 51.8146 3.19613C51.047 2.42345 50.1007 2.0563 48.9993 1.99455Z" fill="#2C35CD"/>
<path d="M5.04004 14.0254H6.95652V15.9636H5.04004V14.0254Z" fill="#2C35CD"/>
<path d="M9.01343 15.9739V14.0391H10.9633V15.9739H9.01343Z" fill="#2C35CD"/>
<path d="M14.9604 15.9928H13.0305V14.043H14.9604V15.9928Z" fill="#2C35CD"/>
<path d="M35.9856 43.9655C35.9906 39.5547 39.6003 35.9867 44.0445 36C48.3852 36.0134 51.9766 39.6198 51.9783 43.9672C51.9799 48.403 48.3919 52.0027 43.9794 51.991C39.5469 51.981 35.9806 48.3996 35.9856 43.9638V43.9655ZM44.0228 38.001C40.7085 37.9893 38.0032 40.6595 37.9866 43.9555C37.9699 47.2648 40.6517 49.9851 43.9394 49.9951C47.2738 50.0051 49.9756 47.3099 49.979 43.9755C49.9806 40.7112 47.2904 38.011 44.0245 38.001H44.0228Z" fill="#2C35CD"/>
<path d="M43.9693 40.0178V41.9603C42.8027 42.1205 42.1085 42.7714 41.9566 43.9763H40.0458C39.8272 42.3024 41.4743 39.9927 43.9693 40.0178Z" fill="#2C35CD"/>
</svg>
