<svg width="65" height="65" viewBox="0 0 65 65" fill="none" xmlns="http://www.w3.org/2000/svg">
<circle cx="32.5" cy="32.5" r="32.5" fill="#2C35CD"/>
<path d="M29.668 41C29.4995 41.0002 29.3327 40.967 29.1771 40.9023C29.0216 40.8377 28.8804 40.7428 28.7617 40.6232L22.37 34.2031C22.1328 33.9611 22 33.6357 22 33.2968C22 32.958 22.1328 32.6326 22.37 32.3906C22.4885 32.2706 22.6296 32.1754 22.7852 32.1104C22.9408 32.0455 23.1077 32.012 23.2763 32.012C23.4449 32.012 23.6119 32.0455 23.7674 32.1104C23.923 32.1754 24.0641 32.2706 24.1826 32.3906L29.532 37.7634L40.1481 23.5391C40.2473 23.3995 40.3734 23.2812 40.519 23.1912C40.6647 23.1012 40.8268 23.0413 40.996 23.0151C41.1652 22.9889 41.3379 22.9968 41.5039 23.0385C41.67 23.0802 41.826 23.1548 41.9627 23.2579C42.0994 23.3609 42.2141 23.4903 42.3 23.6384C42.3858 23.7866 42.441 23.9504 42.4624 24.1203C42.4839 24.2901 42.471 24.4626 42.4246 24.6273C42.3782 24.7921 42.2993 24.946 42.1924 25.0797L30.6869 40.486C30.5774 40.6331 30.4374 40.7548 30.2765 40.8428C30.1157 40.9309 29.9376 40.9831 29.7547 40.996C29.7288 40.9986 29.6978 41 29.668 41Z" fill="white"/>
</svg>
