<svg width="68" height="60" viewBox="0 0 68 60" fill="none" xmlns="http://www.w3.org/2000/svg">
<path d="M67.985 6.35934V53.7602C67.9062 53.929 67.7985 54.0898 67.7519 54.2666C66.8227 57.7243 63.9582 59.9861 60.3766 59.9893C42.7839 60.0022 25.1913 60.0054 7.59858 59.9877C3.29686 59.9829 0.0127059 56.657 0.00949086 52.3504C-0.0049768 37.4568 -0.00336928 22.5631 0.0175285 7.67107C0.0175285 6.86732 0.147737 6.03141 0.387258 5.26462C1.39999 2.011 4.27584 0.00321504 7.84453 0.00160752C25.2829 0 42.7212 0 60.1596 0C60.3814 0 60.6017 0.00321503 60.8235 0.0176827C64.016 0.20737 66.7006 2.30196 67.649 5.33535C67.7567 5.67775 67.8741 6.01855 67.9866 6.35934H67.985ZM2.25519 17.9962C2.25519 18.2518 2.25519 18.4479 2.25519 18.644C2.25519 29.7728 2.25519 40.9017 2.25519 52.0305C2.25519 55.5301 4.47035 57.7436 7.97313 57.7436C25.3182 57.7436 42.665 57.7436 60.0101 57.7436C63.5145 57.7436 65.7312 55.5333 65.7312 52.0337C65.7328 40.9049 65.7312 29.776 65.7312 18.6472V17.9962H2.25519V17.9962ZM2.2777 15.7054H65.712C65.712 12.8344 65.7441 10.0036 65.6878 7.17435C65.675 6.51527 65.4564 5.81118 65.1558 5.21479C64.1028 3.12662 62.3072 2.24731 60.0165 2.24892C45.2804 2.25213 30.5427 2.25052 15.8066 2.25052C13.1284 2.25052 10.4519 2.23766 7.7738 2.25374C4.76774 2.27142 2.4288 4.29046 2.30342 7.17435C2.18125 9.99876 2.27609 12.8344 2.27609 15.7038L2.2777 15.7054Z" fill="#2C35CD"/>
<path d="M37.1241 25.5056C36.8364 26.8994 36.5952 28.0873 36.3461 29.2737C35.1147 35.125 33.8817 40.9748 32.6488 46.8262C32.6118 46.9982 32.5764 47.1718 32.5298 47.3422C32.3434 48.0029 31.7759 48.3919 31.2036 48.2536C30.5606 48.0993 30.2037 47.5367 30.3452 46.8326C30.6715 45.2106 31.0155 43.5918 31.3563 41.9731C32.4993 36.5541 33.6438 31.1368 34.79 25.7178C34.9925 24.763 35.6693 24.2888 36.3702 24.681C36.7062 24.8691 36.92 25.2726 37.1241 25.504V25.5056Z" fill="#2C35CD"/>
<path d="M21.3064 36.3302C21.4816 36.4845 21.6327 36.6228 21.7887 36.7562C23.6566 38.3477 25.5261 39.9391 27.3973 41.5257C27.7992 41.8665 28.0885 42.3086 27.8667 42.7973C27.7156 43.1284 27.3442 43.4708 27.0018 43.5689C26.7141 43.6509 26.2511 43.4805 25.9955 43.2667C23.6357 41.2991 21.2968 39.3057 18.9675 37.3012C18.2457 36.6807 18.2714 35.9814 19.0237 35.3336C21.3209 33.3595 23.6293 31.3968 25.9409 29.442C26.5775 28.9035 27.2703 28.9308 27.6931 29.4629C28.0949 29.9693 27.9889 30.6332 27.3844 31.1508C25.3879 32.8628 23.3817 34.5636 21.3048 36.3318L21.3064 36.3302Z" fill="#2C35CD"/>
<path d="M46.6844 36.3334C44.6814 34.6263 42.7299 32.9641 40.7816 31.2987C40.5983 31.1412 40.4054 30.982 40.2688 30.7859C39.9521 30.3342 39.9826 29.8551 40.3266 29.442C40.6739 29.0241 41.14 28.9228 41.6384 29.1703C41.8522 29.2764 42.0467 29.4308 42.2299 29.5867C44.421 31.4466 46.6088 33.3097 48.7934 35.176C49.7997 36.0361 49.7949 36.6485 48.7982 37.4957C46.559 39.4006 44.3197 41.3071 42.0836 43.2152C41.6271 43.6042 41.1465 43.8052 40.5822 43.4499C40.1064 43.1509 39.9424 42.688 40.1289 42.1912C40.2446 41.8826 40.5163 41.6061 40.7751 41.3827C42.5836 39.8234 44.4065 38.2818 46.2246 36.7353C46.358 36.6228 46.4866 36.5054 46.6828 36.3334H46.6844Z" fill="#2C35CD"/>
<path d="M4.72853 9.03208C4.7237 7.08698 6.31675 5.48268 8.26185 5.47464C10.1828 5.4666 11.8145 7.09502 11.8161 9.02243C11.8177 10.9482 10.1957 12.5799 8.2715 12.5847C6.33765 12.5895 4.73335 10.9804 4.72853 9.03208V9.03208ZM9.56072 9.02082C9.5559 8.32316 8.92897 7.70909 8.24095 7.72838C7.53525 7.74767 6.95012 8.36656 6.97262 9.06905C6.99352 9.7426 7.58509 10.3245 8.25542 10.3326C8.94344 10.3406 9.56394 9.71688 9.55912 9.02243L9.56072 9.02082Z" fill="#2C35CD"/>
<path d="M15.6455 9.05676C15.6471 7.09559 17.2209 5.52344 19.182 5.52344C21.1352 5.52344 22.7202 7.11006 22.7186 9.06319C22.7186 11.0131 21.1223 12.6062 19.1756 12.6046C17.2225 12.6013 15.6439 11.0163 15.6455 9.05837V9.05676ZM19.1869 7.77075C18.4715 7.76753 17.8928 8.34945 17.8944 9.06801C17.8976 9.78818 18.4844 10.3653 19.2029 10.3508C19.891 10.338 20.4568 9.77211 20.4665 9.0857C20.4777 8.37035 19.899 7.77557 19.1853 7.77235L19.1869 7.77075Z" fill="#2C35CD"/>
<path d="M33.6271 9.1057C33.619 11.0637 32.0405 12.6342 30.0809 12.6294C28.1246 12.6246 26.546 11.0395 26.5508 9.08481C26.5556 7.13489 28.1503 5.54988 30.1018 5.5547C32.0533 5.55952 33.6351 7.15257 33.6271 9.1057ZM31.375 9.12339C31.3894 8.40483 30.8188 7.81487 30.1018 7.80844C29.3865 7.80201 28.7997 8.38554 28.8029 9.10249C28.8045 9.79372 29.3559 10.3596 30.0487 10.3789C30.7721 10.3998 31.3605 9.84356 31.375 9.12499V9.12339Z" fill="#2C35CD"/>
</svg>
