<svg width="61" height="60" viewBox="0 0 61 60" fill="none" xmlns="http://www.w3.org/2000/svg">
<path d="M13.9989 36.0003C13.4296 36.0003 12.9322 36.0003 12.4347 36.0003C11.8288 36.002 11.4582 35.7132 11.328 35.1173C11.1911 34.4879 11.0458 33.8603 10.9073 33.2309C10.8889 33.1492 10.8906 33.064 10.8639 32.9856C10.7387 32.5933 8.6771 31.8488 8.32654 32.0691C7.76399 32.423 7.20143 32.7786 6.64555 33.1441C6.11471 33.4914 5.63729 33.453 5.18657 32.9972C4.46877 32.2711 3.74763 31.55 3.01981 30.8338C2.5691 30.3915 2.4873 29.9157 2.84286 29.3799C2.9113 29.2764 2.97641 29.1695 3.04151 29.0627C3.40208 28.4801 3.99469 27.9209 4.05478 27.3099C4.11321 26.729 3.62911 26.0846 3.34866 25.4854C3.27521 25.3301 3.08658 25.1732 2.92132 25.1281C2.26027 24.9478 1.58921 24.8009 0.918148 24.6624C0.290488 24.5322 -0.00331049 24.1566 2.81279e-05 23.5222C0.00503606 22.5023 0.00336675 21.4807 2.81279e-05 20.4607C2.81279e-05 19.8581 0.272126 19.4825 0.874746 19.3506C1.52411 19.2104 2.18015 19.0869 2.81448 18.8899C3.03817 18.8198 3.23348 18.5794 3.38205 18.3741C3.51059 18.1955 3.51226 17.9234 3.64413 17.7464C4.24675 16.9402 3.96798 16.2925 3.44715 15.5429C2.30034 13.892 2.3404 13.8653 3.74763 12.4497C4.23173 11.9623 4.71917 11.4782 5.2016 10.9874C5.63061 10.5517 6.09468 10.505 6.60716 10.8338C7.18474 11.2044 7.75063 11.595 8.34825 11.9289C8.52352 12.0274 8.79562 12.0107 9.00762 11.9673C9.22463 11.9239 9.41494 11.7269 9.63028 11.6969C10.7287 11.5449 11.0125 10.7754 11.1243 9.83557C11.1677 9.46665 11.2629 9.09941 11.3697 8.74051C11.5316 8.20299 12.0207 7.90919 12.5165 8.01603C13.0273 8.1262 13.3896 8.5886 13.2894 9.13112C13.0908 10.2145 12.8788 11.2979 12.5833 12.3579C12.5082 12.63 12.1359 12.8837 11.8421 13.0206C10.9807 13.4263 10.081 13.7468 9.21796 14.1441C8.77392 14.3494 8.38497 14.3494 7.98267 14.089C7.38839 13.705 6.79412 13.3261 6.19818 12.9438C5.79253 13.3595 5.39524 13.7685 4.95621 14.2175C5.28339 14.73 5.63395 15.3142 6.02123 15.8718C6.35676 16.3542 6.35509 16.7949 6.09635 17.3241C5.71574 18.1037 5.38856 18.9133 5.09643 19.7312C4.90947 20.2521 4.62902 20.5793 4.06981 20.6861C3.38205 20.8163 2.70264 20.9932 2.01488 21.1502V22.8412C2.71933 23.0048 3.41711 23.1834 4.12322 23.3236C4.63069 23.4254 4.89444 23.7209 5.07139 24.1966C5.38689 25.0497 5.73745 25.8927 6.12306 26.7173C6.35008 27.2014 6.3601 27.6154 6.05962 28.0628C5.66733 28.6454 5.30176 29.2463 4.91948 29.8489C5.33681 30.2612 5.73077 30.6519 6.15477 31.0709C6.72401 30.7086 7.31327 30.3631 7.87249 29.9741C8.35659 29.6386 8.79729 29.6419 9.32479 29.9007C10.1044 30.2813 10.914 30.6101 11.7303 30.9023C12.2511 31.0892 12.5783 31.368 12.6801 31.9306C12.8053 32.62 12.9789 33.2994 13.1325 33.9838H13.9605V28.0895C13.2927 27.9359 12.585 27.8574 11.9423 27.6104C9.66366 26.7373 8.31987 25.0447 8.04443 22.6325C7.78569 20.3689 8.66541 18.5193 10.4833 17.1405C11.1226 16.6547 11.8237 16.7866 12.1226 17.4026C12.3629 17.9 12.2194 18.3207 11.6251 18.7831C10.5133 19.6494 9.96247 20.7846 10.0075 22.1918C10.076 24.2834 11.9206 26.0346 13.9972 25.9561C13.9972 25.7324 13.9972 25.5071 13.9972 25.28C13.9972 18.6345 13.9972 11.989 13.9972 5.34346C14.0005 2.10333 16.1022 0 19.349 0C26.4519 0 33.5548 0 40.6577 0C43.8979 0 45.9945 2.10667 45.9945 5.36182C45.9945 11.3196 45.9945 17.2774 45.9945 23.2351V23.9997C46.522 23.9997 47.0328 24.003 47.5436 23.9997C48.1479 23.9947 48.5269 24.2701 48.6604 24.8694C48.809 25.5388 48.9559 26.2082 49.1078 26.8776C49.2196 27.37 51.2278 28.208 51.6535 27.9409C52.216 27.587 52.7803 27.2314 53.3345 26.8642C53.862 26.5153 54.3427 26.537 54.7951 26.9911C55.5296 27.7289 56.2658 28.4651 57.0053 29.1996C57.436 29.6286 57.4894 30.0943 57.1605 30.6068C56.79 31.1844 56.3993 31.7503 56.0655 32.3479C55.967 32.5232 55.9787 32.7969 56.0254 33.0073C56.0772 33.2443 56.2875 33.4513 56.3225 33.6867C56.4711 34.6833 57.1322 34.967 58.0252 35.1189C60.1436 35.4795 60.01 35.573 59.995 37.5862C59.99 38.1905 59.9967 38.7948 59.995 39.399C59.99 40.222 59.7713 40.4991 58.9534 40.6944C58.3274 40.843 57.6914 40.9615 57.0721 41.1318C56.9068 41.1769 56.7315 41.3354 56.6481 41.4907C56.5012 41.7611 56.4744 42.105 56.3025 42.3521C55.7917 43.0832 55.9419 43.7025 56.4861 44.3335C56.7549 44.6457 56.9419 45.028 57.1689 45.3768C57.4844 45.8626 57.4527 46.3284 57.052 46.7407C56.2975 47.5169 55.533 48.2848 54.7617 49.0443C54.3511 49.4483 53.8904 49.4833 53.4012 49.1679C52.8253 48.7956 52.2561 48.4083 51.6602 48.0728C51.4849 47.9743 51.2044 47.9693 51.0024 48.026C50.6669 48.1229 50.3698 48.3816 50.0343 48.4384C49.3081 48.5586 49.0661 48.9976 48.9843 49.662C48.9192 50.1961 48.7789 50.7236 48.632 51.2428C48.4801 51.7853 47.991 52.0825 47.4952 51.984C46.9627 51.8771 46.6105 51.4014 46.719 50.8171C46.9126 49.7755 47.1163 48.7322 47.3967 47.7122C47.4752 47.4284 47.8007 47.138 48.0862 47.0011C48.9826 46.5737 49.8974 46.1764 50.8355 45.8593C51.1811 45.7424 51.6652 45.7708 51.9924 45.9277C52.64 46.2382 53.2243 46.6839 53.8386 47.0762C54.2543 46.6605 54.6482 46.2683 55.0756 45.8392C54.7033 45.2567 54.3427 44.6574 53.9454 44.0815C53.6216 43.6124 53.6533 43.185 53.892 42.6826C54.2659 41.8997 54.5998 41.0934 54.8936 40.2771C55.0789 39.7596 55.3477 39.4207 55.9136 39.3173C56.603 39.1904 57.2841 39.0151 57.9785 38.8582V37.1421C57.3709 37.0086 56.7549 36.8483 56.1289 36.7432C55.4345 36.628 55.0555 36.2741 54.8502 35.578C54.6232 34.8084 54.276 34.0673 53.9121 33.3478C53.6483 32.827 53.6199 32.3863 53.9605 31.8972C54.3511 31.3363 54.6983 30.7453 55.0639 30.1694C54.6499 29.7671 54.2526 29.3799 53.8086 28.9492C53.2694 29.2897 52.6668 29.6486 52.0875 30.0442C51.6201 30.3647 51.1911 30.3481 50.6886 30.106C49.9057 29.7304 49.1028 29.3882 48.2848 29.1011C47.7339 28.9074 47.4084 28.607 47.3033 28.026C47.1831 27.355 47.0161 26.6923 46.8692 26.0179H45.9979C45.9979 26.9944 45.9979 27.9826 45.9979 28.9709C45.9979 29.9591 45.9979 30.9624 45.9979 31.979C48.2698 32.1042 50.0276 33.0607 51.1777 34.9987C52.7369 37.6246 51.9907 41.0967 49.5301 42.8528C49.0994 43.16 48.6688 43.2769 48.2064 42.963C47.5987 42.5507 47.6204 41.7962 48.2831 41.287C49.0894 40.6677 49.652 39.9015 49.879 38.9066C50.4482 36.4076 48.6504 34.0957 45.9962 34.0105C45.9962 34.2292 45.9962 34.4479 45.9962 34.6649C45.9962 41.3104 45.9962 47.9559 45.9962 54.6015C45.9962 57.9267 43.9112 60 40.5709 60C33.5098 60 26.4486 60 19.3874 60C16.0938 60 14.0022 57.9117 14.0005 54.6248C14.0005 48.6671 14.0005 42.7093 14.0005 36.7515C14.0005 36.5245 14.0005 36.2991 14.0005 36.002L13.9989 36.0003ZM15.9987 29.9674C15.9987 38.1754 15.9987 46.3818 15.9987 54.5898C15.9987 56.8016 17.1822 57.9985 19.3724 57.9985C26.4536 57.9985 33.5348 57.9985 40.6177 57.9985C42.7878 57.9985 43.993 56.8049 43.993 54.6532C43.993 38.2172 43.993 21.7828 43.993 5.3468C43.993 3.19339 42.7894 2.0015 40.6177 2.0015C33.5565 2.0015 26.4953 2.0015 19.4358 2.0015C17.1539 2.0015 15.9987 3.16835 15.9987 5.47033C15.9987 13.6366 15.9987 21.8012 15.9987 29.9674Z" fill="black"/>
<path d="M22.4005 29.9958C23.4221 31.0124 24.3786 31.9639 25.3351 32.9171C25.467 33.049 25.6072 33.1758 25.7257 33.3194C26.1047 33.7835 26.083 34.341 25.684 34.7216C25.3001 35.0855 24.7392 35.1273 24.3319 34.73C22.9614 33.3945 21.6076 32.0424 20.2738 30.6719C19.8431 30.2295 19.8915 29.7053 20.3572 29.2313C21.6426 27.9275 22.9363 26.6321 24.2384 25.3484C24.6991 24.8944 25.2734 24.8877 25.6857 25.2817C26.1147 25.6907 26.1147 26.2866 25.6373 26.774C24.5889 27.8391 23.5189 28.8857 22.4005 29.9975V29.9958Z" fill="black"/>
<path d="M37.6014 30.0026C36.498 28.9059 35.448 27.8725 34.4097 26.8259C33.8772 26.29 33.8638 25.6641 34.3463 25.2467C34.7469 24.9012 35.2861 24.8895 35.7017 25.2968C37.0539 26.6222 38.3927 27.9594 39.7148 29.3148C40.1338 29.7455 40.1204 30.2764 39.6931 30.7137C38.3843 32.0525 37.0606 33.3763 35.7234 34.6867C35.2727 35.129 34.6668 35.0973 34.2745 34.6833C33.8855 34.2727 33.8956 33.6968 34.3496 33.236C35.4013 32.171 36.4713 31.1244 37.6031 30.0009L37.6014 30.0026Z" fill="black"/>
<path d="M29.1279 34.9973C28.3633 35.0006 27.8675 34.4263 28.0261 33.772C28.6772 31.0944 29.3466 28.4202 30.031 25.7493C30.1745 25.1884 30.7237 24.8929 31.2362 25.0248C31.7787 25.165 32.1059 25.6975 31.9607 26.2868C31.3113 28.9226 30.6486 31.5568 29.9842 34.1893C29.859 34.6884 29.5202 34.9539 29.1295 34.9956L29.1279 34.9973Z" fill="black"/>
<path d="M29.9856 6.00118C29.0508 6.00118 28.116 6.00619 27.1812 5.99951C26.4484 5.9945 26.0043 5.6139 26.001 5.0046C25.9977 4.3953 26.4417 4.00468 27.1712 4.00135C29.0625 3.99467 30.9538 3.99467 32.8435 4.00135C33.5613 4.00468 34.0087 4.417 33.992 5.02463C33.9753 5.60889 33.5413 5.98949 32.8518 5.99617C31.8953 6.00619 30.9405 5.99784 29.984 5.99784L29.9856 6.00118Z" fill="black"/>
</svg>
