<svg width="31" height="31" viewBox="0 0 31 31" fill="none" xmlns="http://www.w3.org/2000/svg">
<path d="M24.531 18.7856C23.6295 18.6655 22.7169 18.9053 21.991 19.4533C21.2596 19.8796 19.8667 21.007 19.0731 20.7187C14.8034 18.941 11.3759 15.5966 9.49397 11.3718C9.20112 10.5585 10.324 9.15948 10.7458 8.41901C11.2876 7.68387 11.5246 6.76792 11.4074 5.86226C10.4765 4.05608 9.28587 2.39613 7.87343 0.935383C7.41218 0.423795 6.78396 0.0930095 6.10115 0.00220596C3.82359 -0.0933878 1.28049 2.94589 0.83287 3.6727C-0.283908 5.22345 -0.277839 7.28554 0.852595 9.78919C3.58385 16.5081 13.8807 26.6501 20.6253 29.4754C21.6832 30.011 22.8452 30.3093 24.0303 30.3494C24.9825 30.3646 25.9141 30.0725 26.6872 29.5164C27.2653 29.1841 30.429 26.5135 30.3456 24.1738C30.2533 23.4946 29.927 22.869 29.423 22.4045C27.9773 20.9665 26.3292 19.7473 24.531 18.7856Z" fill="white"/>
</svg>
