<svg width="35" height="35" viewBox="0 0 35 35" fill="none" xmlns="http://www.w3.org/2000/svg">
<path d="M35 1.64063C34.9351 2.07061 34.8585 2.49922 34.8079 2.93057C34.4408 6.07715 33.706 9.12324 32.3394 11.9964C31.5711 13.6117 30.5792 15.0719 29.3029 16.3345C28.1367 17.4877 26.9787 18.6491 25.8289 19.8188C25.7059 19.9439 25.6088 20.1407 25.5883 20.3144C25.3641 22.2476 25.1665 24.1835 24.9334 26.116C24.9033 26.3655 24.77 26.6485 24.5943 26.827C22.7555 28.6925 20.8961 30.5389 19.047 32.3948C18.8125 32.63 18.5602 32.7797 18.226 32.6717C17.904 32.5685 17.7885 32.3107 17.7434 31.9929C17.5567 30.6633 17.3619 29.3357 17.1664 28.0075C17.1541 27.9221 17.1384 27.8209 17.0857 27.7607C16.7337 27.3602 16.3707 26.9691 15.966 26.5255C15.7206 26.9343 15.5422 27.2316 15.3638 27.5283C14.983 28.1613 14.6084 28.7984 14.2201 29.4267C13.946 29.8703 13.4791 29.9298 13.0935 29.5846C13.0341 29.5313 12.9794 29.4731 12.9233 29.4164C10.4747 26.9678 8.02607 24.5198 5.57812 22.0705C4.99911 21.4915 5.04833 21.0916 5.75107 20.6691C6.61718 20.1489 7.48466 19.6294 8.37949 19.0928C7.98505 18.6792 7.60634 18.2759 7.21738 17.8828C7.17158 17.8363 7.06835 17.8425 6.99111 17.8315C5.65195 17.636 4.31279 17.4378 2.97226 17.2491C2.66191 17.2054 2.42607 17.0728 2.32968 16.7699C2.23398 16.4698 2.34199 16.2183 2.56279 15.9981C4.4413 14.1237 6.31298 12.2418 8.20175 10.377C8.36513 10.2156 8.62695 10.0946 8.85663 10.0673C10.7892 9.8376 12.7251 9.64004 14.6583 9.41309C14.8518 9.39053 15.0698 9.28047 15.21 9.14307C16.1807 8.19697 17.1644 7.26113 18.0858 6.26856C20.1339 4.06123 22.6406 2.60381 25.4652 1.6502C27.8113 0.85791 30.2189 0.345898 32.6874 0.125781C32.8891 0.108691 33.0894 0.04375 33.291 0C33.855 0 34.4189 0 35 0V1.64063ZM19.453 24.3537C19.5412 24.2259 19.5979 24.1083 19.6854 24.0215C22.4936 21.2085 25.2875 18.3798 28.1224 15.5935C29.951 13.7963 31.1609 11.6437 31.9915 9.25039C32.0223 9.16221 31.9908 9.00293 31.9266 8.93799C29.9763 6.97402 28.0191 5.01758 26.0565 3.06592C25.9971 3.00645 25.8528 2.97432 25.7735 3.00166C23.4698 3.79873 21.3637 4.92324 19.6226 6.67119C16.0938 10.2136 12.5535 13.7443 9.01796 17.2806C8.93935 17.3592 8.86415 17.4419 8.81699 17.4918C11.7223 20.3971 14.6104 23.2853 17.4795 26.1543C17.7734 25.8651 18.0872 25.5562 18.4386 25.2109C18.349 25.1378 18.2451 25.0653 18.1569 24.9772C16.5443 23.368 14.9338 21.7574 13.3246 20.1448C13.2207 20.0409 13.1154 19.9329 13.0368 19.8099C12.8591 19.5316 12.9097 19.1851 13.1421 18.9684C13.3636 18.7619 13.6992 18.7257 13.9603 18.8959C14.0731 18.9697 14.175 19.0641 14.2707 19.1598C15.7056 20.5919 17.1391 22.0254 18.5719 23.4596C18.8439 23.7316 19.1126 24.0071 19.4544 24.353L19.453 24.3537ZM14.903 25.6368C13.0457 23.7795 11.2123 21.9461 9.36318 20.097C8.58662 20.5639 7.79433 21.0403 7.03007 21.4997C9.1957 23.6653 11.3394 25.8098 13.5003 27.9713C13.9597 27.207 14.4313 26.4223 14.903 25.6368ZM4.46386 16.0494C4.52812 16.0754 4.56708 16.1 4.6081 16.1055C5.60956 16.2511 6.61035 16.4022 7.61454 16.5272C7.73896 16.543 7.91122 16.4445 8.00966 16.3468C9.73915 14.6303 11.4604 12.9063 13.1824 11.1829C13.2508 11.1146 13.3109 11.0394 13.406 10.932C12.008 11.0893 10.6627 11.2349 9.31943 11.3989C9.16767 11.4174 8.99814 11.5083 8.88808 11.6177C7.47988 13.0108 6.08056 14.4136 4.67988 15.8143C4.60947 15.8847 4.54384 15.9612 4.46249 16.0494H4.46386ZM24.0625 21.6193C24.0092 21.6494 23.9764 21.6597 23.9552 21.6809C22.1587 23.4753 20.3615 25.2684 18.5746 27.0717C18.4919 27.1551 18.4645 27.3362 18.4782 27.4647C18.5281 27.9392 18.6054 28.4108 18.6751 28.8839C18.7551 29.4273 18.8385 29.9694 18.9273 30.5628C19.0477 30.4493 19.1228 30.3823 19.1939 30.3112C20.4661 29.0391 21.7226 27.7512 23.0173 26.5029C23.4268 26.1078 23.6913 25.7065 23.6749 25.1269C23.6674 24.8794 23.7296 24.6306 23.7576 24.3817C23.8588 23.4698 23.9593 22.5572 24.0625 21.6193ZM33.5843 1.41504C31.4727 1.57773 29.4465 1.93115 27.514 2.45615C29.1901 4.13232 30.8738 5.81602 32.5425 7.48535C33.0716 5.54258 33.4229 3.52051 33.5843 1.41572V1.41504Z" fill="black"/>
<path d="M0 34.043C0.816895 33.2227 1.63242 32.4003 2.45068 31.5814C4.00381 30.0262 5.5583 28.4731 7.11279 26.9186C7.57012 26.4613 7.9707 26.3956 8.28994 26.7251C8.60029 27.0457 8.53398 27.4347 8.0917 27.8777C5.88574 30.0843 3.68115 32.2923 1.46973 34.4935C1.27695 34.6856 1.03838 34.8319 0.82168 35H0C0 34.6808 0 34.3622 0 34.043Z" fill="black"/>
<path d="M1.75548 30.1554C1.12794 30.1465 0.814858 29.6044 1.06847 29.1546C1.12316 29.0576 1.2004 28.9687 1.2797 28.8894C2.61476 27.5516 3.95324 26.2172 5.28624 24.8781C5.5132 24.6497 5.78527 24.4973 6.07716 24.634C6.26515 24.7222 6.46818 24.9457 6.50646 25.1392C6.54474 25.334 6.44904 25.6287 6.30617 25.7749C4.93761 27.1749 3.54923 28.5565 2.15607 29.9326C2.02892 30.0583 1.83205 30.1144 1.75548 30.1547V30.1554Z" fill="black"/>
<path d="M10.5068 29.0793C10.3564 29.3323 10.2805 29.5407 10.1383 29.6843C8.79439 31.0447 7.44019 32.3961 6.0853 33.7455C5.72847 34.101 5.3231 34.1215 5.03189 33.8207C4.75435 33.5336 4.77759 33.1289 5.11323 32.7912C6.47017 31.4275 7.83257 30.0685 9.1936 28.7095C9.41987 28.4839 9.70288 28.3465 9.99136 28.5174C10.191 28.6357 10.3215 28.8701 10.5068 29.0793Z" fill="black"/>
<path d="M22.2332 8.67481C24.5102 8.67686 26.3286 10.5021 26.3252 12.7798C26.3211 15.0432 24.4679 16.8882 22.212 16.8738C19.9684 16.8595 18.1234 15.0083 18.1262 12.775C18.1289 10.5075 19.9671 8.67276 22.2332 8.67481ZM22.2332 10.0434C20.7334 10.0434 19.4851 11.2889 19.4954 12.775C19.5057 14.2632 20.773 15.5217 22.2455 15.5053C23.7337 15.4882 24.9484 14.2673 24.9566 12.7805C24.9648 11.2738 23.7412 10.0434 22.2339 10.0434H22.2332Z" fill="black"/>
<path d="M11.673 18.2C11.3018 18.2013 11.001 17.9074 10.9969 17.5382C10.9922 17.1725 11.2916 16.8601 11.6546 16.8505C12.023 16.841 12.3593 17.1705 12.3546 17.5362C12.3498 17.8944 12.0367 18.1986 11.673 18.2Z" fill="black"/>
</svg>
