<svg width="30" height="30" viewBox="0 0 30 30" fill="none" xmlns="http://www.w3.org/2000/svg">
<path fill-rule="evenodd" clip-rule="evenodd" d="M15 2.5C8.09644 2.5 2.5 8.09644 2.5 15C2.5 21.9035 8.09644 27.5 15 27.5C21.9035 27.5 27.5 21.9035 27.5 15C27.5 8.09644 21.9035 2.5 15 2.5ZM13.2431 5.15382C13.8135 5.05274 14.4006 5 15 5C17.4366 5 19.6697 5.8715 21.4046 7.31979C19.9662 8.56557 18.3592 9.62126 16.6225 10.4481C15.6212 8.5989 14.4907 6.8301 13.2431 5.15382ZM10.7165 5.96127C8.10104 7.20295 6.11014 9.54642 5.34349 12.392C8.35247 12.695 11.4228 12.3584 14.2899 11.3924C13.2402 9.48516 12.0441 7.66972 10.7165 5.96127ZM5.00082 14.87C5.00027 14.9132 5 14.9566 5 15C5 17.4091 5.85192 19.6192 7.27095 21.3456C9.4644 18.4381 12.5452 16.2355 16.1116 15.1416C15.897 14.636 15.6725 14.1355 15.4385 13.6405C12.1066 14.8219 8.5153 15.2377 5.00082 14.87ZM9.10074 23.0754C10.7545 24.2855 12.7937 25 15 25C16.3396 25 17.6176 24.7366 18.7852 24.2587C18.3871 21.9264 17.7931 19.6607 17.0209 17.4794C13.799 18.4241 11.0264 20.4214 9.10074 23.0754ZM21.0857 22.9356C22.8877 21.5516 24.2049 19.5676 24.7384 17.2824C23.026 16.8748 21.2416 16.7729 19.4935 16.9767C20.1587 18.9054 20.6931 20.8952 21.0857 22.9356ZM24.9976 14.7775C24.9517 12.6781 24.259 10.7382 23.1106 9.14922C21.5006 10.5545 19.6987 11.7463 17.7496 12.6802C18.0426 13.3044 18.3214 13.9366 18.5852 14.5766C20.7109 14.2517 22.8966 14.3189 24.9976 14.7775Z" fill="white"/>
</svg>
