<svg width="26" height="23" viewBox="0 0 26 23" fill="none" xmlns="http://www.w3.org/2000/svg">
<path d="M19.0887 23H6.46556C4.7531 22.9997 3.11069 22.3201 1.8986 21.1104C0.686515 19.9007 0.00372196 18.2597 0 16.5472L0 6.45278C0.00372196 4.74032 0.686515 3.09926 1.8986 1.88957C3.11069 0.679879 4.7531 0.000334319 6.46556 0L19.0887 0C20.8033 0.00328109 22.4473 0.683379 23.6632 1.89239C24.2647 2.48949 24.7417 3.20005 25.0665 3.98288C25.3914 4.76571 25.5576 5.60523 25.5556 6.45278V16.5472C25.5518 18.2599 24.8689 19.9012 23.6565 21.1109C22.4441 22.3206 20.8014 23 19.0887 23ZM5.15456 6.70322C5.02735 6.70209 4.90124 6.72689 4.78393 6.7761C4.66661 6.82531 4.56056 6.8979 4.47222 6.98944C4.30559 7.1557 4.20464 7.37657 4.18797 7.61137C4.1713 7.84617 4.24003 8.07909 4.3815 8.26722L4.54889 8.43333L10.3628 12.9694C11.0711 13.5327 11.9495 13.839 12.8544 13.8383C13.762 13.8362 14.6428 13.5304 15.3563 12.9694L21.1217 8.35667L21.2239 8.25444C21.3729 8.07406 21.4531 7.84669 21.4503 7.61275C21.4475 7.3788 21.3618 7.15342 21.2086 6.97667C21.0317 6.78733 20.7918 6.66917 20.5339 6.64444H20.4802C20.2348 6.64277 19.9979 6.73408 19.8171 6.9L14.0556 11.5C13.6963 11.7977 13.2443 11.9604 12.7778 11.96C12.3117 11.9576 11.8607 11.7952 11.5 11.5L5.75 6.9C5.57795 6.77188 5.36907 6.70285 5.15456 6.70322Z" fill="#C9C9C9"/>
</svg>
