<svg width="30" height="30" viewBox="0 0 30 30" fill="none" xmlns="http://www.w3.org/2000/svg">
<path d="M22.5 3.75C24.5711 3.75 26.25 5.42894 26.25 7.5V22.5C26.25 24.5711 24.5711 26.25 22.5 26.25H7.5C5.42894 26.25 3.75 24.5711 3.75 22.5V7.5C3.75 5.42894 5.42894 3.75 7.5 3.75H22.5ZM22.5 6.25H7.5C6.80965 6.25 6.25 6.80965 6.25 7.5V22.5C6.25 23.1904 6.80965 23.75 7.5 23.75H22.5C23.1904 23.75 23.75 23.1904 23.75 22.5V7.5C23.75 6.80965 23.1904 6.25 22.5 6.25ZM10 12.5C10.641 12.5 11.1694 12.9825 11.2416 13.6042L11.25 13.75V20C11.25 20.6904 10.6904 21.25 10 21.25C9.35896 21.25 8.83062 20.7675 8.75841 20.1458L8.75 20V13.75C8.75 13.0596 9.30965 12.5 10 12.5ZM13.75 11.25C14.3641 11.25 14.8748 11.6928 14.9801 12.2766C15.2329 12.1304 15.4937 11.9987 15.7584 11.8855C16.5924 11.5287 17.8415 11.3324 18.9686 11.6869C19.5595 11.8726 20.154 12.2238 20.5947 12.8195C20.9881 13.3513 21.1999 13.998 21.2421 14.7241L21.25 15V20C21.25 20.6903 20.6904 21.25 20 21.25C19.3589 21.25 18.8306 20.7674 18.7584 20.1458L18.75 20V15C18.75 14.5884 18.6501 14.3946 18.585 14.3064C18.5179 14.2157 18.4092 14.1316 18.2189 14.0717C17.7835 13.9349 17.1576 14.006 16.7416 14.184C16.1153 14.4519 15.5434 14.8714 15.1549 15.2604L15 15.4247V20C15 20.6904 14.4404 21.25 13.75 21.25C13.1089 21.25 12.5806 20.7675 12.5084 20.1458L12.5 20V12.5C12.5 11.8096 13.0596 11.25 13.75 11.25ZM10 8.75C10.6904 8.75 11.25 9.30965 11.25 10C11.25 10.6904 10.6904 11.25 10 11.25C9.30965 11.25 8.75 10.6904 8.75 10C8.75 9.30965 9.30965 8.75 10 8.75Z" fill="white"/>
</svg>
