<svg width="34" height="31" viewBox="0 0 34 31" fill="none" xmlns="http://www.w3.org/2000/svg">
<path d="M25.1888 30.35H8.53172C6.27202 30.3496 4.10476 29.4529 2.50533 27.8566C0.905901 26.2603 0.00491137 24.0948 0 21.8351L0 8.51486C0.00491137 6.25517 0.905901 4.08968 2.50533 2.49341C4.10476 0.897145 6.27202 0.000441155 8.53172 0L25.1888 0C27.4514 0.00432962 29.6207 0.901763 31.2251 2.49713C32.0188 3.28505 32.6483 4.22268 33.0769 5.25567C33.5056 6.28866 33.7249 7.39647 33.7222 8.51486V21.8351C33.7173 24.0951 32.8161 26.2609 31.2163 27.8572C29.6165 29.4535 27.4488 30.35 25.1888 30.35ZM6.80177 8.84534C6.63391 8.84385 6.4675 8.87656 6.3127 8.9415C6.1579 9.00644 6.01795 9.10223 5.90139 9.22303C5.68151 9.44242 5.5483 9.73387 5.5263 10.0437C5.5043 10.3535 5.595 10.6609 5.78167 10.9091L6.00256 11.1283L13.6744 17.114C14.609 17.8573 15.7681 18.2615 16.9623 18.2606C18.1599 18.2578 19.3221 17.8542 20.2637 17.114L27.8714 11.0272L28.0063 10.8923C28.2029 10.6542 28.3088 10.3542 28.3051 10.0455C28.3014 9.73681 28.1883 9.43941 27.9861 9.20617C27.7527 8.95632 27.4361 8.80041 27.0958 8.76778H27.025C26.7012 8.76557 26.3885 8.88606 26.1499 9.105L18.5472 15.175C18.0732 15.5678 17.4767 15.7825 16.8611 15.782C16.2461 15.7788 15.6509 15.5645 15.175 15.175L7.5875 9.105C7.36047 8.93594 7.08484 8.84485 6.80177 8.84534Z" fill="white"/>
</svg>
