<svg width="24" height="23" viewBox="0 0 24 23" fill="none" xmlns="http://www.w3.org/2000/svg">
<path d="M14.4172 23C14.0705 23 13.738 22.8623 13.4928 22.6171C13.2477 22.3719 13.1099 22.0394 13.1099 21.6927C13.1099 21.346 13.2477 21.0135 13.4928 20.7683C13.738 20.5231 14.0705 20.3854 14.4172 20.3854H21.7105C22.0572 20.3854 22.3898 20.5231 22.6349 20.7683C22.8801 21.0135 23.0178 21.346 23.0178 21.6927C23.0178 22.0394 22.8801 22.3719 22.6349 22.6171C22.3898 22.8623 22.0572 23 21.7105 23H14.4172ZM1.09262 22.4584L0.0707975 18.0505C-0.0215465 17.6535 -0.0235801 17.2408 0.0648466 16.8429C0.153273 16.445 0.329904 16.072 0.581711 15.7514L8.54685 5.46035C8.61156 5.38235 8.70348 5.33183 8.80402 5.31903C8.90456 5.30622 9.00622 5.33208 9.08842 5.39138L12.4375 8.05579C12.5519 8.14917 12.6843 8.21808 12.8264 8.25829C12.9686 8.29849 13.1174 8.30912 13.2639 8.28953C13.5777 8.24865 13.863 8.08611 14.0582 7.83693C14.2534 7.58775 14.3429 7.27186 14.3074 6.95733C14.2662 6.64622 14.1176 6.35931 13.8872 6.14625L10.6352 3.53804C10.5362 3.45913 10.4722 3.3445 10.4569 3.21883C10.4416 3.09317 10.4763 2.96653 10.5535 2.86619L11.8129 1.23127C12.0985 0.876261 12.4547 0.58426 12.8587 0.373655C13.2628 0.16305 13.7062 0.0384035 14.1608 0.00756636C14.6154 -0.0232708 15.0715 0.0403696 15.5004 0.194479C15.9292 0.348589 16.3215 0.589829 16.6525 0.903004L18.5365 2.39998C19.2722 2.95077 19.7904 3.74304 20.0002 4.63778C20.1008 5.09134 20.0969 5.56182 19.9889 6.01366C19.8809 6.4655 19.6717 6.88689 19.3769 7.24599L8.15472 21.7585C7.90758 22.078 7.59161 22.3378 7.23029 22.5185C6.86896 22.6991 6.47157 22.796 6.06764 22.802L1.59715 22.8557C1.48031 22.8571 1.36649 22.8185 1.27468 22.7462C1.18287 22.6739 1.11861 22.5724 1.09262 22.4584Z" fill="#C9C9C9"/>
</svg>
