<svg width="57" height="60" viewBox="0 0 57 60" fill="none" xmlns="http://www.w3.org/2000/svg">
<path d="M20.7957 41.5579C20.9387 41.7794 21.0471 41.957 21.1634 42.1283C23.4904 45.5646 25.8158 49.0009 28.1476 52.4341C29.1595 53.9252 29.3606 55.5154 28.6755 57.1762C27.5709 59.8489 24.1975 60.8482 21.7824 59.1937C21.1665 58.771 20.5946 58.2101 20.1703 57.5957C17.5448 53.7948 14.9679 49.961 12.3738 46.1381C12.2198 45.9118 12.0627 45.6887 11.9605 45.5426C10.9518 45.8836 10.0075 46.3392 9.01285 46.5168C4.40907 47.3417 0.909888 44.0735 0.177684 40.3952C-0.46653 37.1615 0.652203 34.5344 3.35162 32.6253C4.88516 31.5412 6.46899 30.5261 8.00567 29.4451C8.33878 29.211 8.65617 28.8747 8.8353 28.5133C11.8427 22.4562 14.8265 16.3895 17.8166 10.3229C18.5378 8.86167 19.7555 8.10275 21.3331 7.9142C23.3254 7.67694 25.1229 8.3353 26.8324 9.25762C30.0064 10.9703 32.5675 13.4073 34.8191 16.1806C38.0213 20.1228 40.5338 24.4485 41.8489 29.3948C42.4586 31.6857 42.776 34.008 42.149 36.3586C41.5975 38.4264 39.9666 40.0589 37.4903 40.2066C32.0742 40.5303 26.669 41.041 21.2592 41.4778C21.1272 41.4888 20.9968 41.5202 20.7973 41.5548L20.7957 41.5579ZM19.1082 14.46C19.072 14.471 19.0359 14.482 18.9997 14.493C19.2983 15.9449 19.4821 17.4313 19.9158 18.8407C21.7117 24.6795 25.0019 29.5991 29.4109 33.7786C31.166 35.4426 33.108 36.8771 35.4571 37.6125C36.0557 37.7995 36.7423 37.9362 37.3441 37.8325C38.6703 37.6078 39.426 36.6572 39.7906 35.4112C40.273 33.7645 40.0907 32.1084 39.7387 30.4696C39.0898 27.4496 37.7464 24.7188 36.1406 22.1089C33.9801 18.5972 31.4315 15.4138 28.1334 12.8888C26.6329 11.7402 25.0365 10.7613 23.1667 10.3276C21.1414 9.85784 19.6801 10.7943 19.2857 12.8275C19.182 13.3633 19.1647 13.9148 19.1082 14.46ZM17.0152 17.1217C14.9836 21.2683 12.9598 25.3881 10.9612 29.5205C10.8826 29.6839 10.9785 30.0029 11.0979 30.1789C13.0761 33.1187 15.0795 36.0412 17.0482 38.9858C17.3059 39.3707 17.5589 39.4744 17.9957 39.4383C21.96 39.1115 25.9243 38.8051 29.8901 38.4908C30.3976 38.45 30.9036 38.395 31.3922 38.3478C24.0466 32.9804 19.2511 25.9506 17.0152 17.1202V17.1217ZM9.17469 31.5003C9.02856 31.5883 8.90757 31.6527 8.79444 31.7297C7.32375 32.7337 5.82791 33.7048 4.39022 34.7528C2.19675 36.3539 1.6908 39.3314 3.15992 41.6726C4.74218 44.1945 7.62229 45.1482 10.0467 43.7812C11.8301 42.7772 13.4784 41.5359 15.2083 40.3857C13.1751 37.3909 11.1765 34.448 9.17312 31.4987L9.17469 31.5003ZM13.7989 44.1316C14.3284 44.9094 14.8218 45.6369 15.3151 46.3644C17.5998 49.7331 19.8828 53.1019 22.1705 56.4691C22.8572 57.4794 23.8581 57.8958 24.8904 57.624C26.6235 57.1683 27.2834 55.2954 26.2369 53.7445C23.6538 49.917 21.0565 46.0973 18.4655 42.276C18.0821 41.7103 17.5589 41.583 16.998 41.9586C15.9405 42.6625 14.8956 43.3868 13.7989 44.1348V44.1316Z" fill="white"/>
<path d="M53.7703 9.87371C53.4844 10.2728 53.3304 10.6688 53.0429 10.862C50.3937 12.6375 47.7273 14.3848 45.053 16.1226C44.4701 16.5013 43.7395 16.3316 43.3875 15.8021C43.023 15.2553 43.166 14.5655 43.7709 14.1664C46.4153 12.4207 49.0692 10.6876 51.7183 8.94824C52.1315 8.67641 52.5919 8.59628 52.9831 8.88696C53.2833 9.11008 53.4702 9.48404 53.7719 9.87371H53.7703Z" fill="white"/>
<path d="M46.1465 21.6328C47.5512 21.8826 48.8208 22.1058 50.0903 22.3336C51.9554 22.6683 53.8205 23.0108 55.6872 23.3376C56.4429 23.4696 56.919 23.9834 56.8357 24.6292C56.7446 25.3363 56.0973 25.7794 55.3163 25.6411C53.1417 25.2546 50.9702 24.8586 48.7972 24.4658C47.9126 24.3055 47.0233 24.1704 46.1449 23.9834C45.1645 23.7744 44.7701 22.7594 45.408 22.0806C45.617 21.8575 45.9485 21.7491 46.1481 21.6328H46.1465Z" fill="white"/>
<path d="M37.386 9.76522C37.6202 7.44762 37.8558 5.13159 38.0915 2.81399C38.1497 2.24991 38.2062 1.68426 38.2691 1.12018C38.3524 0.372265 38.8772 -0.0708289 39.5764 0.00930508C40.23 0.0847253 40.6448 0.639378 40.5725 1.35744C40.2803 4.19984 39.9865 7.04224 39.6879 9.88307C39.6109 10.6153 39.1223 11.0458 38.4435 11.0049C37.8087 10.9672 37.364 10.4456 37.386 9.76208V9.76522Z" fill="white"/>
<path d="M27.4925 19.2129C30.2469 19.2098 32.6289 20.8737 33.5214 23.4286C34.4044 25.952 33.5779 28.7866 31.4489 30.4348C31.1708 30.6501 30.8047 30.8135 30.459 30.8669C29.9656 30.9407 29.5901 30.6532 29.3953 30.2007C29.202 29.7529 29.2648 29.3145 29.6074 28.95C29.7409 28.8085 29.9075 28.7001 30.0583 28.576C31.6516 27.2671 31.9941 24.9904 30.8534 23.2903C29.7001 21.5729 27.4265 21.0293 25.6133 22.0396C25.4766 22.115 25.3477 22.2061 25.2079 22.2737C24.6281 22.5565 23.9933 22.379 23.6728 21.8495C23.3554 21.3262 23.4999 20.6726 24.0169 20.2908C24.8873 19.6481 26.281 19.216 27.4909 19.2145L27.4925 19.2129Z" fill="white"/>
</svg>
