<svg width="260" height="68" viewBox="0 0 260 68" fill="none" xmlns="http://www.w3.org/2000/svg">
<path d="M13.8111 59.1097C10.3583 58.9433 6.90556 58.8462 3.45971 58.5758C2.28799 58.4857 1.15093 57.938 0 57.5982C0 56.2393 0 54.8873 0 53.5284C0.513064 50.8244 1.08853 48.1273 1.53226 45.4164C2.54452 39.225 3.51518 33.0266 4.45118 26.8213C5.20691 21.8293 5.86557 16.8235 6.6213 11.8315C7.0789 8.81555 7.63356 5.82036 8.15356 2.81825C8.46556 0.994789 9.54715 0.00332798 11.3983 0.00332798C19.3439 0.0310612 27.2964 -0.100671 35.2281 0.232127C38.9859 0.391593 42.827 1.02252 45.947 3.63637C49.9683 7.00596 51.2925 11.3601 50.7795 16.4214C47.9229 15.7419 45.0872 14.6257 42.203 14.4731C36.2958 14.1681 30.3609 14.4385 24.4399 14.3483C22.0271 14.3137 21.1466 15.5755 20.8415 17.6832C20.2175 21.9957 19.4964 26.3013 18.921 30.6208C18.5812 33.1445 18.4426 35.689 18.2138 38.2266C17.7354 39.6964 17.0975 41.1316 16.8063 42.6431C15.7455 48.1204 14.8026 53.6185 13.8111 59.1097Z" fill="#263B80"/>
<path d="M13.8117 59.1096C14.8032 53.6185 15.7461 48.1204 16.8069 42.643C17.0981 41.1385 17.736 39.6964 18.2144 38.2265C19.4069 37.7343 20.5648 36.9231 21.792 36.8191C24.3989 36.5903 27.0474 36.9231 29.6543 36.6873C37.5167 35.9732 44.2836 33.1514 48.083 25.7119C49.4419 23.0496 50.1075 20.0405 51.0921 17.1909C53.595 19.1808 54.947 21.7114 54.9262 24.977C54.8984 28.7279 54.836 32.3956 53.5048 36.0495C51.3694 41.9081 47.3827 45.5412 41.4478 46.9348C38.6329 47.5934 35.6793 47.7113 32.7743 47.9054C30.9716 48.0302 30.1743 48.6057 29.9663 50.5817C29.4879 55.116 28.8015 59.6366 27.8447 64.0877C27.6506 64.9752 25.9242 66.036 24.8287 66.1331C21.7296 66.4104 18.5818 66.2856 15.4549 66.2093C13.5413 66.1608 12.8341 64.8643 13.264 62.5485C13.472 61.4045 13.6384 60.2536 13.8187 59.1027L13.8117 59.1096Z" fill="#149AD6"/>
<path d="M94.2297 17.3433C99.2287 17.267 104.366 16.851 108.838 19.5619C110.364 20.4841 111.986 22.4462 112.201 24.1033C112.776 28.6654 112.215 33.2136 109.587 37.2765C106.945 41.3672 102.882 42.7608 98.3967 43.3224C96.8159 43.5234 95.1865 43.357 93.578 43.357C89.9172 43.357 89.4319 43.7938 88.9674 47.3159C88.6692 49.6039 88.5444 51.9612 87.865 54.1383C87.553 55.1298 86.1941 56.2322 85.1402 56.454C83.3583 56.8354 81.4378 56.558 79.5797 56.5511C77.9989 56.5511 77.7493 56.0242 78.0613 54.3463C79.1637 48.4114 79.9264 42.421 80.8554 36.4584C81.6943 31.0643 82.5263 25.6702 83.4762 20.2899C83.809 18.3833 84.8559 17.1492 87.137 17.3086C89.4943 17.4681 91.8724 17.3433 94.2436 17.3433H94.2297ZM91.186 36.6733C94.0911 36.0979 96.4137 35.9037 98.5353 35.148C100.934 34.2952 101.614 31.9379 101.593 29.6707C101.579 28.5267 100.803 26.6131 100.005 26.3982C97.8281 25.8088 95.45 25.9059 93.1551 25.8227C92.9887 25.8227 92.6836 26.5022 92.6212 26.8904C92.1567 29.8856 91.7338 32.8947 91.186 36.6733Z" fill="#273C80"/>
<path d="M179.157 56.5649C179.698 52.7655 180.156 49.3196 180.676 45.8738C181.612 39.7032 182.575 33.5395 183.539 27.3688C183.927 24.9075 184.17 22.3977 184.829 20.0126C185.106 19.0073 186.312 17.4958 187.089 17.5027C193.648 17.5374 200.352 17.0867 206.71 18.3209C213.872 19.7145 214.066 22.3977 213.387 30.0312C212.756 37.1309 208.631 41.8248 201.33 43.0519C199.111 43.4263 196.802 43.3015 194.542 43.3362C190.978 43.3847 190.625 43.7522 190.153 47.8151C189.883 50.1239 189.335 52.4119 189.183 54.7207C189.086 56.2252 188.455 56.5996 187.137 56.5719C185.189 56.5233 183.248 56.558 181.3 56.558C180.8 56.558 180.301 56.558 179.157 56.558V56.5649ZM191.991 36.6872C194.743 36.1464 196.941 35.8482 199.056 35.2659C202.037 34.4408 203.334 31.5496 202.64 28.6168C202.12 26.412 199.479 25.483 195.686 25.6424C194.875 25.6771 193.572 26.6131 193.405 27.3411C192.767 30.1421 192.497 33.0333 191.984 36.6872H191.991Z" fill="#149AD6"/>
<path d="M130.401 54.2079C127.621 55.1716 124.903 56.6484 122.047 56.9881C114.261 57.9172 109.719 51.1434 110.392 44.6885C111.016 38.7258 114.33 32.5552 121.443 30.4406C126.006 29.0816 131.705 30.1424 134.124 32.9781C134.173 30.9675 135.248 30.4336 137.064 30.6139C138.576 30.7664 140.115 30.7179 141.633 30.6278C143.457 30.5168 144.143 31.3765 143.893 33.0613C143.214 37.561 142.521 42.0608 141.772 46.5535C141.356 49.0703 140.621 51.5455 140.385 54.0692C140.198 56.0314 139.033 56.4335 137.549 56.5305C135.865 56.6415 134.166 56.5028 132.474 56.5652C131.004 56.6137 130.484 55.9343 130.686 54.5615L131.011 54.1663C130.81 54.1802 130.609 54.1871 130.401 54.201V54.2079ZM132.689 43.08C132.655 39.2389 130.561 37.4154 126.553 37.2144C122.99 37.0341 119.128 40.9514 119.37 44.4943C119.675 48.9039 121.728 50.3738 125.153 50.4431C129.181 50.5194 132.731 46.921 132.689 43.08Z" fill="#273C81"/>
<path d="M231.086 54.2632C227.404 56.579 223.265 57.8547 218.551 56.5998C213.815 55.3379 210.321 49.0771 211.236 44.1822C212.221 38.9199 214.522 34.6212 219.119 31.945C223.986 29.1092 229.075 29.0538 234.04 32.0074C234.241 32.1252 234.511 32.1391 234.733 32.1876C235.96 30.8911 242.443 29.8719 243.885 30.8772C244.329 31.1823 244.613 32.1252 244.53 32.7146C243.85 37.7481 243.088 42.7748 242.297 47.7875C241.923 50.1518 241.555 52.523 240.931 54.8248C240.744 55.5112 239.76 56.3779 239.059 56.4542C237.139 56.683 235.149 56.7246 233.242 56.4472C232.507 56.3363 231.932 55.1646 231.086 54.2563V54.2632ZM220.138 44.3486C220.131 47.9747 222.309 50.4222 225.616 50.4846C229.776 50.5678 233.804 46.6505 233.873 42.442C233.922 39.5231 231.135 37.2975 227.398 37.2628C223.522 37.2281 220.145 40.5145 220.138 44.3417V44.3486Z" fill="#149BD6"/>
<path d="M51.0916 17.1906C50.107 20.0402 49.4414 23.0492 48.0825 25.7116C44.29 33.151 37.5162 35.9729 29.6538 36.687C27.0538 36.9227 24.3984 36.5899 21.7914 36.8187C20.5643 36.9227 19.4064 37.7409 18.2139 38.2262C18.4427 35.6886 18.5813 33.1441 18.9211 30.6204C19.4965 26.3009 20.2176 21.9953 20.8416 17.6828C21.1467 15.5751 22.0272 14.3133 24.44 14.3479C30.361 14.4381 36.2959 14.1607 42.2031 14.4727C45.0873 14.6253 47.923 15.7415 50.7796 16.421C50.8836 16.6775 50.9876 16.934 51.0916 17.1906Z" fill="#232C65"/>
<path d="M160.554 45.4443C163.154 41.4161 165.408 37.79 167.813 34.2748C168.722 32.9505 169.824 31.0924 171.107 30.8359C173.769 30.302 176.619 30.6764 179.392 30.6764C179.475 30.9815 179.565 31.2866 179.649 31.5916C177.153 35.2732 174.705 38.9894 172.161 42.6364C167.176 49.7777 162.135 56.8774 157.129 63.9978C155.507 66.3066 150.043 67.9776 147.742 66.6256C146.098 65.6549 147.02 64.2544 147.762 63.1659C149.447 60.6976 151.326 58.3611 152.914 55.8374C153.427 55.0192 153.67 53.6534 153.371 52.752C151.236 46.2139 148.962 39.7174 146.653 33.2348C146.154 31.8343 146.688 31.2519 147.901 31.2034C150.265 31.1063 152.671 30.9399 154.987 31.2935C155.798 31.4183 156.686 32.8812 157.039 33.9073C158.273 37.5265 159.286 41.222 160.554 45.4513V45.4443Z" fill="#273C81"/>
<path d="M251.242 17.9399C253.724 17.9399 255.998 17.9399 258.272 17.9399C259.666 17.9399 260.241 18.0717 259.908 19.9575C258.043 30.5724 256.442 41.2289 254.75 51.8784C254.597 52.856 254.348 53.8198 254.279 54.8043C254.154 56.5861 252.899 56.9189 251.512 57.0784C250.847 57.1547 250.16 57.0923 249.481 57.0923C245.348 57.0923 244.946 56.2741 245.667 52.135C247.297 42.8166 248.649 33.4497 250.132 24.1036C250.451 22.0861 250.854 20.0754 251.242 17.9399Z" fill="#149AD6"/>
</svg>
