<svg width="35" height="35" viewBox="0 0 35 35" fill="none" xmlns="http://www.w3.org/2000/svg">
<path d="M16.3996 17.7216C16.3422 17.9465 16.2828 18.1695 16.2292 18.3954C15.7745 20.3077 14.1008 21.6144 12.1495 21.5803C10.2537 21.5463 8.63253 20.1753 8.24209 18.2756C8.2304 18.2192 8.22261 18.1617 8.21287 18.0994C5.62968 17.9193 3.50996 18.7391 2.11661 20.965C0.796292 23.074 0.787529 25.2872 2.08545 27.403C3.52554 29.7506 5.76113 30.5324 8.47382 30.3046C8.20801 30.0709 7.96751 29.8596 7.73674 29.6561C8.06293 29.3358 8.32777 29.0758 8.56827 28.8411C9.17683 29.4351 9.81459 30.0592 10.4679 30.697C10.9645 28.2423 12.4231 26.8665 14.5185 26.8314C16.164 26.8042 18.1445 27.8519 18.6265 30.3153H24.862C24.5338 30.0758 24.268 29.882 23.9964 29.6824C24.38 29.3153 24.6487 29.0583 24.897 28.8207C25.5173 29.4244 26.1502 30.0397 26.8191 30.6911C26.9418 29.4487 27.4481 28.4263 28.4315 27.6786C29.412 26.9317 30.5201 26.6834 31.7284 26.9132C33.7089 27.291 35.1246 29.1751 34.9805 31.2228C34.8384 33.2461 33.1315 34.8965 31.1169 34.9948C29.229 35.0873 27.0878 33.7846 26.8142 31.1429C26.1628 31.7768 25.5241 32.398 24.8805 33.0251C24.64 32.7817 24.378 32.5178 24.0597 32.1965C24.3079 31.9959 24.5592 31.7924 24.8104 31.5889C24.7928 31.5645 24.7743 31.5412 24.7568 31.5168H18.6206C18.3986 32.7398 17.7764 33.7281 16.6995 34.397C15.9459 34.8653 15.1134 35.0591 14.2293 34.9841C12.2547 34.8157 10.9246 33.4584 10.4679 31.1244C9.81362 31.769 9.17877 32.3951 8.53809 33.027C8.30635 32.7904 8.05124 32.5304 7.76985 32.2432C8.01327 32.0436 8.26351 31.8382 8.51375 31.6337C8.4894 31.5889 8.46409 31.5431 8.43974 31.4983C8.07364 31.4983 7.70753 31.4983 7.3424 31.4983C6.10581 31.5022 4.94323 31.2121 3.85075 30.6327C1.13708 29.1926 -0.368239 26.1849 0.0796572 23.0896C0.511975 20.0994 2.91893 17.5921 5.91594 17.0615C6.66276 16.929 7.43198 16.9222 8.21093 16.856C8.48648 15.4373 9.26738 14.3575 10.6364 13.7558C13.0657 12.6886 15.8554 14.23 16.2701 16.8531C16.2925 16.9972 16.3558 17.1345 16.3996 17.2757C16.3996 17.4246 16.3996 17.5726 16.3996 17.7216ZM15.1601 17.5201C15.1689 15.9125 13.8681 14.5922 12.2673 14.5834C10.6607 14.5747 9.34041 15.8755 9.33067 17.4762C9.32191 19.0828 10.6228 20.4041 12.2235 20.4139C13.8291 20.4236 15.1514 19.1198 15.1601 17.5201ZM14.5769 27.9989C12.9732 27.9989 11.6636 29.3105 11.6636 30.9151C11.6636 32.5188 12.9762 33.8303 14.5798 33.8293C16.1825 33.8293 17.4941 32.5158 17.4931 30.9122C17.4931 29.3075 16.1815 27.9979 14.5769 27.9989ZM27.9934 30.9122C27.9934 32.5158 29.303 33.8293 30.9057 33.8293C32.5093 33.8293 33.8218 32.5188 33.8228 30.9161C33.8228 29.3105 32.5142 27.9999 30.9095 27.9989C29.3049 27.9989 27.9943 29.3075 27.9934 30.9122Z" fill="black"/>
<path d="M16.3997 17.7215C16.3997 17.5725 16.3997 17.4245 16.3997 17.2756C16.5351 17.11 16.6587 16.9328 16.8077 16.78C17.2722 16.3009 17.7444 15.8306 18.204 15.3671C18.4834 15.6515 18.7444 15.9153 19.0414 16.2181C18.8281 16.3905 18.5769 16.595 18.3247 16.7994C18.3461 16.8316 18.3666 16.8647 18.388 16.8968C18.4766 16.9026 18.5662 16.9143 18.6548 16.9143C21.6557 16.9143 24.6566 16.9221 27.6575 16.9133C31.1871 16.9036 33.9154 14.0809 33.821 10.5532C33.7382 7.46176 31.154 4.80943 28.0567 4.68188C26.8688 4.6332 25.677 4.67409 24.457 4.67409C24.235 5.88244 23.6362 6.85613 22.5904 7.52797C21.83 8.01579 20.9936 8.21929 20.0949 8.156C18.1241 8.01482 16.8077 6.6867 16.2994 4.30896C15.6568 4.93699 15.0249 5.55236 14.4095 6.15312C14.1856 5.92528 13.9275 5.66141 13.6403 5.36833C13.8409 5.20378 14.0911 4.99833 14.3414 4.79288C14.318 4.75978 14.2946 4.72764 14.2713 4.69454H8.12144C7.89944 5.92528 7.27238 6.91163 6.18769 7.57373C5.2919 8.12095 4.31626 8.27966 3.28318 8.08882C1.30854 7.72466 -0.117914 5.85615 0.00769167 3.79485C0.128429 1.81145 1.79538 0.138652 3.78073 0.00915136C5.91603 -0.129112 7.72709 1.31195 8.11462 3.47743H14.3014C14.0366 3.25056 13.7941 3.04414 13.576 2.85719C13.9081 2.52419 14.17 2.26324 14.3988 2.03345C14.9967 2.61085 15.6364 3.23011 16.3209 3.89125C16.4455 2.62253 16.9508 1.61184 17.9187 0.858207C18.6723 0.271073 19.534 -0.0103224 20.4892 0.00233554C22.4463 0.0286251 24.0169 1.4025 24.458 3.49982C25.492 3.49982 26.5368 3.45406 27.5757 3.51443C28.38 3.56117 29.2067 3.64393 29.97 3.88151C33.118 4.85909 35.1929 7.95834 34.9806 11.2591C34.7684 14.5609 32.304 17.3564 29.0694 17.9406C28.5708 18.0302 28.0567 18.075 27.5504 18.0769C24.6225 18.0896 21.6947 18.0828 18.7668 18.0828H18.3354C18.6236 18.3301 18.8661 18.5365 19.0842 18.7234C18.7502 19.0584 18.4883 19.3203 18.1787 19.6299C17.612 19.0224 17.0063 18.3719 16.3997 17.7225V17.7215ZM6.99585 4.09085C6.99877 2.48524 5.69208 1.17076 4.08842 1.16784C2.48281 1.16492 1.1693 2.47161 1.16638 4.07527C1.16346 5.67991 2.47112 6.99536 4.07284 6.99926C5.67651 7.00315 6.99293 5.69354 6.99585 4.09183V4.09085ZM17.4961 4.08306C17.4961 5.68673 18.8077 6.99828 20.4113 6.99828C22.014 6.99828 23.3266 5.68575 23.3256 4.08209C23.3256 2.47745 22.015 1.16687 20.4104 1.16784C18.8057 1.16784 17.4961 2.47842 17.4961 4.08306Z" fill="black"/>
</svg>
