<svg width="51" height="60" viewBox="0 0 51 60" fill="none" xmlns="http://www.w3.org/2000/svg">
<path d="M26.3726 0C26.5628 0.0645668 26.7518 0.131481 26.9419 0.1937C28.3918 0.666799 29.352 1.92526 29.4612 3.52182C29.4871 3.89044 29.4647 4.26258 29.4647 4.69576C29.7124 4.69576 29.9214 4.69576 30.1315 4.69576C32.8668 4.69576 35.6009 4.69342 38.3362 4.69576C40.231 4.69811 41.4859 5.90258 41.4284 7.80788C41.4037 8.62964 41.6209 9.06517 42.3957 9.35983C43.0414 9.60519 43.6154 10.0407 44.3268 10.4539C44.6391 10.1229 44.9831 9.73197 45.3564 9.3704C46.5867 8.1765 48.3382 8.15772 49.4981 9.31287C50.6509 10.4622 50.6438 12.2501 49.444 13.4545C45.9856 16.9282 42.5178 20.3949 39.0441 23.8545C37.7892 25.1036 36.0705 25.1036 34.8167 23.8639C33.2061 22.2708 31.6025 20.6696 30.0106 19.0578C28.812 17.8439 28.7968 16.0701 29.9496 14.9161C31.1024 13.7621 32.8715 13.7739 34.0948 14.9677C35.0292 15.8811 35.9367 16.8226 36.8254 17.7195C38.8434 15.685 40.8308 13.6823 42.8477 11.6502C41.9496 10.9623 40.8238 10.4645 39.6017 10.1957C33.7708 8.91021 28.3789 13.0096 28.0455 18.9662C27.7391 24.4356 32.5381 29.149 38.011 28.7569C42.9052 28.4059 46.5468 24.7596 46.8755 19.8783C46.9212 19.1916 47.2547 18.8288 47.8123 18.8558C48.3664 18.8828 48.6892 19.2796 48.6305 19.9758C48.256 24.4673 46.0068 27.6733 41.9437 29.5986C41.5669 29.777 41.4436 29.9566 41.4436 30.3652C41.4554 39.1732 41.4542 47.9813 41.4519 56.7894C41.4519 58.4846 40.5784 59.6444 39.077 59.9461C38.8304 59.9954 38.5722 59.9978 38.3198 59.9978C26.5804 60.0001 14.8398 60.0013 3.10038 59.9978C1.20446 59.9978 0 58.7851 0 56.8798C0 40.535 0 24.1891 0 7.84193C0 5.9014 1.19859 4.69929 3.13442 4.69694C4.95051 4.69459 6.76777 4.69929 8.58386 4.69459C9.01 4.69342 9.41148 4.80729 9.52066 5.23225C9.59227 5.51165 9.54297 5.91666 9.37627 6.13384C9.22248 6.33341 8.83978 6.43789 8.55686 6.44259C6.77951 6.46959 5.00216 6.45433 3.22482 6.45668C2.15536 6.45785 1.76209 6.8429 1.76209 7.89241C1.76209 24.1996 1.76209 40.508 1.76209 56.8152C1.76209 57.8401 2.1577 58.2416 3.17199 58.2416C14.8727 58.2427 26.5733 58.2427 38.274 58.2416C39.2648 58.2416 39.6863 57.8448 39.6874 56.8716C39.6921 48.1222 39.6898 39.3728 39.6898 30.6234C39.6898 30.5506 39.6816 30.4767 39.6745 30.3558C35.6068 30.9944 32.0979 29.9414 29.2757 26.9513C27.1697 24.7197 26.1801 22.009 26.2928 18.9451C26.5416 12.1714 32.8046 7.03191 39.6111 8.3385C39.8929 7.08239 39.4127 6.45785 38.1637 6.45668C35.4683 6.45668 32.7717 6.45668 30.0764 6.45668H29.4824C29.4824 6.89338 29.4882 7.29604 29.4824 7.69753C29.4589 9.08983 28.6371 9.93624 27.2577 9.93859C22.9012 9.94798 18.5459 9.9468 14.1894 9.93859C12.8159 9.93624 11.9707 9.07104 11.9648 7.69871C11.9589 6.44846 11.9613 5.19938 11.9648 3.94914C11.9695 1.92174 12.9638 0.633928 14.9407 0.0868716C14.9689 0.0786541 14.9842 0.0316964 15.0065 0.00234788C18.796 0.00234788 22.5866 0.00234788 26.3761 0.00234788L26.3726 0ZM20.7341 8.17298C22.8625 8.17298 24.992 8.16593 27.1204 8.17885C27.5324 8.1812 27.7297 8.06615 27.7226 7.6177C27.7038 6.32872 27.7355 5.03973 27.7097 3.75192C27.6851 2.52632 26.8891 1.76209 25.6565 1.75974C22.3753 1.75269 19.0942 1.75269 15.8142 1.75974C14.5299 1.76209 13.7316 2.56037 13.7234 3.83996C13.7152 5.05029 13.7445 6.2618 13.7105 7.47096C13.6952 8.00628 13.8572 8.19059 14.4066 8.18354C16.515 8.15772 18.6246 8.17298 20.7341 8.17298ZM36.9275 23.1161C37.2515 22.9282 37.5779 22.8191 37.7974 22.6019C41.2582 19.1634 44.706 15.7109 48.1551 12.2606C48.2372 12.1785 48.3194 12.0928 48.384 11.9965C48.6892 11.541 48.6246 10.9212 48.2408 10.5502C47.8428 10.1652 47.2488 10.1182 46.7956 10.4539C46.6242 10.5807 46.4775 10.7416 46.3261 10.893C43.5098 13.7069 40.6947 16.522 37.8784 19.3372C37.0801 20.1354 36.7749 20.139 35.9919 19.3559C34.9564 18.3217 33.9269 17.2804 32.8844 16.2544C32.3374 15.7167 31.7023 15.6874 31.2233 16.1464C30.7244 16.6242 30.7361 17.2933 31.2902 17.8509C32.8703 19.444 34.4552 21.0335 36.0576 22.6054C36.2783 22.8214 36.6035 22.9306 36.9287 23.1172L36.9275 23.1161Z" fill="white"/>
<path d="M11.043 35.6948C11.043 37.6729 9.44062 39.2671 7.46722 39.2519C5.52318 39.2366 3.95127 37.6447 3.95362 35.6901C3.95479 33.7367 5.52435 32.1483 7.47192 32.1296C9.43475 32.1108 11.0442 33.7167 11.043 35.6936V35.6948ZM5.7157 35.6713C5.70631 36.6563 6.48581 37.4698 7.46018 37.4909C8.45333 37.5132 9.28213 36.6915 9.27979 35.6866C9.27744 34.7122 8.47094 33.8963 7.50479 33.8916C6.53746 33.8869 5.72392 34.6946 5.71453 35.6713H5.7157Z" fill="white"/>
<path d="M3.95361 24.8863C3.95361 22.9305 5.52435 21.3433 7.47074 21.3316C9.45001 21.3199 11.0442 22.907 11.043 24.8875C11.043 26.8632 9.42653 28.4739 7.46839 28.4492C5.51965 28.4257 3.95479 26.8386 3.95479 24.8851L3.95361 24.8863ZM9.27978 24.8675C9.27157 23.8873 8.46742 23.089 7.49305 23.0913C6.51515 23.0937 5.72039 23.8931 5.7157 24.8769C5.711 25.8806 6.54685 26.7141 7.53179 26.6883C8.50616 26.6636 9.288 25.8489 9.27978 24.8675Z" fill="white"/>
<path d="M11.0419 46.366C11.0489 48.3253 9.48877 49.9137 7.5412 49.9278C5.55137 49.943 3.96068 48.3758 3.95364 46.393C3.94659 44.4126 5.5455 42.8102 7.51303 42.8231C9.46881 42.836 11.0348 44.4091 11.0419 46.3649V46.366ZM9.27981 46.366C9.27394 45.3834 8.47683 44.5875 7.49894 44.5863C6.50109 44.5863 5.69811 45.4116 5.71572 46.4224C5.73333 47.4038 6.53631 48.1786 7.52477 48.1669C8.50735 48.1551 9.2845 47.358 9.27863 46.366H9.27981Z" fill="white"/>
<path d="M20.4443 34.5431C18.161 34.5431 15.8765 34.5454 13.5932 34.5396C13.3819 34.5396 13.16 34.529 12.9593 34.468C12.5284 34.3365 12.3288 34.0043 12.3688 33.5722C12.4087 33.1426 12.6564 32.8526 13.1095 32.7974C13.2833 32.7763 13.4605 32.7822 13.6354 32.7822C18.1833 32.7822 22.7323 32.7822 27.2802 32.7822C27.4551 32.7822 27.6335 32.7751 27.8061 32.7998C28.2264 32.8585 28.4694 33.1191 28.5257 33.53C28.5856 33.9679 28.4013 34.3036 27.9845 34.4539C27.772 34.5302 27.5267 34.5396 27.2954 34.5396C25.0121 34.5454 22.7276 34.5431 20.4443 34.5431Z" fill="white"/>
<path d="M20.4513 47.5468C22.6959 47.5468 24.9405 47.5468 27.1862 47.5468C27.3811 47.5468 27.5783 47.5421 27.7709 47.5633C28.2193 47.6137 28.4811 47.8826 28.528 48.3205C28.5785 48.7853 28.3637 49.1211 27.9082 49.249C27.6887 49.3113 27.4468 49.3124 27.2156 49.3124C22.7065 49.316 18.1974 49.3148 13.6883 49.3148C13.5521 49.3148 13.4147 49.3218 13.2785 49.3113C12.7104 49.2631 12.3324 48.8769 12.3582 48.3792C12.384 47.8943 12.7432 47.5562 13.3079 47.5539C15.6898 47.5445 18.0706 47.5492 20.4525 47.5492V47.5468H20.4513Z" fill="white"/>
<path d="M18.6409 23.8579C16.9645 23.8579 15.2869 23.8603 13.6106 23.8556C13.3981 23.8556 13.1175 23.9002 12.9872 23.7875C12.7325 23.5668 12.4425 23.2721 12.385 22.9669C12.3087 22.5607 12.5916 22.2285 13.0353 22.1346C13.2232 22.0947 13.4227 22.0958 13.6164 22.0958C16.9316 22.0935 20.2457 22.0947 23.5609 22.0958C23.717 22.0958 23.8732 22.0935 24.0281 22.1111C24.5259 22.1674 24.8017 22.4621 24.8393 22.9516C24.8757 23.4165 24.5294 23.784 24.0211 23.8474C23.8485 23.8685 23.6712 23.8591 23.4951 23.8591C21.8763 23.8591 20.2586 23.8591 18.6397 23.8591L18.6409 23.8579Z" fill="white"/>
<path d="M18.5965 27.9305C16.8415 27.9305 15.0864 27.9375 13.3325 27.927C12.7362 27.9234 12.3629 27.5736 12.357 27.0676C12.3511 26.5664 12.728 26.2118 13.3114 26.1707C13.4276 26.1625 13.545 26.1684 13.6624 26.1684C16.9577 26.1684 20.2529 26.1684 23.5482 26.1684C23.6844 26.1684 23.8217 26.1602 23.9579 26.1743C24.5049 26.2294 24.856 26.5887 24.8454 27.0747C24.8348 27.5572 24.4709 27.9211 23.9215 27.9246C22.1477 27.9375 20.3727 27.9293 18.5988 27.9293L18.5965 27.9305Z" fill="white"/>
<path d="M18.6177 43.4676C20.334 43.4676 22.0503 43.4652 23.7655 43.4676C24.4405 43.4688 24.8478 43.8057 24.8431 44.3434C24.8384 44.8822 24.4311 45.2226 23.7572 45.2238C20.3258 45.2273 16.8932 45.2273 13.4606 45.2238C12.7797 45.2238 12.3712 44.8975 12.3536 44.3633C12.336 43.801 12.7445 43.4688 13.4688 43.4676C15.1851 43.4652 16.9014 43.4676 18.6165 43.4676H18.6177Z" fill="white"/>
<path d="M16.8739 36.8418C17.9082 36.8418 18.9424 36.8418 19.9755 36.8418C20.1316 36.8418 20.2889 36.8371 20.4427 36.8536C20.9991 36.9123 21.3396 37.2621 21.3302 37.7505C21.3208 38.2388 20.9745 38.5699 20.411 38.6192C20.256 38.6333 20.0987 38.6262 19.9426 38.6262C17.8741 38.6262 15.8068 38.6262 13.7383 38.6262C13.6209 38.6262 13.5035 38.6309 13.3873 38.6262C12.7487 38.598 12.3589 38.267 12.3507 37.7493C12.3425 37.2316 12.7322 36.8735 13.3615 36.8477C13.77 36.8313 14.1809 36.8442 14.5906 36.8442C15.3513 36.8442 16.112 36.8442 16.8727 36.8442L16.8739 36.8418Z" fill="white"/>
<path d="M8.55704 13.0071C9.4915 13.0071 10.4271 13.0025 11.3616 13.0083C12.0401 13.0118 12.4322 13.3441 12.4287 13.8946C12.4252 14.4382 12.0307 14.7657 11.3487 14.7669C9.49854 14.7716 7.64841 14.7716 5.79828 14.7669C5.15496 14.7645 4.77695 14.4405 4.76404 13.9099C4.74995 13.3558 5.1397 13.013 5.81237 13.0083C6.72804 13.0025 7.64372 13.0071 8.55822 13.0071H8.55704Z" fill="white"/>
</svg>
