<svg width="41" height="40" viewBox="0 0 41 40" fill="none" xmlns="http://www.w3.org/2000/svg">
<path d="M40.002 34.2965C39.9707 34.3477 39.9311 34.3957 39.9091 34.451C39.5219 35.4435 38.8196 35.9309 37.7581 35.9309C35.077 35.933 32.3948 35.9309 29.7136 35.9309C29.5716 35.9309 29.4308 35.9309 29.245 35.9309C29.245 36.2763 29.2471 36.5978 29.245 36.9192C29.2304 38.7624 27.9936 39.9981 26.1516 39.9991C22.051 40.0012 17.9504 40.0012 13.8499 39.9991C12.012 39.9981 10.7753 38.7571 10.7617 36.914C10.7596 36.6041 10.7617 36.293 10.7617 35.9319C10.601 35.9319 10.4632 35.9319 10.3254 35.9319C7.65679 35.9319 4.98814 35.9319 2.31949 35.9319C0.567179 35.9319 -0.388818 34.572 0.199809 32.922C0.904282 30.9464 2.3435 29.4821 4.46213 28.6169C3.28697 27.5576 2.76514 26.2645 3.08554 24.7073C3.2901 23.7117 3.83802 22.9195 4.66982 22.333C6.29689 21.185 8.52825 21.4761 9.85579 22.9905C11.0403 24.3421 11.3472 26.8134 9.34231 28.6106C10.5623 29.0813 11.5883 29.8015 12.4336 30.8326C13.6568 29.1711 15.2234 28.0262 17.2115 27.3655C15.6137 26.1612 14.8351 24.5967 15.0261 22.6304C15.1607 21.2465 15.8224 20.1163 16.9078 19.2469C19.0192 17.5561 22.1199 17.8922 23.8691 20.0015C25.6109 22.1023 25.4335 25.4348 22.8974 27.2894C23.7397 27.7569 24.657 28.1608 25.4502 28.7369C26.2392 29.3088 26.904 30.053 27.644 30.7408C28.4111 29.8213 29.4151 29.0865 30.6758 28.6159C29.5435 27.6056 29.0248 26.3772 29.2627 24.8858C29.4255 23.8641 29.9442 23.0416 30.7656 22.4175C32.3676 21.2006 34.624 21.424 35.9964 22.9143C37.1956 24.2158 37.6402 26.7049 35.6239 28.5564C36.2553 28.9498 36.9347 29.3015 37.5317 29.7608C38.7402 30.6907 39.548 31.9128 39.9425 33.3958C39.9478 33.4136 39.9801 33.424 39.9999 33.4386V34.2976L40.002 34.2965ZM20.0002 38.7488C22.0823 38.7488 24.1644 38.7519 26.2465 38.7467C27.1493 38.7446 27.9206 38.1424 27.9602 37.3148C28.0009 36.4621 28.0291 35.5865 27.8872 34.7505C27.3288 31.4578 24.7645 28.9457 21.4039 28.308C18.2625 27.711 14.9249 29.1909 13.1955 31.9305C12.2364 33.4501 11.916 35.1064 12.0026 36.8827C12.06 38.0683 12.6914 38.7477 13.8708 38.7488C15.9143 38.7509 17.9567 38.7488 20.0002 38.7488ZM19.996 19.4285C17.9077 19.4337 16.2409 21.114 16.2493 23.2065C16.2576 25.2605 17.9557 26.947 20.0096 26.9429C22.0823 26.9376 23.7678 25.2323 23.7563 23.1544C23.7449 21.0869 22.0667 19.4243 19.995 19.4295L19.996 19.4285ZM29.2752 34.6806H29.605C32.2716 34.6806 34.9382 34.6806 37.6047 34.6806C37.7216 34.6806 37.8396 34.6868 37.9554 34.6754C38.5054 34.6221 38.8801 34.1128 38.7079 33.591C37.9784 31.3795 36.4724 29.9737 34.1857 29.5562C31.8385 29.1272 29.8889 29.9163 28.4121 31.8095C28.3506 31.8888 28.3276 32.0485 28.362 32.1445C28.6501 32.9732 28.9548 33.7956 29.2763 34.6816L29.2752 34.6806ZM10.7429 34.6806C11.0393 33.8384 11.2908 33.0493 11.5998 32.2833C11.6989 32.037 11.6853 31.8919 11.5288 31.703C10.0468 29.8996 8.13792 29.146 5.85229 29.5489C3.64181 29.9392 2.15042 31.2709 1.36558 33.375C1.07127 34.165 1.44594 34.6795 2.2934 34.6806C4.43917 34.6827 6.58599 34.6806 8.73176 34.6806H10.7419H10.7429ZM9.54582 25.5277C9.54269 24.0561 8.36544 22.883 6.89283 22.8851C5.43274 22.8872 4.23566 24.0853 4.23983 25.5412C4.24401 26.994 5.45361 28.1973 6.90535 28.1932C8.36544 28.189 9.55 26.994 9.54582 25.5277ZM30.4619 25.5162C30.4546 26.9846 31.6318 28.1838 33.0909 28.1932C34.5426 28.2026 35.7554 27.0076 35.7689 25.5527C35.7825 24.101 34.5833 22.8903 33.1274 22.8851C31.6527 22.8799 30.4702 24.0467 30.4629 25.5162H30.4619Z" fill="#2C35CD"/>
<path d="M40.0023 9.9216C39.804 10.1376 39.6266 10.3777 39.4043 10.5634C38.7155 11.1385 38.0141 11.699 37.3086 12.2531C37.1416 12.3846 37.1009 12.4953 37.1625 12.7103C37.4286 13.6329 37.6687 14.5628 37.916 15.4906C38.0507 15.9957 37.9609 16.3224 37.6228 16.5718C37.2961 16.8129 36.9183 16.8004 36.5008 16.528C35.7066 16.0093 34.9092 15.4958 34.1244 14.9635C33.923 14.8268 33.78 14.8216 33.5754 14.9594C32.7906 15.4906 31.9932 16.0041 31.198 16.5207C30.7722 16.7973 30.4006 16.8119 30.075 16.5791C29.7421 16.3412 29.6367 15.9915 29.7682 15.5021C30.0124 14.5868 30.2555 13.6715 30.5185 12.7614C30.5916 12.5099 30.5415 12.3659 30.3349 12.2062C29.5939 11.6332 28.8685 11.0404 28.1411 10.4518C27.7226 10.1136 27.5952 9.77026 27.7434 9.36845C27.9063 8.93011 28.259 8.78191 28.6963 8.76313C29.645 8.72243 30.5937 8.6692 31.5434 8.63685C31.7741 8.62954 31.8795 8.53978 31.9567 8.32792C32.2855 7.42619 32.6372 6.53386 32.9701 5.63318C33.1204 5.22719 33.3834 4.97463 33.8238 4.95062C34.2288 4.92871 34.5314 5.16353 34.712 5.63214C35.0574 6.5276 35.4029 7.42306 35.7316 8.32375C35.8099 8.53978 35.9174 8.62745 36.1481 8.63476C37.0581 8.66607 37.9672 8.73077 38.8773 8.75165C39.4074 8.76313 39.7967 8.94473 40.0013 9.4509V9.91951L40.0023 9.9216ZM36.4038 14.927C36.4226 14.9427 36.4413 14.9573 36.4601 14.9729C36.4549 14.9437 36.4497 14.9155 36.4445 14.8863C36.2514 14.1589 36.075 13.4262 35.8611 12.705C35.7066 12.1832 35.8464 11.8054 36.2733 11.4808C36.8786 11.0195 37.461 10.528 38.13 9.98839C37.2585 9.94142 36.4841 9.88089 35.7108 9.86315C35.1795 9.85063 34.8717 9.60223 34.6974 9.11797C34.4365 8.39263 34.1536 7.67459 33.8551 6.88558C33.779 7.06509 33.7257 7.17885 33.6808 7.29678C33.4481 7.90211 33.2029 8.50326 32.991 9.11589C32.8209 9.60954 32.5088 9.85063 31.9807 9.86315C31.2909 9.87881 30.6031 9.92994 29.9143 9.9696C29.8235 9.97482 29.7337 9.99987 29.6033 10.0228C30.1637 10.4737 30.6542 10.9266 31.2021 11.2951C31.8586 11.7376 32.0193 12.2594 31.7522 13.0004C31.5267 13.6245 31.3994 14.2841 31.2021 15.0251C31.9223 14.5555 32.562 14.1599 33.1778 13.7299C33.6328 13.4116 34.044 13.4064 34.5043 13.7195C35.1253 14.1411 35.7703 14.5273 36.4048 14.9291L36.4038 14.927Z" fill="#2C35CD"/>
<path d="M20.2371 0C20.5512 0.218126 20.6514 0.514526 20.6347 0.895464C20.6086 1.53106 20.6306 2.16769 20.6264 2.80433C20.6233 3.26458 20.3884 3.5328 20.0012 3.5328C19.614 3.5328 19.3803 3.26562 19.3771 2.80433C19.3729 2.16769 19.3949 1.53106 19.3688 0.895464C19.3531 0.514526 19.4512 0.218126 19.7664 0.00104366H20.235L20.2371 0Z" fill="#2C35CD"/>
<path d="M9.28918 16.7412C9.19525 16.6984 8.98547 16.6296 8.80492 16.5148C8.01695 16.0117 7.23003 15.5045 6.45772 14.9785C6.24377 14.8324 6.10078 14.8167 5.87744 14.9691C5.10617 15.4972 4.31716 15.9992 3.53233 16.5085C3.08251 16.8007 2.70783 16.8216 2.37908 16.569C1.99188 16.2716 1.96996 15.8886 2.0952 15.4481C2.35403 14.537 2.58051 13.6165 2.84351 12.7075C2.90613 12.4904 2.85916 12.3808 2.69531 12.2504C1.9397 11.6544 1.19348 11.047 0.444126 10.4438C0.0444024 10.1213 -0.0818809 9.78522 0.0506644 9.39593C0.201996 8.95133 0.543274 8.78539 0.982656 8.76556C1.91778 8.72277 2.85395 8.67267 3.79011 8.64241C4.05729 8.63406 4.20027 8.54848 4.2942 8.28026C4.59895 7.41193 4.94127 6.55717 5.2575 5.69197C5.41405 5.26407 5.66975 4.96871 6.15088 4.94992C6.56208 4.93427 6.85327 5.17953 7.04634 5.68049C7.37614 6.53942 7.72159 7.39419 8.02321 8.26251C8.12236 8.54848 8.26639 8.6351 8.54818 8.64345C9.48434 8.67267 10.4205 8.71442 11.3546 8.76869C12.0643 8.80939 12.4838 9.35105 12.2574 9.9449C12.1833 10.138 12.0194 10.3164 11.8555 10.4532C11.125 11.0595 10.3871 11.6576 9.63567 12.2357C9.4426 12.3839 9.42068 12.5207 9.47808 12.7294C9.74526 13.6917 10.0135 14.6539 10.2629 15.6214C10.4163 16.2163 10.0051 16.7412 9.28813 16.7392L9.28918 16.7412ZM3.60747 14.9315C4.27437 14.5078 4.94336 14.0872 5.60609 13.6572C5.97241 13.4193 6.33039 13.4057 6.69776 13.6478C7.12044 13.9265 7.54626 14.201 7.97207 14.4775C8.22151 14.6393 8.47199 14.8 8.80805 15.0182C8.58262 14.177 8.40519 13.4474 8.18916 12.7284C8.02843 12.195 8.1568 11.8037 8.6014 11.4686C9.20882 11.0105 9.79014 10.5189 10.4497 9.98769C9.6315 9.94386 8.90615 9.86871 8.18081 9.87497C7.5139 9.88124 7.15488 9.58692 6.95346 8.97116C6.72907 8.28547 6.44728 7.61962 6.16027 6.86609C5.85448 7.67389 5.57269 8.39297 5.31073 9.11832C5.1354 9.60153 4.82751 9.85097 4.29629 9.86349C3.52189 9.88124 2.74958 9.94177 1.87916 9.98873C2.56694 10.544 3.17748 11.0418 3.79429 11.5313C4.15853 11.8204 4.29316 12.1648 4.16061 12.6292C3.94666 13.3775 3.76089 14.1342 3.56259 14.8866C3.55738 14.9159 3.55216 14.9451 3.54694 14.9743L3.60851 14.9315H3.60747Z" fill="#2C35CD"/>
<path d="M23.1283 16.7405C23.0344 16.6978 22.8246 16.6289 22.6451 16.513C21.8467 16.0016 21.0535 15.4819 20.2676 14.9528C20.0797 14.8265 19.9451 14.8181 19.7499 14.9507C18.9651 15.4819 18.1677 15.9943 17.3725 16.5109C16.9227 16.8032 16.5459 16.822 16.2192 16.5652C15.8539 16.2793 15.8059 15.914 15.9291 15.4808C16.19 14.5708 16.4133 13.6492 16.6805 12.7412C16.7536 12.4928 16.692 12.3697 16.5041 12.2225C15.7569 11.637 15.0242 11.0338 14.2822 10.441C13.9513 10.1769 13.7572 9.86698 13.8877 9.4276C14.014 9.00074 14.2999 8.79514 14.8332 8.76696C15.7819 8.7179 16.7296 8.67094 17.6793 8.63963C17.9225 8.63128 18.0415 8.54153 18.125 8.31296C18.4527 7.41124 18.7971 6.51577 19.1404 5.62031C19.3126 5.17153 19.6038 4.95132 19.9994 4.94923C20.3949 4.94715 20.6945 5.16736 20.8656 5.61092C21.21 6.50638 21.5534 7.40184 21.8821 8.30357C21.9636 8.52587 22.07 8.63128 22.3194 8.63963C23.242 8.66885 24.1657 8.70955 25.0872 8.76904C25.3252 8.7847 25.5913 8.83271 25.7865 8.95795C26.3 9.28775 26.2968 9.96926 25.7928 10.3857C25.0413 11.0067 24.2826 11.6203 23.5113 12.2163C23.2994 12.3801 23.266 12.52 23.3381 12.7705C23.6094 13.7045 23.8578 14.6459 24.1041 15.5873C24.2659 16.2072 23.863 16.7447 23.1304 16.7416L23.1283 16.7405ZM17.3547 15.0279C18.1051 14.5374 18.7605 14.1189 19.4045 13.6837C19.8094 13.4102 20.1945 13.4081 20.5984 13.6816C21.137 14.0448 21.6839 14.3965 22.2276 14.7503C22.3361 14.8213 22.4509 14.8828 22.6451 14.9976C22.4102 14.1283 22.2078 13.3653 21.997 12.6045C21.8801 12.1808 21.9886 11.8374 22.3309 11.564C22.6158 11.3365 22.8997 11.1089 23.1836 10.8804C23.5301 10.6017 23.8755 10.3231 24.293 9.987C23.408 9.94004 22.6294 9.88368 21.8498 9.86176C21.3363 9.84715 21.0326 9.60606 20.8635 9.13537C20.6444 8.52483 20.4043 7.92263 20.1737 7.31626C20.1267 7.19415 20.0797 7.07205 20.0015 6.87166C19.6915 7.68572 19.4076 8.39541 19.1509 9.1145C18.9766 9.60293 18.6687 9.85341 18.1396 9.86072C17.5541 9.86802 16.9696 9.91186 16.3852 9.94212C16.191 9.95256 15.998 9.97239 15.7277 9.99326C16.4154 10.5464 17.0187 11.0411 17.6313 11.5222C18.0143 11.8228 18.1323 12.1839 17.9945 12.6567C17.7774 13.4019 17.5896 14.1554 17.3568 15.0248L17.3547 15.0279Z" fill="#2C35CD"/>
<path d="M23.6082 6.88939C23.4329 6.75058 23.1751 6.64517 23.1135 6.47088C23.0447 6.27571 23.0676 5.92817 23.2002 5.80189C24.0612 4.97531 24.9546 4.18212 25.8542 3.39833C26.1099 3.17499 26.4794 3.25431 26.6881 3.51105C26.8947 3.76466 26.8718 4.13203 26.5983 4.3846C25.921 5.00975 25.2322 5.62134 24.5475 6.23814C24.3931 6.37695 24.247 6.52619 24.08 6.6483C23.96 6.73597 23.8128 6.78711 23.6093 6.88835L23.6082 6.88939Z" fill="#2C35CD"/>
<path d="M17.0532 6.23035C16.905 6.41821 16.7985 6.68539 16.6274 6.73653C16.4176 6.79915 16.092 6.75949 15.9239 6.62799C15.3729 6.198 14.8698 5.70643 14.349 5.23678C14.0401 4.95917 13.7281 4.68468 13.4264 4.39976C13.1363 4.12528 13.1039 3.76209 13.3294 3.50013C13.5725 3.21625 13.9378 3.19329 14.2582 3.47717C15.0953 4.21608 15.925 4.9623 16.7463 5.71896C16.8695 5.83272 16.9279 6.01536 17.0532 6.23035Z" fill="#2C35CD"/>
<path d="M36.4441 14.8867C36.4494 14.9159 36.4546 14.9441 36.4598 14.9733C36.441 14.9577 36.4222 14.9431 36.4034 14.9274C36.417 14.9139 36.4306 14.9003 36.4441 14.8867Z" fill="#2C35CD"/>
<path d="M3.60638 14.9316C3.5855 14.9462 3.56463 14.9598 3.5448 14.9744C3.55002 14.9452 3.55524 14.9159 3.56045 14.8867C3.57611 14.9013 3.59176 14.9159 3.60638 14.9316Z" fill="#2C35CD"/>
</svg>
