<svg width="60" height="60" viewBox="0 0 60 60" fill="none" xmlns="http://www.w3.org/2000/svg">
<path d="M47.0034 29.987H44.9825V29.3745C44.9825 22.0649 44.9825 14.7553 44.9825 7.4457C44.9825 6.29919 45.2445 6.03551 46.2825 5.9988C45.1994 4.91571 44.0546 3.7692 42.9631 2.6761C41.9335 3.70746 40.7786 4.86231 39.6555 5.98545C39.6872 5.98711 39.8574 5.99045 40.026 6.01048C40.6017 6.0789 40.9305 6.40266 40.9772 6.98175C41.0006 7.27214 40.9839 7.56419 40.9839 7.85624C40.9839 15.5397 40.9839 23.2247 40.9839 30.9549H39.0263V12.0501C38.8244 12.0334 38.6692 12.01 38.5123 12.01C27.3927 12.0084 16.2748 12.0067 5.15518 12.01C3.26103 12.01 2.00939 13.285 2.00104 15.1975C1.99603 16.4258 1.99603 17.6541 1.99437 18.884C1.99437 18.9024 1.97935 18.9191 1.95598 18.9725H0.110226C0.110226 17.322 -0.053322 15.6481 0.150279 14.0193C0.432315 11.753 2.53007 10.0758 4.82642 10.0191C5.94956 9.9907 7.07437 10.0107 8.19918 10.0107C18.214 10.0107 28.2305 10.0107 38.2453 10.0107H38.9529V8.01144C38.3538 8.01144 37.7563 8.00143 37.1589 8.01478C36.6515 8.02479 36.2593 7.8579 36.0607 7.36726C35.8688 6.89497 36.0541 6.52449 36.3895 6.19072C38.3054 4.2782 40.2145 2.36069 42.1337 0.449846C42.7262 -0.140929 43.2268 -0.150942 43.8076 0.426482C45.7418 2.34901 47.666 4.28321 49.5952 6.21241C49.9306 6.54785 50.0958 6.92668 49.8922 7.39563C49.692 7.85457 49.3215 8.02312 48.8392 8.01645C48.2401 8.0081 47.6393 8.01478 47.0118 8.01478V10.0141C48.2434 10.0141 49.465 10.0141 50.6866 10.0141C53.8508 10.0191 55.9752 12.1335 55.9769 15.2927C55.9802 21.6644 55.9769 28.0377 55.9769 34.4094C55.9769 34.5913 55.9769 34.7732 55.9769 34.9802H53.9776C53.9776 34.7349 53.9776 34.5112 53.9776 34.2876C53.9776 27.9993 53.9776 21.7094 53.9776 15.4212C53.9776 13.1799 52.8011 12.0134 50.5414 12.0134C49.3782 12.0134 48.215 12.0134 47.0018 12.0134V29.9936L47.0034 29.987Z" fill="black"/>
<path d="M26.9888 37.979H28.9881V37.3248C28.9881 30.349 28.9881 23.3749 28.9881 16.399C28.9881 15.2976 29.2852 15.0055 30.3983 15.0039C32.209 15.0039 34.0214 14.9989 35.8321 15.0055C36.5797 15.0089 36.9786 15.376 36.9803 16.0953C36.9869 21.676 36.9819 27.255 36.9803 32.8356C36.9803 32.8723 36.9552 32.909 36.9319 32.9708H34.9893V17.0315H30.9941V39.97H5.02832V38.0107H8.99519V36.7341C8.99519 34.5896 8.99519 32.4451 8.99519 30.3006C8.99519 29.351 9.33063 29.0056 10.2535 29.0039C12.0859 29.0006 13.9183 29.0006 15.7491 29.0039C16.6402 29.0056 16.989 29.356 16.989 30.2556C16.9924 32.8139 16.989 35.3723 16.989 37.964H18.9883V37.3082C18.9883 32.6654 18.9883 28.0226 18.9883 23.3782C18.9883 22.3101 19.2937 22.0047 20.3568 22.0031C22.1057 22.0031 23.8547 22.0031 25.6037 22.0031C26.6734 22.0031 26.9855 22.3101 26.9855 23.3649C26.9855 28.2146 26.9855 33.0643 26.9855 37.979H26.9888ZM21.0277 24.0174V37.9623H24.9545V24.0174H21.0277ZM14.9597 37.984V31.0366H11.0312V37.984H14.9597Z" fill="black"/>
<path d="M2.03601 43.9753C2.03601 44.5427 1.97092 45.0284 2.04769 45.4906C2.29301 46.9859 3.52796 47.9906 5.09168 47.9923C9.54753 47.9989 14.0034 47.9956 18.4576 47.9956C22.4128 47.9956 26.3696 47.9956 30.3248 47.9956H30.959V49.9815H23.7378C22.9384 52.645 22.1457 55.2835 21.3413 57.962H34.6254C34.2633 56.7421 33.9095 55.5505 33.5357 54.2989C34.1598 54.1036 34.7606 53.9134 35.4315 53.7031C35.8704 55.1466 36.301 56.5635 36.7332 57.9854H38.9378V59.9479H17.0173V58.0254H19.2369C20.043 55.3386 20.8357 52.7001 21.6467 49.9949H20.9241C15.7407 49.9949 10.5555 49.9949 5.37205 49.9949C2.08607 49.9949 0 47.9038 0 44.6095C0 36.9678 0 29.3261 0 21.6844C0 21.4791 0 21.2738 0 21.0369H1.9826V41.9777H29.9526V43.9753H2.03601Z" fill="black"/>
<path d="M50.1059 54.3456C43.9812 57.7484 37.4176 55.4871 34.21 50.9762C30.8256 46.2166 31.3145 39.7781 35.4032 35.5843C39.4018 31.4839 45.872 30.8264 50.6165 33.9788C55.256 37.0612 57.8594 43.7533 54.3331 50.1401C55.9002 51.6971 57.4922 53.2525 59.051 54.8396C60.3276 56.1396 60.2759 58.0605 58.9759 59.2253C57.7676 60.3084 56.032 60.2583 54.8104 59.0584C53.235 57.5131 51.6913 55.936 50.1059 54.3456ZM53.9776 44.0354C53.9793 38.5265 49.5201 34.0122 44.068 34.0005C38.4623 33.9905 33.9864 38.4531 33.9881 44.0521C33.9881 49.5142 38.4823 53.9818 43.9878 53.9951C49.455 54.0085 53.9743 49.5026 53.9776 44.0354ZM51.7731 53.2041C53.24 54.671 54.7069 56.1463 56.1855 57.6132C56.6795 58.1022 57.2569 58.1322 57.6792 57.73C58.1181 57.3095 58.0964 56.707 57.5857 56.1913C56.1221 54.7111 54.6485 53.2425 53.1816 51.7722C52.7143 52.2462 52.2654 52.7051 51.7714 53.2058L51.7731 53.2041Z" fill="black"/>
<path d="M48.9993 1.99529V0.0694248C52.0232 -0.224294 55.0556 2.78632 54.9454 5.98052H52.9979C52.9294 4.91912 52.5773 3.96621 51.8146 3.19686C51.047 2.42418 50.1007 2.05703 48.9993 1.99529Z" fill="black"/>
<path d="M5.04004 14.026H6.95652V15.9642H5.04004V14.026Z" fill="black"/>
<path d="M9.01343 15.9743V14.0394H10.9633V15.9743H9.01343Z" fill="black"/>
<path d="M14.9604 15.9926H13.0305V14.0427H14.9604V15.9926Z" fill="black"/>
<path d="M35.9856 43.9652C35.9906 39.5545 39.6003 35.9864 44.0445 35.9998C48.3852 36.0131 51.9766 39.6195 51.9783 43.9669C51.9799 48.4027 48.3919 52.0025 43.9794 51.9908C39.5469 51.9808 35.9806 48.3994 35.9856 43.9636V43.9652ZM44.0228 38.0008C40.7085 37.9891 38.0032 40.6592 37.9866 43.9552C37.9699 47.2646 40.6517 49.9848 43.9394 49.9948C47.2738 50.0048 49.9756 47.3096 49.979 43.9753C49.9806 40.711 47.2904 38.0108 44.0245 38.0008H44.0228Z" fill="black"/>
<path d="M43.9693 40.0185V41.9611C42.8027 42.1213 42.1085 42.7721 41.9566 43.977H40.0458C39.8272 42.3032 41.4743 39.9935 43.9693 40.0185Z" fill="black"/>
</svg>
