<svg width="28" height="26" viewBox="0 0 28 26" fill="none" xmlns="http://www.w3.org/2000/svg">
<path d="M21.6561 16.0802C21.4825 16.2487 21.3523 16.4567 21.2767 16.6866C21.2012 16.9164 21.1824 17.1611 21.2222 17.3998L22.4316 24.093C22.4814 24.3709 22.4502 24.6572 22.3417 24.9177C22.2331 25.1783 22.0518 25.4021 21.8194 25.5623C21.5914 25.7287 21.3209 25.8273 21.0392 25.8465C20.7576 25.8658 20.4763 25.805 20.2277 25.6711L14.2024 22.5286C13.9924 22.4174 13.7596 22.3564 13.5222 22.3503H13.1535C13.0248 22.3692 12.9005 22.4107 12.7862 22.4728L6.75953 25.6303C6.46129 25.7804 6.12333 25.8328 5.79364 25.78C5.40629 25.7064 5.06299 25.4845 4.83684 25.1615C4.61068 24.8385 4.51956 24.44 4.58286 24.0509L5.79364 17.3576C5.83322 17.1171 5.81446 16.8706 5.73894 16.6388C5.66342 16.407 5.53335 16.1968 5.35966 16.0257L0.447186 11.2643C0.246067 11.0695 0.104774 10.8214 0.0399412 10.549C-0.0248917 10.2767 -0.0105655 9.99148 0.0812332 9.727C0.170473 9.46273 0.330359 9.22794 0.543556 9.04807C0.756752 8.86821 1.01512 8.75015 1.29065 8.70669L8.05193 7.72583C8.3053 7.69979 8.54799 7.61021 8.75751 7.46537C8.96703 7.32054 9.13659 7.12516 9.25046 6.89733L12.2284 0.789044C12.2986 0.65268 12.3905 0.528627 12.5005 0.42173L12.6229 0.326501C12.6864 0.256578 12.7603 0.196918 12.842 0.149646L12.9903 0.0952294L13.2215 0H13.7943C14.0459 0.0258661 14.2872 0.114042 14.4962 0.256558C14.7052 0.399074 14.8754 0.591435 14.9914 0.816252L18.0102 6.89733C18.1176 7.11628 18.2764 7.30598 18.473 7.45025C18.6697 7.59452 18.8983 7.68907 19.1394 7.72583L25.9006 8.70669C26.1807 8.74688 26.4443 8.86332 26.6627 9.04327C26.881 9.22322 27.0457 9.45976 27.1386 9.727C27.2259 9.99423 27.2352 10.2808 27.1653 10.5531C27.0954 10.8254 26.9493 11.0721 26.7441 11.2643L21.6561 16.0802Z" fill="url(#paint0_linear_96_407)"/>
<defs>
<linearGradient id="paint0_linear_96_407" x1="13.6058" y1="0" x2="13.6058" y2="25.85" gradientUnits="userSpaceOnUse">
<stop stop-color="#D99718"/>
<stop offset="1" stop-color="#FAB021"/>
</linearGradient>
</defs>
</svg>
