<svg width="163" height="67" viewBox="0 0 163 67" fill="none" xmlns="http://www.w3.org/2000/svg">
<g clip-path="url(#clip0_1279_707)">
<path d="M162.677 38.6017H140.907C140.639 41.0726 142.663 43.9007 145.308 44.8042C148.786 45.9934 152.26 45.5479 155.704 44.6781C157.302 44.2747 158.858 43.6822 160.597 43.1233C160.597 45.9808 160.636 48.6828 160.551 51.3806C160.538 51.721 159.943 52.1538 159.522 52.3513C154.853 54.5365 150.002 55.3055 144.823 54.6121C139.653 53.9229 135.571 51.6033 132.705 47.3759C130.826 44.5982 129.916 41.455 129.503 38.068C128.976 33.7313 129.376 29.5669 130.868 25.5286C133.011 19.738 137.017 15.7879 143.212 14.376C150.78 12.6489 158.616 17.036 161.095 24.331C161.839 26.5119 162.366 28.7643 162.996 30.9831V38.5303C162.889 38.5555 162.779 38.5765 162.672 38.6017H162.677ZM152.136 30.2813C152.374 27.6087 151.528 25.3857 149.326 24.0368C147.574 22.9611 145.457 22.9611 143.628 24.0831C141.37 25.4698 140.541 27.6129 140.75 30.2813H152.136Z" fill="#635CFF"/>
<path d="M162.677 38.6017C162.783 38.5765 162.894 38.5555 163 38.5303V38.8454L162.677 38.6017Z" fill="#E0DEFF"/>
<path d="M103.793 52.0445V64.6175C100.077 65.4033 96.3948 66.1807 92.5469 66.996V14.9726H102.326C102.526 15.6786 102.73 16.393 102.968 17.2376C104.439 16.456 105.689 15.5904 107.071 15.0903C113.445 12.7875 119.95 15.2626 123.479 20.5448C125.848 24.0914 126.962 28.0121 127.064 32.2815C127.166 36.593 126.987 40.8162 125.473 44.9302C123.301 50.8385 117.561 55.0995 111.408 54.8054C109.418 54.7087 107.467 53.6876 105.515 53.0362C104.988 52.8598 104.533 52.4816 103.793 52.0487V52.0445ZM116.238 34.4415C115.822 32.5967 115.49 30.7267 114.967 28.9114C113.628 24.2763 109.002 22.7173 104.665 25.3815C104.206 25.6631 103.848 26.4825 103.844 27.054C103.785 31.979 103.802 36.904 103.853 41.829C103.857 42.3416 104.061 43.035 104.427 43.3291C107.407 45.7244 110.889 45.8547 113.666 42.5517C115.618 40.2279 116.081 37.4461 116.243 34.4373L116.238 34.4415Z" fill="#635BFF"/>
<path d="M26.5323 26.3521C23.8451 25.6167 21.3833 24.7721 18.8534 24.3098C17.0123 23.9736 15.065 23.9862 13.1814 24.1207C11.5359 24.2342 10.7791 26.5538 12.1099 27.5581C13.53 28.6297 15.2818 29.2768 16.923 30.0458C19.4061 31.214 22.0125 32.1679 24.3936 33.5084C28.148 35.6222 29.1472 40.3622 28.586 44.056C27.574 50.7165 22.5695 53.4689 16.821 54.5615C11.6677 55.5406 6.72279 54.5027 1.85439 52.9226C1.35692 52.763 0.663863 52.1452 0.651108 51.725C0.549063 48.4473 0.595833 45.1654 0.595833 42.0557C3.61467 43.0433 6.57398 44.1484 9.61832 44.9511C11.4424 45.4301 13.4535 45.8924 15.2478 44.8166C16.0259 44.3501 16.9911 43.5517 17.0889 42.8037C17.1909 42.0305 16.5531 40.7825 15.8601 40.3706C14.2656 39.4252 12.4416 38.8495 10.7025 38.1477C7.84103 37.0005 4.91149 35.9751 2.70476 33.6891C1.09755 32.0251 0.242927 30.0626 0.0515928 27.7346C-0.645715 19.2756 6.26359 14.3884 13.5428 14.296C17.2845 14.2497 20.9623 14.4851 24.5807 15.5398C25.9625 15.9432 26.6598 16.5063 26.5748 18.0863C26.4302 20.8472 26.5365 23.6249 26.5365 26.3563L26.5323 26.3521Z" fill="#635BFF"/>
<path d="M42.3789 14.8674H50.5468V24.44C47.8298 24.44 45.1044 24.44 42.3789 24.44C42.2896 24.524 42.2004 24.6039 42.1111 24.6879C42.0941 29.9827 42.1578 35.2775 42.0388 40.5681C41.958 44.1736 45.1724 45.6738 48.0424 45.014C48.8503 44.8291 49.6496 44.6106 50.6531 44.3585C50.6531 47.2328 50.6829 49.9432 50.6191 52.6536C50.6106 52.9982 50.1939 53.5319 49.8537 53.6453C45.1894 55.1665 40.5336 55.8305 36.1117 52.952C32.7357 50.75 31.0222 47.5563 31.0052 43.5937C30.9584 31.9578 31.0052 20.3176 31.0052 8.68172C31.0052 7.92113 31.12 7.51771 32.0766 7.33702C35.3463 6.71509 38.5778 5.92087 42.1153 5.13086C42.1153 8.39177 42.1153 11.5098 42.1153 14.6278C42.2046 14.7119 42.2939 14.7917 42.3832 14.8758L42.3789 14.8674Z" fill="#635BFF"/>
<path d="M74.1269 15.2581V25.003C72.8598 25.003 71.6608 25.003 70.4618 25.003C67.2729 24.9946 65.5721 26.625 65.5721 29.6926C65.5721 37.1348 65.5721 44.5769 65.5721 52.019V53.8595H54.3174V15.0353H63.8671C64.1137 15.9262 64.3773 16.8969 64.658 17.9139C67.8426 14.6109 70.8189 13.6864 73.8803 14.9891C73.9611 15.0774 74.0461 15.1698 74.1269 15.2581Z" fill="#635BFF"/>
<path d="M76.9756 14.9893H88.1495V53.8849H76.9756V14.9893Z" fill="#635BFF"/>
<path d="M76.9502 11.4636V2.39946C80.6026 1.62205 84.2889 0.840442 88.2262 0C88.2262 2.96256 88.2474 5.715 88.1922 8.46745C88.1879 8.74059 87.716 9.16922 87.4013 9.24065C83.9615 10.0097 80.5133 10.7198 76.9545 11.4678L76.9502 11.4636Z" fill="#635BFF"/>
<path d="M42.3782 14.8676C42.2889 14.7835 42.1996 14.7037 42.1104 14.6196C42.1996 14.7037 42.2889 14.7835 42.3782 14.8676Z" fill="#EAE9FF"/>
<path d="M74.1275 15.2582C74.0467 15.17 73.9616 15.0775 73.8809 14.9893C73.9616 15.0775 74.0467 15.17 74.1275 15.2582Z" fill="#8079FF"/>
<path d="M42.1104 24.6923C42.1996 24.6082 42.2889 24.5284 42.3782 24.4443C42.2889 24.5284 42.1996 24.6082 42.1104 24.6923Z" fill="#EAE9FF"/>
</g>
<defs>
<clipPath id="clip0_1279_707">
<rect width="163" height="67" fill="white"/>
</clipPath>
</defs>
</svg>
