<svg width="68" height="60" viewBox="0 0 68 60" fill="none" xmlns="http://www.w3.org/2000/svg">
<path d="M67.985 6.35934V53.7602C67.9062 53.929 67.7985 54.0897 67.7519 54.2666C66.8228 57.7243 63.9582 59.9861 60.3766 59.9893C42.7839 60.0022 25.1913 60.0054 7.59858 59.9877C3.29686 59.9829 0.0127059 56.657 0.00949086 52.3504C-0.0049768 37.4568 -0.00336928 22.5631 0.0175285 7.67107C0.0175285 6.86732 0.147737 6.03141 0.387258 5.26462C1.39999 2.011 4.27584 0.00321504 7.84453 0.00160752C25.2829 0 42.7212 0 60.1596 0C60.3814 0 60.6017 0.00321503 60.8235 0.0176827C64.016 0.20737 66.7006 2.30196 67.649 5.33535C67.7567 5.67775 67.8741 6.01855 67.9866 6.35934H67.985ZM2.25519 17.9962C2.25519 18.2518 2.25519 18.4479 2.25519 18.644C2.25519 29.7728 2.25519 40.9017 2.25519 52.0305C2.25519 55.5301 4.47035 57.7436 7.97313 57.7436C25.3183 57.7436 42.665 57.7436 60.0101 57.7436C63.5145 57.7436 65.7312 55.5333 65.7312 52.0337C65.7329 40.9049 65.7312 29.776 65.7312 18.6472V17.9962H2.25519ZM2.2777 15.7054H65.712C65.712 12.8344 65.7441 10.0036 65.6878 7.17435C65.675 6.51527 65.4564 5.81118 65.1558 5.21479C64.1028 3.12662 62.3072 2.24731 60.0165 2.24892C45.2804 2.25213 30.5427 2.25052 15.8066 2.25052C13.1284 2.25052 10.4519 2.23766 7.7738 2.25374C4.76774 2.27142 2.42881 4.29046 2.30342 7.17435C2.18125 9.99876 2.27609 12.8344 2.27609 15.7038L2.2777 15.7054Z" fill="black"/>
<path d="M4.72901 9.03098C4.72419 7.08588 6.31724 5.48158 8.26234 5.47354C10.1833 5.4655 11.815 7.09392 11.8166 9.02133C11.8182 10.9471 10.1962 12.5788 8.27198 12.5836C6.33814 12.5884 4.73384 10.9793 4.72901 9.03098ZM9.56121 9.01972C9.55639 8.32206 8.92946 7.70799 8.24144 7.72728C7.53574 7.74657 6.9506 8.36546 6.97311 9.06795C6.99401 9.7415 7.58557 10.3234 8.25591 10.3315C8.94393 10.3395 9.56443 9.71578 9.55961 9.02133L9.56121 9.01972Z" fill="black"/>
<path d="M15.6455 9.05688C15.6471 7.09571 17.2209 5.52356 19.182 5.52356C21.1352 5.52356 22.7202 7.11018 22.7186 9.06331C22.7186 11.0132 21.1223 12.6063 19.1756 12.6047C17.2225 12.6015 15.6439 11.0164 15.6455 9.05849V9.05688ZM19.1869 7.77087C18.4715 7.76765 17.8928 8.34958 17.8944 9.06814C17.8976 9.7883 18.4844 10.3654 19.2029 10.3509C19.891 10.3381 20.4568 9.77223 20.4665 9.08582C20.4777 8.37047 19.899 7.77569 19.1853 7.77248L19.1869 7.77087Z" fill="black"/>
<path d="M33.6276 9.10509C33.6195 11.0631 32.041 12.6336 30.0814 12.6288C28.125 12.624 26.5465 11.0389 26.5513 9.0842C26.5561 7.13428 28.1508 5.54927 30.1023 5.55409C32.0538 5.55891 33.6356 7.15196 33.6276 9.10509ZM31.3754 9.12278C31.3899 8.40422 30.8192 7.81426 30.1023 7.80783C29.3869 7.8014 28.8002 8.38493 28.8034 9.10188C28.805 9.79311 29.3564 10.359 30.0492 10.3782C30.7726 10.3991 31.361 9.84295 31.3754 9.12438V9.12278Z" fill="black"/>
<path d="M16.9362 43.9379C19.8962 43.9379 21.6722 42.2259 21.6722 38.9779V32.6099H20.1202V38.9139C20.1202 41.3939 18.9682 42.5139 16.9522 42.5139C14.9362 42.5139 13.8002 41.3939 13.8002 38.9139V32.6099H12.2002V38.9779C12.2002 42.2259 13.9922 43.9379 16.9362 43.9379ZM33.6762 43.8099L29.4362 38.0179L33.3882 32.6099H31.6442L28.5402 36.9139L25.4042 32.6099H23.5802L27.5322 38.0659L23.3242 43.8099H25.1642L28.4762 39.1859L31.8362 43.8099H33.6762ZM33.6994 45.4099H35.0914L40.3714 30.3379H38.9794L33.6994 45.4099ZM46.0924 43.9379C49.0524 43.9379 50.8284 42.2259 50.8284 38.9779V32.6099H49.2764V38.9139C49.2764 41.3939 48.1244 42.5139 46.1084 42.5139C44.0924 42.5139 42.9564 41.3939 42.9564 38.9139V32.6099H41.3564V38.9779C41.3564 42.2259 43.1484 43.9379 46.0924 43.9379ZM54.1087 43.8099H55.7087V32.6099H54.1087V43.8099Z" fill="black"/>
</svg>
