<svg width="68" height="60" viewBox="0 0 68 60" fill="none" xmlns="http://www.w3.org/2000/svg">
<path d="M67.985 6.35934V53.7602C67.9062 53.929 67.7985 54.0897 67.7519 54.2666C66.8228 57.7243 63.9582 59.9861 60.3766 59.9893C42.7839 60.0022 25.1913 60.0054 7.59858 59.9877C3.29686 59.9829 0.0127059 56.657 0.00949086 52.3504C-0.0049768 37.4568 -0.00336928 22.5631 0.0175285 7.67107C0.0175285 6.86732 0.147737 6.03141 0.387258 5.26462C1.39999 2.011 4.27584 0.00321504 7.84453 0.00160752C25.2829 0 42.7212 0 60.1596 0C60.3814 0 60.6017 0.00321503 60.8235 0.0176827C64.016 0.20737 66.7006 2.30196 67.649 5.33535C67.7567 5.67775 67.8741 6.01855 67.9866 6.35934H67.985ZM2.25519 17.9962C2.25519 18.2518 2.25519 18.4479 2.25519 18.644C2.25519 29.7728 2.25519 40.9017 2.25519 52.0305C2.25519 55.5301 4.47035 57.7436 7.97313 57.7436C25.3183 57.7436 42.665 57.7436 60.0101 57.7436C63.5145 57.7436 65.7312 55.5333 65.7312 52.0337C65.7329 40.9049 65.7312 29.776 65.7312 18.6472V17.9962H2.25519ZM2.2777 15.7054H65.712C65.712 12.8344 65.7441 10.0036 65.6878 7.17435C65.675 6.51527 65.4564 5.81118 65.1558 5.21479C64.1028 3.12662 62.3072 2.24731 60.0165 2.24892C45.2804 2.25213 30.5427 2.25052 15.8066 2.25052C13.1284 2.25052 10.4519 2.23766 7.7738 2.25374C4.76774 2.27142 2.42881 4.29046 2.30342 7.17435C2.18125 9.99876 2.27609 12.8344 2.27609 15.7038L2.2777 15.7054Z" fill="#2C35CD"/>
<path d="M4.72901 9.03012C4.72419 7.08503 6.31724 5.48072 8.26234 5.47269C10.1833 5.46465 11.815 7.09306 11.8166 9.02048C11.8182 10.9463 10.1962 12.5779 8.27198 12.5827C6.33814 12.5876 4.73384 10.9784 4.72901 9.03012ZM9.56121 9.01887C9.55639 8.32121 8.92946 7.70714 8.24144 7.72643C7.53574 7.74572 6.9506 8.36461 6.97311 9.0671C6.99401 9.74065 7.58557 10.3226 8.25591 10.3306C8.94393 10.3386 9.56443 9.71493 9.55961 9.02048L9.56121 9.01887Z" fill="#2C35CD"/>
<path d="M15.6455 9.05676C15.6471 7.09559 17.2209 5.52344 19.182 5.52344C21.1352 5.52344 22.7202 7.11006 22.7186 9.06319C22.7186 11.0131 21.1223 12.6062 19.1756 12.6046C17.2225 12.6013 15.6439 11.0163 15.6455 9.05837V9.05676ZM19.1869 7.77075C18.4715 7.76753 17.8928 8.34945 17.8944 9.06801C17.8976 9.78818 18.4844 10.3653 19.2029 10.3508C19.891 10.338 20.4568 9.77211 20.4665 9.0857C20.4777 8.37035 19.899 7.77557 19.1853 7.77235L19.1869 7.77075Z" fill="#2C35CD"/>
<path d="M33.6276 9.10571C33.6195 11.0637 32.041 12.6342 30.0814 12.6294C28.125 12.6246 26.5465 11.0395 26.5513 9.08481C26.5561 7.13489 28.1508 5.54988 30.1023 5.5547C32.0538 5.55952 33.6356 7.15257 33.6276 9.10571ZM31.3754 9.12339C31.3899 8.40483 30.8192 7.81487 30.1023 7.80844C29.3869 7.80201 28.8002 8.38554 28.8034 9.10249C28.805 9.79372 29.3564 10.3596 30.0492 10.3789C30.7726 10.3998 31.361 9.84356 31.3754 9.12499V9.12339Z" fill="#2C35CD"/>
<path d="M16.9362 43.9385C19.8962 43.9385 21.6722 42.2265 21.6722 38.9785V32.6105H20.1202V38.9145C20.1202 41.3945 18.9682 42.5145 16.9522 42.5145C14.9362 42.5145 13.8002 41.3945 13.8002 38.9145V32.6105H12.2002V38.9785C12.2002 42.2265 13.9922 43.9385 16.9362 43.9385ZM33.6762 43.8105L29.4362 38.0185L33.3882 32.6105H31.6442L28.5402 36.9145L25.4042 32.6105H23.5802L27.5322 38.0665L23.3242 43.8105H25.1642L28.4762 39.1865L31.8362 43.8105H33.6762ZM33.6994 45.4105H35.0914L40.3714 30.3385H38.9794L33.6994 45.4105ZM46.0924 43.9385C49.0524 43.9385 50.8284 42.2265 50.8284 38.9785V32.6105H49.2764V38.9145C49.2764 41.3945 48.1244 42.5145 46.1084 42.5145C44.0924 42.5145 42.9564 41.3945 42.9564 38.9145V32.6105H41.3564V38.9785C41.3564 42.2265 43.1484 43.9385 46.0924 43.9385ZM54.1087 43.8105H55.7087V32.6105H54.1087V43.8105Z" fill="#2C35CD"/>
</svg>
