<svg width="68" height="60" viewBox="0 0 68 60" fill="none" xmlns="http://www.w3.org/2000/svg">
<path d="M67.985 6.35934V53.7602C67.9062 53.929 67.7985 54.0897 67.7519 54.2666C66.8227 57.7243 63.9581 59.9861 60.3766 59.9893C42.7839 60.0022 25.1913 60.0054 7.59858 59.9877C3.29686 59.9829 0.0127059 56.657 0.00949086 52.3504C-0.0049768 37.4568 -0.00336928 22.5631 0.0175285 7.67107C0.0175285 6.86732 0.147737 6.03141 0.387258 5.26462C1.39999 2.011 4.27584 0.00321504 7.84453 0.00160752C25.2829 0 42.7212 0 60.1596 0C60.3814 0 60.6017 0.00321503 60.8235 0.0176827C64.016 0.20737 66.7006 2.30196 67.649 5.33535C67.7567 5.67775 67.8741 6.01855 67.9866 6.35934H67.985ZM2.25519 17.9962C2.25519 18.2518 2.25519 18.4479 2.25519 18.644C2.25519 29.7728 2.25519 40.9017 2.25519 52.0305C2.25519 55.5301 4.47035 57.7436 7.97313 57.7436C25.3182 57.7436 42.665 57.7436 60.0101 57.7436C63.5145 57.7436 65.7312 55.5333 65.7312 52.0337C65.7328 40.9049 65.7312 29.776 65.7312 18.6472V17.9962H2.25519ZM2.2777 15.7054H65.712C65.712 12.8344 65.7441 10.0036 65.6878 7.17435C65.675 6.51527 65.4564 5.81118 65.1558 5.21479C64.1028 3.12662 62.3072 2.24731 60.0165 2.24892C45.2804 2.25213 30.5427 2.25052 15.8066 2.25052C13.1284 2.25052 10.4519 2.23766 7.7738 2.25374C4.76774 2.27142 2.4288 4.29046 2.30342 7.17435C2.18125 9.99876 2.27609 12.8344 2.27609 15.7038L2.2777 15.7054Z" fill="#030303"/>
<path d="M37.1236 25.5049C36.8359 26.8986 36.5947 28.0866 36.3456 29.2729C35.1142 35.1243 33.8813 40.9741 32.6483 46.8254C32.6113 46.9974 32.576 47.171 32.5293 47.3414C32.3429 48.0021 31.7754 48.3911 31.2031 48.2529C30.5601 48.0986 30.2033 47.5359 30.3447 46.8318C30.671 45.2099 31.0151 43.5911 31.3558 41.9723C32.4988 36.5534 33.6433 31.136 34.7895 25.7171C34.9921 24.7622 35.6688 24.288 36.3697 24.6803C36.7057 24.8683 36.9195 25.2718 37.1236 25.5033V25.5049Z" fill="#040404"/>
<path d="M21.3059 36.33C21.4811 36.4843 21.6322 36.6226 21.7882 36.756C23.6561 38.3474 25.5256 39.9389 27.3968 41.5255C27.7987 41.8663 28.088 42.3083 27.8662 42.797C27.7151 43.1282 27.3438 43.4706 27.0013 43.5686C26.7136 43.6506 26.2506 43.4802 25.995 43.2664C23.6352 41.2988 21.2963 39.3055 18.967 37.3009C18.2452 36.6804 18.2709 35.9812 19.0232 35.3333C21.3204 33.3593 23.6288 31.3965 25.9404 29.4418C26.577 28.9033 27.2698 28.9306 27.6926 29.4627C28.0945 29.969 27.9884 30.6329 27.3839 31.1506C25.3874 32.8626 23.3812 34.5633 21.3043 36.3316L21.3059 36.33Z" fill="#040404"/>
<path d="M46.6839 36.3332C44.6809 34.626 42.7294 32.9638 40.7811 31.2985C40.5978 31.1409 40.4049 30.9818 40.2683 30.7857C39.9516 30.3339 39.9821 29.8549 40.3261 29.4418C40.6734 29.0238 41.1395 28.9225 41.6379 29.1701C41.8517 29.2762 42.0462 29.4305 42.2294 29.5864C44.4205 31.4463 46.6083 33.3095 48.7929 35.1758C49.7992 36.0358 49.7944 36.6483 48.7978 37.4954C46.5585 39.4003 44.3192 41.3069 42.0832 43.215C41.6266 43.604 41.146 43.8049 40.5817 43.4497C40.1059 43.1507 39.9419 42.6877 40.1284 42.191C40.2442 41.8823 40.5158 41.6059 40.7746 41.3824C42.5831 39.8231 44.406 38.2815 46.2241 36.7351C46.3575 36.6226 46.4861 36.5052 46.6823 36.3332H46.6839Z" fill="#040404"/>
<path d="M4.72901 9.0311C4.72419 7.086 6.31724 5.4817 8.26234 5.47366C10.1833 5.46562 11.815 7.09404 11.8166 9.02145C11.8182 10.9473 10.1962 12.5789 8.27198 12.5837C6.33814 12.5885 4.73384 10.9794 4.72901 9.0311ZM9.56121 9.01985C9.55639 8.32218 8.92946 7.70811 8.24144 7.7274C7.53574 7.74669 6.9506 8.36559 6.97311 9.06807C6.99401 9.74162 7.58557 10.3235 8.25591 10.3316C8.94393 10.3396 9.56443 9.7159 9.55961 9.02145L9.56121 9.01985Z" fill="#040404"/>
<path d="M15.646 9.05676C15.6476 7.09559 17.2214 5.52344 19.1825 5.52344C21.1357 5.52344 22.7207 7.11006 22.7191 9.06319C22.7191 11.0131 21.1228 12.6062 19.1761 12.6046C17.223 12.6013 15.6444 11.0163 15.646 9.05837V9.05676ZM19.1874 7.77075C18.472 7.76753 17.8933 8.34945 17.8949 9.06801C17.8981 9.78818 18.4849 10.3653 19.2034 10.3508C19.8915 10.338 20.4573 9.77211 20.4669 9.0857C20.4782 8.37035 19.8995 7.77557 19.1858 7.77235L19.1874 7.77075Z" fill="#030303"/>
<path d="M33.6276 9.10497C33.6195 11.0629 32.041 12.6335 30.0814 12.6287C28.125 12.6238 26.5465 11.0388 26.5513 9.08407C26.5561 7.13416 28.1508 5.54914 30.1023 5.55397C32.0538 5.55879 33.6356 7.15184 33.6276 9.10497ZM31.3754 9.12266C31.3899 8.40409 30.8192 7.81414 30.1023 7.80771C29.3869 7.80128 28.8002 8.3848 28.8034 9.10176C28.805 9.79299 29.3564 10.3588 30.0492 10.3781C30.7726 10.399 31.361 9.84282 31.3754 9.12426V9.12266Z" fill="#030303"/>
</svg>
