<svg width="60" height="60" viewBox="0 0 60 60" fill="none" xmlns="http://www.w3.org/2000/svg">
<path d="M35.9923 48.0003H15.787C11.6208 48.0003 7.45618 48.0003 3.28993 48.0003C1.22684 48.0003 0 46.7651 0 44.692C0 30.9014 0 17.109 0 3.31831C0 1.20848 1.21683 0 3.34168 0C21.1083 0 38.875 0 56.64 0C58.7915 0 59.9866 1.20514 59.9866 3.37506C59.9866 20.4574 59.9866 37.5413 59.9866 54.6236C59.9866 57.9135 57.8968 59.9983 54.6019 60C50.207 60 45.8121 60 41.4171 60C38.0471 60 35.9923 57.9302 35.9907 54.5418C35.9907 52.3802 35.9907 50.2187 35.9907 48.0003H35.9923ZM57.9703 10.0351H1.99967V10.5608C1.99967 21.9129 1.99967 33.2649 1.99967 44.6169C1.99967 45.7052 2.30346 45.999 3.42514 45.999C14.0661 45.999 24.7087 45.999 35.3497 45.999H35.9923V45.2646C35.9923 39.3273 35.9923 33.3918 35.9923 27.4545C35.9923 24.0628 38.0454 21.998 41.4171 21.998C45.4982 21.998 49.581 22.013 53.6622 21.9897C55.1694 21.9813 56.6533 21.988 57.9686 23.0162V10.0351H57.9703ZM57.9519 51.9863V30.0367H38.027V51.988H57.9519V51.9863ZM57.987 7.97863C57.987 6.45635 57.987 4.99917 57.987 3.54198C57.987 2.25338 57.7383 2.00134 56.4714 2.00134C38.8166 2.00134 21.1617 2.00134 3.5086 2.00134C3.32165 2.00134 3.13136 1.98798 2.94609 2.00801C2.40027 2.0681 2.02637 2.37857 2.01636 2.92439C1.98631 4.60357 2.00467 6.28276 2.00467 7.97863H57.987ZM57.9419 27.982C58.3358 25.338 56.5899 23.9192 54.4083 23.971C50.1001 24.0728 45.787 24.0678 41.4772 23.971C39.3891 23.9242 37.5897 25.4014 38.0554 27.9803H57.9419V27.982ZM58.0771 54.0361H37.9937C37.9937 54.4016 37.9853 54.7321 37.9937 55.0626C38.0404 56.6617 39.304 57.982 40.8997 57.9903C45.6268 58.0137 50.3539 58.0187 55.0793 57.9853C56.3579 57.977 57.3143 57.2959 57.7466 56.0841C57.9703 55.4599 57.9686 54.7555 58.0754 54.0361H58.0771Z" fill="#1A1A1A"/>
<path d="M18.9942 16C23.5326 16 28.0711 16 32.6113 16C33.6812 16 33.9933 16.3071 33.9933 17.362C33.9933 24.4627 33.9933 31.565 33.9933 38.6657C33.9933 39.6822 33.6712 40.001 32.6446 40.001C23.546 40.001 14.4473 40.001 5.35036 40.001C4.32215 40.001 4 39.6839 4 38.669C4 31.5467 4 24.4243 4 17.302C4 16.3272 4.33217 16 5.31531 16C9.87548 16 14.434 16 18.9942 16V16ZM6.03973 18.0147V35.4308C6.22167 35.1487 6.34518 34.9634 6.4637 34.7748C8.96411 30.7738 11.4629 26.7728 13.9649 22.7735C14.5859 21.782 15.4104 21.7853 16.0347 22.7785C17.4385 25.0135 18.8356 27.2519 20.236 29.4902C20.882 30.5218 21.528 31.555 22.2073 32.64C22.3676 32.4246 22.4927 32.2644 22.6096 32.0991C23.4091 30.9591 24.2036 29.8141 25.0082 28.6757C25.6508 27.766 26.3402 27.7643 26.9795 28.6673C27.8191 29.8558 28.6503 31.0509 29.4849 32.2444C30.2878 33.3911 31.0923 34.5378 31.9553 35.7713V18.013H6.03973V18.0147ZM23.1854 37.983C20.4296 33.578 17.7306 29.2649 14.9948 24.8933C12.2357 29.3083 9.53998 33.6214 6.81255 37.983H23.1854ZM31.0756 38.0013C29.3464 35.531 27.6955 33.1724 25.9947 30.7438C25.085 32.0457 24.222 33.2793 23.3657 34.5028C24.0417 35.586 24.6827 36.6309 25.3454 37.6608C25.4405 37.8094 25.6391 37.9846 25.7927 37.9863C27.5136 38.0097 29.2345 38.0013 31.0739 38.0013H31.0756Z" fill="#1A1A1A"/>
<path d="M51.0064 34.0062C50.9496 34.2365 50.8979 34.4802 50.8311 34.7173C49.5892 39.0688 48.3457 43.4186 47.1022 47.7702C47.0688 47.8904 47.0304 48.0089 46.9937 48.1274C46.7884 48.7817 46.2926 49.1189 45.7501 48.9753C45.1609 48.8184 44.8838 48.2693 45.0741 47.5882C45.5398 45.9291 46.0155 44.2733 46.4879 42.6158C47.3208 39.7014 48.1554 36.787 48.9833 33.8727C49.1219 33.3853 49.3939 33.0498 49.9197 33.0114C50.3838 32.9763 50.7176 33.2017 50.9029 33.629C50.9513 33.7408 50.968 33.866 51.0064 34.0062V34.0062Z" fill="#1A1A1A"/>
<path d="M41.3823 40.9899C42.4255 42.0264 43.3853 42.9795 44.3434 43.9326C44.4619 44.0495 44.5871 44.1613 44.6922 44.2898C45.0811 44.7572 45.0728 45.303 44.6789 45.6953C44.2833 46.0875 43.7107 46.1192 43.2768 45.6953C41.9364 44.385 40.6128 43.0597 39.3008 41.721C38.8568 41.267 38.8618 40.7278 39.3091 40.2721C40.6061 38.9485 41.9181 37.6399 43.2384 36.3412C43.6974 35.8889 44.2783 35.8906 44.6872 36.2912C45.1095 36.7051 45.1012 37.296 44.6188 37.7851C43.5672 38.8483 42.4956 39.8916 41.3806 40.9932L41.3823 40.9899Z" fill="#1A1A1A"/>
<path d="M54.5897 40.9955C53.5014 39.9156 52.4815 38.9091 51.4666 37.8942C50.9025 37.3284 50.8457 36.7659 51.2914 36.3135C51.737 35.8612 52.3112 35.9096 52.8721 36.4671C54.0973 37.6839 55.3191 38.9041 56.5342 40.1292C57.1468 40.7468 57.1552 41.2409 56.5526 41.8502C55.3091 43.107 54.0572 44.3556 52.8003 45.5991C52.2829 46.1115 51.687 46.1399 51.263 45.7059C50.8424 45.2753 50.8874 44.6877 51.4032 44.1686C52.4414 43.1237 53.4897 42.0888 54.5897 40.9939V40.9955Z" fill="#1A1A1A"/>
<path d="M37.4991 5.99983C31.8156 5.99983 26.1337 5.99983 20.4502 5.99983C20.2415 5.99983 20.0262 6.02486 19.8276 5.9798C19.2984 5.85962 18.9863 5.51577 19.0047 4.96327C19.023 4.44082 19.3352 4.12368 19.8409 4.02019C20.0212 3.98347 20.2148 4.0035 20.4018 4.0035C31.7889 4.0035 43.1743 4.0035 54.5613 4.0035C54.7283 4.0035 54.8952 3.99348 55.0604 4.01185C55.6046 4.07194 55.9868 4.4909 55.9835 5.01001C55.9801 5.52912 55.5946 5.94141 55.0471 5.99649C54.8618 6.01485 54.6732 6.00317 54.4862 6.00317C48.8244 6.00317 43.1626 6.00317 37.5008 6.00317L37.4991 5.99983Z" fill="#1A1A1A"/>
<path d="M5.50609 3.99805C6.52262 3.99805 6.98998 4.31018 6.99499 4.99287C7 5.67723 6.52429 6.00105 5.51944 6.00272C4.46954 6.00272 3.98214 5.67389 4.0005 4.97618C4.01719 4.29516 4.47288 3.99972 5.50609 3.99972V3.99805Z" fill="#1A1A1A"/>
<path d="M9.45428 5.99484C9.26734 5.99484 9.07872 6.01487 8.89511 5.9915C8.35931 5.92473 7.98541 5.48908 8.00044 4.97164C8.01546 4.45253 8.39937 4.04692 8.95019 4.00686C9.30072 3.98182 9.65625 3.98349 10.0068 4.00352C10.5927 4.0369 10.9933 4.45086 10.9949 4.99501C10.9966 5.53749 10.5977 5.95144 10.0135 5.99651C9.82818 6.01153 9.63956 5.99818 9.45428 5.99818C9.45428 5.99818 9.45428 5.99484 9.45428 5.99317V5.99484Z" fill="#1A1A1A"/>
<path d="M13.4889 6.00272C12.4707 6.00272 12.005 5.69059 12 5.00623C11.995 4.3202 12.4657 3.99805 13.4756 3.99805C14.5272 3.99805 15.0129 4.32687 14.9962 5.02292C14.9795 5.69893 14.5138 6.00105 13.4889 6.00105V6.00272Z" fill="#1A1A1A"/>
<path d="M48.0122 26.9982C47.66 26.9982 47.3061 27.0182 46.954 26.9932C46.3764 26.9531 45.9792 26.5191 45.9925 25.9766C46.0042 25.4575 46.3881 25.0336 46.9389 25.0102C47.6433 24.9818 48.3511 24.9801 49.0554 25.0102C49.6013 25.0352 49.9835 25.4709 49.9868 25.99C49.9918 26.5074 49.6129 26.9414 49.0705 26.9882C48.7199 27.0182 48.3661 26.9932 48.0122 26.9932C48.0122 26.9932 48.0122 26.9932 48.0122 26.9948V26.9982Z" fill="#1A1A1A"/>
<path d="M47.9917 54.9999C48.3239 54.9999 48.656 54.9849 48.9882 55.0033C49.5791 55.0366 49.9797 55.4423 49.988 55.9864C49.9964 56.5289 49.5958 56.9695 49.0149 56.9912C48.3305 57.018 47.6445 57.018 46.9618 56.9912C46.3809 56.9679 45.9837 56.5256 45.9954 55.9814C46.0054 55.4373 46.406 55.0366 46.9985 55.0033C47.329 54.9849 47.6629 54.9999 47.995 54.9999H47.9917Z" fill="#1A1A1A"/>
<path d="M25.9902 23.017C25.9818 24.6745 24.6148 26.0148 22.9456 25.9998C21.3232 25.9848 19.9828 24.6161 19.9962 22.987C20.0095 21.3228 21.3766 19.9825 23.0391 20.0042C24.6699 20.0259 25.9969 21.3796 25.9885 23.017H25.9902ZM23.0257 22.0022C22.4816 21.9871 22.0226 22.4128 21.9959 22.9553C21.9692 23.5211 22.4282 24.0002 22.9957 24.0002C23.5365 24.0002 23.9855 23.5578 23.9939 23.0154C24.0022 22.4729 23.5665 22.0172 23.0257 22.0022Z" fill="#1A1A1A"/>
</svg>
