<svg width="67" height="60" viewBox="0 0 67 60" fill="none" xmlns="http://www.w3.org/2000/svg">
<path d="M38.6966 51.9945C38.3949 51.9945 38.0694 51.9945 37.7463 51.9945C27.3709 51.9945 16.9955 51.9898 6.62014 51.9874C3.68595 51.9874 1.98484 50.2887 1.98484 47.3569C1.98484 41.0703 1.98484 34.7838 1.98721 28.4997C1.98721 28.1765 1.98721 27.8534 1.98721 27.4947C1.64271 27.402 1.33147 27.3284 1.02736 27.2333C0.395385 27.0361 0.0176236 26.6204 0.0176236 25.9385C0.0176236 21.8758 -0.0370212 17.813 0.0461339 13.7527C0.0912753 11.5194 1.99909 9.87766 4.32506 9.86341C7.37804 9.84678 10.431 9.85866 13.4864 9.85866C13.7762 9.85866 14.0661 9.85866 14.3773 9.85866C14.4391 8.44502 14.3963 7.0789 14.5793 5.74367C15.0188 2.48399 17.7724 0.0606091 21.0535 0.0320988C25.8266 -0.0082908 30.5997 -0.0130425 35.3728 0.0320988C39.0411 0.0653609 41.866 2.86888 42.0181 6.54671C42.0632 7.61109 42.0252 8.68023 42.0252 9.85628C42.3935 9.85628 42.7095 9.85628 43.0231 9.85628C46.0167 9.85628 49.0102 9.84915 52.0062 9.85628C54.8905 9.86578 56.5845 11.5645 56.5892 14.4464C56.594 17.9152 56.5892 21.384 56.5892 24.8527C56.5892 26.2212 55.943 27.1042 54.6505 27.5018C54.641 27.6372 54.6196 27.7821 54.6196 27.9271C54.6173 28.875 54.6196 29.8206 54.6196 30.8161C58.7275 31.7308 61.9753 33.8834 64.2371 37.4329C65.9454 40.1129 66.6985 43.0613 66.4918 46.2283C66.0737 52.6574 61.55 58.0554 55.2991 59.583C49.0696 61.106 42.1369 58.4307 38.6966 51.9898V51.9945ZM54.0993 25.0475V24.311C54.0993 21.0204 54.1017 17.7299 54.0993 14.4393C54.0993 12.9425 53.5077 12.3557 51.9848 12.3533C36.1877 12.3462 20.3906 12.3438 4.59353 12.3438C3.10862 12.3438 2.50515 12.9663 2.50515 14.4678C2.5004 17.7584 2.50277 21.049 2.50515 24.3395C2.50515 24.5676 2.53841 24.7981 2.55504 25.0333C9.81567 26.8746 17.0288 28.7016 24.2775 30.5405C24.3108 30.3552 24.3369 30.2435 24.3464 30.1319C24.4961 28.4094 25.5154 27.4424 27.2307 27.4186C28.0005 27.4091 28.7727 27.3996 29.5424 27.4258C30.7209 27.4685 31.7092 28.2359 32.03 29.3573C32.1393 29.7399 32.1844 30.1414 32.2652 30.569C39.5591 28.7254 46.8007 26.8936 54.0993 25.0475ZM37.6964 49.5023C36.4586 44.6721 37.1381 40.272 40.1174 36.3638C43.111 32.4388 47.1998 30.6047 52.0822 30.5476V28.1314C45.4203 29.8183 38.813 31.4932 32.2913 33.1445C32.1725 34.2968 32.2129 35.3944 31.9135 36.3899C31.569 37.5374 30.5736 38.1243 29.3642 38.0886C28.0053 38.0482 26.5655 38.4521 25.3395 37.4638C23.8903 36.2949 24.5175 34.627 24.3013 33.1278C17.7035 31.4552 11.1248 29.7874 4.47474 28.1029C4.47474 28.4759 4.47474 28.742 4.47474 29.0057C4.47474 35.0832 4.47236 41.1606 4.47236 47.2381C4.47236 48.9629 5.01643 49.4951 6.77457 49.4951C16.7627 49.4975 26.7532 49.4999 36.7413 49.5023C37.0359 49.5023 37.3305 49.5023 37.6964 49.5023ZM39.6042 45.24C39.5686 51.9732 45.0022 57.4685 51.7401 57.5089C58.4685 57.5517 63.9995 52.0967 64.0328 45.3873C64.0661 38.5947 58.6348 33.1088 51.8423 33.0779C45.1091 33.0471 39.6398 38.4806 39.6042 45.24ZM39.5353 9.8349C39.5353 8.67548 39.5804 7.60872 39.5258 6.54671C39.4094 4.27301 37.6417 2.53863 35.3657 2.52438C30.6235 2.49349 25.8812 2.49824 21.139 2.51962C19.0768 2.52913 17.3424 3.96177 17.0597 6.01689C16.8886 7.25709 17.0288 8.53768 17.0288 9.83252H18.6753C18.6753 8.9297 18.6753 8.04825 18.6753 7.16681C18.68 5.24949 19.6589 4.2445 21.5548 4.24212C26 4.235 30.4453 4.23262 34.8905 4.24212C36.8553 4.24688 37.8271 5.23048 37.8461 7.20245C37.8556 8.07914 37.8461 8.95583 37.8461 9.8349H39.5306H39.5353ZM21.1865 9.81827H35.3205V6.76766H21.1865V9.81827ZM26.9171 29.9584V35.6106C27.7059 35.6106 28.4163 35.6391 29.1195 35.5916C29.3144 35.5797 29.6541 35.3493 29.6565 35.2138C29.6921 33.4771 29.6802 31.7403 29.6802 29.9561H26.9147L26.9171 29.9584Z" fill="white"/>
<path d="M51.8135 43.9594C53.4362 42.7714 54.9829 41.6286 56.5391 40.5001C57.2994 39.9489 57.9361 39.9727 58.3091 40.5809C58.751 41.296 58.3994 41.7997 57.8078 42.2297C56.109 43.4628 54.4103 44.6982 52.7258 45.9527C52.1247 46.4017 51.5925 46.4421 50.9606 45.9836C48.9292 44.5034 46.8693 43.0637 44.8237 41.6001C44.0587 41.0513 43.8805 40.4621 44.282 39.899C44.6812 39.3383 45.2941 39.3217 46.0687 39.8705C47.9741 41.2224 49.8724 42.579 51.8111 43.9617L51.8135 43.9594Z" fill="white"/>
<path d="M52.8593 35.3043C52.8593 35.6274 52.9733 36.0171 52.8332 36.2618C52.6146 36.6444 52.2772 37.0934 51.8946 37.2122C51.3125 37.3928 50.8468 36.9722 50.7779 36.3735C50.6971 35.6773 50.6948 34.9574 50.7732 34.2612C50.8397 33.672 51.284 33.3085 51.8923 33.3655C52.4839 33.4201 52.8498 33.786 52.8617 34.4228C52.8664 34.7174 52.8617 35.0121 52.8617 35.3067C52.8617 35.3067 52.8593 35.3067 52.8569 35.3067L52.8593 35.3043Z" fill="white"/>
<path d="M41.9254 46.3308C41.6022 46.3308 41.2767 46.3356 40.9536 46.3308C40.3168 46.3189 39.9461 45.9506 39.8986 45.3614C39.8464 44.7104 40.2455 44.2898 40.8823 44.2257C41.4929 44.1615 42.1202 44.171 42.7332 44.2162C43.3652 44.2613 43.7929 44.6082 43.7786 45.2901C43.762 46.0124 43.3248 46.3308 42.631 46.3356C42.3958 46.3356 42.1606 46.3356 41.9254 46.3356V46.3308Z" fill="white"/>
<path d="M61.7072 46.3332C61.4434 46.3332 61.1773 46.3332 60.9136 46.3332C60.234 46.3237 59.8491 45.9316 59.8325 45.2996C59.8159 44.651 60.2435 44.2637 60.8827 44.2138C61.4672 44.1686 62.0612 44.1686 62.6481 44.2138C63.3228 44.2637 63.76 44.6272 63.7149 45.3543C63.6721 46.0291 63.2492 46.3308 62.5934 46.3379C62.2988 46.3403 62.0042 46.3379 61.7095 46.3379L61.7072 46.3332Z" fill="white"/>
<path d="M52.8542 55.2994C52.8542 55.6226 52.9659 56.0099 52.8281 56.2546C52.6238 56.6157 52.246 57.1171 51.9347 57.1218C51.5569 57.1266 50.9202 56.7393 50.8441 56.4138C50.6731 55.6915 50.6636 54.8789 50.8204 54.1518C50.8964 53.8049 51.4738 53.3796 51.8682 53.3297C52.4289 53.2585 52.8352 53.6885 52.859 54.3277C52.8709 54.6508 52.859 54.9763 52.859 55.2994H52.8519H52.8542Z" fill="white"/>
</svg>
