<svg width="45" height="45" viewBox="0 0 45 45" fill="none" xmlns="http://www.w3.org/2000/svg">
<path d="M10.4991 27.0003C10.0722 27.0003 9.69913 27.0003 9.32604 27.0003C8.87157 27.0015 8.59363 26.7849 8.49597 26.338C8.39331 25.866 8.28439 25.3952 8.18047 24.9232C8.1667 24.8619 8.16795 24.798 8.14792 24.7392C8.05402 24.445 6.50783 23.8866 6.24491 24.0518C5.82299 24.3173 5.40107 24.5839 4.98416 24.8581C4.58603 25.1185 4.22797 25.0897 3.88993 24.7479C3.35158 24.2033 2.81072 23.6625 2.26486 23.1254C1.92682 22.7936 1.86547 22.4368 2.13215 22.0349C2.18348 21.9573 2.23231 21.8771 2.28113 21.797C2.55156 21.3601 2.99601 20.9407 3.04109 20.4824C3.08491 20.0467 2.72183 19.5635 2.5115 19.114C2.45641 18.9976 2.31494 18.8799 2.19099 18.8461C1.69521 18.7109 1.19191 18.6007 0.688611 18.4968C0.217866 18.3991 -0.00248287 18.1174 2.10959e-05 17.6417C0.00377704 16.8767 0.00252506 16.1105 2.10959e-05 15.3455C2.10959e-05 14.8936 0.204094 14.6119 0.65606 14.513C1.14308 14.4078 1.63511 14.3152 2.11086 14.1674C2.27863 14.1148 2.42511 13.9346 2.53654 13.7806C2.63294 13.6466 2.63419 13.4425 2.7331 13.3098C3.18506 12.7051 2.97598 12.2193 2.58536 11.6572C1.72525 10.419 1.7553 10.399 2.81072 9.33728C3.1738 8.97171 3.53937 8.60863 3.9012 8.24055C4.22296 7.91378 4.57101 7.87872 4.95537 8.12537C5.38855 8.40331 5.81297 8.69627 6.26118 8.94667C6.39264 9.02053 6.59672 9.00801 6.75572 8.97546C6.91848 8.94291 7.0612 8.79518 7.22271 8.77264C8.04651 8.65871 8.25935 8.08155 8.34323 7.37668C8.37578 7.09999 8.44715 6.82456 8.52727 6.55538C8.64871 6.15224 9.01555 5.93189 9.38738 6.01202C9.77049 6.09465 10.0422 6.44145 9.96705 6.84834C9.81807 7.66088 9.65906 8.47342 9.43746 9.26842C9.38112 9.4725 9.10193 9.6628 8.88158 9.76546C8.23556 10.0697 7.56074 10.3101 6.91347 10.608C6.58044 10.762 6.28873 10.762 5.987 10.5667C5.54129 10.2788 5.09559 9.99457 4.64863 9.70787C4.3444 10.0196 4.04643 10.3263 3.71716 10.6631C3.96255 11.0475 4.22546 11.4857 4.51592 11.9038C4.76757 12.2657 4.76632 12.5962 4.57226 12.9931C4.28681 13.5777 4.04142 14.185 3.82232 14.7984C3.6821 15.189 3.47177 15.4344 3.05235 15.5146C2.53654 15.6122 2.02698 15.7449 1.51116 15.8626V17.1309C2.0395 17.2536 2.56283 17.3875 3.09242 17.4927C3.47302 17.5691 3.67083 17.7907 3.80354 18.1475C4.04017 18.7872 4.30308 19.4195 4.59229 20.038C4.76256 20.4011 4.77007 20.7115 4.54472 21.0471C4.2505 21.484 3.97632 21.9347 3.68961 22.3867C4.00261 22.6959 4.29808 22.9889 4.61608 23.3031C5.04301 23.0315 5.48496 22.7723 5.90437 22.4806C6.26744 22.2289 6.59797 22.2314 6.99359 22.4255C7.57827 22.711 8.18548 22.9576 8.7977 23.1767C9.18832 23.3169 9.43371 23.526 9.51008 23.9479C9.60398 24.465 9.73418 24.9745 9.84937 25.4879H10.4703V21.0671C9.96956 20.9519 9.43872 20.8931 8.9567 20.7078C7.24775 20.053 6.2399 18.7835 6.03332 16.9744C5.83927 15.2767 6.49906 13.8895 7.86247 12.8554C8.34198 12.491 8.86781 12.5899 9.09192 13.0519C9.2722 13.425 9.16453 13.7405 8.71883 14.0873C7.88501 14.7371 7.47185 15.5884 7.50566 16.6439C7.55699 18.2126 8.94043 19.5259 10.4979 19.4671C10.4979 19.2993 10.4979 19.1303 10.4979 18.96C10.4979 13.9759 10.4979 8.99174 10.4979 4.0076C10.5004 1.5775 12.0766 0 14.5117 0C19.8389 0 25.1661 0 30.4933 0C32.9234 0 34.4959 1.58 34.4959 4.02137C34.4959 8.48969 34.4959 12.958 34.4959 17.4263V17.9998C34.8915 17.9998 35.2746 18.0023 35.6577 17.9998C36.1109 17.996 36.3951 18.2026 36.4953 18.652C36.6067 19.1541 36.7169 19.6561 36.8308 20.1582C36.9147 20.5275 38.4209 21.156 38.7401 20.9557C39.162 20.6903 39.5852 20.4236 40.0009 20.1482C40.3965 19.8865 40.7571 19.9028 41.0963 20.2433C41.6472 20.7967 42.1993 21.3488 42.754 21.8997C43.077 22.2214 43.117 22.5707 42.8704 22.9551C42.5925 23.3883 42.2995 23.8127 42.0491 24.2609C41.9752 24.3924 41.984 24.5977 42.0191 24.7554C42.0579 24.9332 42.2156 25.0885 42.2419 25.265C42.3533 26.0124 42.8491 26.2253 43.5189 26.3392C45.1077 26.6096 45.0075 26.6797 44.9963 28.1896C44.9925 28.6429 44.9975 29.0961 44.9963 29.5493C44.9925 30.1665 44.8285 30.3743 44.215 30.5208C43.7455 30.6323 43.2685 30.7211 42.804 30.8488C42.6801 30.8826 42.5486 31.0016 42.486 31.118C42.3759 31.3208 42.3558 31.5788 42.2269 31.764C41.8438 32.3124 41.9565 32.7769 42.3646 33.2501C42.5662 33.4843 42.7064 33.771 42.8767 34.0326C43.1133 34.397 43.0895 34.7463 42.789 35.0555C42.2231 35.6377 41.6497 36.2136 41.0713 36.7832C40.7633 37.0862 40.4178 37.1125 40.0509 36.8759C39.619 36.5967 39.1921 36.3062 38.7451 36.0546C38.6137 35.9807 38.4033 35.977 38.2518 36.0195C38.0002 36.0921 37.7773 36.2862 37.5257 36.3288C36.9811 36.4189 36.7995 36.7482 36.7382 37.2465C36.6894 37.6471 36.5842 38.0427 36.474 38.4321C36.3601 38.839 35.9933 39.0618 35.6214 38.988C35.222 38.9079 34.9579 38.551 35.0393 38.1128C35.1845 37.3316 35.3372 36.5491 35.5476 35.7842C35.6064 35.5713 35.8505 35.3535 36.0646 35.2508C36.7369 34.9303 37.423 34.6323 38.1266 34.3945C38.3858 34.3068 38.7489 34.3281 38.9943 34.4458C39.48 34.6787 39.9182 35.0129 40.379 35.3072C40.6907 34.9954 40.9862 34.7012 41.3067 34.3794C41.0275 33.9425 40.7571 33.493 40.4591 33.0611C40.2162 32.7093 40.24 32.3888 40.419 32.0119C40.6995 31.4248 40.9499 30.82 41.1702 30.2078C41.3092 29.8197 41.5107 29.5656 41.9352 29.4879C42.4522 29.3928 42.963 29.2613 43.4839 29.1436V27.8566C43.0282 27.7564 42.5662 27.6363 42.0967 27.5574C41.5758 27.471 41.2916 27.2056 41.1377 26.6835C40.9674 26.1063 40.707 25.5505 40.434 25.0109C40.2362 24.6202 40.2149 24.2897 40.4704 23.9229C40.7633 23.5022 41.0237 23.059 41.2979 22.6271C40.9874 22.3253 40.6894 22.0349 40.3564 21.7119C39.952 21.9673 39.5001 22.2365 39.0656 22.5332C38.7151 22.7736 38.3933 22.761 38.0165 22.5795C37.4293 22.2978 36.8271 22.0411 36.2136 21.8258C35.8005 21.6806 35.5563 21.4552 35.4774 21.0195C35.3873 20.5162 35.2621 20.0192 35.1519 19.5134H34.4984C34.4984 20.2458 34.4984 20.987 34.4984 21.7282C34.4984 22.4693 34.4984 23.2218 34.4984 23.9842C36.2023 24.0781 37.5207 24.7955 38.3833 26.2491C39.5526 28.2184 38.993 30.8226 37.1476 32.1396C36.8246 32.37 36.5016 32.4576 36.1548 32.2223C35.699 31.913 35.7153 31.3471 36.2124 30.9653C36.8171 30.5008 37.239 29.9261 37.4093 29.18C37.8362 27.3057 36.4878 25.5717 34.4971 25.5079C34.4971 25.6719 34.4971 25.8359 34.4971 25.9987C34.4971 30.9828 34.4971 35.9669 34.4971 40.9511C34.4971 43.445 32.9334 45 30.4282 45C25.1323 45 19.8364 45 14.5405 45C12.0704 45 10.5016 43.4338 10.5004 40.9686C10.5004 36.5003 10.5004 32.032 10.5004 27.5636C10.5004 27.3934 10.5004 27.2244 10.5004 27.0015L10.4991 27.0003ZM11.999 22.4756C11.999 28.6316 11.999 34.7863 11.999 40.9423C11.999 42.6012 12.8867 43.4989 14.5293 43.4989C19.8402 43.4989 25.1511 43.4989 30.4633 43.4989C32.0908 43.4989 32.9948 42.6037 32.9948 40.9899C32.9948 28.6629 32.9948 16.3371 32.9948 4.0101C32.9948 2.39504 32.0921 1.50113 30.4633 1.50113C25.1674 1.50113 19.8715 1.50113 14.5769 1.50113C12.8654 1.50113 11.999 2.37626 11.999 4.10275C11.999 10.2274 11.999 16.3509 11.999 22.4756V22.4756Z" fill="black"/>
<path d="M16.8006 22.4969C17.5668 23.2593 18.2842 23.973 19.0016 24.6879C19.1005 24.7868 19.2057 24.8819 19.2946 24.9896C19.5788 25.3376 19.5625 25.7558 19.2633 26.0412C18.9753 26.3142 18.5546 26.3455 18.2491 26.0475C17.2213 25.0459 16.2059 24.0318 15.2056 23.0039C14.8826 22.6722 14.9189 22.279 15.2682 21.9235C16.2322 20.9457 17.2025 19.9741 18.179 19.0114C18.5246 18.6708 18.9553 18.6658 19.2645 18.9613C19.5863 19.268 19.5863 19.715 19.2282 20.0806C18.442 20.8793 17.6394 21.6643 16.8006 22.4981V22.4969Z" fill="black"/>
<path d="M28.2008 22.5019C27.3733 21.6794 26.5858 20.9044 25.807 20.1194C25.4077 19.7175 25.3976 19.248 25.7595 18.935C26.0599 18.6759 26.4643 18.6671 26.7761 18.9726C27.7902 19.9667 28.7943 20.9695 29.7858 21.9861C30.1001 22.3091 30.0901 22.7073 29.7696 23.0353C28.788 24.0394 27.7952 25.0322 26.7923 26.015C26.4543 26.3468 25.9998 26.323 25.7056 26.0125C25.4139 25.7045 25.4214 25.2726 25.762 24.927C26.5507 24.1283 27.3532 23.3433 28.2021 22.5007L28.2008 22.5019Z" fill="black"/>
<path d="M21.8455 26.2479C21.2721 26.2504 20.9003 25.8197 21.0192 25.3289C21.5075 23.3207 22.0095 21.3151 22.5229 19.3119C22.6305 18.8912 23.0424 18.6696 23.4268 18.7685C23.8337 18.8737 24.0791 19.2731 23.9702 19.715C23.4831 21.6919 22.9861 23.6675 22.4878 25.6419C22.3939 26.0163 22.1398 26.2153 21.8468 26.2466L21.8455 26.2479Z" fill="black"/>
<path d="M22.4895 4.50095C21.7884 4.50095 21.0873 4.5047 20.3861 4.49969C19.8365 4.49594 19.5035 4.21049 19.501 3.75351C19.4985 3.29654 19.8315 3.00357 20.3786 3.00107C21.7971 2.99606 23.2156 2.99606 24.6329 3.00107C25.1712 3.00357 25.5068 3.31281 25.4942 3.76854C25.4817 4.20673 25.1562 4.49218 24.6391 4.49719C23.9217 4.5047 23.2056 4.49844 22.4882 4.49844L22.4895 4.50095Z" fill="black"/>
</svg>
