<svg width="20" height="20" viewBox="0 0 20 20" fill="none" xmlns="http://www.w3.org/2000/svg">
<path d="M16.1654 12.3793C15.5713 12.3002 14.97 12.4582 14.4916 12.8193C14.0096 13.1003 13.0917 13.8432 12.5687 13.6532C9.75512 12.4817 7.49651 10.2778 6.25632 7.49377C6.06334 6.95782 6.80327 6.0359 7.08125 5.54795C7.43827 5.0635 7.59445 4.45991 7.51721 3.8631C6.90379 2.67287 6.11919 1.579 5.18842 0.616398C4.88447 0.279272 4.47048 0.0612912 4.02053 0.00145368C2.51966 -0.0615406 0.843816 1.94128 0.548843 2.42023C-0.18709 3.44214 -0.18309 4.80102 0.561842 6.45087C2.36168 10.8785 9.14706 17.5619 13.5917 19.4237C14.2888 19.7766 15.0545 19.9732 15.8354 19.9996C16.4629 20.0096 17.0769 19.8171 17.5863 19.4507C17.9673 19.2317 20.0521 17.4719 19.9971 15.93C19.9363 15.4825 19.7213 15.0702 19.3891 14.7641C18.4364 13.8165 17.3504 13.013 16.1654 12.3793Z" fill="white"/>
</svg>
