<svg width="46" height="45" viewBox="0 0 46 45" fill="none" xmlns="http://www.w3.org/2000/svg">
<path d="M18.3718 44.9977C18.1018 44.7664 17.8388 44.5351 17.9961 44.1195C18.1511 43.7109 18.4857 43.6768 18.8567 43.6768C26.7241 43.6804 34.5915 43.6792 42.4578 43.6792C43.4181 43.6792 43.687 43.4115 43.687 42.4546C43.687 30.6635 43.687 18.8735 43.687 7.08236V6.6233H1.31848C1.31848 6.77828 1.31848 6.93443 1.31848 7.0894C1.31848 18.8806 1.31848 30.6705 1.31848 42.4617C1.31848 43.4103 1.59086 43.678 2.55477 43.678C6.90586 43.678 11.2569 43.678 15.608 43.678C15.6808 43.678 15.7548 43.6827 15.8276 43.678C16.2092 43.6498 16.5473 43.7332 16.6811 44.1335C16.815 44.5351 16.586 44.7981 16.262 44.9977H1.6707C1.42532 44.8591 1.1271 44.7699 0.946297 44.5726C0.595252 44.1887 0.311128 43.7461 0 43.327C0 29.4413 0 15.5556 0 1.66991C0.0446145 1.60182 0.0997956 1.53724 0.130321 1.46328C0.535374 0.494673 1.26212 0.00508762 2.31174 0.00156542C3.36605 -0.00195678 4.42153 0.00156542 5.47584 0.00156542C5.53455 0.00156542 5.59325 -0.000782711 5.65195 0.00273949C6.05466 0.0309171 6.33057 0.3033 6.32587 0.667261C6.32235 1.03122 6.04527 1.31182 5.63904 1.31652C4.54011 1.32709 3.44119 1.31652 2.34344 1.32239C1.66013 1.32591 1.32552 1.66639 1.32082 2.35439C1.31613 2.9109 1.32082 3.46741 1.32082 4.02392C1.32082 4.44188 1.32082 4.85985 1.32082 5.26725H43.6882C43.6882 4.36322 43.6882 3.47445 43.6882 2.58451C43.6882 1.57129 43.4358 1.32122 42.4108 1.32122C31.1304 1.32122 19.8499 1.32122 8.56951 1.32122C8.42275 1.32122 8.27247 1.33765 8.13158 1.31065C7.77114 1.24138 7.55629 1.01713 7.56568 0.641431C7.57508 0.288038 7.78758 0.0814019 8.12923 0.0133061C8.22786 -0.00665304 8.33352 0.00391355 8.43567 0.00391355C19.8476 0.00391355 31.2607 0.00391355 42.6726 0.00508762C42.8475 0.00508762 43.026 0.00978388 43.1962 0.0438318C44.3374 0.273949 45.0067 1.16037 45.0067 2.43893C45.0067 15.8115 45.0067 29.183 45.0067 42.5556C45.0067 42.673 45.0137 42.7904 45.002 42.9066C44.9127 43.833 44.4501 44.4893 43.5813 44.8462C43.4428 44.9026 43.3007 44.9495 43.1598 45H18.3718V44.9977Z" fill="black"/>
<path d="M16.4435 37.2006C15.6205 37.3016 14.8503 37.385 14.0825 37.493C13.1198 37.6292 12.6689 37.3134 12.5503 36.3541C12.0795 32.5502 11.617 28.7439 11.1509 24.9387C11.1098 24.6053 11.0663 24.2707 11.017 23.9384C10.8796 22.9991 11.2495 22.5272 12.1864 22.4168C13.5823 22.2536 14.976 22.0752 16.3708 21.9073C18.2011 21.6865 20.0327 21.4646 21.8642 21.251C22.6825 21.1559 23.1169 21.5327 23.212 22.364C23.3788 23.8175 23.5584 25.2686 23.7955 26.7397C23.9811 26.2337 24.1654 25.7289 24.3509 25.2228C24.6714 24.3493 25.2314 24.0816 26.1061 24.3963C28.4272 25.231 30.7472 26.0705 33.066 26.91C33.9254 27.2211 34.2001 27.8081 33.8855 28.6758C32.9709 31.2012 32.0516 33.7242 31.1346 36.2485C30.7402 37.3345 30.2717 37.5599 29.1904 37.1807C29.0695 37.1384 28.9462 37.1067 28.7665 37.0539C28.7665 38.1 28.7665 39.1026 28.7665 40.1065C28.7665 40.3554 28.7736 40.6054 28.7501 40.8532C28.6973 41.4167 28.2652 41.8593 27.7052 41.9298C27.5314 41.9521 27.3541 41.9521 27.1792 41.9521C24.1325 41.9533 21.0846 41.9533 18.0379 41.9521C16.8862 41.9521 16.4447 41.5118 16.4447 40.3659C16.4447 39.3269 16.4447 38.289 16.4447 37.2006H16.4435ZM16.4271 34.4193C16.15 34.4463 15.8917 34.4933 15.6346 34.4921C15.2648 34.4921 15.0135 34.2878 14.9666 33.9238C14.9196 33.5599 15.1016 33.2945 15.4691 33.2135C15.7685 33.1478 16.0772 33.1325 16.379 33.0762C16.4987 33.0538 16.6431 33.0116 16.7183 32.927C17.047 32.5513 17.4615 32.4457 17.9381 32.4492C19.0946 32.4586 20.251 32.4445 21.4075 32.4586C21.6541 32.4609 21.7656 32.3882 21.8454 32.1522C22.1037 31.3925 22.3984 30.6458 22.6591 29.8874C22.7178 29.7172 22.7295 29.5176 22.7095 29.3368C22.5581 27.9713 22.3949 26.6059 22.2329 25.2416C22.1284 24.3611 22.0168 23.4805 21.9041 22.5671C18.6884 22.9604 15.516 23.349 12.3284 23.74C12.838 27.9079 13.3428 32.0348 13.8512 36.1886C14.7423 36.0794 15.5794 35.9761 16.4271 35.8716V34.4205V34.4193ZM27.4222 40.6172V33.7947H17.7855V40.6172H27.4222V40.6172ZM32.6633 28.1744C30.287 27.3115 27.9694 26.4709 25.6154 25.6173C25.2702 26.5683 24.9344 27.4935 24.6021 28.4092C24.6503 28.4398 24.6608 28.4515 24.6714 28.4527C24.7442 28.4574 24.817 28.4632 24.8898 28.4609C26.2282 28.421 27.3894 28.8495 28.3615 29.7747C28.7325 30.1281 29.0976 30.4873 29.4745 30.8349C30.0052 31.3244 30.5969 31.7025 31.3424 31.8164C31.7839 30.5989 32.2148 29.4072 32.6621 28.1744H32.6633ZM23.1392 32.4516C23.3588 32.4516 23.5044 32.4516 23.6488 32.4516C24.878 32.4516 26.1061 32.448 27.3354 32.4527C28.2828 32.4574 28.7572 32.9376 28.7654 33.8886C28.7689 34.3712 28.7548 34.8537 28.7736 35.3362C28.7783 35.4536 28.8511 35.6274 28.9438 35.6732C29.2127 35.8059 29.5086 35.888 29.8256 36.0008C30.1836 35.0134 30.5276 34.0624 30.8505 33.1724C30.2787 32.8766 29.714 32.657 29.235 32.3165C28.7031 31.9373 28.2218 31.4759 27.7709 31.0004C26.8293 30.0107 25.6846 29.6479 24.3544 29.804C24.237 29.8181 24.0679 29.9097 24.0304 30.006C23.7275 30.7926 23.4504 31.5886 23.1404 32.4527L23.1392 32.4516Z" fill="black"/>
<path d="M32.293 18.6528V9.14755H12.7365V18.6528C12.8892 18.6528 13.0453 18.6528 13.2015 18.6528C16.9655 18.6528 20.7296 18.6528 24.4936 18.6528C24.6251 18.6528 24.7578 18.6457 24.8893 18.6563C25.3037 18.6915 25.5726 18.9534 25.575 19.315C25.5785 19.693 25.2932 19.9701 24.8541 19.9701C20.7977 19.9736 16.7401 19.9771 12.6837 19.9677C11.9217 19.9666 11.4087 19.4335 11.3911 18.6493C11.3723 17.7863 11.3852 16.921 11.3852 16.0581C11.3852 13.818 11.384 11.5779 11.3852 9.33775C11.3852 8.267 11.8654 7.79268 12.9455 7.7915C19.316 7.7915 25.6877 7.7915 32.0581 7.7915C33.1371 7.7915 33.6197 8.267 33.6197 9.3354C33.622 12.3668 33.622 15.3971 33.6197 18.4285C33.6197 19.4993 33.1383 19.9724 32.0605 19.9724C30.5671 19.9724 29.0725 19.976 27.5791 19.9713C27.093 19.9701 26.8112 19.7235 26.8089 19.3244C26.8065 18.9252 27.0895 18.6739 27.5685 18.6528C27.6707 18.6481 27.774 18.6528 27.8761 18.6528C29.1946 18.6528 30.5119 18.6528 31.8304 18.6528H32.2918H32.293Z" fill="black"/>
<path d="M24.1808 14.2055C23.9988 14.8489 23.818 15.4935 23.6337 16.1368C23.4893 16.637 23.2251 16.8836 22.833 16.8659C22.3845 16.846 22.1732 16.563 22.0604 16.1568C21.8867 15.5252 21.6906 14.8982 21.4288 14.2548C21.3501 14.6505 21.2703 15.0461 21.194 15.4418C21.1423 15.7142 21.1083 15.9913 21.0437 16.2601C20.9416 16.6793 20.6645 16.8706 20.2829 16.8108C19.9154 16.7521 19.6935 16.4585 19.764 16.0347C19.9753 14.7667 20.2089 13.5034 20.4344 12.2378C20.4731 12.0217 20.5201 11.8081 20.5576 11.592C20.6293 11.1788 20.8699 10.9252 21.2891 10.9076C21.7118 10.8899 21.9571 11.1365 22.0734 11.5345C22.3105 12.3458 22.5547 13.1559 22.8342 14.0916C23.0197 13.4447 23.1746 12.907 23.3284 12.3693C23.4048 12.1028 23.4799 11.8362 23.5597 11.5709C23.6971 11.1154 23.9765 10.8747 24.3604 10.9029C24.8078 10.9369 25.025 11.2175 25.1048 11.6355C25.3502 12.9269 25.5967 14.2172 25.8433 15.5075C25.8762 15.6801 25.9173 15.8515 25.9349 16.0253C25.9783 16.4562 25.7834 16.7427 25.4171 16.8072C25.0297 16.8753 24.7209 16.6581 24.6328 16.2249C24.4955 15.5533 24.3769 14.8771 24.2501 14.2032C24.2278 14.2032 24.2043 14.2032 24.182 14.2032L24.1808 14.2055Z" fill="black"/>
<path d="M28.8702 10.7913C29.3856 11.0096 29.921 11.1916 30.4118 11.457C30.8027 11.6683 30.8697 12.0757 30.6583 12.3962C30.4494 12.712 30.083 12.7473 29.6874 12.5571C29.3798 12.4091 29.044 12.2812 28.7094 12.2436C28.5474 12.2248 28.3595 12.435 28.1846 12.5406C28.3102 12.6698 28.4147 12.8447 28.5673 12.9198C28.9195 13.0936 29.2976 13.2122 29.6592 13.3683C30.5538 13.7546 31.0329 14.4931 30.9025 15.2691C30.7546 16.1509 29.9809 16.8166 29.0123 16.8635C28.2198 16.9023 27.513 16.6592 26.9189 16.1239C26.5409 15.7834 26.4822 15.3924 26.751 15.0872C27.0269 14.7737 27.3827 14.7866 27.7877 15.1294C28.1764 15.4582 28.6166 15.6507 29.1191 15.4946C29.3011 15.4382 29.5394 15.2457 29.5629 15.0872C29.5829 14.9498 29.3692 14.7115 29.2025 14.6246C28.8303 14.4285 28.4217 14.3029 28.0308 14.142C27.1573 13.7816 26.7534 13.177 26.8661 12.4103C26.9882 11.5802 27.6504 10.9944 28.5626 10.9087C28.6495 10.9004 28.7376 10.9087 28.8256 10.9087C28.8409 10.8699 28.8561 10.8312 28.8714 10.7924L28.8702 10.7913Z" fill="black"/>
<path d="M17.1122 10.7983C17.6135 10.9768 18.1324 11.1212 18.6126 11.3455C19.0283 11.5404 19.1316 11.9607 18.9273 12.2976C18.7312 12.6205 18.3602 12.7144 17.9692 12.4784C16.8738 11.8174 15.6493 12.5242 15.4474 13.5292C15.3065 14.2278 15.5906 14.9252 16.207 15.3009C16.8504 15.6918 17.4538 15.6296 18.0491 15.1107C18.3661 14.8348 18.7265 14.8242 18.9919 15.0837C19.2584 15.3443 19.2466 15.7447 18.9613 16.0652C18.1512 16.9775 16.6472 17.1301 15.4978 16.4174C14.3649 15.7142 13.833 14.3358 14.204 13.0643C14.5797 11.7763 15.7397 10.9028 17.1122 10.7983V10.7983Z" fill="black"/>
<path d="M4.36261 2.64205C4.48001 2.64205 4.59742 2.63148 4.71365 2.6444C5.08231 2.68432 5.34648 2.97314 5.33708 3.31479C5.32886 3.66114 5.06235 3.93 4.68665 3.95466C4.48236 3.96875 4.2769 3.96288 4.07261 3.95818C3.59829 3.94761 3.32121 3.69519 3.32826 3.28661C3.3353 2.89565 3.60299 2.65614 4.05618 2.63853C4.15832 2.63501 4.26046 2.63853 4.36261 2.63853C4.36261 2.63853 4.36261 2.64088 4.36261 2.64205V2.64205Z" fill="black"/>
<path d="M7.5457 3.95942C6.84361 3.95942 6.51605 3.74339 6.52661 3.28786C6.53718 2.84758 6.85888 2.63977 7.52927 2.63977C7.58797 2.63977 7.64667 2.63977 7.7042 2.63977C8.2478 2.64564 8.54483 2.88632 8.53662 3.31486C8.5284 3.72813 8.24427 3.95355 7.72064 3.95942C7.66194 3.95942 7.60323 3.95942 7.5457 3.95942Z" fill="black"/>
<path d="M10.784 2.642C10.9014 2.642 11.0188 2.6326 11.1351 2.64434C11.5037 2.68309 11.7702 2.96956 11.7644 3.31004C11.7585 3.65521 11.4908 3.92995 11.1175 3.9546C10.885 3.96986 10.649 3.96752 10.4154 3.95578C10.0103 3.93582 9.74732 3.66461 9.75202 3.29243C9.75671 2.93903 10.0103 2.67604 10.3895 2.64317C10.5199 2.63143 10.6525 2.64082 10.784 2.642V2.642Z" fill="black"/>
<path d="M15.457 32.4316C15.0226 32.4257 14.7431 32.1897 14.7032 31.841C14.6633 31.4935 14.9263 31.1683 15.3173 31.119C16.7661 30.9358 18.2148 30.7621 19.6648 30.586C19.9983 30.5449 20.3317 30.5108 20.6663 30.4709C21.1817 30.4099 21.4999 30.6059 21.5468 31.0133C21.595 31.4336 21.3649 31.7013 20.8365 31.7694C19.5192 31.9408 18.1996 32.0935 16.8799 32.2543C16.3868 32.3142 15.8949 32.3764 15.457 32.4304V32.4316Z" fill="black"/>
<path d="M14.6768 26.2455C14.2835 26.2525 13.9994 26.0177 13.963 25.6655C13.9231 25.278 14.1227 25.001 14.5524 24.9434C15.912 24.7615 17.275 24.6006 18.637 24.4315C19.0714 24.3775 19.5058 24.3153 19.9402 24.2684C20.4309 24.2155 20.7655 24.448 20.8055 24.8554C20.8419 25.2323 20.566 25.5211 20.0952 25.5798C18.2847 25.804 16.4732 26.0248 14.6768 26.2455V26.2455Z" fill="black"/>
<path d="M20.5501 28.3846C20.9939 28.3869 21.2663 28.6194 21.298 28.9728C21.3308 29.3485 21.1007 29.6444 20.6921 29.6972C19.241 29.8827 17.7875 30.0553 16.334 30.2314C15.9994 30.2725 15.6648 30.3089 15.3302 30.3453C14.8382 30.4005 14.5365 30.2173 14.4672 29.8205C14.3956 29.4143 14.6422 29.1149 15.1576 29.0479C16.7109 28.8472 18.2653 28.664 19.8198 28.4738C20.0816 28.4421 20.3423 28.4093 20.5489 28.3834L20.5501 28.3846Z" fill="black"/>
<path d="M15.0303 28.2989C14.5278 28.3106 14.2495 28.0923 14.2119 27.7213C14.1732 27.3338 14.4233 27.0391 14.8565 26.9863C16.6434 26.7679 18.4304 26.5519 20.2173 26.3406C20.681 26.2854 20.9722 26.4791 21.0391 26.8618C21.1061 27.2493 20.8889 27.5639 20.4427 27.6226C18.6147 27.8621 16.7843 28.0817 15.0314 28.2989H15.0303Z" fill="black"/>
<path d="M20.6471 37.2171C20.6471 36.778 20.633 36.3389 20.6494 35.901C20.6811 35.0839 21.4877 34.6283 22.1863 35.0557C22.8707 35.4748 23.5364 35.9268 24.1822 36.4035C24.7305 36.8086 24.7445 37.5799 24.1986 37.9897C23.5341 38.4886 22.8449 38.963 22.1299 39.3845C21.4712 39.7731 20.6846 39.2999 20.6506 38.5333C20.6306 38.0953 20.6471 37.6562 20.6459 37.2171H20.6471ZM23.0433 37.2042C22.6653 36.9565 22.3401 36.7416 21.9914 36.5127V37.9134C22.3553 37.668 22.677 37.4519 23.0433 37.2042Z" fill="black"/>
<path d="M30.5252 28.0935C30.8985 28.104 31.1744 28.4069 31.1545 28.7826C31.1287 29.2734 30.7154 29.7689 30.3303 29.7712C29.9722 29.7736 29.6716 29.4601 29.6799 29.0926C29.6916 28.569 30.1049 28.0794 30.5252 28.0923V28.0935Z" fill="black"/>
</svg>
