<svg width="35" height="35" viewBox="0 0 35 35" fill="none" xmlns="http://www.w3.org/2000/svg">
<path d="M35.0002 1.64063C34.9353 2.07061 34.8587 2.49922 34.8082 2.93057C34.4411 6.07715 33.7062 9.12324 32.3397 11.9964C31.5713 13.6117 30.5794 15.0719 29.3032 16.3345C28.137 17.4877 26.979 18.6491 25.8291 19.8188C25.7061 19.9439 25.609 20.1407 25.5885 20.3144C25.3643 22.2476 25.1667 24.1835 24.9336 26.116C24.9036 26.3655 24.7703 26.6485 24.5946 26.827C22.7557 28.6925 20.8963 30.5389 19.0472 32.3948C18.8127 32.63 18.5605 32.7797 18.2262 32.6717C17.9042 32.5685 17.7887 32.3107 17.7436 31.9929C17.557 30.6633 17.3622 29.3357 17.1666 28.0075C17.1543 27.9221 17.1386 27.8209 17.086 27.7607C16.7339 27.3602 16.3709 26.9691 15.9663 26.5255C15.7208 26.9343 15.5424 27.2316 15.364 27.5283C14.9832 28.1613 14.6086 28.7984 14.2204 29.4267C13.9462 29.8703 13.4793 29.9298 13.0938 29.5846C13.0343 29.5313 12.9796 29.4731 12.9236 29.4164C10.4749 26.9678 8.02631 24.5198 5.57836 22.0705C4.99936 21.4915 5.04858 21.0916 5.75131 20.6691C6.61742 20.1489 7.48491 19.6294 8.37973 19.0928C7.9853 18.6792 7.60659 18.2759 7.21762 17.8828C7.17182 17.8363 7.0686 17.8425 6.99135 17.8315C5.65219 17.636 4.31303 17.4378 2.9725 17.2491C2.66215 17.2054 2.42631 17.0728 2.32992 16.7699C2.23422 16.4698 2.34223 16.2183 2.56303 15.9981C4.44155 14.1237 6.31323 12.2418 8.202 10.377C8.36538 10.2156 8.62719 10.0946 8.85688 10.0673C10.7894 9.8376 12.7253 9.64004 14.6585 9.41309C14.852 9.39053 15.0701 9.28047 15.2102 9.14307C16.1809 8.19697 17.1646 7.26113 18.0861 6.26856C20.1341 4.06123 22.6409 2.60381 25.4655 1.6502C27.8116 0.85791 30.2192 0.345898 32.6876 0.125781C32.8893 0.108691 33.0896 0.04375 33.2913 0C33.8552 0 34.4192 0 35.0002 0V1.64063ZM19.4533 24.3537C19.5415 24.2259 19.5982 24.1083 19.6857 24.0215C22.4939 21.2085 25.2877 18.3798 28.1226 15.5935C29.9512 13.7963 31.1612 11.6437 31.9917 9.25039C32.0225 9.16221 31.9911 9.00293 31.9268 8.93799C29.9765 6.97402 28.0194 5.01758 26.0568 3.06592C25.9973 3.00645 25.8531 2.97432 25.7738 3.00166C23.4701 3.79873 21.3639 4.92324 19.6228 6.67119C16.0941 10.2136 12.5538 13.7443 9.01821 17.2806C8.93959 17.3592 8.8644 17.4419 8.81723 17.4918C11.7225 20.3971 14.6107 23.2853 17.4797 26.1543C17.7737 25.8651 18.0874 25.5562 18.4388 25.2109C18.3493 25.1378 18.2454 25.0653 18.1572 24.9772C16.5446 23.368 14.934 21.7574 13.3248 20.1448C13.2209 20.0409 13.1157 19.9329 13.0371 19.8099C12.8593 19.5316 12.9099 19.1851 13.1423 18.9684C13.3638 18.7619 13.6995 18.7257 13.9606 18.8959C14.0734 18.9697 14.1752 19.0641 14.2709 19.1598C15.7058 20.5919 17.1393 22.0254 18.5721 23.4596C18.8442 23.7316 19.1128 24.0071 19.4546 24.353L19.4533 24.3537ZM14.9033 25.6368C13.0459 23.7795 11.2125 21.9461 9.36342 20.097C8.58686 20.5639 7.79457 21.0403 7.03032 21.4997C9.19594 23.6653 11.3397 25.8098 13.5005 27.9713C13.9599 27.207 14.4316 26.4223 14.9033 25.6368ZM4.4641 16.0494C4.52836 16.0754 4.56733 16.1 4.60834 16.1055C5.60981 16.2511 6.61059 16.4022 7.61479 16.5272C7.7392 16.543 7.91147 16.4445 8.00991 16.3468C9.7394 14.6303 11.4607 12.9063 13.1827 11.1829C13.251 11.1146 13.3112 11.0394 13.4062 10.932C12.0082 11.0893 10.6629 11.2349 9.31967 11.3989C9.16791 11.4174 8.99838 11.5083 8.88832 11.6177C7.48012 13.0108 6.0808 14.4136 4.68012 15.8143C4.60971 15.8847 4.54409 15.9612 4.46274 16.0494H4.4641ZM24.0627 21.6193C24.0094 21.6494 23.9766 21.6597 23.9554 21.6809C22.1589 23.4753 20.3618 25.2684 18.5748 27.0717C18.4921 27.1551 18.4648 27.3362 18.4785 27.4647C18.5284 27.9392 18.6056 28.4108 18.6753 28.8839C18.7553 29.4273 18.8387 29.9694 18.9276 30.5628C19.0479 30.4493 19.1231 30.3823 19.1942 30.3112C20.4664 29.0391 21.7228 27.7512 23.0175 26.5029C23.427 26.1078 23.6915 25.7065 23.6751 25.1269C23.6676 24.8794 23.7298 24.6306 23.7579 24.3817C23.859 23.4698 23.9595 22.5572 24.0627 21.6193V21.6193ZM33.5845 1.41504C31.4729 1.57773 29.4467 1.93115 27.5142 2.45615C29.1904 4.13232 30.8741 5.81602 32.5427 7.48535C33.0718 5.54258 33.4232 3.52051 33.5845 1.41572V1.41504Z" fill="black"/>
<path d="M0 34.043C0.816895 33.2227 1.63242 32.4003 2.45068 31.5814C4.00381 30.0262 5.5583 28.4731 7.11279 26.9186C7.57012 26.4613 7.9707 26.3956 8.28994 26.7251C8.60029 27.0457 8.53398 27.4347 8.0917 27.8777C5.88574 30.0843 3.68115 32.2923 1.46973 34.4935C1.27695 34.6856 1.03838 34.8319 0.82168 35H0C0 34.6808 0 34.3622 0 34.043Z" fill="black"/>
<path d="M1.75567 30.1554C1.12813 30.1465 0.815041 29.6044 1.06865 29.1546C1.12334 29.0576 1.20059 28.9687 1.27988 28.8894C2.61494 27.5516 3.95342 26.2172 5.28643 24.8781C5.51338 24.6497 5.78545 24.4973 6.07735 24.634C6.26533 24.7222 6.46836 24.9457 6.50664 25.1392C6.54492 25.334 6.44922 25.6287 6.30635 25.7749C4.93779 27.1749 3.54942 28.5565 2.15625 29.9326C2.0291 30.0583 1.83223 30.1144 1.75567 30.1547V30.1554Z" fill="black"/>
<path d="M10.5067 29.0793C10.3563 29.3323 10.2804 29.5407 10.1382 29.6843C8.79426 31.0447 7.44006 32.3961 6.08518 33.7455C5.72835 34.101 5.32297 34.1215 5.03176 33.8207C4.75422 33.5336 4.77747 33.1289 5.11311 32.7912C6.47005 31.4275 7.83245 30.0685 9.19348 28.7095C9.41975 28.4839 9.70276 28.3465 9.99124 28.5174C10.1908 28.6357 10.3214 28.8701 10.5067 29.0793V29.0793Z" fill="black"/>
<path d="M22.233 8.67481C24.5101 8.67686 26.3284 10.5021 26.325 12.7798C26.3209 15.0432 24.4677 16.8882 22.2118 16.8738C19.9683 16.8595 18.1232 15.0083 18.126 12.775C18.1287 10.5075 19.9669 8.67276 22.233 8.67481V8.67481ZM22.233 10.0434C20.7332 10.0434 19.485 11.2889 19.4952 12.775C19.5055 14.2632 20.7729 15.5217 22.2453 15.5053C23.7335 15.4882 24.9482 14.2673 24.9564 12.7805C24.9647 11.2738 23.741 10.0434 22.2337 10.0434H22.233Z" fill="black"/>
<path d="M11.6732 18.2C11.302 18.2013 11.0012 17.9074 10.9971 17.5382C10.9923 17.1725 11.2918 16.8601 11.6547 16.8505C12.0232 16.841 12.3595 17.1705 12.3547 17.5362C12.35 17.8944 12.0369 18.1986 11.6732 18.2V18.2Z" fill="black"/>
</svg>
