<svg width="35" height="35" viewBox="0 0 35 35" fill="none" xmlns="http://www.w3.org/2000/svg">
<path d="M22.4424 1.38082C22.287 2.07444 22.1055 2.8974 21.9188 3.71931C20.0538 11.8936 18.1878 20.0679 16.3208 28.2412C15.8869 30.1395 15.453 32.0368 15.0118 33.9331C14.8668 34.5558 14.4715 34.924 13.9166 34.9907C13.0655 35.0929 12.4104 34.3367 12.6076 33.4585C13.1009 31.2681 13.6057 29.0798 14.1043 26.8905C15.8869 19.0562 17.6684 11.2229 19.4499 3.38867C19.6345 2.57823 19.8087 1.76674 20.0048 0.959427C20.1654 0.299183 20.7433 -0.0773548 21.415 0.0133898C22.0012 0.0926608 22.4476 0.626698 22.4445 1.38082H22.4424Z" fill="black"/>
<path d="M3.2831 19.1949C4.55352 20.1941 5.80934 21.1819 7.06517 22.1697C8.43363 23.2461 9.80419 24.3215 11.1716 25.401C11.5826 25.7254 11.7682 26.1457 11.6566 26.6725C11.5534 27.1627 11.2561 27.5142 10.7721 27.6029C10.3163 27.6863 9.89702 27.4975 9.52883 27.2086C7.82033 25.8704 6.1087 24.5342 4.39811 23.1981C3.13812 22.2135 1.87917 21.2299 0.619175 20.2453C-0.206913 19.5996 -0.20587 18.7089 0.619175 18.059C3.53969 15.7591 6.45707 13.4561 9.38489 11.1645C9.63209 10.9716 9.93248 10.7953 10.2339 10.7317C10.7773 10.6169 11.3103 10.9497 11.5325 11.4483C11.7651 11.9677 11.6472 12.5434 11.1789 12.9273C10.3549 13.6032 9.51318 14.2572 8.67771 14.9195C6.88576 16.3401 5.09278 17.7597 3.28206 19.1939L3.2831 19.1949Z" fill="black"/>
<path d="M31.575 17.5063C29.126 15.5714 26.7217 13.6679 24.3092 11.7737C23.8753 11.4337 23.5446 11.054 23.6124 10.4689C23.7272 9.478 24.8411 9.02532 25.6526 9.64697C26.6529 10.4136 27.6365 11.2032 28.6263 11.9834C30.4736 13.4395 32.3197 14.8976 34.1691 16.3527C34.4809 16.5978 34.7667 16.8575 34.8314 17.2768C34.918 17.8369 34.6937 18.2531 34.2556 18.5931C32.5085 19.9459 30.7687 21.3082 29.0269 22.6662C27.8482 23.5851 26.6769 24.5134 25.4868 25.4177C24.7243 25.9966 23.7053 25.6013 23.5342 24.672C23.4351 24.1306 23.6709 23.7176 24.0933 23.3869C26.0886 21.8245 28.0798 20.2568 30.073 18.6912C30.5622 18.3073 31.0493 17.9214 31.5761 17.5063H31.575Z" fill="black"/>
</svg>
