<svg width="20" height="20" viewBox="0 0 20 20" fill="none" xmlns="http://www.w3.org/2000/svg">
<path fill-rule="evenodd" clip-rule="evenodd" d="M3.33171 9.9986C3.33171 6.3167 6.31647 3.33193 9.99837 3.33193C13.6803 3.33193 16.665 6.3167 16.665 9.9986C16.665 13.3983 14.1203 16.2036 10.8317 16.6137V11.6653H12.4984C12.9586 11.6653 13.3317 11.2922 13.3317 10.8319C13.3317 10.3717 12.9586 9.9986 12.4984 9.9986H10.8317V8.33193C10.8317 7.8717 11.2048 7.4986 11.665 7.4986H12.0817C12.542 7.4986 12.915 7.1255 12.915 6.66527C12.915 6.20503 12.542 5.83193 12.0817 5.83193H11.665C10.2843 5.83193 9.16504 6.95122 9.16504 8.33193V9.9986H7.49837C7.03814 9.9986 6.66504 10.3717 6.66504 10.8319C6.66504 11.2922 7.03814 11.6653 7.49837 11.6653H9.16504V16.6137C5.87645 16.2036 3.33171 13.3983 3.33171 9.9986ZM9.99837 18.3319C14.6007 18.3319 18.3317 14.6009 18.3317 9.9986C18.3317 5.39622 14.6007 1.66527 9.99837 1.66527C5.396 1.66527 1.66504 5.39622 1.66504 9.9986C1.66504 14.6009 5.396 18.3319 9.99837 18.3319Z" fill="white"/>
</svg>
