<svg width="45" height="45" viewBox="0 0 45 45" fill="none" xmlns="http://www.w3.org/2000/svg">
<path d="M19.6831 0.00117408H24.6048C24.997 0.235989 25.1308 0.585864 25.105 1.03201C25.0827 1.40889 25.1003 1.78694 25.1003 2.18496H39.8443C39.8443 1.94427 39.8326 1.72472 39.8467 1.50751C39.8784 1.03671 40.1249 0.753757 40.5852 0.74319C41.5655 0.722057 42.5482 0.722057 43.5286 0.742016C43.9888 0.751409 44.2671 1.04141 44.2741 1.50047C44.2906 2.46673 44.2906 3.43417 44.2741 4.40044C44.2659 4.87242 43.9677 5.1448 43.4887 5.16946C43.2726 5.1812 43.0554 5.17181 42.8183 5.17181V39.8282C43.0061 39.8282 43.1775 39.827 43.3501 39.8282C44.0158 39.8352 44.2777 40.0971 44.28 40.7675C44.2835 41.6457 44.287 42.5251 44.2788 43.4033C44.2741 43.9469 44.01 44.2498 43.4934 44.2603C42.5424 44.2791 41.589 44.2779 40.638 44.2603C40.1308 44.2509 39.8737 43.9692 39.8467 43.4549C39.8361 43.2424 39.8443 43.0276 39.8443 42.8103H25.1003C25.1003 43.2647 25.1085 43.7003 25.0979 44.1359C25.0827 44.7288 24.8162 44.9953 24.2303 44.9965C22.839 45.0012 21.4477 45.0012 20.0565 44.9965C19.4706 44.9941 19.2052 44.7276 19.1912 44.1335C19.1806 43.698 19.1888 43.2624 19.1888 42.815H4.44359C4.44359 43.0452 4.45298 43.2506 4.44124 43.4549C4.41306 43.9703 4.15594 44.2498 3.64756 44.2592C2.69539 44.2756 1.74321 44.2768 0.792208 44.2592C0.303792 44.2498 0.0196658 43.9668 0.0114472 43.489C-0.00381575 42.5227 -0.00381575 41.5553 0.0114472 40.589C0.0196658 40.1358 0.309663 39.8611 0.761682 39.8317C0.990627 39.8165 1.22192 39.8294 1.4673 39.8294V5.17063C1.24423 5.17063 1.04229 5.1765 0.840345 5.17063C0.308489 5.15185 0.0161435 4.87946 0.00909909 4.35582C-0.00264167 3.41891 -0.00264167 2.48082 0.00909909 1.54391C0.0161435 1.03671 0.293226 0.746713 0.800427 0.738494C1.7526 0.722057 2.70478 0.722057 3.65578 0.738494C4.14537 0.747887 4.40484 1.02027 4.43772 1.50751C4.45298 1.73411 4.44006 1.96188 4.44006 2.18613H19.1853C19.1853 1.78694 19.2029 1.40772 19.1806 1.03084C19.1536 0.583516 19.2886 0.234815 19.6807 0L19.6831 0.00117408ZM30.4189 7.04798C30.7394 8.451 29.9152 9.85872 28.4394 10.4434C27.27 10.9072 26.0442 10.9612 24.8091 10.8543C23.4671 10.7381 22.1275 10.5902 20.7809 10.8144C18.8178 11.142 17.9455 12.2902 18.2813 14.1488C18.3153 14.3402 18.455 14.5515 18.6088 14.6748C22.6124 17.8706 26.6242 21.0571 30.6349 24.2447C31.3863 24.8423 31.4063 25.0818 30.8169 25.8215C29.7344 27.1799 29.3904 28.6604 30.0361 30.3334C30.6501 31.9267 31.2149 33.5387 31.8019 35.1425C32.1565 36.1122 32.5099 37.082 32.8668 38.06C39.6083 33.6666 42.911 25.4117 40.5852 17.3446C38.2006 9.06857 30.9237 4.63408 25.1402 3.97894C25.1308 3.99069 25.1132 4.00125 25.1132 4.01299C25.1073 4.34878 25.1073 4.68574 25.0991 5.02152C25.0827 5.64496 24.8291 5.89621 24.2045 5.89739C22.8273 5.90091 21.4513 5.90091 20.0741 5.89739C19.4553 5.89621 19.2017 5.64144 19.1888 5.01331C19.1818 4.66578 19.1876 4.31825 19.1876 3.96603C10.9386 4.98161 2.85271 12.3936 2.97834 22.7219C3.10279 33.0174 11.2955 40.0971 19.1912 41.0281C19.1912 40.6324 19.1818 40.2403 19.1935 39.8493C19.2076 39.368 19.5246 39.1472 19.9684 39.0592C19.4389 37.6104 18.8871 36.2109 18.4163 34.7844C17.8128 32.9575 16.5377 31.9971 14.6898 31.7012C13.8327 31.5639 13.6472 31.2891 13.8151 30.4508C14.7426 25.852 15.6725 21.252 16.5953 16.6519C16.7726 15.7714 16.9299 14.9108 16.7855 13.9786C16.4708 11.938 17.5122 10.3424 19.4635 9.64739C20.863 9.14958 22.3083 9.15662 23.7595 9.28225C24.9852 9.38792 26.211 9.53115 27.4285 9.22472C28.5251 8.94881 28.9301 8.48035 29.0381 7.35911C29.4808 7.25931 29.9328 7.15834 30.42 7.04915L30.4189 7.04798ZM17.9666 17.8002C17.9326 17.8037 17.8973 17.8072 17.8633 17.8119C17.0285 21.9717 16.1937 26.1302 15.3566 30.3006C15.4752 30.3393 15.555 30.371 15.6384 30.3933C17.6426 30.9334 19.0444 32.1309 19.7359 34.1175C19.9754 34.8055 20.2349 35.4853 20.4932 36.1921C23.4801 35.099 26.4352 34.0177 29.4115 32.9281C29.1368 32.1709 28.8738 31.4429 28.6084 30.7174C28.2914 29.8521 28.1611 28.9692 28.2797 28.0463C28.4147 26.992 28.8303 26.0563 29.4385 25.1745C26.0924 22.5317 22.7827 19.863 19.4342 17.2448C19.4119 17.2777 19.3908 17.3094 19.3684 17.3423C20.2138 19.6482 21.0591 21.9541 21.8998 24.2447C23.7466 24.2106 24.8631 25.643 24.7539 27.0989C24.6624 28.3164 23.7689 29.3108 22.6265 29.528C21.4348 29.7546 20.2537 29.1922 19.7101 28.1391C19.1595 27.0719 19.3684 25.8215 20.276 24.9703C20.4815 24.7777 20.4744 24.6356 20.3887 24.4067C19.8569 22.9849 19.3391 21.5584 18.8166 20.1342C18.5325 19.357 18.2496 18.5798 17.9666 17.8013V17.8002ZM41.2955 39.7906V30.1691C38.9861 35.4395 35.188 39.038 29.9833 41.2817H39.8267C39.8666 40.3972 40.3558 39.9006 41.2943 39.7918L41.2955 39.7906ZM14.2988 41.2887C9.03892 39.0439 5.30301 35.3972 2.99712 30.1655V39.8071C4.15594 39.8529 4.44124 39.7155 4.47059 41.2876H14.2988V41.2887ZM3.00065 5.20351V14.8262C5.30418 9.59338 9.04714 5.95374 14.2859 3.7136H4.46002C4.41463 4.61138 3.92856 5.10802 3.00182 5.20351H3.00065ZM29.9797 3.70656C35.2572 5.96196 38.9884 9.61216 41.2814 14.8086V5.28921C40.8294 5.15654 40.321 5.15067 40.0756 4.89472C39.8302 4.6376 39.849 4.1304 39.7445 3.70656H29.9786H29.9797ZM29.9222 34.3136C26.9178 35.4137 23.9732 36.4903 21.0004 37.5787C21.1906 38.0976 21.3738 38.5978 21.5593 39.1026C22.4668 39.1026 23.345 39.0991 24.2233 39.1026C24.822 39.105 25.0792 39.355 25.0956 39.9538C25.1062 40.3143 25.0979 40.6747 25.0979 41.0762C27.4238 40.7111 29.5594 39.989 31.5824 38.8525C31.0258 37.3298 30.4811 35.8399 29.9222 34.3136V34.3136ZM20.6811 4.38635H23.6057V1.51338H20.6811V4.38635ZM20.6822 43.4831H23.6045V40.6148H20.6822V43.4831ZM20.8983 26.9016C20.8971 27.565 21.4278 28.1062 22.0806 28.1097C22.7263 28.1121 23.2793 27.5626 23.2828 26.9145C23.2863 26.2559 22.7521 25.717 22.0923 25.7146C21.4266 25.7123 20.8994 26.2359 20.8983 26.9028V26.9016ZM1.51544 2.22957V3.66194H2.95133V2.22957H1.51544ZM42.769 3.67603V2.24366H41.3366V3.67603H42.769ZM2.95368 41.3263H1.51427V42.7587H2.95251V41.3263H2.95368ZM41.3248 42.7528H42.7725V41.3369H41.3248V42.7528Z" fill="black"/>
</svg>
