<svg width="17" height="20" viewBox="0 0 17 20" fill="none" xmlns="http://www.w3.org/2000/svg">
<path d="M8.49982 20C8.23637 19.9907 7.98134 19.9048 7.76583 19.753C5.6303 18.3797 3.75474 16.6392 2.22595 14.6121C0.811407 12.8164 0.0289671 10.604 4.37473e-07 8.31825C-0.000359062 7.21979 0.220852 6.13255 0.650401 5.12156C1.07995 4.11058 1.70901 3.19662 2.49995 2.43437C4.10055 0.867736 6.25312 -0.00650881 8.49282 0.000425923C10.7231 -0.0219893 12.8713 0.841135 14.466 2.40046C16.0608 3.95979 16.9719 6.088 16.9996 8.31825C16.9691 10.6044 16.1853 12.8167 14.7697 14.6121C13.2343 16.6337 11.3595 18.3731 9.2288 19.753C9.01577 19.906 8.76196 19.992 8.49982 20ZM8.49282 5.7773C7.75023 5.7773 7.03805 6.0723 6.51296 6.59739C5.98787 7.12248 5.69288 7.83465 5.69288 8.57724C5.69154 8.94137 5.76354 9.30204 5.90459 9.63774C6.04564 9.97345 6.25285 10.2773 6.51386 10.5312C6.90747 10.9139 7.40412 11.1735 7.94301 11.2783C8.4819 11.383 9.03964 11.3284 9.54795 11.121C10.0563 10.9137 10.4931 10.5626 10.8049 10.1108C11.1168 9.65898 11.2901 9.12605 11.3038 8.57724C11.2974 7.83436 10.9987 7.12388 10.4721 6.59978C9.94558 6.07567 9.23373 5.78017 8.49082 5.7773H8.49282Z" fill="white"/>
</svg>
