<svg width="23" height="20" viewBox="0 0 23 20" fill="none" xmlns="http://www.w3.org/2000/svg">
<path d="M16.5989 20H5.62222C4.13313 19.9997 2.70495 19.4088 1.65096 18.3569C0.596969 17.305 0.00323649 15.878 0 14.3889L0 5.61111C0.00323649 4.12202 0.596969 2.69501 1.65096 1.64311C2.70495 0.591199 4.13313 0.000290712 5.62222 0L16.5989 0C18.0899 0.00285313 19.5194 0.594243 20.5767 1.64556C21.0997 2.16478 21.5145 2.78266 21.797 3.46338C22.0794 4.14409 22.224 4.87411 22.2222 5.61111V14.3889C22.219 15.8782 21.6251 17.3054 20.5709 18.3573C19.5166 19.4092 18.0882 20 16.5989 20ZM4.48222 5.82889C4.3716 5.82791 4.26195 5.84947 4.15994 5.89226C4.05792 5.93505 3.9657 5.99817 3.88889 6.07778C3.74399 6.22235 3.65621 6.41441 3.64171 6.61858C3.62722 6.82276 3.68698 7.02529 3.81 7.18889L3.95556 7.33333L9.01111 11.2778C9.62701 11.7676 10.3909 12.0339 11.1778 12.0333C11.967 12.0315 12.7329 11.7655 13.3533 11.2778L18.3667 7.26667L18.4556 7.17778C18.5851 7.02092 18.6549 6.82321 18.6524 6.61978C18.65 6.41635 18.5755 6.22037 18.4422 6.06667C18.2885 5.90203 18.0798 5.79928 17.8556 5.77778H17.8089C17.5955 5.77633 17.3895 5.85572 17.2322 6L12.2222 10C11.9099 10.2589 11.5168 10.4004 11.1111 10.4C10.7059 10.3979 10.3136 10.2567 10 10L5 6C4.85039 5.88859 4.66876 5.82857 4.48222 5.82889Z" fill="white"/>
</svg>
