<svg width="36" height="35" viewBox="0 0 36 35" fill="none" xmlns="http://www.w3.org/2000/svg">
<path d="M0 18.4182C0.212809 18.0505 0.527356 17.9254 0.952974 17.9301C2.56024 17.9478 4.16751 17.9366 5.77384 17.9375C6.44587 17.9375 6.69135 18.1877 6.69322 18.87C6.69322 19.1005 6.69322 19.331 6.69322 19.5933C6.85002 19.5933 6.9751 19.5933 7.10017 19.5933C9.07985 19.5933 11.0595 19.5868 13.0392 19.6008C13.3211 19.6027 13.6207 19.6559 13.8811 19.7623C16.1053 20.6704 18.3034 21.643 20.5454 22.5036C22.8602 23.3922 23.4006 26.4153 21.4237 28.0357C21.3976 28.0572 21.3742 28.0833 21.2594 28.1925C21.882 28.297 22.428 28.4174 22.9796 28.4744C24.124 28.5929 25.2179 28.2858 26.3174 28.0329C28.242 27.5914 30.1657 27.1415 32.095 26.7196C33.6957 26.3696 35.2871 27.3749 35.6875 28.9532C36.0889 30.5381 35.176 32.1733 33.5706 32.6036C30.946 33.3074 28.2989 33.929 25.6752 34.6384C23.5387 35.2161 21.4806 35.1153 19.4394 34.237C18.0225 33.6275 16.5692 33.102 15.1309 32.5439C14.8658 32.4412 14.6596 32.2891 14.6036 31.9941C14.4943 31.4248 15.004 31.0047 15.5687 31.2166C16.4918 31.5638 17.4037 31.94 18.3258 32.2919C19.3227 32.6717 20.3102 33.0871 21.3285 33.397C22.7575 33.8319 24.1781 33.5902 25.5922 33.2168C28.0292 32.5747 30.4746 31.9661 32.9173 31.3454C33.7965 31.1223 34.3164 30.5866 34.3771 29.8287C34.4685 28.6909 33.4362 27.8369 32.2844 28.1001C29.9734 28.6274 27.6633 29.1557 25.3532 29.6822C23.647 30.0704 21.9809 29.9267 20.3513 29.2995C18.1858 28.465 16.0185 27.6334 13.8522 26.7999C13.7869 26.7747 13.7215 26.7523 13.6571 26.7243C13.2492 26.546 13.0738 26.1643 13.2259 25.7872C13.3687 25.4344 13.756 25.2673 14.1574 25.4185C15.3297 25.8609 16.4974 26.3155 17.6678 26.7654C18.0365 26.9072 18.4024 27.0528 18.7729 27.19C19.7511 27.5522 20.7442 27.1126 21.1194 26.1549C21.4862 25.2216 21.084 24.2602 20.1273 23.8607C17.8788 22.9199 15.6256 21.994 13.3724 21.0653C13.2679 21.0223 13.1494 20.9953 13.0374 20.9953C10.9765 20.9915 8.91464 20.9925 6.85376 20.9925C6.80989 20.9925 6.76602 20.9971 6.71002 20.9999V28.8617C7.59486 28.8617 8.46476 28.858 9.33466 28.8636C9.76868 28.8664 10.0543 29.068 10.128 29.404C10.227 29.8567 9.91522 30.245 9.40747 30.2552C8.6393 30.2711 7.8702 30.2608 7.10203 30.2608C6.97696 30.2608 6.85282 30.2608 6.69415 30.2608C6.69415 30.4746 6.69975 30.6585 6.69322 30.8414C6.67642 31.3482 6.40854 31.6226 5.90918 31.6236C4.19738 31.6273 2.48557 31.6208 0.773766 31.6292C0.397617 31.631 0.180141 31.4248 0.000933373 31.1382V18.4182H0ZM5.27822 19.3581H1.42339V30.2048H5.27822V19.3581Z" fill="black"/>
<path d="M26.6376 11.1146C26.5508 11.7175 26.492 12.2962 26.3791 12.8647C26.2587 13.4695 25.9376 13.6403 25.3309 13.4816C24.4908 13.2623 23.7628 13.8746 23.9075 14.7109C23.9476 14.9442 24.1007 15.1832 24.264 15.3642C24.6561 15.8001 24.6701 16.1679 24.2491 16.5683C23.3829 17.3915 22.3758 17.973 21.2306 18.3156C20.6659 18.4836 20.3355 18.2988 20.188 17.735C20.0424 17.1806 19.6177 16.8268 19.096 16.825C18.5779 16.8231 18.1663 17.1675 18.0095 17.7322C17.8536 18.295 17.5176 18.4854 16.9613 18.3174C15.8067 17.9683 14.7894 17.3813 13.9167 16.5468C13.5162 16.1641 13.5116 15.7889 13.8999 15.4006C14.3423 14.9582 14.4366 14.4514 14.164 13.9819C13.8943 13.5162 13.4098 13.3472 12.8013 13.505C12.2833 13.6403 11.9379 13.4322 11.8128 12.9113C11.5282 11.7241 11.5263 10.5378 11.8128 9.35051C11.9379 8.83156 12.2833 8.62808 12.7994 8.76902C13.3893 8.9305 13.8943 8.75315 14.1631 8.2902C14.4366 7.81885 14.3432 7.30456 13.9055 6.87054C13.5125 6.48039 13.5088 6.10611 13.9055 5.72529C14.7847 4.88059 15.8086 4.28323 16.9791 3.94068C17.526 3.78108 17.8508 3.96122 18.0011 4.51004C18.1616 5.09247 18.5163 5.40888 19.0343 5.43128C19.5962 5.45555 20.0321 5.1242 20.1824 4.56044C20.3495 3.93508 20.6463 3.76708 21.2632 3.95375C22.3954 4.2963 23.3895 4.87779 24.25 5.68982C24.6747 6.09024 24.6813 6.48319 24.2734 6.88828C23.8552 7.30363 23.7619 7.82352 24.0251 8.28087C24.2958 8.75315 24.7914 8.9333 25.3804 8.77369C25.9096 8.62995 26.2568 8.81009 26.3651 9.34398C26.4845 9.93387 26.5527 10.535 26.6404 11.1174L26.6376 11.1146ZM13.043 10.2578V12.0237C14.0819 12.0265 14.8743 12.4213 15.3755 13.2949C15.8767 14.1667 15.7983 15.0497 15.3074 15.9271C15.5893 16.11 15.845 16.292 16.1157 16.4479C16.3434 16.5795 16.588 16.6812 16.8223 16.7951C18.0459 14.8294 20.4344 15.1225 21.3818 16.8296C21.8858 16.5338 22.3889 16.2388 22.891 15.9439C22.3777 15.0068 22.3236 14.1256 22.8341 13.2567C23.3437 12.3896 24.1558 12.0293 25.1517 12.0106V10.2494C24.1278 10.2391 23.326 9.85827 22.821 8.98836C22.3114 8.10913 22.388 7.21402 22.8948 6.30212C22.3721 6.0025 21.8746 5.71783 21.3687 5.42848C20.8255 6.33199 20.0984 6.83041 19.0866 6.82854C18.0758 6.82667 17.3543 6.31798 16.8157 5.42381C16.2949 5.72809 15.7918 6.02211 15.2869 6.31612C16.3462 8.05126 15.2589 10.2288 13.0449 10.2568L13.043 10.2578Z" fill="black"/>
<path d="M9.36967 12.9832C9.53394 12.747 9.64781 12.5725 9.77288 12.4063C10.0296 12.0657 10.4337 11.9882 10.7539 12.2122C11.0759 12.4371 11.1533 12.8385 10.9144 13.1988C10.4972 13.8288 10.0706 14.4532 9.63381 15.0702C9.40514 15.3922 9.05325 15.4753 8.70884 15.2811C8.04055 14.905 7.37972 14.5158 6.72636 14.1144C6.38007 13.9016 6.29514 13.4993 6.48741 13.1708C6.68155 12.8404 7.06424 12.7321 7.42732 12.915C7.60093 13.0018 7.76613 13.1045 7.90894 13.1848C7.87814 12.3522 7.8016 11.528 7.82587 10.7067C7.95747 6.35809 10.8155 2.35392 14.8719 0.793318C21.524 -1.76506 28.6214 2.09071 30 9.1078C30.7504 12.929 29.6369 16.2845 26.9469 19.1042C26.6156 19.4514 26.1946 19.4654 25.896 19.1696C25.6104 18.8858 25.63 18.4621 25.965 18.1176C27.4006 16.642 28.2975 14.8956 28.669 12.8684C29.4848 8.41337 26.9759 3.85758 22.7393 2.13084C16.8469 -0.270727 10.2984 3.42543 9.31273 9.72196C9.14659 10.786 9.15779 11.8547 9.36967 12.9841V12.9832Z" fill="black"/>
<path d="M24.5979 20.2981C24.5923 20.6742 24.2833 20.9841 23.9118 20.9869C23.5282 20.9906 23.1978 20.6593 23.2062 20.2785C23.2146 19.8865 23.5366 19.585 23.9324 19.599C24.316 19.612 24.6044 19.9154 24.5988 20.2981H24.5979Z" fill="black"/>
<path d="M12.2894 31.3659C11.903 31.3631 11.6053 31.071 11.5997 30.692C11.5941 30.3 11.9096 29.9817 12.2997 29.9864C12.6787 29.991 12.9848 30.2925 12.9913 30.6677C12.9979 31.0607 12.6871 31.3696 12.2894 31.3659V31.3659Z" fill="black"/>
<path d="M16.0693 11.1351C16.0693 9.45596 17.4358 8.08764 19.1037 8.09697C20.7633 8.10724 22.1157 9.4625 22.1223 11.122C22.1288 12.7909 20.7558 14.1602 19.0823 14.1555C17.4209 14.1508 16.0703 12.7965 16.0693 11.1351V11.1351ZM17.4666 11.1118C17.4601 12.0237 18.1844 12.7564 19.0925 12.7573C19.982 12.7573 20.7091 12.0395 20.7222 11.1454C20.7353 10.2456 19.9932 9.49423 19.0916 9.49516C18.203 9.49516 17.4722 10.2223 17.4666 11.1118V11.1118Z" fill="black"/>
</svg>
