<svg width="17" height="20" viewBox="0 0 17 20" fill="none" xmlns="http://www.w3.org/2000/svg">
<path d="M13.0872 0C13.1801 0.0347305 13.2755 0.0631019 13.365 0.10517C13.8136 0.317466 14.0396 0.679446 14.0621 1.16959C14.0714 1.37014 14.0636 1.57168 14.0636 1.79669C14.3938 1.79669 14.7166 1.79669 15.0394 1.79669C15.9659 1.79669 16.4316 2.26727 16.4027 3.19863C16.367 4.34278 16.1127 5.42481 15.4415 6.37818C14.947 7.08111 14.2925 7.5737 13.4731 7.83784C13.3474 7.87844 13.2653 7.93568 13.2061 8.05894C12.5584 9.41343 11.6222 10.5277 10.388 11.3833C9.95265 11.6851 9.75014 12.075 9.76285 12.6028C9.77802 13.2142 9.76383 13.8267 9.77068 14.4386C9.77117 14.4973 9.81862 14.5907 9.86656 14.6088C10.5401 14.8676 10.884 15.3621 10.9452 16.0939C11.0552 16.0939 11.1702 16.0925 11.2851 16.0939C11.9934 16.1047 12.4934 16.5929 12.5002 17.2968C12.5075 18.0452 12.5036 18.7941 12.5012 19.5425C12.5002 19.8473 12.3486 19.9989 12.0428 19.9989C9.48403 20.0004 6.92522 20.0004 4.36642 19.9989C4.05335 19.9989 3.90807 19.8453 3.90709 19.5229C3.90514 18.7872 3.90269 18.0515 3.90758 17.3163C3.91248 16.5973 4.40604 16.1042 5.12266 16.0934C5.23272 16.092 5.3423 16.0934 5.46556 16.0934C5.49247 15.7305 5.58834 15.4013 5.81776 15.1185C6.00805 14.8837 6.24529 14.7262 6.52118 14.6118C6.57352 14.5902 6.63613 14.5105 6.63662 14.4567C6.64445 13.7861 6.64493 13.1159 6.64053 12.4453C6.6376 12.0006 6.42775 11.668 6.06577 11.419C5.13783 10.7802 4.36299 9.98918 3.75497 9.04167C3.54511 8.71491 3.3744 8.36271 3.17824 8.02666C3.1396 7.96062 3.07552 7.88578 3.00801 7.86426C1.61195 7.4245 0.785751 6.4315 0.323982 5.09364C0.0984787 4.44501 0.00945123 3.76802 0.00015715 3.08123C-0.0101153 2.30004 0.483938 1.79914 1.271 1.79718C1.62173 1.7962 1.97197 1.79718 2.34324 1.79718C2.34324 1.60739 2.34227 1.42737 2.34324 1.24736C2.34765 0.632487 2.6387 0.235287 3.22569 0.0406004C3.24624 0.0337522 3.26238 0.0141857 3.28097 0C6.55004 0 9.81862 0 13.0877 0L13.0872 0ZM10.1508 16.0895C10.1239 15.6429 9.85286 15.3641 9.41066 15.3147C9.12548 15.2829 8.98704 15.1513 8.98606 14.8808C8.98264 14.0345 8.97237 13.1883 8.99242 12.343C9.00661 11.7541 9.26195 11.2674 9.73399 10.9029C10.0118 10.6887 10.3029 10.4886 10.5651 10.2567C12.263 8.75502 13.1792 6.86686 13.2701 4.60399C13.3151 3.48626 13.2819 2.36559 13.2809 1.24638C13.2809 0.929897 13.1302 0.78217 12.8103 0.78217C9.73791 0.781192 6.66548 0.781192 3.59354 0.78217C3.27363 0.78217 3.12492 0.929897 3.12492 1.24883C3.12395 2.36803 3.1078 3.48821 3.13324 4.60693C3.16063 5.81369 3.48201 6.95148 4.05042 8.01785C4.65551 9.15271 5.49443 10.0792 6.55004 10.8105C7.14877 11.2253 7.42613 11.7991 7.4227 12.5211C7.41928 13.2759 7.42221 14.0311 7.42172 14.7859C7.42172 15.1626 7.32487 15.277 6.95555 15.3162C6.51677 15.3626 6.20469 15.7936 6.27268 16.0905H10.1503L10.1508 16.0895ZM4.6878 19.2074H11.72C11.72 18.5979 11.72 17.9997 11.72 17.4019C11.72 17.0042 11.5909 16.8756 11.1927 16.8751C9.20032 16.8751 7.20747 16.8751 5.21511 16.8751C5.17598 16.8751 5.13685 16.8736 5.09771 16.8761C4.8502 16.8922 4.69318 17.037 4.69024 17.2845C4.68339 17.9214 4.6878 18.5588 4.6878 19.2074ZM13.6982 6.8918C13.7578 6.86343 13.8268 6.84631 13.8762 6.80473C14.1433 6.58021 14.4441 6.38063 14.6628 6.11501C15.4151 5.20126 15.6083 4.10309 15.6215 2.95845C15.624 2.76474 15.4909 2.60332 15.3046 2.595C14.8927 2.57691 14.4798 2.58913 14.0636 2.58913C14.0548 4.03069 14.1575 5.46687 13.6982 6.8918ZM2.34569 2.57886C1.94604 2.57886 1.56939 2.57299 1.19322 2.58082C0.937392 2.5862 0.781838 2.74909 0.783306 3.00443C0.784284 3.21233 0.795535 3.4212 0.816079 3.62811C0.894835 4.42643 1.09539 5.18658 1.54738 5.86261C1.83696 6.29552 2.20677 6.64233 2.70865 6.87322C2.26302 5.47274 2.34324 4.03412 2.34569 2.57837V2.57886Z" fill="#DA3D5D"/>
<path d="M6.11457 7.89499C6.1992 7.39262 6.29165 6.86775 6.37138 6.34141C6.38214 6.26853 6.35035 6.16336 6.29899 6.11151C5.95217 5.75931 5.59655 5.41543 5.23946 5.07351C5.10054 4.94045 5.02619 4.79028 5.09173 4.60342C5.15484 4.42341 5.30648 4.35933 5.48649 4.33536C5.96293 4.27128 6.4384 4.19986 6.91484 4.13431C7.03126 4.11817 7.10659 4.07659 7.16187 3.95773C7.36389 3.52286 7.58597 3.09729 7.79435 2.66487C7.87653 2.49415 7.9866 2.36502 8.18666 2.36306C8.38722 2.3611 8.5007 2.48828 8.58288 2.65851C8.79176 3.09044 9.0109 3.51748 9.21488 3.95186C9.26869 4.06632 9.33766 4.11768 9.45946 4.13383C9.93591 4.19742 10.4114 4.2703 10.8878 4.33438C11.0742 4.35982 11.2283 4.42341 11.2914 4.61712C11.3515 4.80202 11.2733 4.94339 11.1427 5.06959C10.8012 5.39978 10.4666 5.73681 10.1198 6.06161C10.0132 6.16189 9.97748 6.2563 10.0049 6.4006C10.0944 6.87264 10.1678 7.34762 10.2553 7.82015C10.2881 7.99674 10.2568 8.14691 10.1154 8.25746C9.97161 8.36948 9.81215 8.35627 9.65708 8.27507C9.20852 8.04076 8.75947 7.80792 8.31384 7.56823C8.22482 7.52029 8.15878 7.51785 8.0678 7.56725C7.62266 7.80792 7.17508 8.04419 6.72456 8.27409C6.40758 8.43601 6.09696 8.25061 6.11506 7.89548L6.11457 7.89499ZM6.34399 5.00209C6.5465 5.2183 6.72162 5.44136 6.93343 5.62137C7.18437 5.83464 7.25041 6.06846 7.16872 6.38153C7.09877 6.65008 7.07284 6.93037 7.02246 7.23413C7.34433 7.06488 7.6344 6.9196 7.91664 6.76112C8.10595 6.65497 8.27911 6.6579 8.46695 6.76356C8.74871 6.92156 9.0378 7.06586 9.3582 7.23365C9.30097 6.89661 9.26086 6.59529 9.19678 6.29935C9.14151 6.04449 9.20021 5.85225 9.39538 5.67224C9.62235 5.46288 9.82046 5.2227 10.0264 5.00062C9.73388 4.95904 9.42082 4.9067 9.10531 4.87197C8.86758 4.84556 8.71789 4.73305 8.62104 4.51244C8.49386 4.22285 8.34173 3.94403 8.18862 3.63733C8.036 3.94599 7.88583 4.2253 7.75816 4.51439C7.6613 4.73501 7.51015 4.84653 7.27193 4.87246C6.95789 4.9067 6.64629 4.95953 6.34399 5.00258V5.00209Z" fill="#DA3D5D"/>
<path d="M7.4164 18.4379C7.17623 18.4379 6.93605 18.4409 6.69538 18.437C6.42976 18.4326 6.25171 18.2721 6.2522 18.0461C6.25269 17.8206 6.43123 17.6592 6.69685 17.6572C7.18405 17.6538 7.67077 17.6528 8.15797 17.6572C8.41185 17.6597 8.5855 17.8182 8.59137 18.0378C8.59773 18.2633 8.41821 18.4311 8.15651 18.4365C7.90997 18.4414 7.66294 18.4375 7.4164 18.4375V18.4379Z" fill="#DA3D5D"/>
<path d="M10.1552 18.0554C10.1503 18.2594 9.96639 18.4384 9.76339 18.436C9.55256 18.434 9.36668 18.2384 9.37793 18.0295C9.38918 17.825 9.5775 17.6504 9.77953 17.6582C9.984 17.666 10.1606 17.8524 10.1557 18.0549L10.1552 18.0554Z" fill="#DA3D5D"/>
</svg>
