<svg width="43" height="45" viewBox="0 0 43 45" fill="none" xmlns="http://www.w3.org/2000/svg">
<path d="M15.5968 31.1685C15.704 31.3346 15.7853 31.4678 15.8725 31.5963C17.6178 34.1735 19.3619 36.7508 21.1107 39.3257C21.8696 40.444 22.0204 41.6366 21.5066 42.8822C20.6782 44.8867 18.1481 45.6362 16.3368 44.3953C15.8749 44.0783 15.4459 43.6576 15.1277 43.1968C13.1586 40.3462 11.2259 37.4708 9.28032 34.6036C9.16483 34.4339 9.04699 34.2666 8.97039 34.157C8.21383 34.4127 7.50559 34.7545 6.75964 34.8876C3.3068 35.5063 0.682416 33.0552 0.133263 30.2964C-0.349898 27.8712 0.489152 25.9009 2.51371 24.469C3.66387 23.6559 4.85174 22.8947 6.00425 22.0839C6.25408 21.9083 6.49213 21.6561 6.62647 21.3851C8.88201 16.8422 11.1199 12.2922 13.3624 7.74226C13.9033 6.64631 14.8166 6.07712 15.9998 5.93571C17.4941 5.75777 18.8422 6.25153 20.1243 6.94328C22.5048 8.22778 24.4256 10.0555 26.1143 12.1355C28.516 15.0922 30.4003 18.3364 31.3867 22.0462C31.8439 23.7643 32.082 25.5061 31.6118 27.269C31.1981 28.8199 29.9749 30.0443 28.1177 30.155C24.0556 30.3978 20.0018 30.7808 15.9444 31.1084C15.8454 31.1166 15.7476 31.1402 15.5979 31.1661L15.5968 31.1685ZM14.3311 10.8451C14.304 10.8533 14.2769 10.8616 14.2498 10.8698C14.4737 11.9587 14.6116 13.0735 14.9368 14.1306C16.2838 18.5097 18.7514 22.1994 22.0582 25.334C23.3745 26.582 24.831 27.6579 26.5928 28.2094C27.0418 28.3497 27.5568 28.4522 28.0081 28.3744C29.0027 28.2059 29.5695 27.4929 29.8429 26.5584C30.2047 25.3234 30.068 24.0813 29.804 22.8522C29.3173 20.5873 28.3098 18.5391 27.1054 16.5817C25.4851 13.9479 23.5736 11.5604 21.1001 9.66665C19.9747 8.80521 18.7774 8.07105 17.375 7.7458C15.856 7.39344 14.7601 8.09579 14.4643 9.62069C14.3865 10.0225 14.3735 10.4362 14.3311 10.8451V10.8451ZM12.7614 12.8414C11.2377 15.9513 9.71988 19.0411 8.2209 22.1404C8.16198 22.263 8.23386 22.5022 8.32343 22.6342C9.80708 24.8391 11.3096 27.031 12.7862 29.2394C12.9794 29.5281 13.1692 29.6059 13.4968 29.5788C16.47 29.3337 19.4432 29.1039 22.4176 28.8682C22.7982 28.8375 23.1777 28.7963 23.5442 28.7609C18.035 24.7354 14.4384 19.463 12.7614 12.8402V12.8414ZM6.88101 23.6253C6.77142 23.6913 6.68068 23.7396 6.59583 23.7973C5.49281 24.5504 4.37094 25.2786 3.29266 26.0647C1.64756 27.2655 1.2681 29.4986 2.36994 31.2545C3.55663 33.1459 5.71672 33.8612 7.53505 32.836C8.87258 32.083 10.1088 31.152 11.4062 30.2894C9.88132 28.0433 8.38235 25.836 6.87984 23.6241L6.88101 23.6253ZM10.3492 33.0988C10.7463 33.6821 11.1163 34.2277 11.4864 34.7733C13.1998 37.2999 14.9121 39.8265 16.6279 42.3519C17.1429 43.1096 17.8935 43.4219 18.6678 43.218C19.9676 42.8763 20.4625 41.4716 19.6777 40.3085C17.7403 37.4378 15.7924 34.573 13.8491 31.707C13.5616 31.2828 13.1692 31.1873 12.7485 31.469C11.9554 31.9969 11.1717 32.5402 10.3492 33.1011V33.0988Z" fill="white"/>
<path d="M40.3276 7.40534C40.1132 7.70467 39.9977 8.00163 39.782 8.14658C37.7952 9.47822 35.7954 10.7886 33.7896 12.092C33.3524 12.376 32.8045 12.2487 32.5405 11.8516C32.2671 11.4415 32.3743 10.9242 32.828 10.6248C34.8114 9.3156 36.8017 8.01577 38.7886 6.71124C39.0985 6.50737 39.4438 6.44727 39.7372 6.66528C39.9623 6.83262 40.1026 7.11309 40.3288 7.40534H40.3276Z" fill="white"/>
<path d="M34.6099 16.2246C35.6634 16.412 36.6156 16.5793 37.5678 16.7502C38.9666 17.0012 40.3654 17.2581 41.7654 17.5032C42.3322 17.6022 42.6893 17.9876 42.6268 18.4719C42.5585 19.0022 42.0729 19.3345 41.4873 19.2308C39.8563 18.9409 38.2277 18.6439 36.5979 18.3493C35.9344 18.2291 35.2674 18.1278 34.6087 17.9876C33.8733 17.8308 33.5776 17.0696 34.056 16.5605C34.2127 16.3931 34.4614 16.3118 34.6111 16.2246H34.6099Z" fill="white"/>
<path d="M28.0396 7.32392C28.2152 5.58572 28.392 3.8487 28.5688 2.1105C28.6124 1.68744 28.6548 1.2632 28.7019 0.840136C28.7644 0.279199 29.158 -0.0531217 29.6824 0.00697881C30.1726 0.063544 30.4837 0.479534 30.4295 1.01808C30.2103 3.14988 29.99 5.28168 29.7661 7.4123C29.7083 7.96145 29.3418 8.28435 28.8327 8.25371C28.3566 8.22542 28.0232 7.83418 28.0396 7.32156V7.32392Z" fill="white"/>
<path d="M20.6192 14.4098C22.685 14.4074 24.4716 15.6554 25.1409 17.5716C25.8032 19.4641 25.1833 21.59 23.5865 22.8262C23.378 22.9877 23.1034 23.1102 22.8441 23.1503C22.4741 23.2057 22.1924 22.99 22.0463 22.6506C21.9014 22.3148 21.9485 21.986 22.2054 21.7126C22.3056 21.6065 22.4305 21.5252 22.5436 21.4321C23.7386 20.4505 23.9955 18.7429 23.1399 17.4678C22.2749 16.1798 20.5697 15.7721 19.2098 16.5298C19.1073 16.5864 19.0107 16.6547 18.9058 16.7054C18.4709 16.9175 17.9948 16.7844 17.7544 16.3872C17.5164 15.9948 17.6248 15.5046 18.0125 15.2182C18.6654 14.7362 19.7107 14.4122 20.6181 14.411L20.6192 14.4098Z" fill="white"/>
</svg>
