<svg width="12" height="15" viewBox="0 0 12 15" fill="none" xmlns="http://www.w3.org/2000/svg">
<path d="M0 12.4319C0 10.3909 2.76381 9.88253 5.9985 9.88253C9.25194 9.88253 11.997 10.4074 11.997 12.4499C11.997 14.4924 9.23394 15 5.9985 15C2.74581 15 0 14.4751 0 12.4319ZM2.02899 3.97101C2.0287 3.18585 2.26125 2.41824 2.69725 1.76526C3.13324 1.11228 3.75309 0.603266 4.47839 0.302593C5.2037 0.00192054 6.00188 -0.0769029 6.77199 0.076092C7.5421 0.229087 8.24954 0.607027 8.80483 1.16211C9.36013 1.7172 9.73834 2.42449 9.89162 3.19454C10.0449 3.96459 9.96639 4.76281 9.66599 5.48823C9.36559 6.21365 8.85681 6.83369 8.20399 7.26993C7.55118 7.70617 6.78366 7.93902 5.9985 7.93902C5.47679 7.941 4.95984 7.83973 4.47744 7.64103C3.99504 7.44234 3.55673 7.15016 3.18775 6.78132C2.81877 6.41248 2.52642 5.97428 2.32755 5.49195C2.12868 5.00963 2.02721 4.49272 2.02899 3.97101Z" fill="#C9C9C9"/>
</svg>
