<svg width="17" height="20" viewBox="0 0 17 20" fill="none" xmlns="http://www.w3.org/2000/svg">
<path d="M8.79086 0C8.85426 0.0215223 8.91726 0.0438271 8.98065 0.0645668C9.46392 0.222266 9.78402 0.641754 9.82041 1.17394C9.82902 1.29681 9.82158 1.42086 9.82158 1.56525C9.90415 1.56525 9.9738 1.56525 10.0438 1.56525C10.9556 1.56525 11.867 1.56447 12.7787 1.56525C13.4103 1.56604 13.8286 1.96753 13.8095 2.60263C13.8012 2.87655 13.8736 3.02172 14.1319 3.11994C14.3471 3.20173 14.5385 3.34691 14.7756 3.48465C14.8797 3.3743 14.9944 3.24399 15.1188 3.12347C15.5289 2.7255 16.1127 2.71924 16.4994 3.10429C16.8836 3.48739 16.8813 4.08336 16.4814 4.48485C15.3285 5.64274 14.1726 6.79829 13.0147 7.95149C12.5964 8.36785 12.0235 8.36785 11.6056 7.95462C11.0687 7.42361 10.5342 6.88986 10.0035 6.35259C9.60401 5.94797 9.59893 5.35669 9.9832 4.97203C10.3675 4.58737 10.9572 4.59128 11.3649 4.98925C11.6764 5.29369 11.9789 5.60753 12.2751 5.90649C12.9478 5.22834 13.6103 4.56076 14.2826 3.8834C13.9832 3.65409 13.6079 3.48817 13.2006 3.39856C11.2569 2.97007 9.45962 4.33654 9.34848 6.32206C9.24635 8.14519 10.846 9.71632 12.6703 9.58562C14.3017 9.46862 15.5156 8.2532 15.6252 6.62611C15.6404 6.3972 15.7516 6.27628 15.9374 6.28528C16.1221 6.29428 16.2297 6.42655 16.2102 6.65859C16.0853 8.15576 15.3356 9.22444 13.9812 9.86619C13.8556 9.92567 13.8145 9.98554 13.8145 10.1217C13.8185 13.0577 13.8181 15.9938 13.8173 18.9298C13.8173 19.4949 13.5262 19.8815 13.0257 19.982C12.9435 19.9985 12.8574 19.9993 12.7733 19.9993C8.86013 20 4.9466 20.0004 1.03346 19.9993C0.401488 19.9993 0 19.595 0 18.9599C0 13.5117 0 8.06302 0 2.61398C0 1.96713 0.399531 1.56643 1.04481 1.56565C1.65017 1.56486 2.25592 1.56643 2.86129 1.56486C3.00333 1.56447 3.13716 1.60243 3.17355 1.74409C3.19742 1.83722 3.18099 1.97222 3.12542 2.04461C3.07416 2.11114 2.94659 2.14596 2.85229 2.14753C2.25984 2.15653 1.66739 2.15144 1.07494 2.15223C0.718452 2.15262 0.587362 2.28097 0.587362 2.6308C0.587362 8.06654 0.587362 13.5027 0.587362 18.9384C0.587362 19.28 0.719235 19.4139 1.05733 19.4139C4.95755 19.4142 8.85778 19.4142 12.758 19.4139C13.0883 19.4139 13.2288 19.2816 13.2291 18.9572C13.2307 16.0407 13.2299 13.1243 13.2299 10.2078C13.2299 10.1835 13.2272 10.1589 13.2248 10.1186C11.8689 10.3315 10.6993 9.98046 9.75858 8.98378C9.05657 8.23989 8.72669 7.33635 8.76425 6.31502C8.84721 4.05714 10.9349 2.34397 13.2037 2.7795C13.2976 2.3608 13.1376 2.15262 12.7212 2.15223C11.8228 2.15223 10.9239 2.15223 10.0255 2.15223H9.82745C9.82745 2.29779 9.82941 2.43201 9.82745 2.56584C9.81963 3.02994 9.54571 3.31208 9.08591 3.31286C7.63375 3.31599 6.18197 3.3156 4.72981 3.31286C4.27197 3.31208 3.99023 3.02368 3.98827 2.56624C3.98631 2.14949 3.9871 1.73313 3.98827 1.31638C3.98983 0.64058 4.32128 0.211309 4.98025 0.0289572C4.98964 0.026218 4.99473 0.0105655 5.00216 0.000782627C6.26532 0.000782627 7.52888 0.000782627 8.79204 0.000782627L8.79086 0ZM6.91138 2.72433C7.62083 2.72433 8.33068 2.72198 9.04013 2.72628C9.17748 2.72707 9.24322 2.68872 9.24087 2.53923C9.23461 2.10957 9.24518 1.67991 9.23657 1.25064C9.22835 0.842107 8.96304 0.587362 8.55216 0.586579C7.45844 0.584231 6.36472 0.584231 5.27139 0.586579C4.84329 0.587362 4.5772 0.853455 4.57446 1.27999C4.57172 1.68343 4.5815 2.08727 4.57015 2.49032C4.56507 2.66876 4.61907 2.7302 4.8022 2.72785C5.505 2.71924 6.20819 2.72433 6.91138 2.72433ZM12.3092 7.70536C12.4172 7.64275 12.526 7.60636 12.5991 7.53396C13.7527 6.3878 14.902 5.23695 16.0517 4.08688C16.0791 4.05949 16.1065 4.03092 16.128 3.99883C16.2297 3.84701 16.2082 3.64039 16.0803 3.51674C15.9476 3.38839 15.7496 3.37273 15.5985 3.48465C15.5414 3.52691 15.4925 3.58052 15.442 3.631C14.5033 4.56898 13.5649 5.50735 12.6261 6.44572C12.36 6.71181 12.2583 6.71299 11.9973 6.45198C11.6521 6.10723 11.309 5.76014 10.9615 5.41813C10.7791 5.23891 10.5674 5.22912 10.4078 5.38213C10.2415 5.54139 10.2454 5.76444 10.4301 5.95032C10.9568 6.48133 11.4851 7.01117 12.0192 7.53514C12.0928 7.60714 12.2012 7.64353 12.3096 7.70575L12.3092 7.70536Z" fill="#DA3D5D"/>
<path d="M3.68102 11.8987C3.68102 12.558 3.14687 13.0894 2.48907 13.0844C1.84106 13.0793 1.31709 12.5487 1.31787 11.8971C1.31826 11.246 1.84145 10.7165 2.49064 10.7103C3.14492 10.704 3.68141 11.2393 3.68102 11.8983V11.8987ZM1.90523 11.8909C1.9021 12.2192 2.16194 12.4903 2.48673 12.4974C2.81778 12.5048 3.09404 12.2309 3.09326 11.8959C3.09248 11.5711 2.82365 11.2992 2.5016 11.2976C2.17915 11.2961 1.90797 11.5653 1.90484 11.8909H1.90523Z" fill="#DA3D5D"/>
<path d="M1.31787 8.29552C1.31787 7.64359 1.84145 7.11453 2.49025 7.11062C3.15 7.1067 3.68141 7.63576 3.68101 8.29591C3.68101 8.95449 3.14218 9.49137 2.48946 9.48315C1.83988 9.47533 1.31826 8.94627 1.31826 8.29512L1.31787 8.29552ZM3.09326 8.28925C3.09052 7.96251 2.82247 7.69641 2.49768 7.6972C2.17172 7.69798 1.9068 7.96446 1.90523 8.29238C1.90367 8.62696 2.18228 8.90479 2.5106 8.89618C2.83539 8.88796 3.096 8.61639 3.09326 8.28925Z" fill="#DA3D5D"/>
<path d="M3.68063 15.4557C3.68298 16.1088 3.16292 16.6382 2.51373 16.6429C1.85046 16.648 1.32023 16.1256 1.31788 15.4647C1.31553 14.8045 1.8485 14.2704 2.50434 14.2747C3.15627 14.279 3.67828 14.8033 3.68063 15.4553V15.4557ZM3.09327 15.4557C3.09131 15.1281 2.82561 14.8628 2.49965 14.8624C2.16703 14.8624 1.89937 15.1375 1.90524 15.4745C1.91111 15.8016 2.17877 16.0599 2.50826 16.0559C2.83578 16.052 3.09483 15.7863 3.09288 15.4557H3.09327Z" fill="#DA3D5D"/>
<path d="M6.81485 11.5143C6.05374 11.5143 5.29225 11.5151 4.53114 11.5131C4.46071 11.5131 4.38675 11.5096 4.31983 11.4892C4.17622 11.4454 4.1097 11.3347 4.123 11.1907C4.13631 11.0474 4.21887 10.9508 4.36992 10.9324C4.42784 10.9254 4.48692 10.9273 4.54523 10.9273C6.06118 10.9273 7.57752 10.9273 9.09347 10.9273C9.15178 10.9273 9.21126 10.925 9.26878 10.9332C9.40887 10.9527 9.48987 11.0396 9.50865 11.1766C9.52861 11.3225 9.46717 11.4345 9.32826 11.4845C9.25743 11.51 9.17565 11.5131 9.09856 11.5131C8.33745 11.5151 7.57595 11.5143 6.81485 11.5143Z" fill="#DA3D5D"/>
<path d="M6.81727 15.849C7.56546 15.849 8.31366 15.849 9.06224 15.849C9.1272 15.849 9.19294 15.8475 9.25711 15.8545C9.40659 15.8713 9.49386 15.9609 9.50951 16.1069C9.52634 16.2619 9.45473 16.3738 9.3029 16.4164C9.22972 16.4372 9.14911 16.4376 9.07202 16.4376C7.56899 16.4387 6.06595 16.4383 4.56291 16.4383C4.51752 16.4383 4.47174 16.4407 4.42635 16.4372C4.23695 16.4211 4.11095 16.2924 4.11956 16.1265C4.12816 15.9649 4.24791 15.8522 4.43613 15.8514C5.2301 15.8482 6.02369 15.8498 6.81766 15.8498V15.849H6.81727Z" fill="#DA3D5D"/>
<path d="M6.21371 7.9528C5.65492 7.9528 5.09573 7.95359 4.53693 7.95202C4.46611 7.95202 4.37258 7.96689 4.32915 7.92933C4.24423 7.85576 4.14758 7.75754 4.1284 7.6558C4.10297 7.5204 4.19727 7.40966 4.34519 7.37836C4.4078 7.36505 4.47432 7.36544 4.53889 7.36544C5.64396 7.36466 6.74864 7.36505 7.85371 7.36544C7.90575 7.36544 7.9578 7.36466 8.00945 7.37053C8.17537 7.38931 8.26733 7.48753 8.27985 7.65071C8.29198 7.80567 8.17654 7.92815 8.0071 7.94928C7.94958 7.95633 7.89049 7.9532 7.83179 7.9532C7.29217 7.9532 6.75294 7.9532 6.21332 7.9532L6.21371 7.9528Z" fill="#DA3D5D"/>
<path d="M6.199 9.31032C5.61398 9.31032 5.02897 9.31267 4.44434 9.30915C4.24556 9.30798 4.12112 9.19136 4.11916 9.02271C4.11721 8.85562 4.24282 8.73744 4.4373 8.72374C4.47604 8.72101 4.51517 8.72296 4.5543 8.72296C5.65272 8.72296 6.75114 8.72296 7.84956 8.72296C7.89495 8.72296 7.94073 8.72022 7.98612 8.72492C8.16848 8.74331 8.28548 8.86305 8.28196 9.02506C8.27844 9.18589 8.15713 9.30719 7.97399 9.30837C7.38272 9.31267 6.79105 9.30993 6.19978 9.30993L6.199 9.31032Z" fill="#DA3D5D"/>
<path d="M6.20566 14.4894C6.77776 14.4894 7.34986 14.4886 7.92157 14.4894C8.14658 14.4898 8.28236 14.6021 8.2808 14.7813C8.27923 14.9609 8.14345 15.0744 7.91883 15.0748C6.77502 15.0759 5.63082 15.0759 4.48662 15.0748C4.25966 15.0748 4.12348 14.966 4.11761 14.7879C4.11174 14.6005 4.24792 14.4898 4.48936 14.4894C5.06146 14.4886 5.63356 14.4894 6.20527 14.4894H6.20566Z" fill="#DA3D5D"/>
<path d="M5.62472 12.2804C5.96947 12.2804 6.31421 12.2804 6.65857 12.2804C6.71061 12.2804 6.76305 12.2788 6.81431 12.2843C6.99979 12.3038 7.11327 12.4205 7.11014 12.5832C7.10701 12.746 6.99158 12.8564 6.80375 12.8728C6.75209 12.8775 6.69966 12.8752 6.64761 12.8752C5.95812 12.8752 5.26901 12.8752 4.57952 12.8752C4.54039 12.8752 4.50126 12.8767 4.46252 12.8752C4.24964 12.8658 4.11973 12.7554 4.11699 12.5829C4.11425 12.4103 4.24416 12.2909 4.45391 12.2823C4.59008 12.2768 4.72704 12.2811 4.86361 12.2811C5.11718 12.2811 5.37075 12.2811 5.62433 12.2811L5.62472 12.2804Z" fill="#DA3D5D"/>
<path d="M2.85235 4.3358C3.16383 4.3358 3.47571 4.33423 3.7872 4.33619C4.01338 4.33736 4.14407 4.4481 4.1429 4.63163C4.14173 4.81281 4.01024 4.92199 3.78289 4.92238C3.16618 4.92394 2.54947 4.92394 1.93276 4.92238C1.71832 4.92159 1.59232 4.81359 1.58801 4.63672C1.58332 4.45202 1.71323 4.33775 1.93746 4.33619C2.24268 4.33423 2.54791 4.3358 2.85274 4.3358H2.85235Z" fill="#DA3D5D"/>
</svg>
