<svg width="38" height="45" viewBox="0 0 38 45" fill="none" xmlns="http://www.w3.org/2000/svg">
<path d="M19.7794 0C19.9221 0.0484251 20.0638 0.0986111 20.2065 0.145275C21.2938 0.500099 22.014 1.44395 22.0959 2.64137C22.1153 2.91783 22.0986 3.19694 22.0986 3.52182C22.2843 3.52182 22.4411 3.52182 22.5987 3.52182C24.6501 3.52182 26.7007 3.52006 28.7522 3.52182C30.1732 3.52358 31.1144 4.42693 31.0713 5.85591C31.0528 6.47223 31.2157 6.79888 31.7968 7.01987C32.281 7.20389 32.7116 7.53054 33.2451 7.84046C33.4793 7.59217 33.7373 7.29898 34.0173 7.0278C34.94 6.13237 36.2537 6.11829 37.1235 6.98466C37.9881 7.84662 37.9829 9.18756 37.083 10.0909C34.4892 12.6962 31.8883 15.2962 29.2831 17.8909C28.3419 18.8277 27.0529 18.8277 26.1126 17.8979C24.9046 16.7031 23.7019 15.5022 22.508 14.2933C21.609 13.3829 21.5976 12.0526 22.4622 11.1871C23.3268 10.3216 24.6536 10.3304 25.5711 11.2258C26.2719 11.9108 26.9525 12.6169 27.619 13.2896C29.1325 11.7638 30.6231 10.2617 32.1358 8.73764C31.4622 8.2217 30.6179 7.84838 29.7013 7.64676C25.3281 6.68266 21.2841 9.75721 21.0341 14.2246C20.8043 18.3267 24.4036 21.8617 28.5083 21.5676C32.1789 21.3044 34.9101 18.5697 35.1566 14.9088C35.1909 14.3937 35.441 14.1216 35.8592 14.1419C36.2748 14.1621 36.5169 14.4597 36.4729 14.9818C36.192 18.3505 34.5051 20.755 31.4578 22.1989C31.1752 22.3328 31.0827 22.4675 31.0827 22.7739C31.0915 29.3799 31.0907 35.986 31.0889 42.5921C31.0889 43.8634 30.4338 44.7333 29.3077 44.9596C29.1228 44.9966 28.9291 44.9983 28.7398 44.9983C19.9353 45.0001 11.1298 45.001 2.32528 44.9983C0.903348 44.9983 0 44.0888 0 42.6598C0 30.4013 0 18.1418 0 5.88145C0 4.42605 0.898945 3.52446 2.35082 3.5227C3.71288 3.52094 5.07583 3.52446 6.43789 3.52094C6.7575 3.52006 7.05861 3.60547 7.1405 3.92419C7.1942 4.13374 7.15723 4.4375 7.0322 4.60038C6.91686 4.75006 6.62983 4.82842 6.41764 4.83194C5.08463 4.85219 3.75162 4.84075 2.41861 4.84251C1.61652 4.84339 1.32156 5.13218 1.32156 5.9193C1.32156 18.1497 1.32156 30.381 1.32156 42.6114C1.32156 43.3801 1.61828 43.6812 2.37899 43.6812C11.1545 43.6821 19.93 43.6821 28.7055 43.6812C29.4486 43.6812 29.7647 43.3836 29.7656 42.6537C29.7691 36.0916 29.7673 29.5296 29.7673 22.9676C29.7673 22.913 29.7612 22.8575 29.7559 22.7668C26.7051 23.2458 24.0734 22.456 21.9568 20.2135C20.3773 18.5398 19.635 16.5068 19.7196 14.2088C19.9062 9.12857 24.6035 5.27393 29.7083 6.25388C29.9197 5.31179 29.5595 4.84339 28.6227 4.84251C26.6012 4.84251 24.5788 4.84251 22.5573 4.84251H22.1118C22.1118 5.17004 22.1162 5.47203 22.1118 5.77315C22.0942 6.81737 21.4778 7.45218 20.4433 7.45394C17.1759 7.46098 13.9094 7.4601 10.6421 7.45394C9.61194 7.45218 8.97801 6.80328 8.97361 5.77403C8.9692 4.83634 8.97096 3.89954 8.97361 2.96185C8.97713 1.44131 9.72287 0.475446 11.2056 0.0651537C11.2267 0.0589905 11.2381 0.0237723 11.2549 0.00176091C14.097 0.00176091 16.94 0.00176091 19.7821 0.00176091L19.7794 0ZM15.5506 6.12973C17.1469 6.12973 18.744 6.12445 20.3403 6.13414C20.6493 6.1359 20.7972 6.04961 20.792 5.71328C20.7779 4.74654 20.8016 3.7798 20.7823 2.81394C20.7638 1.89474 20.1668 1.32156 19.2424 1.3198C16.7815 1.31452 14.3206 1.31452 11.8606 1.3198C10.8974 1.32156 10.2987 1.92027 10.2925 2.87997C10.2864 3.78772 10.3084 4.69635 10.2828 5.60322C10.2714 6.00471 10.3929 6.14294 10.805 6.13766C12.3863 6.11829 13.9684 6.12973 15.5506 6.12973V6.12973ZM27.6956 17.3371C27.9386 17.1962 28.1834 17.1143 28.348 16.9514C30.9436 14.3726 33.5295 11.7831 36.1163 9.19548C36.1779 9.13385 36.2396 9.06958 36.288 8.99738C36.5169 8.65576 36.4685 8.19088 36.1806 7.91266C35.8821 7.62387 35.4366 7.58865 35.0967 7.84046C34.9682 7.93555 34.8581 8.05617 34.7445 8.16975C32.6323 10.2802 30.521 12.3915 28.4088 14.5029C27.8101 15.1016 27.5812 15.1042 26.9939 14.517C26.2173 13.7413 25.4452 12.9603 24.6633 12.1908C24.253 11.7875 23.7767 11.7655 23.4175 12.1098C23.0433 12.4681 23.0521 12.97 23.4677 13.3882C24.6528 14.583 25.8414 15.7751 27.0432 16.9541C27.2087 17.1161 27.4526 17.1979 27.6965 17.3379L27.6956 17.3371Z" fill="white"/>
<path d="M8.28289 26.7711C8.28289 28.2547 7.08107 29.4503 5.60103 29.4389C4.14299 29.4274 2.96406 28.2335 2.96582 26.7676C2.9667 25.3025 4.14387 24.1113 5.60455 24.0972C7.07667 24.0831 8.28377 25.2875 8.28289 26.7702V26.7711ZM4.28739 26.7535C4.28034 27.4922 4.86497 28.1024 5.59574 28.1182C6.34061 28.1349 6.96221 27.5186 6.96045 26.7649C6.95869 26.0342 6.35382 25.4223 5.6292 25.4187C4.90371 25.4152 4.29355 26.021 4.28651 26.7535H4.28739Z" fill="white"/>
<path d="M2.96582 18.6648C2.96582 17.198 4.14387 16.0076 5.60367 15.9988C7.08811 15.99 8.28377 17.1804 8.28289 18.6657C8.28289 20.1475 7.07051 21.3555 5.60191 21.337C4.14035 21.3194 2.9667 20.129 2.9667 18.664L2.96582 18.6648ZM6.96045 18.6508C6.95429 17.9156 6.35117 17.3169 5.62039 17.3186C4.88698 17.3204 4.29091 17.92 4.28738 18.6578C4.28386 19.4106 4.91075 20.0357 5.64945 20.0163C6.38023 19.9979 6.96661 19.3868 6.96045 18.6508V18.6508Z" fill="white"/>
<path d="M8.28203 34.7745C8.28731 36.2439 7.11719 37.4352 5.65651 37.4458C4.16414 37.4572 2.97112 36.2818 2.96584 34.7947C2.96055 33.3094 4.15974 32.1076 5.63538 32.1172C7.10222 32.1269 8.27675 33.3067 8.28203 34.7736V34.7745ZM6.96047 34.7745C6.95606 34.0375 6.35823 33.4406 5.62481 33.4397C4.87643 33.4397 4.27419 34.0587 4.2874 34.8167C4.30061 35.5528 4.90284 36.1339 5.64418 36.1251C6.38113 36.1163 6.96399 35.5184 6.95959 34.7745H6.96047Z" fill="white"/>
<path d="M15.3329 25.9074C13.6204 25.9074 11.907 25.9092 10.1945 25.9048C10.036 25.9048 9.86963 25.8969 9.71908 25.8511C9.39595 25.7525 9.24627 25.5033 9.27621 25.1793C9.30614 24.8571 9.49192 24.6396 9.83177 24.5982C9.96208 24.5824 10.095 24.5868 10.2262 24.5868C13.6371 24.5868 17.0489 24.5868 20.4598 24.5868C20.5909 24.5868 20.7248 24.5815 20.8542 24.6C21.1694 24.644 21.3517 24.8394 21.3939 25.1476C21.4388 25.476 21.3006 25.7278 20.988 25.8405C20.8287 25.8978 20.6447 25.9048 20.4712 25.9048C18.7587 25.9092 17.0453 25.9074 15.3329 25.9074V25.9074Z" fill="white"/>
<path d="M15.3384 35.6602C17.0218 35.6602 18.7052 35.6602 20.3896 35.6602C20.5357 35.6602 20.6836 35.6567 20.828 35.6726C21.1644 35.7104 21.3607 35.9121 21.3959 36.2405C21.4338 36.5891 21.2726 36.8409 20.931 36.9369C20.7664 36.9836 20.585 36.9845 20.4116 36.9845C17.0297 36.9871 13.6479 36.9862 10.2661 36.9862C10.1639 36.9862 10.0609 36.9915 9.95879 36.9836C9.53265 36.9475 9.24914 36.6578 9.26851 36.2845C9.28788 35.9209 9.5573 35.6673 9.9808 35.6655C11.7672 35.6585 13.5528 35.662 15.3393 35.662V35.6602H15.3384Z" fill="white"/>
<path d="M13.9805 17.8935C12.7233 17.8935 11.4651 17.8953 10.2078 17.8917C10.0484 17.8917 9.83801 17.9252 9.74027 17.8407C9.54922 17.6752 9.33174 17.4542 9.2886 17.2252C9.23137 16.9206 9.44356 16.6714 9.77637 16.601C9.91725 16.5711 10.0669 16.5719 10.2122 16.5719C12.6986 16.5702 15.1841 16.5711 17.6705 16.5719C17.7876 16.5719 17.9047 16.5702 18.021 16.5834C18.3943 16.6256 18.6012 16.8466 18.6294 17.2138C18.6566 17.5625 18.3969 17.838 18.0157 17.8856C17.8863 17.9014 17.7533 17.8944 17.6212 17.8944C16.4071 17.8944 15.1938 17.8944 13.9797 17.8944L13.9805 17.8935Z" fill="white"/>
<path d="M13.9473 20.9479C12.631 20.9479 11.3147 20.9531 9.99929 20.9452C9.55202 20.9426 9.27203 20.6802 9.26763 20.3007C9.26323 19.9248 9.54585 19.6589 9.98344 19.6281C10.0706 19.6219 10.1586 19.6263 10.2467 19.6263C12.7181 19.6263 15.1896 19.6263 17.661 19.6263C17.7631 19.6263 17.8662 19.6201 17.9683 19.6307C18.3786 19.6721 18.6418 19.9415 18.6339 20.306C18.626 20.6679 18.3531 20.9408 17.941 20.9435C16.6106 20.9531 15.2794 20.947 13.949 20.947L13.9473 20.9479Z" fill="white"/>
<path d="M13.9632 32.6006C15.2504 32.6006 16.5376 32.5989 17.824 32.6006C18.3302 32.6015 18.6357 32.8542 18.6322 33.2575C18.6287 33.6616 18.3232 33.9169 17.8178 33.9178C15.2442 33.9204 12.6698 33.9204 10.0953 33.9178C9.58466 33.9178 9.27827 33.673 9.26506 33.2724C9.25185 32.8507 9.55825 32.6015 10.1015 32.6006C11.3887 32.5989 12.6759 32.6006 13.9623 32.6006H13.9632Z" fill="white"/>
<path d="M12.6552 27.6314C13.4309 27.6314 14.2066 27.6314 14.9814 27.6314C15.0985 27.6314 15.2164 27.6278 15.3318 27.6402C15.7491 27.6842 16.0044 27.9466 15.9974 28.3128C15.9904 28.6791 15.7306 28.9274 15.308 28.9644C15.1918 28.9749 15.0738 28.9697 14.9567 28.9697C13.4053 28.9697 11.8549 28.9697 10.3035 28.9697C10.2154 28.9697 10.1274 28.9732 10.0402 28.9697C9.56127 28.9485 9.26895 28.7002 9.26279 28.312C9.25663 27.9237 9.54894 27.6551 10.0209 27.6358C10.3273 27.6234 10.6354 27.6331 10.9427 27.6331C11.5132 27.6331 12.0838 27.6331 12.6543 27.6331L12.6552 27.6314Z" fill="white"/>
<path d="M6.41729 9.75548C7.11814 9.75548 7.81986 9.75196 8.5207 9.75636C9.02961 9.75901 9.32368 10.0082 9.32104 10.4211C9.3184 10.8288 9.02256 11.0744 8.51102 11.0753C7.12342 11.0788 5.73582 11.0788 4.34822 11.0753C3.86573 11.0735 3.58223 10.8305 3.57254 10.4326C3.56198 10.017 3.85429 9.75989 4.35879 9.75636C5.04554 9.75196 5.7323 9.75548 6.41818 9.75548H6.41729Z" fill="white"/>
</svg>
