<svg width="46" height="45" viewBox="0 0 46 45" fill="none" xmlns="http://www.w3.org/2000/svg">
<path d="M45.0023 38.5828C44.9671 38.6404 44.9225 38.6944 44.8978 38.7566C44.4622 39.8732 43.672 40.4215 42.478 40.4215C39.4616 40.4239 36.4441 40.4215 33.4278 40.4215C33.2681 40.4215 33.1096 40.4215 32.9006 40.4215C32.9006 40.8102 32.903 41.1718 32.9006 41.5334C32.8842 43.6069 31.4929 44.9971 29.4205 44.9983C24.8074 45.0006 20.1943 45.0006 15.5812 44.9983C13.5135 44.9971 12.1222 43.601 12.1069 41.5275C12.1046 41.1788 12.1069 40.8289 12.1069 40.4227C11.9261 40.4227 11.7711 40.4227 11.6162 40.4227C8.61393 40.4227 5.6117 40.4227 2.60947 40.4227C0.638122 40.4227 -0.437374 38.8928 0.224831 37.0365C1.01736 34.8139 2.63648 33.1666 5.01995 32.1933C3.69788 31.0015 3.11082 29.5468 3.47128 27.795C3.70141 26.6749 4.31782 25.7837 5.2536 25.1239C7.08405 23.8324 9.59432 24.1599 11.0878 25.8636C12.4204 27.3841 12.7656 30.1644 10.5101 32.1862C11.8827 32.7158 13.0368 33.5259 13.9879 34.6859C15.364 32.8167 17.1263 31.5287 19.363 30.7855C17.5654 29.4306 16.6895 27.6706 16.9044 25.4585C17.0559 23.9016 17.8003 22.6301 19.0213 21.652C21.3966 19.7499 24.8849 20.128 26.8527 22.5009C28.8124 24.8644 28.6128 28.6134 25.7596 30.6998C26.7072 31.2258 27.7392 31.6802 28.6315 32.3283C29.5192 32.9717 30.2671 33.8089 31.0995 34.5826C31.9625 33.5482 33.092 32.7216 34.5104 32.1921C33.2364 31.0556 32.6529 29.6736 32.9206 27.9958C33.1038 26.8463 33.6873 25.9211 34.6113 25.219C36.4136 23.85 38.9521 24.1012 40.496 25.7779C41.8451 27.242 42.3453 30.0423 40.0769 32.1252C40.7872 32.5678 41.5516 32.9635 42.2232 33.4801C43.5828 34.5263 44.4916 35.9012 44.9354 37.5696C44.9413 37.5895 44.9777 37.6013 45 37.6177V38.584L45.0023 38.5828ZM22.5003 43.5917C24.8426 43.5917 27.185 43.5952 29.5274 43.5893C30.543 43.587 31.4107 42.9095 31.4553 41.9784C31.5011 41.0192 31.5328 40.0341 31.3731 39.0936C30.745 35.3892 27.8601 32.5631 24.0795 31.8457C20.5454 31.1741 16.7905 32.839 14.845 35.9211C13.766 37.6306 13.4055 39.494 13.503 41.4923C13.5676 42.8261 14.2779 43.5905 15.6047 43.5917C17.9036 43.594 20.2013 43.5917 22.5003 43.5917V43.5917ZM22.4956 21.8563C20.1462 21.8622 18.2711 23.7525 18.2805 26.1066C18.2899 28.4173 20.2002 30.3147 22.5108 30.31C24.8426 30.3041 26.7389 28.3856 26.7259 26.0479C26.713 23.722 24.825 21.8516 22.4944 21.8575L22.4956 21.8563ZM32.9347 39.0149H33.3057C36.3056 39.0149 39.3055 39.0149 42.3054 39.0149C42.4369 39.0149 42.5695 39.022 42.6999 39.0091C43.3186 38.9492 43.7401 38.3762 43.5464 37.7891C42.7257 35.3012 41.0314 33.7196 38.4589 33.25C35.8183 32.7674 33.6251 33.6551 31.9637 35.7849C31.8944 35.8742 31.8686 36.0538 31.9073 36.1618C32.2314 37.0941 32.5742 38.0193 32.9359 39.0161L32.9347 39.0149ZM12.0858 39.0149C12.4193 38.0674 12.7022 37.1798 13.0498 36.318C13.1613 36.0409 13.146 35.8777 12.9699 35.6652C11.3027 33.6363 9.1552 32.7886 6.58388 33.2418C4.09709 33.6809 2.41926 35.1791 1.53633 37.5461C1.20522 38.4349 1.62673 39.0138 2.58012 39.0149C4.99411 39.0173 7.40928 39.0149 9.82328 39.0149H12.0846H12.0858ZM10.7391 28.7179C10.7356 27.0624 9.41116 25.7427 7.75448 25.745C6.11188 25.7473 4.76516 27.0952 4.76986 28.7331C4.77455 30.3675 6.13536 31.7213 7.76857 31.7166C9.41116 31.7119 10.7438 30.3675 10.7391 28.7179V28.7179ZM34.2697 28.705C34.2615 30.357 35.5859 31.706 37.2273 31.7166C38.8605 31.7272 40.2248 30.3828 40.2401 28.7461C40.2553 27.1129 38.9063 25.7509 37.2684 25.745C35.6093 25.7391 34.2791 27.0518 34.2708 28.705H34.2697Z" fill="white"/>
<path d="M45.0027 11.1612C44.7796 11.4042 44.58 11.6743 44.3299 11.8833C43.555 12.5302 42.766 13.1607 41.9723 13.7842C41.7844 13.9321 41.7386 14.0566 41.8079 14.2984C42.1073 15.3364 42.3774 16.3825 42.6556 17.4263C42.8071 17.9946 42.7061 18.3621 42.3257 18.6427C41.9582 18.9139 41.5332 18.8998 41.0635 18.5934C40.17 18.0098 39.273 17.4322 38.39 16.8334C38.1634 16.6796 38.0026 16.6737 37.7724 16.8287C36.8895 17.4263 35.9925 18.004 35.0978 18.5852C34.6188 18.8963 34.2008 18.9127 33.8344 18.6509C33.4599 18.3832 33.3413 17.9899 33.4892 17.4392C33.764 16.4095 34.0376 15.3798 34.3334 14.356C34.4156 14.073 34.3593 13.911 34.1268 13.7313C33.2932 13.0867 32.4772 12.4198 31.6588 11.7576C31.188 11.3772 31.0447 10.9909 31.2115 10.5389C31.3946 10.0458 31.7915 9.87904 32.2834 9.85791C33.3507 9.81212 34.418 9.75224 35.4864 9.71584C35.7459 9.70762 35.8645 9.60665 35.9514 9.3683C36.3212 8.35386 36.7169 7.34998 37.0915 6.33672C37.2605 5.87998 37.5564 5.59585 38.0519 5.56884C38.5074 5.54418 38.8479 5.80836 39.0511 6.33554C39.4397 7.34294 39.8283 8.35034 40.1982 9.3636C40.2862 9.60665 40.4072 9.70527 40.6667 9.71349C41.6905 9.74872 42.7131 9.82151 43.737 9.84499C44.3334 9.85791 44.7714 10.0622 45.0015 10.6317V11.1588L45.0027 11.1612ZM40.9543 16.7923C40.9754 16.8099 40.9966 16.8263 41.0177 16.8439C41.0118 16.8111 41.006 16.7794 41.0001 16.7465C40.7829 15.9281 40.5845 15.1039 40.3438 14.2926C40.17 13.7055 40.3273 13.2805 40.8075 12.9153C41.4885 12.3964 42.1437 11.8433 42.8963 11.2363C41.9159 11.1835 41.0447 11.1154 40.1747 11.0954C39.5771 11.0813 39.2307 10.8019 39.0346 10.2571C38.7411 9.4411 38.4229 8.6333 38.0871 7.74566C38.0014 7.94761 37.9415 8.07559 37.891 8.20827C37.6292 8.88926 37.3533 9.56555 37.1149 10.2548C36.9236 10.8101 36.5725 11.0813 35.9784 11.0954C35.2023 11.113 34.4285 11.1706 33.6536 11.2152C33.5515 11.2211 33.4505 11.2492 33.3037 11.2751C33.9342 11.7823 34.4861 12.2919 35.1025 12.7063C35.841 13.2042 36.0218 13.7912 35.7213 14.6248C35.4676 15.327 35.3244 16.069 35.1025 16.9026C35.9126 16.3743 36.6324 15.9293 37.3251 15.4456C37.837 15.0874 38.2996 15.0816 38.8174 15.4338C39.516 15.9082 40.2416 16.3426 40.9555 16.7946L40.9543 16.7923Z" fill="white"/>
<path d="M22.7667 0C23.1201 0.245391 23.2329 0.578842 23.2141 1.0074C23.1847 1.72244 23.2094 2.43865 23.2047 3.15487C23.2012 3.67265 22.937 3.9744 22.5014 3.9744C22.0658 3.9744 21.8028 3.67383 21.7993 3.15487C21.7946 2.43865 21.8192 1.72244 21.7899 1.0074C21.7723 0.578842 21.8826 0.245391 22.2372 0.00117412H22.7644L22.7667 0Z" fill="white"/>
<path d="M10.4503 18.8329C10.3447 18.7848 10.1087 18.7073 9.90553 18.5781C9.01907 18.0122 8.13378 17.4416 7.26493 16.8498C7.02424 16.6854 6.86338 16.6678 6.61212 16.8393C5.74444 17.4334 4.85681 17.9981 3.97387 18.5711C3.46782 18.8998 3.04631 18.9233 2.67646 18.6392C2.24086 18.3046 2.21621 17.8737 2.3571 17.3782C2.64828 16.3532 2.90307 15.3176 3.19895 14.2949C3.2694 14.0507 3.21656 13.9274 3.03222 13.7807C2.18216 13.1102 1.34266 12.4269 0.499641 11.7483C0.0499527 11.3855 -0.0921161 11.0074 0.0569974 10.5694C0.227245 10.0693 0.611183 9.88259 1.10549 9.86028C2.1575 9.81214 3.21069 9.75578 4.26388 9.72173C4.56445 9.71234 4.72531 9.61606 4.83098 9.31431C5.17382 8.33744 5.55893 7.37584 5.91469 6.40249C6.09081 5.9211 6.37847 5.58882 6.91974 5.56769C7.38234 5.55008 7.70992 5.82599 7.92714 6.38957C8.29816 7.35587 8.68679 8.31748 9.02612 9.29435C9.13766 9.61606 9.29969 9.71351 9.6167 9.7229C10.6699 9.75578 11.7231 9.80275 12.7739 9.8638C13.5723 9.90959 14.0443 10.519 13.7895 11.187C13.7062 11.4042 13.5218 11.605 13.3375 11.7588C12.5156 12.441 11.6855 13.1138 10.8401 13.7642C10.6229 13.931 10.5983 14.0848 10.6628 14.3196C10.9634 15.4021 11.2652 16.4847 11.5458 17.5731C11.7184 18.2423 11.2558 18.8329 10.4492 18.8306L10.4503 18.8329ZM4.05841 16.797C4.80867 16.3203 5.56128 15.8471 6.30685 15.3634C6.71897 15.0957 7.12169 15.0804 7.53498 15.3528C8.0105 15.6663 8.48954 15.9751 8.96858 16.2862C9.2492 16.4682 9.53099 16.6491 9.90905 16.8944C9.65544 15.9481 9.45584 15.1274 9.2128 14.3184C9.03199 13.7184 9.1764 13.2781 9.67658 12.9013C10.3599 12.3858 11.0139 11.8328 11.7559 11.2352C10.8354 11.1859 10.0194 11.1013 9.20341 11.1084C8.45314 11.1154 8.04925 10.7843 7.82264 10.0916C7.5702 9.32018 7.25319 8.57109 6.93031 7.72338C6.58629 8.63215 6.26928 9.44112 5.97457 10.2571C5.77732 10.8007 5.43095 11.0814 4.83333 11.0955C3.96213 11.1154 3.09328 11.1835 2.11406 11.2363C2.88781 11.861 3.57467 12.421 4.26857 12.9717C4.67834 13.2969 4.8298 13.6844 4.68069 14.2069C4.43999 15.0487 4.231 15.9 4.00792 16.7465C4.00205 16.7794 3.99618 16.8123 3.99031 16.8451L4.05958 16.797H4.05841Z" fill="white"/>
<path d="M26.019 18.8329C25.9133 18.7847 25.6773 18.7072 25.4753 18.5769C24.5771 18.0016 23.6848 17.4169 22.8007 16.8216C22.5893 16.6795 22.4379 16.6701 22.2183 16.8193C21.3354 17.4169 20.4383 17.9934 19.5437 18.5746C19.0376 18.9033 18.6138 18.9245 18.2463 18.6356C17.8353 18.3139 17.7813 17.903 17.9199 17.4157C18.2134 16.3919 18.4647 15.3551 18.7652 14.3336C18.8474 14.0542 18.7781 13.9157 18.5668 13.7501C17.7261 13.0914 16.9019 12.4128 16.0671 11.7459C15.6949 11.4488 15.4765 11.1001 15.6233 10.6058C15.7653 10.1256 16.0871 9.89428 16.687 9.86258C17.7543 9.8074 18.8204 9.75456 19.8889 9.71934C20.1624 9.70995 20.2963 9.60897 20.3902 9.35184C20.7589 8.3374 21.1463 7.33 21.5326 6.3226C21.7264 5.81773 22.0539 5.56999 22.4989 5.56764C22.9439 5.5653 23.2809 5.81304 23.4735 6.31204C23.8609 7.31943 24.2472 8.32683 24.6171 9.34127C24.7086 9.59136 24.8284 9.70995 25.109 9.71934C26.1469 9.75222 27.186 9.79801 28.2228 9.86493C28.4905 9.88254 28.7899 9.93655 29.0094 10.0774C29.5871 10.4485 29.5836 11.2152 29.0165 11.6836C28.1711 12.3822 27.3175 13.0726 26.4499 13.7431C26.2115 13.9274 26.1739 14.0847 26.255 14.3665C26.5602 15.4174 26.8397 16.4764 27.1168 17.5355C27.2987 18.2329 26.8455 18.8376 26.0213 18.8341L26.019 18.8329ZM19.5237 16.9061C20.3679 16.3543 21.1053 15.8835 21.8297 15.3939C22.2852 15.0863 22.7185 15.0839 23.1729 15.3915C23.7787 15.8001 24.394 16.1958 25.0057 16.5938C25.1278 16.6737 25.2569 16.7429 25.4753 16.8721C25.2112 15.894 24.9834 15.0358 24.7462 14.1798C24.6147 13.7031 24.7368 13.3169 25.1219 13.0092C25.4425 12.7533 25.7618 12.4973 26.0812 12.2402C26.471 11.9267 26.8596 11.6132 27.3293 11.2351C26.3336 11.1823 25.4577 11.1189 24.5807 11.0942C24.003 11.0778 23.6613 10.8066 23.4711 10.277C23.2245 9.59019 22.9545 8.91272 22.695 8.23055C22.6422 8.09318 22.5893 7.95581 22.5013 7.73038C22.1526 8.64619 21.8332 9.4446 21.5444 10.2536C21.3483 10.8031 21.0019 11.0848 20.4066 11.0931C19.748 11.1013 19.0905 11.1506 18.433 11.1846C18.2146 11.1964 17.9974 11.2187 17.6933 11.2422C18.467 11.8645 19.1456 12.421 19.8349 12.9623C20.2658 13.3004 20.3984 13.7067 20.2434 14.2385C19.9992 15.0769 19.7879 15.9246 19.5261 16.9026L19.5237 16.9061Z" fill="white"/>
<path d="M26.5591 7.75032C26.3618 7.59416 26.0718 7.47557 26.0026 7.2795C25.9251 7.05993 25.9509 6.66895 26.1 6.52688C27.0687 5.59698 28.0737 4.70465 29.0858 3.82288C29.3735 3.57162 29.7891 3.66085 30.0239 3.94969C30.2564 4.235 30.2306 4.64829 29.9229 4.93243C29.1609 5.63572 28.386 6.32376 27.6158 7.01767C27.442 7.17382 27.2776 7.34172 27.0898 7.4791C26.9548 7.57772 26.7892 7.63525 26.5603 7.74914L26.5591 7.75032Z" fill="white"/>
<path d="M19.1847 7.00841C19.018 7.21975 18.8982 7.52033 18.7057 7.57786C18.4697 7.64831 18.1033 7.60369 17.9143 7.45575C17.2944 6.97201 16.7284 6.419 16.1426 5.89065C15.795 5.57833 15.444 5.26954 15.1046 4.949C14.7782 4.64021 14.7418 4.23161 14.9954 3.93691C15.269 3.61755 15.68 3.59172 16.0404 3.91108C16.9821 4.74236 17.9155 5.58185 18.8395 6.43309C18.9781 6.56107 19.0438 6.76654 19.1847 7.00841V7.00841Z" fill="white"/>
<path d="M40.9999 16.7466C41.0058 16.7795 41.0116 16.8112 41.0175 16.844C40.9964 16.8264 40.9752 16.81 40.9541 16.7924C40.9694 16.7771 40.9846 16.7618 40.9999 16.7466V16.7466Z" fill="white"/>
<path d="M4.05755 16.7982C4.03407 16.8146 4.01059 16.8299 3.98828 16.8463C3.99415 16.8134 4.00002 16.7806 4.00589 16.7477C4.02351 16.7641 4.04112 16.7806 4.05755 16.7982V16.7982Z" fill="white"/>
</svg>
