<svg width="21" height="20" viewBox="0 0 21 20" fill="none" xmlns="http://www.w3.org/2000/svg">
<path d="M20.001 17.148C19.9853 17.1736 19.9655 17.1976 19.9545 17.2252C19.7609 17.7215 19.4097 17.9652 18.879 17.9652C17.5384 17.9662 16.1973 17.9652 14.8567 17.9652C14.7858 17.9652 14.7153 17.9652 14.6224 17.9652C14.6224 18.1379 14.6235 18.2987 14.6224 18.4594C14.6151 19.3809 13.9968 19.9988 13.0757 19.9993C11.0254 20.0003 8.97516 20.0003 6.92488 19.9993C6.00594 19.9988 5.38757 19.3783 5.38078 18.4568C5.37974 18.3018 5.38078 18.1463 5.38078 17.9657C5.30042 17.9657 5.23154 17.9657 5.16266 17.9657C3.82833 17.9657 2.49401 17.9657 1.15968 17.9657C0.283528 17.9657 -0.19447 17.2858 0.0998434 16.4608C0.45208 15.4729 1.17169 14.7408 2.23101 14.3082C1.64342 13.7785 1.38251 13.132 1.54271 12.3534C1.64499 11.8556 1.91895 11.4595 2.33485 11.1663C3.14839 10.5922 4.26406 10.7378 4.92783 11.495C5.52011 12.1708 5.67353 13.4065 4.67109 14.3051C5.28111 14.5404 5.79407 14.9005 6.21676 15.4161C6.82835 14.5853 7.61162 14.0128 8.60571 13.6825C7.80678 13.0803 7.41749 12.2981 7.51299 11.315C7.58031 10.623 7.91115 10.0579 8.45385 9.6232C9.50952 8.77783 11.0599 8.94586 11.9345 10.0005C12.8054 11.0509 12.7167 12.7171 11.4486 13.6444C11.8698 13.8782 12.3285 14.0802 12.725 14.3682C13.1196 14.6542 13.452 15.0262 13.8219 15.3701C14.2055 14.9104 14.7075 14.543 15.3379 14.3077C14.7717 13.8025 14.5123 13.1884 14.6313 12.4427C14.7127 11.9318 14.9721 11.5206 15.3827 11.2085C16.1838 10.6001 17.312 10.7117 17.9982 11.4569C18.5977 12.1076 18.82 13.3522 17.8119 14.2779C18.1276 14.4747 18.4673 14.6505 18.7658 14.8801C19.3701 15.3451 19.774 15.9562 19.9712 16.6977C19.9738 16.7065 19.99 16.7118 19.9999 16.7191V17.1485L20.001 17.148ZM10 19.3741C11.0411 19.3741 12.0821 19.3757 13.1232 19.3731C13.5746 19.3721 13.9602 19.071 13.9801 18.6572C14.0004 18.2308 14.0145 17.793 13.9435 17.375C13.6643 15.7286 12.3822 14.4726 10.7019 14.1537C9.13119 13.8553 7.46237 14.5952 6.5977 15.965C6.11813 16.7248 5.95793 17.553 6.00124 18.4411C6.02994 19.0339 6.34565 19.3736 6.93532 19.3741C7.95707 19.3752 8.97829 19.3741 10 19.3741ZM9.99795 9.714C8.95377 9.7166 8.1204 10.5568 8.12458 11.603C8.12875 12.63 8.97777 13.4733 10.0047 13.4712C11.0411 13.4686 11.8839 12.6159 11.8781 11.5769C11.8724 10.5432 11.0333 9.71191 9.99743 9.71452L9.99795 9.714ZM14.6376 17.34H14.8025C16.1357 17.34 17.469 17.34 18.8023 17.34C18.8607 17.34 18.9197 17.3432 18.9776 17.3374C19.2526 17.3108 19.44 17.0562 19.3539 16.7953C18.9891 15.6895 18.2361 14.9866 17.0928 14.7779C15.9192 14.5634 14.9444 14.9579 14.206 15.9045C14.1752 15.9441 14.1637 16.024 14.181 16.072C14.325 16.4863 14.4774 16.8975 14.6381 17.3406L14.6376 17.34ZM5.37139 17.34C5.51959 16.9189 5.64535 16.5244 5.79981 16.1414C5.84939 16.0182 5.84261 15.9457 5.76433 15.8513C5.02333 14.9495 4.0689 14.5728 2.92609 14.7742C1.82085 14.9694 1.07515 15.6352 0.68273 16.6872C0.535573 17.0823 0.722911 17.3395 1.14664 17.34C2.21953 17.3411 3.29293 17.34 4.36582 17.34H5.37087H5.37139ZM4.77285 12.7636C4.77128 12.0278 4.18266 11.4413 3.44635 11.4423C2.71631 11.4433 2.11777 12.0424 2.11986 12.7704C2.12194 13.4968 2.72675 14.0984 3.45261 14.0963C4.18266 14.0943 4.77494 13.4968 4.77285 12.7636ZM15.2309 12.7578C15.2272 13.4921 15.8159 14.0916 16.5454 14.0963C17.2712 14.101 17.8776 13.5035 17.8844 12.7761C17.8912 12.0502 17.2916 11.4449 16.5636 11.4423C15.8263 11.4397 15.2351 12.0231 15.2314 12.7578H15.2309Z" fill="#DA3D5D"/>
<path d="M20.0012 4.96055C19.9021 5.06857 19.8134 5.18859 19.7022 5.28148C19.3578 5.56901 19.0071 5.84923 18.6544 6.12633C18.5709 6.19208 18.5505 6.24739 18.5813 6.35489C18.7144 6.81619 18.8344 7.28114 18.9581 7.74505C19.0254 7.99762 18.9805 8.16095 18.8114 8.28567C18.6481 8.40621 18.4592 8.39995 18.2505 8.26375C17.8534 8.0044 17.4547 7.74766 17.0623 7.48152C16.9615 7.41316 16.8901 7.41056 16.7878 7.47944C16.3954 7.74505 15.9967 8.00179 15.599 8.2601C15.3861 8.39838 15.2004 8.40569 15.0376 8.28932C14.8711 8.17034 14.8184 7.99553 14.8841 7.75079C15.0062 7.29314 15.1278 6.8355 15.2593 6.38046C15.2959 6.2547 15.2708 6.18268 15.1675 6.10284C14.797 5.81636 14.4343 5.51996 14.0706 5.22564C13.8613 5.05657 13.7977 4.88489 13.8718 4.68398C13.9532 4.46481 14.1296 4.39071 14.3482 4.38132C14.8226 4.36097 15.2969 4.33436 15.7718 4.31818C15.8871 4.31453 15.9398 4.26965 15.9784 4.16372C16.1428 3.71285 16.3187 3.26669 16.4851 2.81635C16.5603 2.61335 16.6918 2.48707 16.912 2.47507C17.1144 2.46411 17.2658 2.58152 17.3561 2.81582C17.5288 3.26356 17.7015 3.71129 17.8659 4.16163C17.905 4.26965 17.9588 4.31348 18.0741 4.31713C18.5291 4.33279 18.9836 4.36514 19.4387 4.37558C19.7038 4.38132 19.8984 4.47212 20.0007 4.72521V4.95951L20.0012 4.96055ZM18.2019 7.46326C18.2113 7.47109 18.2207 7.47839 18.2301 7.48622C18.2275 7.47161 18.2249 7.45752 18.2223 7.44291C18.1258 7.07919 18.0376 6.71287 17.9306 6.35228C17.8534 6.09136 17.9233 5.90246 18.1367 5.74017C18.4394 5.50952 18.7306 5.26374 19.0651 4.99395C18.6293 4.97047 18.2421 4.9402 17.8554 4.93133C17.5898 4.92507 17.4359 4.80087 17.3487 4.55874C17.2183 4.19607 17.0769 3.83705 16.9276 3.44254C16.8895 3.5323 16.8629 3.58918 16.8405 3.64815C16.7241 3.95081 16.6015 4.25138 16.4956 4.5577C16.4105 4.80453 16.2545 4.92507 15.9904 4.93133C15.6455 4.93916 15.3016 4.96473 14.9572 4.98456C14.9118 4.98717 14.8669 4.99969 14.8017 5.01117C15.0819 5.2366 15.3272 5.46308 15.6011 5.64728C15.9294 5.86854 16.0097 6.12946 15.8761 6.49996C15.7634 6.81201 15.6998 7.14181 15.6011 7.51231C15.9612 7.27749 16.2811 7.07971 16.589 6.86472C16.8165 6.70556 17.0221 6.70295 17.2522 6.8595C17.5627 7.07032 17.8852 7.2634 18.2025 7.4643L18.2019 7.46326Z" fill="#DA3D5D"/>
<path d="M10.1185 0C10.2756 0.109063 10.3257 0.257263 10.3174 0.447732C10.3043 0.765528 10.3153 1.08385 10.3132 1.40216C10.3116 1.63229 10.1942 1.7664 10.0006 1.7664C9.80702 1.7664 9.69013 1.63281 9.68856 1.40216C9.68647 1.08385 9.69743 0.765528 9.68439 0.447732C9.67656 0.257263 9.72561 0.109063 9.8832 0.000521832H10.1175L10.1185 0Z" fill="#DA3D5D"/>
<path d="M4.64459 8.37013C4.59762 8.34874 4.49274 8.3143 4.40246 8.25689C4.00848 8.00537 3.61501 7.75176 3.22886 7.48876C3.12188 7.4157 3.05039 7.40787 2.93872 7.48406C2.55309 7.74811 2.15858 7.99911 1.76616 8.25376C1.54125 8.39988 1.35392 8.41031 1.18954 8.28403C0.99594 8.13531 0.984981 7.94379 1.0476 7.72358C1.17702 7.26802 1.29025 6.80777 1.42175 6.35325C1.45306 6.24471 1.42958 6.18992 1.34765 6.12469C0.969848 5.82672 0.596738 5.52302 0.222063 5.2214C0.0222012 5.06015 -0.0409405 4.89212 0.0253322 4.69748C0.100998 4.47518 0.271637 4.39221 0.491328 4.38229C0.95889 4.3609 1.42697 4.33585 1.89506 4.32072C2.02865 4.31654 2.10014 4.27375 2.1471 4.13964C2.29948 3.70548 2.47064 3.27809 2.62875 2.8455C2.70703 2.63154 2.83488 2.48387 3.07544 2.47447C3.28104 2.46665 3.42663 2.58928 3.52317 2.83976C3.68807 3.26922 3.8608 3.6966 4.01161 4.13077C4.06118 4.27375 4.13319 4.31706 4.27409 4.32124C4.74217 4.33585 5.21025 4.35672 5.67729 4.38386C6.03214 4.40421 6.24192 4.67504 6.12868 4.97196C6.09163 5.0685 6.0097 5.15773 5.92777 5.22609C5.56249 5.52928 5.19356 5.82829 4.81784 6.11738C4.7213 6.19148 4.71034 6.25984 4.73904 6.36421C4.87263 6.84534 5.00674 7.32647 5.13146 7.81021C5.20817 8.10765 5.00257 8.37013 4.64407 8.36909L4.64459 8.37013ZM1.80374 7.46527C2.13719 7.25341 2.47168 7.04311 2.80304 6.82812C2.98621 6.70914 3.16519 6.70236 3.34888 6.82342C3.56022 6.96275 3.77313 7.09999 3.98604 7.23828C4.11075 7.31916 4.23599 7.39952 4.40402 7.50859C4.29131 7.08799 4.2026 6.72323 4.09458 6.36369C4.01422 6.09703 4.0784 5.90134 4.3007 5.73384C4.60441 5.50475 4.89507 5.25897 5.22487 4.99336C4.81575 4.97144 4.45308 4.93387 4.0904 4.937C3.75695 4.94013 3.57744 4.79297 3.47673 4.48509C3.36454 4.14225 3.22364 3.80932 3.08014 3.43256C2.92724 3.83645 2.78635 4.196 2.65537 4.55867C2.5677 4.80028 2.41376 4.925 2.14814 4.93126C1.76095 4.94013 1.37479 4.9704 0.939582 4.99388C1.28347 5.27149 1.58874 5.52041 1.89714 5.76515C2.07926 5.90969 2.14658 6.0819 2.08031 6.31411C1.97333 6.68827 1.88044 7.0666 1.7813 7.44284C1.77869 7.45745 1.77608 7.47206 1.77347 7.48667L1.80426 7.46527H1.80374Z" fill="#DA3D5D"/>
<path d="M11.5641 8.37003C11.5172 8.34864 11.4123 8.31419 11.3225 8.25627C10.9233 8.00057 10.5267 7.7407 10.1338 7.47613C10.0399 7.41299 9.97255 7.40882 9.87497 7.47509C9.48255 7.7407 9.08387 7.99692 8.68624 8.25523C8.46133 8.40134 8.27295 8.41073 8.10961 8.28236C7.92697 8.13938 7.90297 7.95674 7.96454 7.74018C8.095 7.28514 8.20667 6.82436 8.34026 6.37037C8.37679 6.24617 8.346 6.1846 8.25207 6.11102C7.87844 5.81827 7.51212 5.51665 7.14109 5.22025C6.97567 5.08823 6.87861 4.93325 6.94384 4.71355C7.00698 4.50012 7.14996 4.39732 7.41662 4.38323C7.89097 4.35871 8.36479 4.33523 8.83966 4.31957C8.96124 4.3154 9.02073 4.27052 9.06248 4.15624C9.22633 3.70537 9.39854 3.25764 9.57022 2.80991C9.65632 2.58552 9.80191 2.47542 9.99969 2.47437C10.1975 2.47333 10.3472 2.58344 10.4328 2.80521C10.605 3.25295 10.7767 3.70068 10.9411 4.15154C10.9818 4.26269 11.035 4.3154 11.1597 4.31957C11.621 4.33418 12.0828 4.35453 12.5436 4.38428C12.6626 4.39211 12.7957 4.41611 12.8932 4.47873C13.15 4.64363 13.1484 4.98438 12.8964 5.1926C12.5207 5.50309 12.1413 5.80992 11.7557 6.10789C11.6497 6.18982 11.633 6.25974 11.669 6.38498C11.8047 6.85202 11.9289 7.32271 12.0521 7.79341C12.1329 8.10337 11.9315 8.37212 11.5652 8.37055L11.5641 8.37003ZM8.67737 7.5137C9.05256 7.26844 9.38027 7.05919 9.70224 6.84158C9.90472 6.70486 10.0973 6.70382 10.2992 6.84054C10.5685 7.02214 10.8419 7.198 11.1138 7.3749C11.1681 7.41038 11.2255 7.44117 11.3225 7.49857C11.2051 7.06389 11.1039 6.68243 10.9985 6.30201C10.94 6.09015 10.9943 5.91846 11.1655 5.78174C11.3079 5.66798 11.4499 5.55423 11.5918 5.43994C11.765 5.30062 11.9378 5.16129 12.1465 4.99326C11.704 4.96977 11.3147 4.94159 10.9249 4.93064C10.6682 4.92333 10.5163 4.80279 10.4318 4.56744C10.3222 4.26217 10.2022 3.96107 10.0868 3.65789C10.0634 3.59683 10.0399 3.53578 10.0007 3.43559C9.84575 3.84262 9.70381 4.19746 9.57544 4.557C9.48829 4.80122 9.33435 4.92646 9.06978 4.93011C8.77704 4.93377 8.48481 4.95568 8.19259 4.97082C8.09552 4.97604 7.99899 4.98595 7.86383 4.99639C8.20772 5.27296 8.50934 5.52031 8.81565 5.76087C9.00716 5.91116 9.06613 6.09171 8.99725 6.3281C8.88871 6.70069 8.79478 7.07745 8.67841 7.51214L8.67737 7.5137Z" fill="#DA3D5D"/>
<path d="M11.8041 3.44445C11.7165 3.37505 11.5876 3.32234 11.5568 3.2352C11.5223 3.13761 11.5338 2.96384 11.6001 2.9007C12.0306 2.48741 12.4773 2.09082 12.9271 1.69892C13.055 1.58725 13.2397 1.62691 13.344 1.75528C13.4474 1.88209 13.4359 2.06577 13.2992 2.19205C12.9605 2.50463 12.6161 2.81042 12.2738 3.11883C12.1965 3.18823 12.1235 3.26285 12.04 3.32391C11.98 3.36774 11.9064 3.39331 11.8046 3.44393L11.8041 3.44445Z" fill="#DA3D5D"/>
<path d="M8.52664 3.11493C8.45254 3.20886 8.39932 3.34245 8.31374 3.36802C8.20885 3.39933 8.04604 3.3795 7.96202 3.31375C7.68649 3.09875 7.43497 2.85297 7.17458 2.61815C7.02011 2.47934 6.86409 2.3421 6.71328 2.19964C6.56821 2.0624 6.55203 1.8808 6.66475 1.74982C6.78633 1.60788 6.96898 1.5964 7.12918 1.73834C7.54769 2.1078 7.96254 2.48091 8.37323 2.85923C8.4348 2.91611 8.46402 3.00743 8.52664 3.11493Z" fill="#DA3D5D"/>
<path d="M18.222 7.44287C18.2246 7.45748 18.2272 7.47157 18.2298 7.48618C18.2204 7.47836 18.2111 7.47105 18.2017 7.46322C18.2084 7.45644 18.2152 7.44965 18.222 7.44287Z" fill="#DA3D5D"/>
<path d="M1.80325 7.46604C1.79281 7.47335 1.78238 7.48013 1.77246 7.48744C1.77507 7.47283 1.77768 7.45821 1.78029 7.4436C1.78812 7.45091 1.79594 7.45822 1.80325 7.46604Z" fill="#DA3D5D"/>
</svg>
