<svg width="20" height="20" viewBox="0 0 20 20" fill="none" xmlns="http://www.w3.org/2000/svg">
<path fill-rule="evenodd" clip-rule="evenodd" d="M14.8476 5.82503C14.5534 5.40149 13.7668 4.80707 12.4925 5.06303C11.7495 5.21228 11.3049 5.58063 11.0224 6.06525C10.7214 6.58144 10.576 7.28397 10.576 8.10182C10.576 8.56204 10.2029 8.93512 9.74267 8.93512C7.77094 8.93512 5.89435 8.34962 4.31516 6.76498C4.21275 7.33502 4.14129 8.01237 4.17518 8.71471C4.21885 9.61971 4.43525 10.5277 4.94769 11.3052C5.45137 12.0695 6.281 12.7695 7.66721 13.209C7.94361 13.2965 8.1546 13.5215 8.2243 13.803C8.29401 14.0844 8.21241 14.3819 8.00885 14.5884C7.51638 15.0879 7.02108 15.4625 6.51216 15.7591C7.39614 15.8505 8.2476 15.8572 9.03725 15.7858C10.6369 15.6411 11.9113 15.1833 12.7083 14.5365C14.3855 13.1755 15.2837 11.1475 15.1162 7.74942C15.0887 7.19023 15.6272 6.58819 15.8873 6.13101C15.4948 6.20438 15.1015 6.19064 14.8476 5.82503ZM3.82813 4.15403C4.13575 4.11818 4.43789 4.25587 4.61264 4.51156C5.84212 6.31057 7.31885 7.05895 8.95742 7.22922C9.03784 6.52823 9.227 5.8356 9.58259 5.2258C10.1042 4.33109 10.9525 3.67239 12.1643 3.42899C13.8388 3.09266 15.1138 3.69908 15.8537 4.44175L17.3468 4.16262C17.6658 4.103 17.9903 4.23392 18.1787 4.49815C18.3669 4.76238 18.3848 5.11188 18.2243 5.39389L16.7913 7.91229C16.922 11.5468 15.912 14.0832 13.7586 15.8307C12.6163 16.7576 10.9817 17.2834 9.18742 17.4457C7.37915 17.6093 5.33512 17.4115 3.30319 16.8181C2.9467 16.714 2.70212 16.3866 2.70344 16.0153C2.70474 15.6439 2.95163 15.3182 3.30884 15.2166C4.33069 14.926 5.10844 14.6748 5.81148 14.236C4.81276 13.7058 4.07688 13.0126 3.55605 12.2224C2.83216 11.124 2.56374 9.89946 2.51044 8.79504C2.45716 7.69074 2.61674 6.66794 2.78482 5.92975C2.88049 5.50953 2.99225 5.08736 3.14628 4.68407C3.25815 4.3934 3.52051 4.1899 3.82813 4.15403Z" fill="white"/>
</svg>
