<svg width="61" height="60" viewBox="0 0 61 60" fill="none" xmlns="http://www.w3.org/2000/svg">
<path d="M24.4957 59.9969C24.1357 59.6885 23.785 59.3801 23.9948 58.8259C24.2014 58.2812 24.6476 58.2358 25.1422 58.2358C35.6321 58.2405 46.122 58.2389 56.6103 58.2389C57.8909 58.2389 58.2493 57.882 58.2493 56.6062C58.2493 40.8846 58.2493 25.1647 58.2493 9.44315V8.83107H1.75797C1.75797 9.0377 1.75797 9.2459 1.75797 9.45254C1.75797 25.1741 1.75797 40.894 1.75797 56.6156C1.75797 57.8804 2.12115 58.2373 3.40636 58.2373C9.20781 58.2373 15.0093 58.2373 20.8107 58.2373C20.9078 58.2373 21.0064 58.2436 21.1034 58.2373C21.6122 58.1998 22.0631 58.3109 22.2415 58.8447C22.42 59.3801 22.1147 59.7308 21.6827 59.9969H2.22759C1.90042 59.8122 1.5028 59.6932 1.26173 59.4302C0.793669 58.9183 0.414837 58.3281 0 57.7693C0 39.255 0 20.7408 0 2.22655C0.059486 2.13576 0.133061 2.04966 0.173762 1.95104C0.713832 0.659564 1.68283 0.00678349 3.08231 0.00208723C4.48806 -0.00260904 5.89538 0.00208723 7.30113 0.00208723C7.3794 0.00208723 7.45767 -0.00104361 7.53594 0.00365265C8.07288 0.0412228 8.44075 0.404401 8.43449 0.889681C8.4298 1.37496 8.06036 1.7491 7.51872 1.75536C6.05348 1.76945 4.58825 1.75536 3.12458 1.76319C2.21351 1.76788 1.76736 2.22186 1.7611 3.13919C1.75484 3.8812 1.7611 4.62321 1.7611 5.36522C1.7611 5.92251 1.7611 6.4798 1.7611 7.023H58.2509C58.2509 5.81763 58.2509 4.6326 58.2509 3.44602C58.2509 2.09506 57.9143 1.76162 56.5477 1.76162C41.5072 1.76162 26.4666 1.76162 11.426 1.76162C11.2303 1.76162 11.03 1.78354 10.8421 1.74753C10.3615 1.65517 10.0751 1.35618 10.0876 0.855242C10.1001 0.38405 10.3834 0.108536 10.839 0.0177414C10.9705 -0.00887072 11.1114 0.00521807 11.2476 0.00521807C26.4634 0.00521807 41.6809 0.00521807 56.8968 0.00678349C57.1301 0.00678349 57.368 0.0130452 57.595 0.0584424C59.1166 0.365265 60.0089 1.54716 60.0089 3.2519C60.0089 21.0821 60.0089 38.9106 60.0089 56.7408C60.0089 56.8973 60.0183 57.0539 60.0026 57.2089C59.8836 58.444 59.2669 59.319 58.1084 59.7949C57.9237 59.8701 57.7343 59.9327 57.5465 60H24.4957V59.9969Z" fill="black"/>
<path d="M21.9252 49.6009C20.8279 49.7355 19.8009 49.8466 18.7772 49.9907C17.4935 50.1722 16.8924 49.7511 16.7343 48.4722C16.1065 43.4002 15.4898 38.3251 14.8683 33.2516C14.8135 32.807 14.7556 32.3609 14.6898 31.9179C14.5067 30.6655 14.9998 30.0362 16.249 29.8891C18.1103 29.6715 19.9684 29.4335 21.8282 29.2097C24.2687 28.9154 26.7107 28.6195 29.1528 28.3346C30.2439 28.2078 30.8231 28.7103 30.9499 29.8186C31.1722 31.7566 31.4117 33.6915 31.7279 35.653C31.9752 34.9783 32.221 34.3051 32.4683 33.6304C32.8957 32.4658 33.6424 32.1088 34.8086 32.5284C37.9035 33.6414 40.9968 34.7607 44.0885 35.8799C45.2344 36.2948 45.6007 37.0775 45.1811 38.2343C43.9617 41.6016 42.7359 44.9657 41.5133 48.3313C40.9874 49.7793 40.3628 50.0799 38.921 49.5743C38.7598 49.5179 38.5954 49.4756 38.3559 49.4052C38.3559 50.8 38.3559 52.1368 38.3559 53.4753C38.3559 53.8072 38.3653 54.1406 38.334 54.4709C38.2635 55.2223 37.6874 55.8125 36.9407 55.9064C36.7091 55.9361 36.4727 55.9361 36.2394 55.9361C32.1772 55.9377 28.1133 55.9377 24.0511 55.9361C22.5154 55.9361 21.9268 55.3491 21.9268 53.8212C21.9268 52.4358 21.9268 51.052 21.9268 49.6009H21.9252ZM21.9033 45.8924C21.5339 45.9284 21.1895 45.991 20.8466 45.9894C20.3535 45.9894 20.0185 45.7171 19.9559 45.2318C19.8933 44.7465 20.1359 44.3927 20.6259 44.2847C21.0251 44.197 21.4368 44.1767 21.8391 44.1015C21.9988 44.0718 22.1913 44.0154 22.2915 43.9027C22.7298 43.4018 23.2824 43.2609 23.918 43.2656C25.4599 43.2781 27.0019 43.2593 28.5438 43.2781C28.8726 43.2813 29.0213 43.1842 29.1277 42.8696C29.4721 41.8567 29.865 40.8611 30.2126 39.8499C30.2908 39.6229 30.3065 39.3567 30.2799 39.1157C30.0779 37.2951 29.8603 35.4745 29.6443 33.6555C29.505 32.4814 29.3563 31.3073 29.206 30.0895C24.9183 30.6139 20.6885 31.132 16.4384 31.6533C17.1178 37.2106 17.7909 42.713 18.4688 48.2515C19.6569 48.1059 20.7731 47.9681 21.9033 47.8288V45.8939V45.8924ZM36.5635 54.1562V45.0596H23.7145V54.1562H36.5635ZM43.5515 37.5659C40.3831 36.4153 37.293 35.2945 34.1543 34.1564C33.6941 35.4244 33.2463 36.658 32.8033 37.879C32.8675 37.9197 32.8816 37.9353 32.8957 37.9369C32.9928 37.9432 33.0898 37.951 33.1869 37.9479C34.9714 37.8946 36.5196 38.466 37.8158 39.6996C38.3105 40.1708 38.7973 40.6498 39.2998 41.1131C40.0074 41.7659 40.7964 42.27 41.7904 42.4218C42.379 40.7985 42.9535 39.2096 43.55 37.5659H43.5515ZM30.8528 43.2687C31.1456 43.2687 31.3397 43.2687 31.5322 43.2687C33.1712 43.2687 34.8086 43.264 36.4476 43.2703C37.7109 43.2766 38.3434 43.9168 38.3543 45.1848C38.359 45.8282 38.3402 46.4716 38.3653 47.115C38.3715 47.2715 38.4686 47.5032 38.5923 47.5643C38.9507 47.7411 39.3452 47.8507 39.7679 48.001C40.2453 46.6845 40.704 45.4165 41.1345 44.2299C40.3721 43.8354 39.6192 43.5427 38.9805 43.0887C38.2714 42.5831 37.6295 41.9679 37.0284 41.3339C35.7729 40.0142 34.2467 39.5305 32.473 39.7387C32.3165 39.7575 32.0911 39.8796 32.041 40.008C31.6371 41.0568 31.2677 42.1181 30.8544 43.2703L30.8528 43.2687Z" fill="black"/>
<path d="M43.0569 24.8704V12.1967H16.9816V24.8704C17.1851 24.8704 17.3934 24.8704 17.6016 24.8704C22.6203 24.8704 27.639 24.8704 32.6578 24.8704C32.8331 24.8704 33.01 24.861 33.1853 24.8751C33.7379 24.922 34.0964 25.2711 34.0995 25.7533C34.1042 26.2573 33.7238 26.6268 33.1384 26.6268C27.7298 26.6315 22.3197 26.6362 16.9112 26.6237C15.8952 26.6221 15.2112 25.9114 15.1877 24.8657C15.1626 23.7151 15.1798 22.5614 15.1798 21.4108C15.1798 18.424 15.1783 15.4372 15.1798 12.4503C15.1798 11.0227 15.8201 10.3902 17.2603 10.3887C25.7543 10.3887 34.2498 10.3887 42.7438 10.3887C44.1824 10.3887 44.8258 11.0227 44.8258 12.4472C44.8289 16.4891 44.8289 20.5295 44.8258 24.5714C44.8258 25.9991 44.184 26.6299 42.7469 26.6299C40.7557 26.6299 38.7629 26.6346 36.7717 26.6284C36.1236 26.6268 35.7479 26.2981 35.7448 25.7658C35.7417 25.2336 36.1189 24.8986 36.7576 24.8704C36.8938 24.8641 37.0316 24.8704 37.1678 24.8704C38.9257 24.8704 40.6821 24.8704 42.4401 24.8704H43.0553H43.0569Z" fill="black"/>
<path d="M32.2414 18.9406C31.9988 19.7984 31.7577 20.6578 31.5119 21.5157C31.3194 22.1825 30.9672 22.5113 30.4443 22.4878C29.8463 22.4612 29.5645 22.0839 29.4143 21.5423C29.1826 20.7001 28.9212 19.8642 28.5721 19.0063C28.4672 19.5338 28.3607 20.0614 28.259 20.5889C28.1901 20.9521 28.1447 21.3216 28.0586 21.68C27.9224 22.2389 27.553 22.4941 27.0442 22.4142C26.5542 22.336 26.2584 21.9446 26.3523 21.3795C26.6341 19.6888 26.9456 18.0044 27.2462 16.3169C27.2978 16.0289 27.3604 15.744 27.4105 15.4559C27.506 14.9049 27.8269 14.5668 28.3858 14.5433C28.9493 14.5198 29.2765 14.8485 29.4315 15.3792C29.7477 16.4609 30.0733 17.5411 30.4459 18.7887C30.6932 17.9262 30.8998 17.2092 31.1049 16.4922C31.2067 16.1369 31.3069 15.7815 31.4133 15.4277C31.5965 14.8204 31.969 14.4995 32.4809 14.537C33.0773 14.5824 33.3669 14.9566 33.4734 15.5138C33.8006 17.2358 34.1293 18.9562 34.458 20.6766C34.5019 20.9067 34.5567 21.1353 34.5801 21.367C34.6381 21.9415 34.3782 22.3234 33.8898 22.4095C33.3732 22.5003 32.9615 22.2107 32.8441 21.6331C32.6609 20.7377 32.5028 19.836 32.3338 18.9374C32.304 18.9374 32.2727 18.9374 32.243 18.9374L32.2414 18.9406Z" fill="black"/>
<path d="M38.4938 14.3883C39.181 14.6795 39.8949 14.9221 40.5492 15.2759C41.0705 15.5577 41.1597 16.1009 40.8779 16.5282C40.5993 16.9493 40.1109 16.9963 39.5833 16.7427C39.1732 16.5455 38.7255 16.3748 38.2793 16.3247C38.0633 16.2997 37.8128 16.5799 37.5796 16.7208C37.7471 16.893 37.8864 17.1262 38.0899 17.2264C38.5596 17.4581 39.0636 17.6162 39.5458 17.8244C40.7386 18.3394 41.3773 19.3241 41.2035 20.3588C41.0063 21.5345 39.9747 22.422 38.6832 22.4847C37.6266 22.5363 36.6842 22.2123 35.8921 21.4985C35.388 21.0445 35.3097 20.5232 35.6682 20.1162C36.0361 19.6982 36.5104 19.7154 37.0505 20.1725C37.5686 20.6109 38.1557 20.8676 38.8257 20.6594C39.0683 20.5842 39.3861 20.3275 39.4174 20.1162C39.444 19.933 39.1591 19.6152 38.9368 19.4994C38.4406 19.238 37.8958 19.0705 37.3745 18.856C36.2099 18.3754 35.6713 17.5692 35.8216 16.547C35.9844 15.4403 36.8673 14.6591 38.0837 14.5448C38.1995 14.5339 38.3169 14.5448 38.4343 14.5448C38.4547 14.4932 38.475 14.4415 38.4954 14.3899L38.4938 14.3883Z" fill="black"/>
<path d="M22.8159 14.3977C23.4843 14.6356 24.1763 14.8282 24.8165 15.1272C25.3707 15.3871 25.5084 15.9475 25.2361 16.3967C24.9746 16.8272 24.48 16.9525 23.9587 16.6378C22.4981 15.7565 20.8654 16.6989 20.5961 18.0389C20.4083 18.9703 20.7871 19.9002 21.609 20.4011C22.4668 20.9224 23.2715 20.8394 24.0651 20.1475C24.4878 19.7796 24.9684 19.7655 25.3222 20.1115C25.6775 20.459 25.6618 20.9928 25.2815 21.4202C24.2013 22.6365 22.196 22.84 20.6635 21.8898C19.1528 20.9521 18.4437 19.1143 18.9384 17.419C19.4393 15.7017 20.9859 14.537 22.8159 14.3977Z" fill="black"/>
<path d="M5.81706 3.52277C5.9736 3.52277 6.13014 3.50869 6.28512 3.52591C6.77666 3.57913 7.12888 3.96422 7.11636 4.41976C7.1054 4.88156 6.75005 5.24004 6.24911 5.27292C5.97673 5.2917 5.70278 5.28387 5.4304 5.27761C4.79797 5.26352 4.42853 4.92696 4.43792 4.38219C4.44731 3.86091 4.80423 3.54156 5.40848 3.51808C5.54467 3.51338 5.68086 3.51808 5.81706 3.51808C5.81706 3.51808 5.81706 3.52121 5.81706 3.52277Z" fill="black"/>
<path d="M10.061 5.27919C9.1249 5.27919 8.68815 4.99115 8.70223 4.38377C8.71632 3.79673 9.14525 3.51965 10.0391 3.51965C10.1174 3.51965 10.1956 3.51965 10.2724 3.51965C10.9971 3.52748 11.3932 3.84839 11.3822 4.41977C11.3713 4.9708 10.9924 5.27136 10.2943 5.27919C10.216 5.27919 10.1377 5.27919 10.061 5.27919Z" fill="black"/>
<path d="M14.3783 3.5227C14.5348 3.5227 14.6914 3.51018 14.8463 3.52583C15.3379 3.57749 15.6932 3.95945 15.6854 4.41343C15.6776 4.87366 15.3207 5.23997 14.8229 5.27284C14.5129 5.29319 14.1983 5.29006 13.8867 5.27441C13.3467 5.2478 12.996 4.88618 13.0023 4.38994C13.0085 3.91875 13.3467 3.5681 13.8523 3.52427C14.0261 3.50861 14.203 3.52114 14.3783 3.5227Z" fill="black"/>
<path d="M20.6087 43.2421C20.0295 43.2343 19.6569 42.9197 19.6037 42.4547C19.5505 41.9914 19.9011 41.5577 20.4224 41.492C22.3542 41.2478 24.2859 41.0161 26.2192 40.7813C26.6638 40.7265 27.1083 40.6811 27.5545 40.6279C28.2417 40.5465 28.6659 40.8079 28.7286 41.3511C28.7927 41.9115 28.4859 42.2684 27.7815 42.3592C26.0251 42.5878 24.2655 42.7913 22.506 43.0058C21.8485 43.0856 21.1926 43.1686 20.6087 43.2406V43.2421Z" fill="black"/>
<path d="M19.5693 34.994C19.0449 35.0034 18.666 34.6903 18.6175 34.2207C18.5643 33.7041 18.8304 33.3346 19.4033 33.2579C21.2161 33.0153 23.0336 32.8008 24.8494 32.5754C25.4287 32.5034 26.0079 32.4204 26.5871 32.3578C27.2414 32.2874 27.6876 32.5973 27.7408 33.1405C27.7893 33.643 27.4214 34.0281 26.7937 34.1064C24.3798 34.4054 21.9644 34.6997 19.5693 34.994Z" fill="black"/>
<path d="M27.3996 37.8462C27.9913 37.8493 28.3545 38.1593 28.3968 38.6304C28.4406 39.1314 28.1338 39.5259 27.589 39.5963C25.6542 39.8436 23.7162 40.0738 21.7782 40.3086C21.332 40.3634 20.8859 40.4119 20.4398 40.4604C19.7838 40.534 19.3815 40.2898 19.2892 39.7607C19.1937 39.219 19.5224 38.8199 20.2096 38.7306C22.2807 38.4629 24.3533 38.2187 26.4259 37.9651C26.775 37.9229 27.1225 37.879 27.398 37.8446L27.3996 37.8462Z" fill="black"/>
<path d="M20.0404 37.7319C19.3704 37.7475 18.9994 37.4564 18.9493 36.9617C18.8977 36.4451 19.2311 36.0522 19.8087 35.9817C22.1913 35.6906 24.5739 35.4025 26.9565 35.1207C27.5748 35.0472 27.963 35.3055 28.0523 35.8158C28.1415 36.3324 27.8519 36.7519 27.257 36.8302C24.8197 37.1495 22.3792 37.4423 20.042 37.7319H20.0404Z" fill="black"/>
<path d="M27.5296 49.6228C27.5296 49.0374 27.5108 48.4519 27.5327 47.868C27.575 46.7785 28.6504 46.1711 29.5818 46.7409C30.4945 47.2998 31.3821 47.9024 32.2431 48.538C32.9741 49.0781 32.9929 50.1066 32.265 50.6529C31.3789 51.3182 30.46 51.9506 29.5067 52.5126C28.6285 53.0308 27.5797 52.3999 27.5343 51.3777C27.5077 50.7938 27.5296 50.2083 27.528 49.6228H27.5296ZM30.7246 49.6056C30.2205 49.2753 29.7869 48.9888 29.322 48.6836V50.5511C29.8073 50.224 30.2362 49.9359 30.7246 49.6056Z" fill="black"/>
<path d="M40.6993 37.458C41.1971 37.472 41.565 37.8759 41.5384 38.3769C41.504 39.0312 40.9529 39.6918 40.4395 39.6949C39.962 39.6981 39.5613 39.2801 39.5722 38.7901C39.5879 38.0919 40.1389 37.4392 40.6993 37.4564V37.458Z" fill="black"/>
</svg>
