<svg width="35" height="35" viewBox="0 0 35 35" fill="none" xmlns="http://www.w3.org/2000/svg">
<path d="M22.4428 1.38082C22.2873 2.07444 22.1059 2.8974 21.9191 3.71931C20.0542 11.8936 18.1882 20.0679 16.3211 28.2412C15.8872 30.1395 15.4533 32.0368 15.0121 33.9331C14.8671 34.5558 14.4718 34.924 13.9169 34.9907C13.0658 35.0929 12.4108 34.3367 12.6079 33.4585C13.1013 31.2681 13.6061 29.0798 14.1047 26.8905C15.8872 19.0562 17.6688 11.2229 19.4503 3.38867C19.6349 2.57823 19.8091 1.76674 20.0052 0.959427C20.1658 0.299183 20.7436 -0.0773548 21.4154 0.0133898C22.0015 0.0926608 22.448 0.626698 22.4448 1.38082H22.4428Z" fill="black"/>
<path d="M3.2831 19.1949C4.55352 20.1941 5.80934 21.1819 7.06517 22.1697C8.43363 23.2461 9.80419 24.3215 11.1716 25.401C11.5826 25.7254 11.7682 26.1457 11.6566 26.6725C11.5534 27.1627 11.2561 27.5142 10.7721 27.6029C10.3163 27.6863 9.89702 27.4975 9.52883 27.2086C7.82033 25.8704 6.1087 24.5342 4.39811 23.1981C3.13812 22.2135 1.87917 21.2299 0.619175 20.2453C-0.206913 19.5996 -0.20587 18.7089 0.619175 18.059C3.53969 15.7591 6.45707 13.4561 9.38489 11.1645C9.63209 10.9716 9.93248 10.7953 10.2339 10.7317C10.7773 10.6169 11.3103 10.9497 11.5325 11.4483C11.7651 11.9677 11.6472 12.5434 11.1789 12.9273C10.3549 13.6032 9.51318 14.2572 8.67771 14.9195C6.88576 16.3401 5.09278 17.7597 3.28206 19.1939L3.2831 19.1949Z" fill="black"/>
<path d="M31.5745 17.5063C29.1255 15.5714 26.7213 13.6679 24.3087 11.7737C23.8748 11.4337 23.5442 11.054 23.612 10.4689C23.7267 9.478 24.8407 9.02532 25.6521 9.64697C26.6524 10.4136 27.636 11.2032 28.6259 11.9834C30.4731 13.4395 32.3193 14.8976 34.1686 16.3527C34.4804 16.5978 34.7662 16.8575 34.8309 17.2768C34.9175 17.8369 34.6932 18.2531 34.2551 18.5931C32.5081 19.9459 30.7683 21.3082 29.0264 22.6662C27.8477 23.5851 26.6764 24.5134 25.4863 25.4177C24.7238 25.9966 23.7048 25.6013 23.5337 24.672C23.4346 24.1306 23.6704 23.7176 24.0928 23.3869C26.0881 21.8245 28.0793 20.2568 30.0726 18.6912C30.5617 18.3073 31.0488 17.9214 31.5756 17.5063H31.5745Z" fill="black"/>
</svg>
