<svg width="33" height="40" viewBox="0 0 33 40" fill="none" xmlns="http://www.w3.org/2000/svg">
<path d="M26.1744 0C26.3603 0.069461 26.5511 0.126204 26.7301 0.21034C27.6272 0.634932 28.0792 1.35889 28.1242 2.33917C28.1428 2.74029 28.1271 3.14336 28.1271 3.59338C28.7875 3.59338 29.4332 3.59338 30.0789 3.59338C31.9318 3.59338 32.8632 4.53453 32.8055 6.39726C32.7341 8.68556 32.2253 10.8496 30.8831 12.7564C29.894 14.1622 28.585 15.1474 26.9463 15.6757C26.6949 15.7569 26.5305 15.8714 26.4121 16.1179C25.1168 18.8269 23.2443 21.0555 20.776 22.7666C19.9053 23.3702 19.5003 24.1499 19.5257 25.2055C19.556 26.4284 19.5277 27.6533 19.5414 28.8772C19.5423 28.9946 19.6372 29.1814 19.7331 29.2176C21.0803 29.7352 21.768 30.7243 21.8903 32.1878C22.1104 32.1878 22.3403 32.1849 22.5703 32.1878C23.9869 32.2094 24.9867 33.1857 25.0004 34.5935C25.0151 36.0904 25.0073 37.5882 25.0024 39.085C25.0004 39.6945 24.6971 39.9978 24.0857 39.9978C18.9681 40.0007 13.8504 40.0007 8.73284 39.9978C8.10671 39.9978 7.81615 39.6906 7.81419 39.0459C7.81028 37.5745 7.80538 36.1031 7.81517 34.6327C7.82495 33.1945 8.81208 32.2084 10.2453 32.1869C10.4654 32.1839 10.6846 32.1869 10.9311 32.1869C10.9849 31.4609 11.1767 30.8025 11.6355 30.2371C12.0161 29.7675 12.4906 29.4524 13.0424 29.2235C13.147 29.1805 13.2723 29.021 13.2732 28.9134C13.2889 27.5721 13.2899 26.2318 13.2811 24.8905C13.2752 24.0012 12.8555 23.336 12.1315 22.838C10.2757 21.5603 8.72599 19.9784 7.50993 18.0833C7.09023 17.4298 6.74879 16.7254 6.35649 16.0533C6.2792 15.9212 6.15104 15.7716 6.01603 15.7285C3.22389 14.849 1.5715 12.863 0.647965 10.1873C0.196957 8.89003 0.0189025 7.53603 0.000314299 6.16246C-0.0202305 4.60008 0.967877 3.59828 2.542 3.59436C3.24346 3.59241 3.94394 3.59436 4.68649 3.59436C4.68649 3.21477 4.68453 2.85475 4.68649 2.49473C4.69529 1.26497 5.27739 0.470574 6.45138 0.0812009C6.49247 0.0675044 6.52476 0.0283714 6.56193 0C13.1001 0 19.6372 0 26.1754 0L26.1744 0ZM20.3015 32.179C20.2477 31.2858 19.7057 30.7282 18.8213 30.6294C18.251 30.5658 17.9741 30.3026 17.9721 29.7616C17.9653 28.0691 17.9447 26.3766 17.9848 24.6861C18.0132 23.5081 18.5239 22.5347 19.468 21.8059C20.0237 21.3774 20.6058 20.9772 21.1302 20.5135C24.5259 17.51 26.3583 13.7337 26.5403 9.20799C26.6303 6.97252 26.5638 4.73117 26.5618 2.49277C26.5618 1.85979 26.2605 1.56434 25.6207 1.56434C19.4758 1.56238 13.331 1.56238 7.18708 1.56434C6.54726 1.56434 6.24985 1.85979 6.24985 2.49766C6.24789 4.73607 6.21561 6.97643 6.26648 9.21386C6.32127 11.6274 6.96403 13.903 8.10084 16.0357C9.31102 18.3054 10.9889 20.1584 13.1001 21.621C14.2975 22.4506 14.8523 23.5982 14.8454 25.0422C14.8386 26.5517 14.8444 28.0622 14.8434 29.5718C14.8434 30.3251 14.6497 30.554 13.9111 30.6323C13.0335 30.7252 12.4094 31.5871 12.5454 32.181H20.3005L20.3015 32.179ZM9.37559 38.4149H23.44C23.44 37.1959 23.44 35.9994 23.44 34.8039C23.44 34.0085 23.1817 33.7512 22.3853 33.7502C18.4006 33.7502 14.4149 33.7502 10.4302 33.7502C10.352 33.7502 10.2737 33.7473 10.1954 33.7522C9.7004 33.7845 9.38636 34.074 9.38049 34.5691C9.36679 35.8429 9.37559 37.1176 9.37559 38.4149ZM27.3963 13.7836C27.5157 13.7269 27.6536 13.6926 27.7524 13.6095C28.2866 13.1604 28.8883 12.7613 29.3256 12.23C30.8302 10.4025 31.2167 8.20618 31.2431 5.9169C31.248 5.52949 30.9819 5.20664 30.6091 5.19001C29.7854 5.15381 28.9597 5.17827 28.1271 5.17827C28.1095 8.06139 28.315 10.9337 27.3963 13.7836ZM4.69138 5.15772C3.89209 5.15772 3.13878 5.14598 2.38645 5.16164C1.87478 5.1724 1.56368 5.49818 1.56661 6.00887C1.56857 6.42465 1.59107 6.8424 1.63216 7.25623C1.78967 8.85285 2.19078 10.3732 3.09475 11.7252C3.67392 12.591 4.41353 13.2847 5.41729 13.7464C4.52604 10.9455 4.68649 8.06824 4.69138 5.15675V5.15772Z" fill="#DA3D5D"/>
<path d="M12.2294 15.7902C12.3986 14.7855 12.5835 13.7357 12.743 12.6831C12.7645 12.5373 12.7009 12.327 12.5982 12.2233C11.9046 11.5189 11.1933 10.8311 10.4792 10.1473C10.2013 9.88115 10.0526 9.58081 10.1837 9.20709C10.3099 8.84706 10.6132 8.7189 10.9732 8.67096C11.9261 8.5428 12.877 8.39997 13.8299 8.26887C14.0628 8.23659 14.2134 8.15343 14.324 7.9157C14.728 7.04597 15.1722 6.19483 15.589 5.32999C15.7533 4.98855 15.9734 4.73028 16.3736 4.72636C16.7747 4.72245 17.0017 4.97681 17.166 5.31727C17.5838 6.18113 18.022 7.03521 18.43 7.90396C18.5376 8.13289 18.6756 8.23561 18.9192 8.2679C19.8721 8.39508 20.823 8.54085 21.7759 8.66901C22.1486 8.71988 22.4568 8.84706 22.583 9.23448C22.7033 9.60429 22.5468 9.88702 22.2856 10.1394C21.6027 10.7998 20.9335 11.4739 20.2399 12.1235C20.0266 12.324 19.9552 12.5128 20.01 12.8014C20.189 13.7455 20.3358 14.6955 20.5109 15.6405C20.5764 15.9937 20.5138 16.2941 20.2311 16.5152C19.9435 16.7392 19.6245 16.7128 19.3144 16.5504C18.4173 16.0818 17.5192 15.6161 16.6279 15.1367C16.4499 15.0408 16.3178 15.0359 16.1358 15.1348C15.2456 15.6161 14.3504 16.0886 13.4494 16.5484C12.8154 16.8723 12.1942 16.5015 12.2304 15.7912L12.2294 15.7902ZM12.6882 10.0044C13.0932 10.4368 13.4435 10.883 13.8671 11.243C14.369 11.6695 14.5011 12.1372 14.3377 12.7633C14.1978 13.3004 14.1459 13.861 14.0452 14.4685C14.6889 14.13 15.269 13.8395 15.8335 13.5225C16.2121 13.3102 16.5585 13.316 16.9341 13.5274C17.4977 13.8434 18.0759 14.132 18.7167 14.4675C18.6022 13.7935 18.522 13.1908 18.3938 12.5989C18.2833 12.0892 18.4007 11.7047 18.791 11.3447C19.245 10.926 19.6412 10.4456 20.053 10.0015C19.468 9.91833 18.8419 9.81365 18.2109 9.74419C17.7354 9.69136 17.436 9.46634 17.2423 9.02512C16.988 8.44595 16.6837 7.88831 16.3775 7.2749C16.0722 7.89222 15.7719 8.45084 15.5166 9.02903C15.3228 9.47026 15.0205 9.69331 14.5441 9.74516C13.916 9.81365 13.2928 9.91931 12.6882 10.0054V10.0044Z" fill="#DA3D5D"/>
<path d="M14.8327 36.8759C14.3523 36.8759 13.872 36.8818 13.3906 36.8739C12.8594 36.8651 12.5033 36.5442 12.5043 36.0923C12.5053 35.6412 12.8623 35.3184 13.3936 35.3145C14.368 35.3076 15.3414 35.3057 16.3158 35.3145C16.8236 35.3194 17.1709 35.6364 17.1826 36.0756C17.1953 36.5266 16.8363 36.8622 16.3129 36.873C15.8198 36.8827 15.3258 36.8749 14.8327 36.8749V36.8759Z" fill="#DA3D5D"/>
<path d="M20.3103 36.1108C20.3005 36.5188 19.9327 36.8769 19.5267 36.872C19.105 36.868 18.7332 36.4767 18.7557 36.059C18.7782 35.65 19.1549 35.3008 19.5589 35.3164C19.9679 35.3321 20.321 35.7048 20.3113 36.1098L20.3103 36.1108Z" fill="#DA3D5D"/>
</svg>
