<svg width="34" height="40" viewBox="0 0 34 40" fill="none" xmlns="http://www.w3.org/2000/svg">
<path d="M17.5817 0C17.7085 0.0430445 17.8345 0.0876543 17.9613 0.129134C18.9278 0.444532 19.568 1.28351 19.6408 2.34788C19.658 2.59363 19.6432 2.84172 19.6432 3.13051C19.8083 3.13051 19.9476 3.13051 20.0877 3.13051C21.9112 3.13051 23.734 3.12894 25.5575 3.13051C26.8206 3.13207 27.6573 3.93505 27.6189 5.20525C27.6025 5.75309 27.7473 6.04345 28.2638 6.23989C28.6943 6.40346 29.077 6.69381 29.5512 6.9693C29.7594 6.7486 29.9887 6.48798 30.2376 6.24693C31.0578 5.451 32.2255 5.43848 32.9987 6.20858C33.7672 6.97478 33.7625 8.16672 32.9627 8.96969C30.6571 11.2855 28.3452 13.5966 26.0294 15.903C25.1928 16.7357 24.047 16.7357 23.2112 15.9092C22.1374 14.8472 21.0683 13.7797 20.0071 12.7052C19.208 11.8959 19.1979 10.7134 19.9664 9.94406C20.7349 9.17474 21.9144 9.18257 22.7298 9.9785C23.3528 10.5874 23.9578 11.2151 24.5502 11.813C25.8956 10.4567 27.2206 9.12152 28.5651 7.76679C27.9664 7.30817 27.2159 6.97634 26.4012 6.79712C22.5138 5.94014 18.9192 8.67308 18.697 12.6441C18.4927 16.2904 21.6921 19.4326 25.3407 19.1712C28.6035 18.9372 31.0312 16.5064 31.2503 13.2522C31.2808 12.7944 31.5031 12.5526 31.8749 12.5706C32.2443 12.5886 32.4595 12.8531 32.4203 13.3172C32.1707 16.3115 30.6712 18.4489 27.9625 19.7324C27.7113 19.8513 27.6291 19.9711 27.6291 20.2434C27.6369 26.1155 27.6361 31.9875 27.6346 37.8596C27.6346 38.9897 27.0523 39.763 26.0513 39.9641C25.887 39.997 25.7148 39.9985 25.5465 39.9985C17.7203 40.0001 9.89319 40.0009 2.06692 39.9985C0.802976 39.9985 0 39.1901 0 37.9199C0 27.0233 0 16.126 0 5.22795C0 3.93427 0.799063 3.13286 2.08962 3.13129C3.30034 3.12973 4.51185 3.13286 5.72257 3.12973C6.00667 3.12894 6.27432 3.20486 6.34711 3.48817C6.39485 3.67444 6.36198 3.94444 6.25085 4.08923C6.14832 4.22227 5.89318 4.29193 5.70457 4.29506C4.51967 4.31306 3.33478 4.30289 2.14988 4.30445C1.4369 4.30523 1.17472 4.56194 1.17472 5.2616C1.17472 16.1331 1.17472 27.0053 1.17472 37.8768C1.17472 38.5601 1.43847 38.8277 2.11466 38.8277C9.91511 38.8285 17.7156 38.8285 25.516 38.8277C26.1765 38.8277 26.4575 38.5632 26.4583 37.9144C26.4614 32.0815 26.4599 26.2485 26.4599 20.4156C26.4599 20.3671 26.4544 20.3178 26.4497 20.2372C23.7379 20.6629 21.3986 19.9609 19.5172 17.9676C18.1131 16.4798 17.4534 14.6727 17.5285 12.63C17.6944 8.11428 21.8697 4.68794 26.4074 5.559C26.5952 4.72159 26.2752 4.30523 25.4424 4.30445C23.6455 4.30445 21.8478 4.30445 20.0509 4.30445H19.6549C19.6549 4.59559 19.6588 4.86403 19.6549 5.13169C19.6393 6.05988 19.0914 6.62416 18.1718 6.62572C15.2675 6.63198 12.3639 6.6312 9.45962 6.62572C8.54394 6.62416 7.98045 6.04736 7.97654 5.13247C7.97263 4.29897 7.97419 3.46626 7.97654 2.63276C7.97967 1.28116 8.64255 0.422619 9.9605 0.0579144C9.97928 0.052436 9.98946 0.0211309 10.0043 0.00156525C12.5306 0.00156525 15.0578 0.00156525 17.5841 0.00156525L17.5817 0ZM13.8228 5.44865C15.2417 5.44865 16.6614 5.44396 18.0803 5.45256C18.355 5.45413 18.4864 5.37743 18.4817 5.07847C18.4692 4.21914 18.4904 3.35982 18.4731 2.50128C18.4567 1.68421 17.9261 1.17472 17.1043 1.17316C14.9169 1.16846 12.7294 1.16846 10.5428 1.17316C9.68658 1.17472 9.15439 1.70691 9.14892 2.55997C9.14344 3.36686 9.163 4.17453 9.14031 4.98064C9.13013 5.33752 9.23813 5.46039 9.6044 5.4557C11.01 5.43848 12.4164 5.44865 13.8228 5.44865V5.44865ZM24.6183 15.4107C24.8343 15.2855 25.0519 15.2127 25.1983 15.0679C27.5054 12.7756 29.804 10.4739 32.1034 8.17376C32.1582 8.11898 32.2129 8.06184 32.256 7.99767C32.4595 7.69401 32.4164 7.28078 32.1605 7.03347C31.8952 6.77677 31.4992 6.74547 31.1971 6.9693C31.0828 7.05382 30.985 7.16104 30.884 7.262C29.0065 9.13796 27.1298 11.0147 25.2523 12.8914C24.7201 13.4236 24.5166 13.426 23.9946 12.904C23.3043 12.2145 22.6179 11.5203 21.923 10.8363C21.5583 10.4778 21.1349 10.4582 20.8155 10.7643C20.4829 11.0828 20.4908 11.5289 20.8602 11.9006C21.9136 12.9627 22.9701 14.0223 24.0384 15.0703C24.1855 15.2143 24.4023 15.2871 24.6191 15.4115L24.6183 15.4107Z" fill="#DA3D5D"/>
<path d="M7.36203 23.7971C7.36203 25.1158 6.29374 26.1786 4.97815 26.1685C3.68212 26.1583 2.63418 25.0971 2.63574 23.794C2.63653 22.4917 3.6829 21.4328 4.98128 21.4203C6.28983 21.4078 7.36281 22.4784 7.36203 23.7963V23.7971ZM3.81047 23.7815C3.80421 24.4381 4.32387 24.9804 4.97345 24.9945C5.63555 25.0094 6.18809 24.4616 6.18652 23.7916C6.18496 23.1421 5.64729 22.5981 5.00319 22.595C4.35831 22.5919 3.81595 23.1303 3.80968 23.7815H3.81047Z" fill="#DA3D5D"/>
<path d="M2.63574 16.591C2.63574 15.2872 3.6829 14.2291 4.98049 14.2212C6.3 14.2134 7.36281 15.2715 7.36203 16.5918C7.36203 17.909 6.28435 18.9827 4.97893 18.9663C3.67977 18.9507 2.63652 17.8925 2.63652 16.5902L2.63574 16.591ZM6.18652 16.5785C6.18104 15.925 5.64494 15.3928 4.99536 15.3944C4.34343 15.396 3.8136 15.9289 3.81047 16.5848C3.80734 17.2539 4.36457 17.8096 5.02119 17.7924C5.67077 17.7759 6.192 17.2328 6.18652 16.5785V16.5785Z" fill="#DA3D5D"/>
<path d="M7.36126 30.9111C7.36596 32.2173 6.32585 33.2762 5.02747 33.2856C3.70091 33.2958 2.64045 32.251 2.63576 30.9291C2.63106 29.6088 3.697 28.5405 5.00868 28.5491C6.31254 28.5577 7.35657 29.6065 7.36126 30.9103V30.9111ZM6.18654 30.9111C6.18263 30.256 5.65122 29.7254 4.99929 29.7246C4.33406 29.7246 3.79874 30.2748 3.81048 30.9487C3.82222 31.6029 4.35754 32.1195 5.01651 32.1116C5.67157 32.1038 6.18967 31.5724 6.18576 30.9111H6.18654Z" fill="#DA3D5D"/>
<path d="M13.6296 23.0283C12.1074 23.0283 10.5844 23.0299 9.06216 23.026C8.92129 23.026 8.77337 23.0189 8.63954 22.9782C8.35232 22.8906 8.21927 22.6691 8.24588 22.3811C8.27249 22.0946 8.43763 21.9013 8.73972 21.8646C8.85555 21.8505 8.97373 21.8544 9.09034 21.8544C12.1222 21.8544 15.1549 21.8544 18.1868 21.8544C18.3034 21.8544 18.4224 21.8497 18.5374 21.8661C18.8176 21.9053 18.9796 22.079 19.0172 22.3529C19.0571 22.6448 18.9342 22.8687 18.6564 22.9688C18.5147 23.0197 18.3512 23.026 18.197 23.026C16.6748 23.0299 15.1518 23.0283 13.6296 23.0283V23.0283Z" fill="#DA3D5D"/>
<path d="M13.6344 31.6978C15.1308 31.6978 16.6272 31.6978 18.1244 31.6978C18.2543 31.6978 18.3858 31.6947 18.5141 31.7088C18.8131 31.7424 18.9876 31.9216 19.0189 32.2136C19.0526 32.5235 18.9093 32.7473 18.6057 32.8326C18.4593 32.8741 18.2981 32.8749 18.1439 32.8749C15.1378 32.8772 12.1318 32.8764 9.12571 32.8764C9.03492 32.8764 8.94335 32.8811 8.85257 32.8741C8.47378 32.842 8.22177 32.5845 8.23899 32.2527C8.25621 31.9295 8.49569 31.7041 8.87214 31.7025C10.4601 31.6962 12.0473 31.6994 13.6352 31.6994V31.6978H13.6344Z" fill="#DA3D5D"/>
<path d="M12.4274 15.9056C11.3098 15.9056 10.1915 15.9072 9.07387 15.904C8.93221 15.904 8.74516 15.9338 8.65829 15.8587C8.48846 15.7115 8.29515 15.5151 8.25681 15.3116C8.20593 15.0408 8.39455 14.8193 8.69038 14.7567C8.8156 14.7301 8.94865 14.7309 9.07778 14.7309C11.2879 14.7293 13.4973 14.7301 15.7074 14.7309C15.8115 14.7309 15.9156 14.7293 16.0189 14.7411C16.3507 14.7786 16.5347 14.9751 16.5597 15.3014C16.584 15.6113 16.3531 15.8563 16.0142 15.8986C15.8992 15.9127 15.781 15.9064 15.6636 15.9064C14.5843 15.9064 13.5059 15.9064 12.4266 15.9064L12.4274 15.9056Z" fill="#DA3D5D"/>
<path d="M12.3979 18.6206C11.2278 18.6206 10.0578 18.6253 8.88857 18.6183C8.49099 18.616 8.24212 18.3827 8.2382 18.0454C8.23429 17.7112 8.48551 17.4749 8.87448 17.4475C8.95196 17.442 9.03022 17.4459 9.10849 17.4459C11.3053 17.4459 13.5022 17.4459 15.699 17.4459C15.7898 17.4459 15.8813 17.4404 15.9721 17.4498C16.3368 17.4866 16.5708 17.7261 16.5638 18.0501C16.5567 18.3718 16.3141 18.6144 15.9479 18.6167C14.7653 18.6253 13.582 18.6199 12.3994 18.6199L12.3979 18.6206Z" fill="#DA3D5D"/>
<path d="M12.4116 28.9787C13.5558 28.9787 14.7 28.9772 15.8434 28.9787C16.2934 28.9795 16.565 29.2041 16.5618 29.5626C16.5587 29.9218 16.2871 30.1488 15.8379 30.1495C13.5503 30.1519 11.2619 30.1519 8.97349 30.1495C8.51957 30.1495 8.24721 29.932 8.23547 29.5759C8.22373 29.201 8.49609 28.9795 8.97897 28.9787C10.1232 28.9772 11.2674 28.9787 12.4108 28.9787H12.4116Z" fill="#DA3D5D"/>
<path d="M11.2496 24.561C11.9391 24.561 12.6285 24.561 13.3173 24.561C13.4213 24.561 13.5262 24.5578 13.6287 24.5688C13.9997 24.6079 14.2267 24.8412 14.2204 25.1667C14.2141 25.4923 13.9833 25.713 13.6076 25.7459C13.5043 25.7553 13.3994 25.7506 13.2953 25.7506C11.9164 25.7506 10.5381 25.7506 9.15916 25.7506C9.0809 25.7506 9.00263 25.7537 8.92515 25.7506C8.4994 25.7318 8.23957 25.5111 8.23409 25.1659C8.22862 24.8208 8.48845 24.5821 8.90794 24.5649C9.18029 24.5539 9.45421 24.5625 9.72735 24.5625C10.2345 24.5625 10.7416 24.5625 11.2488 24.5625L11.2496 24.561Z" fill="#DA3D5D"/>
<path d="M5.70482 8.67135C6.32779 8.67135 6.95154 8.66822 7.57451 8.67213C8.02687 8.67448 8.28827 8.89597 8.28592 9.26302C8.28357 9.62537 8.02061 9.84373 7.56591 9.84451C6.33248 9.84764 5.09906 9.84764 3.86564 9.84451C3.43676 9.84294 3.18476 9.62694 3.17615 9.27319C3.16676 8.90379 3.42659 8.67526 3.87504 8.67213C4.48548 8.66822 5.09593 8.67135 5.7056 8.67135H5.70482Z" fill="#DA3D5D"/>
</svg>
