<svg width="41" height="40" viewBox="0 0 41 40" fill="none" xmlns="http://www.w3.org/2000/svg">
<path d="M40.002 34.2958C39.9707 34.3469 39.9311 34.3949 39.9091 34.4502C39.5219 35.4428 38.8196 35.9302 37.7581 35.9302C35.077 35.9322 32.3948 35.9302 29.7136 35.9302C29.5716 35.9302 29.4308 35.9302 29.245 35.9302C29.245 36.2756 29.2471 36.5971 29.245 36.9185C29.2304 38.7616 27.9936 39.9973 26.1516 39.9984C22.051 40.0005 17.9504 40.0005 13.8499 39.9984C12.012 39.9973 10.7753 38.7564 10.7617 36.9133C10.7596 36.6033 10.7617 36.2923 10.7617 35.9312C10.601 35.9312 10.4632 35.9312 10.3254 35.9312C7.65679 35.9312 4.98814 35.9312 2.31949 35.9312C0.567179 35.9312 -0.388818 34.5713 0.199809 32.9213C0.904282 30.9456 2.3435 29.4814 4.46213 28.6162C3.28697 27.5568 2.76514 26.2637 3.08554 24.7066C3.2901 23.7109 3.83802 22.9188 4.66982 22.3323C6.29689 21.1842 8.52825 21.4754 9.85579 22.9898C11.0403 24.3413 11.3472 26.8127 9.34231 28.6099C10.5623 29.0806 11.5883 29.8007 12.4336 30.8319C13.6568 29.1704 15.2234 28.0255 17.2115 27.3648C15.6137 26.1604 14.8351 24.596 15.0261 22.6297C15.1607 21.2458 15.8224 20.1155 16.9078 19.2462C19.0192 17.5554 22.1199 17.8915 23.8691 20.0007C25.6109 22.1016 25.4335 25.434 22.8974 27.2886C23.7397 27.7562 24.657 28.1601 25.4502 28.7362C26.2392 29.3081 26.904 30.0522 27.644 30.74C28.4111 29.8206 29.4151 29.0858 30.6758 28.6151C29.5435 27.6049 29.0248 26.3765 29.2627 24.8851C29.4255 23.8633 29.9442 23.0409 30.7656 22.4168C32.3676 21.1999 34.624 21.4232 35.9964 22.9136C37.1956 24.215 37.6402 26.7042 35.6239 28.5556C36.2553 28.9491 36.9347 29.3008 37.5317 29.76C38.7402 30.6899 39.548 31.9121 39.9425 33.3951C39.9478 33.4128 39.9801 33.4233 39.9999 33.4379V34.2968L40.002 34.2958ZM20.0002 38.7481C22.0823 38.7481 24.1644 38.7512 26.2465 38.746C27.1493 38.7439 27.9206 38.1417 27.9602 37.3141C28.0009 36.4614 28.0291 35.5858 27.8872 34.7498C27.3288 31.457 24.7645 28.9449 21.4039 28.3072C18.2625 27.7103 14.9249 29.1902 13.1955 31.9298C12.2364 33.4494 11.916 35.1057 12.0026 36.882C12.06 38.0676 12.6914 38.747 13.8708 38.7481C15.9143 38.7501 17.9567 38.7481 20.0002 38.7481ZM19.996 19.4277C17.9077 19.433 16.2409 21.1133 16.2493 23.2058C16.2576 25.2597 17.9557 26.9463 20.0096 26.9421C22.0823 26.9369 23.7678 25.2316 23.7563 23.1536C23.7449 21.0861 22.0667 19.4236 19.995 19.4288L19.996 19.4277ZM29.2752 34.6799H29.605C32.2716 34.6799 34.9382 34.6799 37.6047 34.6799C37.7216 34.6799 37.8396 34.6861 37.9554 34.6746C38.5054 34.6214 38.8801 34.1121 38.7079 33.5903C37.9784 31.3787 36.4724 29.9729 34.1857 29.5555C31.8385 29.1265 29.8889 29.9155 28.4121 31.8087C28.3506 31.8881 28.3276 32.0477 28.362 32.1437C28.6501 32.9724 28.9548 33.7948 29.2763 34.6809L29.2752 34.6799ZM10.7429 34.6799C11.0393 33.8376 11.2908 33.0486 11.5998 32.2826C11.6989 32.0363 11.6853 31.8912 11.5288 31.7023C10.0468 29.8988 8.13792 29.1453 5.85229 29.5482C3.64181 29.9385 2.15042 31.2702 1.36558 33.3742C1.07127 34.1643 1.44594 34.6788 2.2934 34.6799C4.43917 34.6819 6.58599 34.6799 8.73176 34.6799H10.7419H10.7429ZM9.54582 25.5269C9.54269 24.0554 8.36544 22.8823 6.89283 22.8844C5.43274 22.8865 4.23566 24.0846 4.23983 25.5405C4.24401 26.9933 5.45361 28.1966 6.90535 28.1924C8.36544 28.1883 9.55 26.9933 9.54582 25.5269ZM30.4619 25.5154C30.4546 26.9839 31.6318 28.183 33.0909 28.1924C34.5426 28.2018 35.7554 27.0068 35.7689 25.552C35.7825 24.1002 34.5833 22.8896 33.1274 22.8844C31.6527 22.8791 30.4702 24.046 30.4629 25.5154H30.4619Z" fill="#DA3D5D"/>
<path d="M40.0023 9.92111C39.804 10.1371 39.6266 10.3772 39.4043 10.563C38.7155 11.138 38.0141 11.6985 37.3086 12.2527C37.1416 12.3842 37.1009 12.4948 37.1625 12.7098C37.4286 13.6324 37.6687 14.5623 37.916 15.4901C38.0507 15.9952 37.9609 16.3219 37.6228 16.5713C37.2961 16.8124 36.9183 16.7999 36.5008 16.5275C35.7066 16.0088 34.9092 15.4953 34.1244 14.963C33.923 14.8263 33.78 14.8211 33.5754 14.9589C32.7906 15.4901 31.9932 16.0036 31.198 16.5202C30.7722 16.7968 30.4006 16.8114 30.075 16.5786C29.7421 16.3407 29.6367 15.9911 29.7682 15.5016C30.0124 14.5863 30.2555 13.671 30.5185 12.7609C30.5916 12.5094 30.5415 12.3654 30.3349 12.2057C29.5939 11.6327 28.8685 11.0399 28.1411 10.4513C27.7226 10.1131 27.5952 9.76978 27.7434 9.36797C27.9063 8.92963 28.259 8.78143 28.6963 8.76264C29.645 8.72194 30.5937 8.66871 31.5434 8.63636C31.7741 8.62905 31.8795 8.5393 31.9567 8.32743C32.2855 7.42571 32.6372 6.53337 32.9701 5.63269C33.1204 5.22671 33.3834 4.97414 33.8238 4.95014C34.2288 4.92822 34.5314 5.16304 34.712 5.63165C35.0574 6.52711 35.4029 7.42258 35.7316 8.32326C35.8099 8.5393 35.9174 8.62696 36.1481 8.63427C37.0581 8.66558 37.9672 8.73029 38.8773 8.75116C39.4074 8.76264 39.7967 8.94424 40.0013 9.45042V9.91902L40.0023 9.92111ZM36.4038 14.9265C36.4226 14.9422 36.4413 14.9568 36.4601 14.9724C36.4549 14.9432 36.4497 14.915 36.4445 14.8858C36.2514 14.1584 36.075 13.4257 35.8611 12.7046C35.7066 12.1827 35.8464 11.8049 36.2733 11.4803C36.8786 11.019 37.461 10.5275 38.13 9.9879C37.2585 9.94094 36.4841 9.8804 35.7108 9.86266C35.1795 9.85014 34.8717 9.60175 34.6974 9.11749C34.4365 8.39214 34.1536 7.6741 33.8551 6.88509C33.779 7.0646 33.7257 7.17836 33.6808 7.29629C33.4481 7.90162 33.2029 8.50277 32.991 9.1154C32.8209 9.60905 32.5088 9.85014 31.9807 9.86266C31.2909 9.87832 30.6031 9.92946 29.9143 9.96912C29.8235 9.97433 29.7337 9.99938 29.6033 10.0223C30.1637 10.4732 30.6542 10.9262 31.2021 11.2946C31.8586 11.7371 32.0193 12.2589 31.7522 12.9999C31.5267 13.624 31.3994 14.2836 31.2021 15.0246C31.9223 14.555 32.562 14.1594 33.1778 13.7294C33.6328 13.4111 34.044 13.4059 34.5043 13.719C35.1253 14.1406 35.7703 14.5268 36.4048 14.9286L36.4038 14.9265Z" fill="#DA3D5D"/>
<path d="M20.2371 0C20.5512 0.218126 20.6514 0.514526 20.6347 0.895464C20.6086 1.53106 20.6306 2.16769 20.6264 2.80433C20.6233 3.26458 20.3884 3.5328 20.0012 3.5328C19.614 3.5328 19.3803 3.26562 19.3771 2.80433C19.3729 2.16769 19.3949 1.53106 19.3688 0.895464C19.3531 0.514526 19.4512 0.218126 19.7664 0.00104366H20.235L20.2371 0Z" fill="#DA3D5D"/>
<path d="M9.28918 16.7403C9.19525 16.6975 8.98547 16.6286 8.80492 16.5138C8.01695 16.0107 7.23003 15.5035 6.45772 14.9775C6.24377 14.8314 6.10078 14.8157 5.87744 14.9681C5.10617 15.4962 4.31716 15.9982 3.53233 16.5075C3.08251 16.7998 2.70783 16.8206 2.37908 16.5681C1.99188 16.2706 1.96996 15.8876 2.0952 15.4472C2.35403 14.536 2.58051 13.6155 2.84351 12.7065C2.90613 12.4894 2.85916 12.3798 2.69531 12.2494C1.9397 11.6534 1.19348 11.046 0.444126 10.4428C0.0444024 10.1203 -0.0818809 9.78424 0.0506644 9.39496C0.201996 8.95035 0.543274 8.78441 0.982656 8.76458C1.91778 8.72179 2.85395 8.6717 3.79011 8.64143C4.05729 8.63308 4.20027 8.5475 4.2942 8.27928C4.59895 7.41095 4.94127 6.55619 5.2575 5.69099C5.41405 5.26309 5.66975 4.96773 6.15088 4.94895C6.56208 4.93329 6.85327 5.17855 7.04634 5.67951C7.37614 6.53845 7.72159 7.39321 8.02321 8.26154C8.12236 8.5475 8.26639 8.63412 8.54818 8.64247C9.48434 8.6717 10.4205 8.71344 11.3546 8.76771C12.0643 8.80842 12.4838 9.35008 12.2574 9.94392C12.1833 10.137 12.0194 10.3155 11.8555 10.4522C11.125 11.0586 10.3871 11.6566 9.63567 12.2348C9.4426 12.383 9.42068 12.5197 9.47808 12.7284C9.74526 13.6907 10.0135 14.6529 10.2629 15.6204C10.4163 16.2153 10.0051 16.7403 9.28813 16.7382L9.28918 16.7403ZM3.60747 14.9305C4.27437 14.5068 4.94336 14.0862 5.60609 13.6562C5.97241 13.4183 6.33039 13.4047 6.69776 13.6468C7.12044 13.9255 7.54626 14.2 7.97207 14.4766C8.22151 14.6383 8.47199 14.799 8.80805 15.0172C8.58262 14.176 8.40519 13.4465 8.18916 12.7274C8.02843 12.1941 8.1568 11.8027 8.6014 11.4677C9.20882 11.0095 9.79014 10.5179 10.4497 9.98671C9.6315 9.94288 8.90615 9.86774 8.18081 9.874C7.5139 9.88026 7.15488 9.58595 6.95346 8.97018C6.72907 8.2845 6.44728 7.61864 6.16027 6.86511C5.85448 7.67291 5.57269 8.39199 5.31073 9.11734C5.1354 9.60056 4.82751 9.84999 4.29629 9.86252C3.52189 9.88026 2.74958 9.94079 1.87916 9.98776C2.56694 10.543 3.17748 11.0408 3.79429 11.5303C4.15853 11.8194 4.29316 12.1638 4.16061 12.6282C3.94666 13.3765 3.76089 14.1332 3.56259 14.8857C3.55738 14.9149 3.55216 14.9441 3.54694 14.9733L3.60851 14.9305H3.60747Z" fill="#DA3D5D"/>
<path d="M23.1283 16.7403C23.0344 16.6975 22.8246 16.6286 22.6451 16.5128C21.8467 16.0014 21.0535 15.4816 20.2676 14.9525C20.0797 14.8262 19.9451 14.8179 19.7499 14.9504C18.9651 15.4816 18.1677 15.9941 17.3725 16.5107C16.9227 16.8029 16.5459 16.8217 16.2192 16.565C15.8539 16.279 15.8059 15.9137 15.9291 15.4806C16.19 14.5705 16.4133 13.649 16.6805 12.741C16.7536 12.4926 16.692 12.3694 16.5041 12.2223C15.7569 11.6368 15.0242 11.0336 14.2822 10.4408C13.9513 10.1767 13.7572 9.86673 13.8877 9.42735C14.014 9.00049 14.2999 8.79489 14.8332 8.76671C15.7819 8.71766 16.7296 8.6707 17.6793 8.63939C17.9225 8.63104 18.0415 8.54128 18.125 8.31272C18.4527 7.41099 18.7971 6.51553 19.1404 5.62007C19.3126 5.17129 19.6038 4.95108 19.9994 4.94899C20.3949 4.9469 20.6945 5.16712 20.8656 5.61067C21.21 6.50614 21.5534 7.4016 21.8821 8.30333C21.9636 8.52563 22.07 8.63104 22.3194 8.63939C23.242 8.66861 24.1657 8.70931 25.0872 8.7688C25.3252 8.78445 25.5913 8.83246 25.7865 8.9577C26.3 9.2875 26.2968 9.96901 25.7928 10.3854C25.0413 11.0064 24.2826 11.6201 23.5113 12.216C23.2994 12.3799 23.266 12.5197 23.3381 12.7702C23.6094 13.7043 23.8578 14.6457 24.1041 15.5871C24.2659 16.207 23.863 16.7445 23.1304 16.7414L23.1283 16.7403ZM17.3547 15.0277C18.1051 14.5371 18.7605 14.1186 19.4045 13.6834C19.8094 13.41 20.1945 13.4079 20.5984 13.6813C21.137 14.0445 21.6839 14.3962 22.2276 14.75C22.3361 14.821 22.4509 14.8826 22.6451 14.9974C22.4102 14.128 22.2078 13.3651 21.997 12.6043C21.8801 12.1805 21.9886 11.8372 22.3309 11.5637C22.6158 11.3362 22.8997 11.1087 23.1836 10.8801C23.5301 10.6015 23.8755 10.3228 24.293 9.98676C23.408 9.93979 22.6294 9.88343 21.8498 9.86152C21.3363 9.8469 21.0326 9.60582 20.8635 9.13513C20.6444 8.52458 20.4043 7.92239 20.1737 7.31602C20.1267 7.19391 20.0797 7.0718 20.0015 6.87142C19.6915 7.68548 19.4076 8.39517 19.1509 9.11425C18.9766 9.60269 18.6687 9.85317 18.1396 9.86047C17.5541 9.86778 16.9696 9.91161 16.3852 9.94188C16.191 9.95232 15.998 9.97214 15.7277 9.99302C16.4154 10.5462 17.0187 11.0409 17.6313 11.522C18.0143 11.8226 18.1323 12.1837 17.9945 12.6564C17.7774 13.4016 17.5896 14.1552 17.3568 15.0245L17.3547 15.0277Z" fill="#DA3D5D"/>
<path d="M23.6082 6.88915C23.4329 6.75034 23.1751 6.64493 23.1135 6.47064C23.0447 6.27547 23.0676 5.92793 23.2002 5.80165C24.0612 4.97507 24.9546 4.18188 25.8542 3.39809C26.1099 3.17474 26.4794 3.25406 26.6881 3.5108C26.8947 3.76441 26.8718 4.13178 26.5983 4.38435C25.921 5.00951 25.2322 5.62109 24.5475 6.2379C24.3931 6.37671 24.247 6.52595 24.08 6.64806C23.96 6.73573 23.8128 6.78687 23.6093 6.8881L23.6082 6.88915Z" fill="#DA3D5D"/>
<path d="M17.0532 6.22962C16.905 6.41748 16.7985 6.68466 16.6274 6.7358C16.4176 6.79842 16.092 6.75876 15.9239 6.62725C15.3729 6.19727 14.8698 5.7057 14.349 5.23605C14.0401 4.95844 13.7281 4.68395 13.4264 4.39903C13.1363 4.12455 13.1039 3.76135 13.3294 3.49939C13.5725 3.21552 13.9378 3.19256 14.2582 3.47643C15.0953 4.21535 15.925 4.96157 16.7463 5.71822C16.8695 5.83198 16.9279 6.01462 17.0532 6.22962Z" fill="#DA3D5D"/>
<path d="M36.4442 14.8857C36.4494 14.915 36.4546 14.9431 36.4599 14.9724C36.4411 14.9567 36.4223 14.9421 36.4035 14.9264C36.4171 14.9129 36.4306 14.8993 36.4442 14.8857Z" fill="#DA3D5D"/>
<path d="M3.60638 14.9318C3.5855 14.9465 3.56463 14.96 3.5448 14.9746C3.55002 14.9454 3.55524 14.9162 3.56045 14.887C3.57611 14.9016 3.59176 14.9162 3.60638 14.9318Z" fill="#DA3D5D"/>
</svg>
