<svg width="30" height="30" viewBox="0 0 30 30" fill="none" xmlns="http://www.w3.org/2000/svg">
<path fill-rule="evenodd" clip-rule="evenodd" d="M22.2714 8.73625C21.8301 8.10094 20.6503 7.2093 18.7388 7.59324C17.6243 7.81712 16.9574 8.36965 16.5336 9.09658C16.0821 9.87087 15.864 10.9247 15.864 12.1514C15.864 12.8418 15.3044 13.4014 14.614 13.4014C11.6564 13.4014 8.84152 12.5231 6.47274 10.1462C6.31912 11.0012 6.21193 12.0173 6.26277 13.0708C6.32827 14.4283 6.65288 15.7903 7.42153 16.9565C8.17705 18.1029 9.42149 19.153 11.5008 19.8121C11.9154 19.9435 12.2319 20.281 12.3365 20.7031C12.441 21.1253 12.3186 21.5715 12.0133 21.8813C11.2746 22.6305 10.5316 23.1925 9.76824 23.6374C11.0942 23.7745 12.3714 23.7845 13.5559 23.6774C15.9554 23.4604 17.867 22.7736 19.0625 21.8035C21.5783 19.762 22.9255 16.7199 22.6743 11.6228C22.633 10.7841 23.4408 9.88099 23.8309 9.19522C23.2423 9.30528 22.6523 9.28467 22.2714 8.73625ZM5.74219 6.22975C6.20363 6.17597 6.65683 6.3825 6.91895 6.76604C8.76318 9.46455 10.9783 10.5871 13.4361 10.8425C13.5568 9.79104 13.8405 8.7521 14.3739 7.8374C15.1563 6.49534 16.4288 5.50729 18.2465 5.14219C20.7583 4.63769 22.6708 5.54732 23.7805 6.66133L26.0203 6.24263C26.4988 6.1532 26.9855 6.34958 27.268 6.74593C27.5504 7.14228 27.5771 7.66653 27.3364 8.08954L25.187 11.8671C25.383 17.3189 23.868 21.1235 20.6379 23.7448C18.9244 25.1351 16.4725 25.9238 13.7811 26.1673C11.0687 26.4126 8.00268 26.1159 4.95478 25.2259C4.42005 25.0698 4.05318 24.5786 4.05515 24.0216C4.05712 23.4645 4.42744 22.976 4.96325 22.8236C6.49603 22.3878 7.66265 22.0109 8.71722 21.3528C7.21914 20.5574 6.11532 19.5176 5.33408 18.3323C4.24824 16.6846 3.8456 14.8479 3.76567 13.1913C3.68574 11.5348 3.92512 10.0006 4.17723 8.89333C4.32074 8.263 4.48837 7.62974 4.71942 7.0248C4.88723 6.5888 5.28077 6.28355 5.74219 6.22975Z" fill="white"/>
</svg>
