<svg width="60" height="60" viewBox="0 0 60 60" fill="none" xmlns="http://www.w3.org/2000/svg">
<path d="M35.9923 48.0003H15.787C11.6208 48.0003 7.45618 48.0003 3.28993 48.0003C1.22684 48.0003 0 46.7651 0 44.692C0 30.9014 0 17.109 0 3.31831C0 1.20848 1.21683 0 3.34168 0C21.1083 0 38.875 0 56.64 0C58.7915 0 59.9866 1.20514 59.9866 3.37506C59.9866 20.4574 59.9866 37.5413 59.9866 54.6236C59.9866 57.9135 57.8968 59.9983 54.6019 60C50.207 60 45.8121 60 41.4171 60C38.0471 60 35.9923 57.9302 35.9907 54.5418C35.9907 52.3802 35.9907 50.2187 35.9907 48.0003H35.9923ZM57.9703 10.0351H1.99967V10.5608C1.99967 21.9129 1.99967 33.2649 1.99967 44.6169C1.99967 45.7052 2.30346 45.999 3.42514 45.999C14.0661 45.999 24.7087 45.999 35.3497 45.999H35.9923V45.2646C35.9923 39.3273 35.9923 33.3918 35.9923 27.4545C35.9923 24.0628 38.0454 21.998 41.4171 21.998C45.4982 21.998 49.581 22.013 53.6622 21.9897C55.1694 21.9813 56.6533 21.988 57.9686 23.0162V10.0351H57.9703ZM57.9519 51.9863V30.0367H38.027V51.988H57.9519V51.9863ZM57.987 7.97863C57.987 6.45635 57.987 4.99917 57.987 3.54198C57.987 2.25338 57.7383 2.00134 56.4714 2.00134C38.8166 2.00134 21.1617 2.00134 3.5086 2.00134C3.32165 2.00134 3.13136 1.98798 2.94609 2.00801C2.40027 2.0681 2.02637 2.37857 2.01636 2.92439C1.98631 4.60357 2.00467 6.28276 2.00467 7.97863H57.987ZM57.9419 27.982C58.3358 25.338 56.5899 23.9192 54.4083 23.971C50.1001 24.0728 45.787 24.0678 41.4772 23.971C39.3891 23.9242 37.5897 25.4014 38.0554 27.9803H57.9419V27.982ZM58.0771 54.0361H37.9937C37.9937 54.4016 37.9853 54.7321 37.9937 55.0626C38.0404 56.6617 39.304 57.982 40.8997 57.9903C45.6268 58.0137 50.3539 58.0187 55.0793 57.9853C56.3579 57.977 57.3143 57.2959 57.7466 56.0841C57.9703 55.4599 57.9686 54.7555 58.0754 54.0361H58.0771Z" fill="#DA3D5D"/>
<path d="M18.9937 16.0006C23.5321 16.0006 28.0706 16.0006 32.6108 16.0006C33.6807 16.0006 33.9928 16.3077 33.9928 17.3627C33.9928 24.4633 33.9928 31.5656 33.9928 38.6663C33.9928 39.6828 33.6707 40.0016 32.6441 40.0016C23.5455 40.0016 14.4468 40.0016 5.34987 40.0016C4.32166 40.0016 3.99951 39.6845 3.99951 38.6696C3.99951 31.5473 3.99951 24.4249 3.99951 17.3026C3.99951 16.3278 4.33168 16.0006 5.31482 16.0006C9.87499 16.0006 14.4335 16.0006 18.9937 16.0006ZM6.03924 18.0153V35.4314C6.22118 35.1493 6.3447 34.9641 6.46321 34.7754C8.96362 30.7744 11.4624 26.7734 13.9645 22.7741C14.5854 21.7826 15.41 21.786 16.0342 22.7791C17.438 25.0141 18.8351 27.2525 20.2355 29.4908C20.8815 30.5224 21.5275 31.5556 22.2068 32.6406C22.3671 32.4252 22.4923 32.265 22.6091 32.0998C23.4086 30.9597 24.2032 29.8147 25.0077 28.6763C25.6503 27.7666 26.3397 27.7649 26.979 28.6679C27.8186 29.8564 28.6498 31.0515 29.4844 32.245C30.2873 33.3917 31.0918 34.5384 31.9548 35.7719V18.0136H6.03924V18.0153ZM23.185 37.9836C20.4292 33.5786 17.7301 29.2655 14.9943 24.894C12.2352 29.3089 9.53949 33.622 6.81206 37.9836H23.185ZM31.0751 38.0019C29.3459 35.5316 27.6951 33.173 25.9942 30.7444C25.0845 32.0463 24.2215 33.2799 23.3652 34.5034C24.0412 35.5867 24.6822 36.6316 25.3449 37.6614C25.44 37.81 25.6386 37.9853 25.7922 37.9869C27.5131 38.0103 29.234 38.0019 31.0735 38.0019H31.0751Z" fill="#DA3D5D"/>
<path d="M51.0069 34.0061C50.9501 34.2364 50.8984 34.4801 50.8316 34.7171C49.5897 39.0687 48.3462 43.4185 47.1027 47.7701C47.0693 47.8902 47.0309 48.0087 46.9942 48.1273C46.7889 48.7816 46.2931 49.1187 45.7506 48.9752C45.1614 48.8183 44.8843 48.2691 45.0746 47.5881C45.5403 45.929 46.016 44.2731 46.4884 42.6157C47.3213 39.7013 48.1559 36.7869 48.9838 33.8725C49.1224 33.3851 49.3944 33.0496 49.9202 33.0112C50.3843 32.9762 50.7181 33.2015 50.9034 33.6288C50.9518 33.7407 50.9685 33.8659 51.0069 34.0061Z" fill="#DA3D5D"/>
<path d="M41.3818 40.9898C42.425 42.0263 43.3848 42.9794 44.3429 43.9325C44.4614 44.0494 44.5866 44.1612 44.6917 44.2897C45.0806 44.7571 45.0723 45.3029 44.6784 45.6952C44.2828 46.0874 43.7103 46.1191 43.2763 45.6952C41.9359 44.3849 40.6123 43.0595 39.3003 41.7209C38.8563 41.2668 38.8613 40.7277 39.3087 40.272C40.6056 38.9484 41.9176 37.6397 43.2379 36.3411C43.6969 35.8888 44.2778 35.8904 44.6867 36.291C45.109 36.705 45.1007 37.2959 44.6183 37.785C43.5667 38.8482 42.4951 39.8914 41.3801 40.9931L41.3818 40.9898Z" fill="#DA3D5D"/>
<path d="M54.5901 40.9965C53.5018 39.9166 52.482 38.91 51.4671 37.8952C50.9029 37.3293 50.8462 36.7668 51.2919 36.3145C51.7375 35.8621 52.3117 35.9105 52.8726 36.4681C54.0977 37.6849 55.3196 38.905 56.5347 40.1302C57.1473 40.7478 57.1557 41.2419 56.5531 41.8511C55.3096 43.108 54.0577 44.3566 52.8008 45.6001C52.2833 46.1125 51.6875 46.1409 51.2635 45.7069C50.8429 45.2763 50.8879 44.6887 51.4037 44.1696C52.4419 43.1247 53.4902 42.0898 54.5901 40.9948V40.9965Z" fill="#DA3D5D"/>
<path d="M37.4996 6.00068C31.816 6.00068 26.1342 6.00068 20.4507 6.00068C20.242 6.00068 20.0267 6.02572 19.8281 5.98065C19.2989 5.86047 18.9868 5.51662 19.0052 4.96413C19.0235 4.44168 19.3357 4.12453 19.8414 4.02105C20.0217 3.98432 20.2153 4.00435 20.4023 4.00435C31.7893 4.00435 43.1748 4.00435 54.5618 4.00435C54.7287 4.00435 54.8957 3.99434 55.0609 4.0127C55.6051 4.07279 55.9873 4.49175 55.984 5.01086C55.9806 5.52998 55.5951 5.94226 55.0476 5.99734C54.8623 6.0157 54.6737 6.00402 54.4867 6.00402C48.8249 6.00402 43.1631 6.00402 37.5012 6.00402L37.4996 6.00068Z" fill="#DA3D5D"/>
<path d="M5.50658 3.99768C6.5231 3.99768 6.99047 4.30982 6.99548 4.99251C7.00049 5.67687 6.52477 6.00068 5.51993 6.00235C4.47002 6.00235 3.98263 5.67353 4.00099 4.97581C4.01768 4.29479 4.47336 3.99935 5.50658 3.99935V3.99768Z" fill="#DA3D5D"/>
<path d="M9.45428 5.99569C9.26734 5.99569 9.07872 6.01572 8.89511 5.99235C8.35931 5.92559 7.98541 5.48993 8.00044 4.97249C8.01546 4.45338 8.39937 4.04777 8.95019 4.00771C9.30072 3.98267 9.65625 3.98434 10.0068 4.00437C10.5927 4.03776 10.9933 4.45171 10.9949 4.99586C10.9966 5.53834 10.5977 5.95229 10.0135 5.99736C9.82818 6.01238 9.63956 5.99903 9.45428 5.99903C9.45428 5.99903 9.45428 5.99569 9.45428 5.99402V5.99569Z" fill="#DA3D5D"/>
<path d="M13.4885 6.00235C12.4703 6.00235 12.0046 5.69022 11.9996 5.00586C11.9945 4.31983 12.4653 3.99768 13.4751 3.99768C14.5267 3.99768 15.0124 4.32651 14.9957 5.02255C14.979 5.69857 14.5133 6.00069 13.4885 6.00069V6.00235Z" fill="#DA3D5D"/>
<path d="M48.0122 26.9988C47.66 26.9988 47.3061 27.0188 46.954 26.9938C46.3764 26.9537 45.9792 26.5197 45.9925 25.9773C46.0042 25.4581 46.3881 25.0342 46.9389 25.0108C47.6433 24.9824 48.3511 24.9808 49.0554 25.0108C49.6013 25.0358 49.9835 25.4715 49.9868 25.9906C49.9918 26.5081 49.6129 26.942 49.0705 26.9888C48.7199 27.0188 48.3661 26.9938 48.0122 26.9938C48.0122 26.9938 48.0122 26.9938 48.0122 26.9954V26.9988Z" fill="#DA3D5D"/>
<path d="M47.9917 55.0008C48.3239 55.0008 48.656 54.9858 48.9882 55.0041C49.5791 55.0375 49.9797 55.4431 49.988 55.9873C49.9964 56.5297 49.5958 56.9704 49.0149 56.9921C48.3305 57.0188 47.6445 57.0188 46.9618 56.9921C46.3809 56.9687 45.9837 56.5264 45.9954 55.9823C46.0054 55.4381 46.406 55.0375 46.9985 55.0041C47.329 54.9858 47.6629 55.0008 47.995 55.0008H47.9917Z" fill="#DA3D5D"/>
<path d="M25.9907 23.0163C25.9823 24.6738 24.6153 26.0141 22.9461 25.9991C21.3237 25.9841 19.9833 24.6154 19.9967 22.9862C20.01 21.3221 21.3771 19.9817 23.0396 20.0034C24.6704 20.0251 25.9973 21.3788 25.989 23.0163H25.9907ZM23.0262 22.0014C22.4821 21.9864 22.0231 22.412 21.9963 22.9545C21.9696 23.5204 22.4287 23.9994 22.9962 23.9994C23.537 23.9994 23.986 23.5571 23.9943 23.0146C24.0027 22.4721 23.567 22.0165 23.0262 22.0014Z" fill="#DA3D5D"/>
</svg>
